<svg width="58" height="58" viewBox="0 0 58 58" fill="none" xmlns="http://www.w3.org/2000/svg">
<rect width="58" height="58" rx="29" fill="#D41850"/>
<path fill-rule="evenodd" clip-rule="evenodd" d="M45 28.8404C45 28.8868 44.9928 28.9312 44.9821 28.9741C44.9928 29.0175 45.0004 29.0623 45 29.1101C45 30.616 43.4244 31.3946 42.0345 32.0812C41.0477 32.5686 40.0278 33.073 39.7558 33.7088C39.4798 34.3563 39.8693 35.4124 40.2463 36.4346L40.2469 36.4362C40.7727 37.8607 41.3162 39.3342 40.3127 40.3278C39.3308 41.3025 37.8936 40.9719 36.5044 40.6522L36.5024 40.6518C35.5296 40.4277 34.5245 40.1964 33.8514 40.4781C33.1981 40.7527 32.6541 41.604 32.1277 42.4281L32.1273 42.4287C31.3646 43.6222 30.5002 44.9751 29.0004 44.9751C27.4979 44.9751 26.6505 43.5928 25.9027 42.3729L25.9023 42.3724C25.3835 41.5256 24.8467 40.6503 24.1934 40.3764C23.526 40.0964 22.5088 40.3494 21.5251 40.5941L21.5234 40.5945C20.1222 40.9444 18.673 41.3057 17.687 40.3275C16.6919 39.3404 17.1744 37.8605 17.6411 36.4287L17.6414 36.4279C17.9749 35.4056 18.3194 34.3487 18.0406 33.6945C17.7687 33.0566 16.7942 32.5569 15.8521 32.0738L15.8511 32.0733C14.5148 31.3885 13.0004 30.6122 13.0004 29.1097C13.0004 29.0634 13.0076 29.019 13.0182 28.976C13.0076 28.9327 13 28.8879 13 28.8412C13 27.3387 14.5145 26.5624 15.8504 25.8776C16.7936 25.394 17.7682 24.8942 18.0402 24.2561C18.319 23.6018 17.9745 22.5449 17.641 21.523C17.1738 20.0906 16.6914 18.6099 17.687 17.6231C18.6709 16.6463 20.1173 17.0062 21.5171 17.3546L21.523 17.356L21.5271 17.357C22.5096 17.6019 23.5254 17.8551 24.1926 17.5749C24.8463 17.3007 25.3831 16.4253 25.9019 15.5782C26.6495 14.3578 27.4973 12.9751 29 12.9751C30.499 12.9751 31.363 14.3265 32.1257 15.5195L32.1273 15.5221C32.6534 16.3462 33.1973 17.1975 33.8518 17.4721C34.5222 17.753 35.5292 17.5221 36.5024 17.2984C37.893 16.9779 39.3304 16.6479 40.3134 17.6227C41.3158 18.616 40.7727 20.0891 40.2469 21.514L40.2447 21.5202C39.8686 22.5409 39.4802 23.5949 39.7562 24.2422C40.0278 24.8776 41.0477 25.3819 42.0345 25.8693L42.0352 25.8697C43.4253 26.5566 45 27.3348 45 28.8404ZM38.7067 33.2673C39.1431 32.2462 40.3548 31.6473 41.5266 31.0684C42.727 30.4755 43.8608 29.9154 43.8608 29.1082C43.8608 29.0619 43.868 29.0175 43.8787 28.9745C43.868 28.9312 43.8604 28.8864 43.8604 28.8397C43.8604 28.0336 42.7266 27.4732 41.5263 26.8803C40.3544 26.3014 39.1423 25.7025 38.7067 24.6817C38.2555 23.6231 38.7236 22.3537 39.1763 21.126L39.1765 21.1253L39.1775 21.1226C39.598 19.9815 39.9951 18.9041 39.5074 18.4212C38.9717 17.8893 37.8981 18.1362 36.7619 18.3974L36.7599 18.3979L36.7598 18.3979C35.6096 18.6627 34.4204 18.9365 33.4078 18.512C32.4264 18.1 31.7859 17.098 31.1661 16.1286L31.1644 16.1259C30.5004 15.0859 29.8729 14.104 29 14.104C28.1381 14.104 27.525 15.1044 26.8759 16.1639L26.8746 16.166C26.2615 17.1654 25.6278 18.1985 24.6363 18.6141C23.6183 19.0418 22.4162 18.7424 21.2526 18.4526L21.2446 18.4506L21.2417 18.4499C20.0987 18.165 19.0202 17.8962 18.4926 18.4205C17.9897 18.9185 18.3462 20.0126 18.7239 21.1714L18.7247 21.1739C19.1224 22.3928 19.533 23.6527 19.0894 24.6945C18.6575 25.7092 17.4965 26.3043 16.3738 26.8797L16.3734 26.8799C15.2244 27.4686 14.1392 28.025 14.1392 28.8397C14.1392 28.886 14.1319 28.9305 14.1213 28.9734C14.1319 29.0171 14.1395 29.0619 14.1395 29.1086C14.1395 29.9233 15.2252 30.4797 16.3742 31.0684L16.3762 31.0694C17.4981 31.645 18.6577 32.24 19.0897 33.2534C19.5334 34.2956 19.1228 35.5559 18.7251 36.7744L18.7249 36.7749C18.347 37.9345 17.9901 39.0296 18.4926 39.5274C19.0203 40.051 20.0956 39.7836 21.2354 39.5001L21.245 39.4977C22.4119 39.2065 23.6172 38.9059 24.637 39.3346C25.6292 39.75 26.2632 40.7844 26.8759 41.7844L26.8769 41.786C27.526 42.8446 28.1389 43.844 29.0004 43.844C29.8733 43.844 30.5008 42.862 31.1651 41.8225L31.1651 41.8224L31.1659 41.8213C31.7856 40.8514 32.4262 39.8486 33.4078 39.4367C34.4198 39.0124 35.6082 39.2856 36.7577 39.5499L36.7599 39.5504L36.7615 39.5508C37.8978 39.812 38.972 40.059 39.507 39.5274C39.9957 39.044 39.5981 37.9655 39.1774 36.8243L39.1769 36.823L39.1769 36.8229C38.7241 35.5954 38.2558 34.3257 38.7067 33.2673ZM27.6899 31.9607L34.1017 24.8388C34.3118 24.6064 34.6711 24.586 34.9066 24.7936C35.1414 25.0015 35.1619 25.3586 34.9522 25.5913L28.1385 33.1592C28.034 33.2752 27.8863 33.343 27.7294 33.3475C27.7241 33.3479 27.7188 33.3479 27.7134 33.3479C27.5623 33.3479 27.4171 33.2888 27.3104 33.1826L23.6304 29.5335C23.4078 29.3127 23.4078 28.9553 23.6304 28.7346C23.853 28.5138 24.2135 28.5138 24.4361 28.7346L27.6899 31.9607Z" fill="white"/>
<path d="M44.9821 28.9741L44.7395 28.914L44.7246 28.9739L44.7393 29.0338L44.9821 28.9741ZM45 29.1101L44.75 29.1081V29.1101H45ZM42.0345 32.0812L42.1452 32.3054L42.1452 32.3054L42.0345 32.0812ZM39.7558 33.7088L39.5259 33.6105L39.5258 33.6108L39.7558 33.7088ZM40.2463 36.4346L40.0118 36.5211L40.012 36.5215L40.2463 36.4346ZM40.2469 36.4362L40.4815 36.3496L40.4813 36.3492L40.2469 36.4362ZM40.3127 40.3278L40.1368 40.1502L40.1365 40.1504L40.3127 40.3278ZM36.5044 40.6522L36.5604 40.4086L36.5603 40.4086L36.5044 40.6522ZM36.5024 40.6518L36.4463 40.8954L36.4465 40.8954L36.5024 40.6518ZM33.8514 40.4781L33.7549 40.2475L33.7546 40.2477L33.8514 40.4781ZM32.1277 42.4281L32.3382 42.563L32.3384 42.5627L32.1277 42.4281ZM32.1273 42.4287L31.9168 42.2938L31.9166 42.2941L32.1273 42.4287ZM25.9027 42.3729L26.1158 42.2423L26.1156 42.242L25.9027 42.3729ZM25.9023 42.3724L25.6892 42.503L25.6894 42.5033L25.9023 42.3724ZM24.1934 40.3764L24.0966 40.607L24.0968 40.607L24.1934 40.3764ZM21.5251 40.5941L21.5852 40.8368L21.5854 40.8367L21.5251 40.5941ZM21.5234 40.5945L21.4633 40.3519L21.4629 40.352L21.5234 40.5945ZM17.687 40.3275L17.863 40.15H17.863L17.687 40.3275ZM17.6411 36.4287L17.8788 36.5062L17.8789 36.506L17.6411 36.4287ZM17.6414 36.4279L17.4037 36.3504L17.4036 36.3505L17.6414 36.4279ZM18.0406 33.6945L18.2706 33.5965L18.2706 33.5964L18.0406 33.6945ZM15.8521 32.0738L15.7376 32.2961L15.7381 32.2963L15.8521 32.0738ZM15.8511 32.0733L15.9657 31.8511L15.9652 31.8508L15.8511 32.0733ZM13.0182 28.976L13.2609 29.0361L13.2757 28.9763L13.261 28.9164L13.0182 28.976ZM15.8504 25.8776L15.9644 26.1001L15.9645 26.1001L15.8504 25.8776ZM18.0402 24.2561L18.2702 24.3541L18.2702 24.3541L18.0402 24.2561ZM17.641 21.523L17.4033 21.6006L17.4033 21.6006L17.641 21.523ZM17.687 17.6231L17.863 17.8006L17.8631 17.8005L17.687 17.6231ZM21.5171 17.3546L21.5775 17.112L21.5774 17.112L21.5171 17.3546ZM21.523 17.356L21.5835 17.1135L21.5834 17.1134L21.523 17.356ZM21.5271 17.357L21.5875 17.1145L21.5875 17.1145L21.5271 17.357ZM24.1926 17.5749L24.0959 17.3443L24.0958 17.3444L24.1926 17.5749ZM25.9019 15.5782L25.6888 15.4476L25.6888 15.4476L25.9019 15.5782ZM32.1257 15.5195L31.915 15.6542L31.9151 15.6542L32.1257 15.5195ZM32.1273 15.5221L32.338 15.3876L32.3379 15.3874L32.1273 15.5221ZM33.8518 17.4721L33.7551 17.7026L33.7552 17.7026L33.8518 17.4721ZM36.5024 17.2984L36.5584 17.5421L36.5585 17.542L36.5024 17.2984ZM40.3134 17.6227L40.1374 17.8002L40.1374 17.8003L40.3134 17.6227ZM40.2469 21.514L40.0124 21.4275L40.0123 21.4276L40.2469 21.514ZM40.2447 21.5202L40.4792 21.6066L40.4793 21.6066L40.2447 21.5202ZM39.7562 24.2422L39.5262 24.3402L39.5263 24.3404L39.7562 24.2422ZM42.0345 25.8693L42.1456 25.6454L42.1452 25.6452L42.0345 25.8693ZM42.0352 25.8697L41.9241 26.0937L41.9245 26.0938L42.0352 25.8697ZM41.5266 31.0684L41.4159 30.8442L41.4159 30.8442L41.5266 31.0684ZM38.7067 33.2673L38.4768 33.1691L38.4767 33.1694L38.7067 33.2673ZM43.8787 28.9745L44.1213 29.0346L44.1362 28.9748L44.1215 28.9149L43.8787 28.9745ZM41.5263 26.8803L41.4155 27.1044L41.4156 27.1044L41.5263 26.8803ZM38.7067 24.6817L38.4767 24.7797L38.4767 24.7799L38.7067 24.6817ZM39.1763 21.126L39.4108 21.2125L39.411 21.212L39.1763 21.126ZM39.1765 21.1253L38.9419 21.0389L38.9418 21.0392L39.1765 21.1253ZM39.1775 21.1226L38.9429 21.0361L38.9429 21.0361L39.1775 21.1226ZM39.5074 18.4212L39.3312 18.5986L39.3315 18.5989L39.5074 18.4212ZM36.7619 18.3974L36.7059 18.1538L36.7059 18.1538L36.7619 18.3974ZM36.7599 18.3979L36.7039 18.1542L36.7031 18.1544L36.7599 18.3979ZM36.7598 18.3979L36.8158 18.6416L36.8166 18.6414L36.7598 18.3979ZM33.4078 18.512L33.311 18.7425L33.3111 18.7426L33.4078 18.512ZM31.1661 16.1286L30.9554 16.2631L30.9555 16.2633L31.1661 16.1286ZM31.1644 16.1259L31.3751 15.9913L31.3751 15.9913L31.1644 16.1259ZM26.8759 16.1639L27.0889 16.2947L27.0891 16.2945L26.8759 16.1639ZM26.8746 16.166L26.6615 16.0352L26.6615 16.0353L26.8746 16.166ZM24.6363 18.6141L24.5397 18.3835L24.5395 18.3836L24.6363 18.6141ZM21.2526 18.4526L21.313 18.21L21.313 18.21L21.2526 18.4526ZM21.2446 18.4506L21.1842 18.6932L21.1842 18.6932L21.2446 18.4506ZM21.2417 18.4499L21.3022 18.2073L21.3022 18.2073L21.2417 18.4499ZM18.4926 18.4205L18.6685 18.5981L18.6688 18.5978L18.4926 18.4205ZM18.7239 21.1714L18.4862 21.2488L18.4862 21.2489L18.7239 21.1714ZM18.7247 21.1739L18.487 21.2514L18.487 21.2514L18.7247 21.1739ZM19.0894 24.6945L18.8593 24.5966L18.8593 24.5966L19.0894 24.6945ZM16.3738 26.8797L16.2597 26.6573L16.2591 26.6576L16.3738 26.8797ZM16.3734 26.8799L16.4874 27.1024L16.4881 27.1021L16.3734 26.8799ZM14.1213 28.9734L13.8786 28.9133L13.8639 28.9729L13.8784 29.0325L14.1213 28.9734ZM16.3742 31.0684L16.2602 31.2909L16.2603 31.2909L16.3742 31.0684ZM16.3762 31.0694L16.4904 30.847L16.4901 30.8469L16.3762 31.0694ZM19.0897 33.2534L19.3198 33.1555L19.3197 33.1554L19.0897 33.2534ZM18.7251 36.7744L18.9627 36.8521L18.9627 36.852L18.7251 36.7744ZM18.7249 36.7749L18.4873 36.6973L18.4872 36.6975L18.7249 36.7749ZM18.4926 39.5274L18.6687 39.35L18.6686 39.3499L18.4926 39.5274ZM21.2354 39.5001L21.2958 39.7427L21.2958 39.7427L21.2354 39.5001ZM21.245 39.4977L21.3054 39.7403L21.3055 39.7402L21.245 39.4977ZM24.637 39.3346L24.5402 39.5651L24.5405 39.5652L24.637 39.3346ZM26.8759 41.7844L26.6627 41.915L26.6628 41.9151L26.8759 41.7844ZM26.8769 41.786L27.09 41.6553L27.09 41.6553L26.8769 41.786ZM31.1651 41.8225L30.957 41.6838L30.9544 41.6879L31.1651 41.8225ZM31.1651 41.8224L31.3732 41.9611L31.3758 41.957L31.1651 41.8224ZM31.1659 41.8213L30.9552 41.6867L30.9552 41.6867L31.1659 41.8213ZM33.4078 39.4367L33.3111 39.2061L33.311 39.2061L33.4078 39.4367ZM36.7577 39.5499L36.7017 39.7936L36.7019 39.7936L36.7577 39.5499ZM36.7599 39.5504L36.7042 39.7941H36.7042L36.7599 39.5504ZM36.7615 39.5508L36.8175 39.3071L36.8172 39.3071L36.7615 39.5508ZM39.507 39.5274L39.3312 39.3497L39.3308 39.3501L39.507 39.5274ZM39.1774 36.8243L39.412 36.7379L39.4118 36.7374L39.1774 36.8243ZM39.1769 36.823L38.942 36.9084L38.9425 36.9099L39.1769 36.823ZM39.1769 36.8229L39.4118 36.7375L39.4114 36.7364L39.1769 36.8229ZM34.1017 24.8388L33.9163 24.6711L33.9159 24.6715L34.1017 24.8388ZM27.6899 31.9607L27.5139 32.1382L27.7002 32.3229L27.8757 32.1279L27.6899 31.9607ZM34.9066 24.7936L35.0724 24.6064L35.0719 24.606L34.9066 24.7936ZM34.9522 25.5913L34.7665 25.424L34.7664 25.4241L34.9522 25.5913ZM28.1385 33.1592L28.3243 33.3265L28.3243 33.3265L28.1385 33.1592ZM27.7294 33.3475L27.7222 33.0974L27.7117 33.0982L27.7294 33.3475ZM27.3104 33.1826L27.4868 33.0053L27.4864 33.005L27.3104 33.1826ZM23.6304 29.5335L23.4544 29.711V29.711L23.6304 29.5335ZM24.4361 28.7346L24.2601 28.9121L24.2601 28.9121L24.4361 28.7346ZM45.2248 29.0343C45.2387 28.9781 45.25 28.9127 45.25 28.8404H44.75C44.75 28.8608 44.7468 28.8843 44.7395 28.914L45.2248 29.0343ZM45.25 29.1121C45.2506 29.0364 45.2385 28.9696 45.2249 28.9145L44.7393 29.0338C44.7471 29.0653 44.7502 29.0882 44.75 29.1081L45.25 29.1121ZM42.1452 32.3054C42.8338 31.9652 43.6033 31.5864 44.1976 31.0957C44.798 30.5999 45.25 29.9647 45.25 29.1101H44.75C44.75 29.7614 44.4141 30.2685 43.8793 30.7101C43.3383 31.1568 42.625 31.5106 41.9238 31.8571L42.1452 32.3054ZM39.9857 33.8071C40.0905 33.5621 40.3576 33.3112 40.7628 33.0493C41.1607 32.7922 41.6485 32.5507 42.1452 32.3054L41.9238 31.8571C41.4337 32.0991 40.9181 32.3536 40.4914 32.6294C40.0719 32.9005 39.6931 33.2197 39.5259 33.6105L39.9857 33.8071ZM40.4809 36.348C40.291 35.8331 40.1055 35.3291 39.9997 34.8745C39.8921 34.4121 39.8806 34.0535 39.9858 33.8068L39.5258 33.6108C39.3549 34.0116 39.4003 34.5048 39.5127 34.9879C39.6269 35.4788 39.8247 36.0138 40.0118 36.5211L40.4809 36.348ZM40.4813 36.3492L40.4807 36.3476L40.012 36.5215L40.0126 36.5231L40.4813 36.3492ZM40.4885 40.5055C41.0623 39.9374 41.1832 39.2337 41.1017 38.5154C41.0214 37.8088 40.7415 37.0543 40.4815 36.3496L40.0124 36.5227C40.2781 37.2426 40.5328 37.9371 40.6049 38.5718C40.6756 39.1948 40.5666 39.7246 40.1368 40.1502L40.4885 40.5055ZM36.4483 40.8959C37.1363 41.0541 37.8717 41.2246 38.561 41.2254C39.2597 41.2263 39.9368 41.0532 40.4888 40.5053L40.1365 40.1504C39.7067 40.5772 39.1743 40.7262 38.5616 40.7254C37.9395 40.7247 37.2618 40.57 36.5604 40.4086L36.4483 40.8959ZM36.4465 40.8954L36.4485 40.8959L36.5603 40.4086L36.5583 40.4081L36.4465 40.8954ZM33.948 40.7087C34.2256 40.5925 34.594 40.5747 35.037 40.6237C35.4768 40.6724 35.9565 40.7826 36.4463 40.8954L36.5585 40.4082C36.0754 40.2969 35.5662 40.1793 35.092 40.1268C34.6211 40.0746 34.1504 40.082 33.7549 40.2475L33.948 40.7087ZM32.3384 42.5627C32.6034 42.1478 32.8633 41.7415 33.1363 41.4043C33.4114 41.0645 33.679 40.8218 33.9483 40.7086L33.7546 40.2477C33.3705 40.4091 33.0395 40.7293 32.7477 41.0897C32.4537 41.4528 32.1784 41.8842 31.917 42.2935L32.3384 42.5627ZM32.3378 42.5636L32.3382 42.563L31.9172 42.2932L31.9168 42.2938L32.3378 42.5636ZM29.0004 45.2251C29.8354 45.2251 30.4858 44.8452 31.015 44.3283C31.5381 43.8172 31.96 43.1548 32.338 42.5633L31.9166 42.2941C31.532 42.8961 31.1402 43.5069 30.6656 43.9706C30.1969 44.4285 29.6651 44.7251 29.0004 44.7251V45.2251ZM25.6895 42.5036C26.0601 43.1081 26.4737 43.785 26.9909 44.3074C27.5142 44.8358 28.1618 45.2251 29.0004 45.2251V44.7251C28.3365 44.7251 27.8092 44.4232 27.3462 43.9556C26.8771 43.4818 26.4931 42.8576 26.1158 42.2423L25.6895 42.5036ZM25.6894 42.5033L25.6897 42.5039L26.1156 42.242L26.1153 42.2414L25.6894 42.5033ZM24.0968 40.607C24.3635 40.7188 24.6287 40.9649 24.9014 41.3136C25.1716 41.6591 25.428 42.0767 25.6892 42.503L26.1155 42.2417C25.8578 41.8213 25.5864 41.3778 25.2952 41.0055C25.0065 40.6364 24.6766 40.3079 24.29 40.1459L24.0968 40.607ZM21.5854 40.8367C22.0807 40.7135 22.5661 40.5931 23.0095 40.5365C23.4569 40.4793 23.8245 40.4928 24.0966 40.607L24.2901 40.1459C23.8949 39.98 23.4202 39.9799 22.9462 40.0405C22.4682 40.1015 21.9532 40.23 21.4647 40.3515L21.5854 40.8367ZM21.5836 40.8372L21.5852 40.8368L21.4649 40.3514L21.4633 40.3519L21.5836 40.8372ZM17.5109 40.505C18.0666 41.0562 18.7497 41.2215 19.454 41.209C20.1485 41.1966 20.8901 41.0103 21.584 40.8371L21.4629 40.352C20.7555 40.5286 20.0719 40.6979 19.445 40.7091C18.8279 40.7201 18.2934 40.577 17.863 40.15L17.5109 40.505ZM17.4034 36.3512C17.1724 37.0598 16.9241 37.8173 16.8667 38.5246C16.8084 39.2426 16.944 39.9426 17.5109 40.505L17.863 40.15C17.4349 39.7252 17.3142 39.1918 17.3651 38.5651C17.4168 37.9278 17.643 37.2294 17.8788 36.5062L17.4034 36.3512ZM17.4036 36.3505L17.4034 36.3513L17.8789 36.506L17.8791 36.5052L17.4036 36.3505ZM17.8106 33.7925C17.9193 34.0475 17.9161 34.4123 17.8253 34.875C17.7358 35.331 17.5717 35.8356 17.4037 36.3504L17.879 36.5054C18.0446 35.998 18.2195 35.4629 18.3159 34.9713C18.4111 34.4865 18.4407 33.9957 18.2706 33.5965L17.8106 33.7925ZM15.7381 32.2963C16.2124 32.5395 16.6776 32.7785 17.0585 33.0338C17.4452 33.293 17.7045 33.5435 17.8106 33.7925L18.2706 33.5964C18.1048 33.2076 17.7409 32.8893 17.3369 32.6185C16.9271 32.3437 16.4339 32.0912 15.9662 31.8514L15.7381 32.2963ZM15.7366 32.2955L15.7376 32.2961L15.9667 31.8516L15.9657 31.8511L15.7366 32.2955ZM12.7504 29.1097C12.7504 29.9588 13.183 30.592 13.762 31.088C14.3342 31.5783 15.0752 31.9566 15.7371 32.2958L15.9652 31.8508C15.2908 31.5053 14.6064 31.153 14.0873 30.7083C13.575 30.2694 13.2504 29.7632 13.2504 29.1097H12.7504ZM12.7756 28.9159C12.7617 28.9721 12.7504 29.0374 12.7504 29.1097H13.2504C13.2504 29.0894 13.2535 29.0659 13.2609 29.0361L12.7756 28.9159ZM12.75 28.8412C12.75 28.9148 12.762 28.9808 12.7754 29.0356L13.261 28.9164C13.2532 28.8846 13.25 28.861 13.25 28.8412H12.75ZM15.7363 25.6551C15.0746 25.9943 14.3338 26.3726 13.7616 26.8629C13.1826 27.3589 12.75 27.9921 12.75 28.8412H13.25C13.25 28.1877 13.5746 27.6815 14.0869 27.2426C14.6059 26.7979 15.2902 26.4457 15.9644 26.1001L15.7363 25.6551ZM17.8102 24.1581C17.7041 24.4071 17.4447 24.6577 17.0578 24.9171C16.6767 25.1726 16.2112 25.4116 15.7363 25.6552L15.9645 26.1001C16.4327 25.86 16.9261 25.6073 17.3362 25.3324C17.7404 25.0615 18.1044 24.7431 18.2702 24.3541L17.8102 24.1581ZM17.4033 21.6006C17.5713 22.1152 17.7354 22.6197 17.8249 23.0756C17.9157 23.5382 17.9189 23.9031 17.8102 24.1581L18.2702 24.3541C18.4403 23.9549 18.4107 23.4641 18.3155 22.9793C18.2191 22.4877 18.0442 21.9528 17.8787 21.4455L17.4033 21.6006ZM17.511 17.4455C16.9438 18.0078 16.808 18.708 16.8662 19.4262C16.9236 20.1338 17.1721 20.8917 17.4033 21.6006L17.8787 21.4455C17.6427 20.722 17.4163 20.0233 17.3646 19.3858C17.3138 18.7588 17.4346 18.2253 17.863 17.8006L17.511 17.4455ZM21.5774 17.112C20.8844 16.9395 20.1438 16.7539 19.4504 16.7419C18.7473 16.7298 18.0654 16.8951 17.5108 17.4457L17.8631 17.8005C18.2925 17.3743 18.8257 17.2312 19.4417 17.2419C20.0674 17.2527 20.75 17.4213 21.4567 17.5972L21.5774 17.112ZM21.5834 17.1134L21.5775 17.112L21.4567 17.5972L21.4627 17.5986L21.5834 17.1134ZM21.5875 17.1145L21.5835 17.1135L21.4626 17.5986L21.4667 17.5996L21.5875 17.1145ZM24.0958 17.3444C23.8238 17.4586 23.4566 17.4721 23.0098 17.4149C22.5669 17.3582 22.0823 17.2378 21.5875 17.1145L21.4666 17.5996C21.9545 17.7212 22.4689 17.8498 22.9464 17.9109C23.4199 17.9715 23.8942 17.9714 24.2894 17.8054L24.0958 17.3444ZM25.6888 15.4476C25.4276 15.874 25.1712 16.2917 24.9009 16.6374C24.6282 16.9861 24.3629 17.2323 24.0959 17.3443L24.2893 17.8054C24.676 17.6432 25.006 17.3147 25.2948 16.9454C25.586 16.573 25.8575 16.1295 26.1151 15.7088L25.6888 15.4476ZM29 12.7251C28.1613 12.7251 27.5135 13.1145 26.9901 13.6431C26.4728 14.1657 26.0592 14.8428 25.6888 15.4476L26.1151 15.7088C26.4922 15.0932 26.8763 14.4688 27.3455 13.9949C27.8086 13.5271 28.336 13.2251 29 13.2251V12.7251ZM32.3363 15.3849C31.9583 14.7936 31.5365 14.1317 31.0136 13.6211C30.4846 13.1046 29.8346 12.7251 29 12.7251V13.2251C29.6643 13.2251 30.1958 13.5214 30.6643 13.9788C31.1387 14.4421 31.5303 15.0525 31.915 15.6542L32.3363 15.3849ZM32.3379 15.3874L32.3363 15.3849L31.9151 15.6542L31.9167 15.6568L32.3379 15.3874ZM33.9485 17.2415C33.6787 17.1283 33.4108 16.8856 33.1357 16.5458C32.8627 16.2087 32.6028 15.8024 32.338 15.3876L31.9166 15.6566C32.1778 16.0659 32.453 16.4973 32.7471 16.8605C33.0391 17.221 33.3704 17.5412 33.7551 17.7026L33.9485 17.2415ZM36.4464 17.0548C35.9565 17.1674 35.4762 17.2773 35.0361 17.326C34.5926 17.3751 34.2246 17.3572 33.9484 17.2415L33.7552 17.7026C34.1495 17.8679 34.6201 17.8751 35.0911 17.823C35.5654 17.7705 36.0751 17.6532 36.5584 17.5421L36.4464 17.0548ZM40.4894 17.4452C39.9369 16.8973 39.2596 16.7241 38.5605 16.7248C37.8708 16.7256 37.135 16.896 36.4462 17.0548L36.5585 17.542C37.2604 17.3802 37.9386 17.2255 38.561 17.2248C39.174 17.2242 39.7069 17.3733 40.1374 17.8002L40.4894 17.4452ZM40.4815 21.6005C40.7415 20.8957 41.0213 20.1412 41.1016 19.4347C41.1832 18.7166 41.0625 18.0131 40.4894 17.4451L40.1374 17.8003C40.5667 18.2256 40.6756 18.7553 40.6048 19.3783C40.5327 20.0129 40.278 20.7074 40.0124 21.4275L40.4815 21.6005ZM40.4793 21.6066L40.4815 21.6004L40.0123 21.4276L40.0101 21.4338L40.4793 21.6066ZM39.9861 24.1441C39.881 23.8975 39.8922 23.5393 39.9994 23.0778C40.1048 22.624 40.2898 22.1208 40.4792 21.6066L40.0101 21.4338C39.8234 21.9403 39.6262 22.4745 39.5124 22.9647C39.4003 23.4471 39.3554 23.9396 39.5262 24.3402L39.9861 24.1441ZM42.1452 25.6452C41.6485 25.3999 41.1607 25.1584 40.7628 24.9013C40.3576 24.6394 40.0907 24.3887 39.9861 24.1439L39.5263 24.3404C39.6933 24.7311 40.0721 25.0502 40.4914 25.3212C40.9181 25.597 41.4337 25.8514 41.9238 26.0935L42.1452 25.6452ZM42.1463 25.6457L42.1456 25.6454L41.9234 26.0933L41.9241 26.0937L42.1463 25.6457ZM45.25 28.8404C45.25 27.986 44.7983 27.351 44.1981 26.8553C43.604 26.3647 42.8347 25.9859 42.146 25.6456L41.9245 26.0938C42.6259 26.4404 43.3389 26.7942 43.8797 27.2408C44.4143 27.6824 44.75 28.1892 44.75 28.8404H45.25ZM41.4159 30.8442C40.8337 31.1319 40.2203 31.4344 39.6983 31.7966C39.1756 32.1594 38.7211 32.5975 38.4768 33.1691L38.9365 33.3656C39.1287 32.9161 39.4982 32.5441 39.9834 32.2074C40.4694 31.8702 41.0478 31.5838 41.6374 31.2925L41.4159 30.8442ZM43.6108 29.1082C43.6108 29.3845 43.417 29.6612 42.9969 29.9664C42.5842 30.2663 42.0222 30.5448 41.4159 30.8442L41.6374 31.2925C42.2315 30.9991 42.8365 30.7011 43.2908 30.3709C43.7377 30.0461 44.1108 29.6391 44.1108 29.1082H43.6108ZM43.636 28.9144C43.6221 28.9706 43.6108 29.0359 43.6108 29.1082H44.1108C44.1108 29.0879 44.114 29.0643 44.1213 29.0346L43.636 28.9144ZM43.6104 28.8397C43.6104 28.9133 43.6224 28.9793 43.6359 29.0341L44.1215 28.9149C44.1137 28.8831 44.1104 28.8595 44.1104 28.8397H43.6104ZM41.4156 27.1044C42.0218 27.4039 42.5838 27.6824 42.9965 27.9823C43.4167 28.2876 43.6104 28.564 43.6104 28.8397H44.1104C44.1104 28.3093 43.7372 27.9024 43.2904 27.5778C42.8361 27.2477 42.2311 26.9496 41.637 26.6561L41.4156 27.1044ZM38.4767 24.7799C38.7207 25.3514 39.1752 25.7894 39.6979 26.1521C40.2199 26.5143 40.8333 26.8168 41.4155 27.1044L41.637 26.6562C41.0474 26.3649 40.4689 26.0785 39.9829 25.7413C39.4977 25.4046 39.1283 25.0328 38.9366 24.5836L38.4767 24.7799ZM38.9417 21.0395C38.7169 21.6491 38.4789 22.2929 38.3571 22.9196C38.2349 23.5484 38.2239 24.1866 38.4767 24.7797L38.9366 24.5837C38.7382 24.1182 38.7357 23.5924 38.8479 23.015C38.9606 22.4353 39.1829 21.8306 39.4108 21.2125L38.9417 21.0395ZM38.9418 21.0392L38.9416 21.0399L39.411 21.212L39.4112 21.2114L38.9418 21.0392ZM38.9429 21.0361L38.9419 21.0389L39.4111 21.2117L39.4121 21.209L38.9429 21.0361ZM39.3315 18.5989C39.4782 18.7442 39.5265 19.0155 39.4375 19.4779C39.3514 19.9259 39.1555 20.4593 38.9429 21.0361L39.4121 21.209C39.62 20.6448 39.833 20.069 39.9285 19.5723C40.0213 19.09 40.0242 18.5812 39.6833 18.2436L39.3315 18.5989ZM36.818 18.6411C37.3922 18.509 37.9223 18.3879 38.3744 18.3615C38.8308 18.3348 39.1408 18.4096 39.3312 18.5986L39.6835 18.2438C39.3383 17.901 38.8437 17.8332 38.3453 17.8623C37.8426 17.8917 37.2678 18.0246 36.7059 18.1538L36.818 18.6411ZM36.816 18.6415L36.818 18.6411L36.7059 18.1538L36.7039 18.1543L36.816 18.6415ZM36.8166 18.6414L36.8167 18.6413L36.7031 18.1544L36.7029 18.1545L36.8166 18.6414ZM33.3111 18.7426C33.868 18.976 34.4629 19.013 35.0535 18.9625C35.6419 18.9123 36.2443 18.7731 36.8158 18.6416L36.7037 18.1543C36.1251 18.2875 35.5578 18.4176 35.0109 18.4643C34.4661 18.5109 33.9602 18.4725 33.5044 18.2815L33.3111 18.7426ZM30.9555 16.2633C31.2635 16.7451 31.5877 17.2529 31.961 17.6914C32.3355 18.1313 32.7711 18.5159 33.311 18.7425L33.5045 18.2815C33.063 18.0961 32.6877 17.7737 32.3417 17.3673C31.9945 16.9594 31.6885 16.4816 31.3768 15.994L30.9555 16.2633ZM30.9537 16.2604L30.9554 16.2631L31.3768 15.9941L31.3751 15.9913L30.9537 16.2604ZM29 14.354C29.3341 14.354 29.6473 14.54 29.9774 14.8951C30.3078 15.2506 30.6181 15.7349 30.9537 16.2604L31.3751 15.9913C31.0466 15.4769 30.7112 14.9502 30.3436 14.5547C29.9757 14.1589 29.5388 13.854 29 13.854V14.354ZM27.0891 16.2945C27.4171 15.759 27.7205 15.2655 28.0445 14.9033C28.3687 14.5408 28.6749 14.354 29 14.354V13.854C28.4632 13.854 28.0319 14.1674 27.6718 14.5699C27.3115 14.9728 26.9838 15.5092 26.6627 16.0333L27.0891 16.2945ZM27.0877 16.2968L27.0889 16.2947L26.6628 16.0331L26.6615 16.0352L27.0877 16.2968ZM24.7329 18.8447C25.2797 18.6155 25.7169 18.2206 26.0902 17.7681C26.4623 17.317 26.7831 16.7933 27.0877 16.2967L26.6615 16.0353C26.3531 16.538 26.0504 17.0306 25.7045 17.4499C25.3598 17.8677 24.9843 18.1972 24.5397 18.3835L24.7329 18.8447ZM21.1921 18.6952C21.7704 18.8392 22.3797 18.9914 22.9741 19.0511C23.5706 19.1111 24.1718 19.0804 24.7331 18.8446L24.5395 18.3836C24.0829 18.5754 23.574 18.6089 23.0241 18.5536C22.472 18.4982 21.8984 18.3558 21.313 18.21L21.1921 18.6952ZM21.1842 18.6932L21.1922 18.6952L21.313 18.21L21.305 18.208L21.1842 18.6932ZM21.1813 18.6925L21.1842 18.6932L21.3051 18.208L21.3022 18.2073L21.1813 18.6925ZM18.6688 18.5978C18.8524 18.4154 19.1579 18.3453 19.6169 18.381C20.0703 18.4163 20.6036 18.5485 21.1813 18.6925L21.3022 18.2073C20.7369 18.0664 20.1594 17.9218 19.6558 17.8825C19.1579 17.8437 18.6604 17.9013 18.3164 18.2432L18.6688 18.5978ZM18.9616 21.0939C18.7707 20.5083 18.5949 19.9664 18.5252 19.5103C18.4536 19.0424 18.5089 18.7562 18.6685 18.5981L18.3167 18.2428C17.9734 18.5827 17.9555 19.0925 18.0309 19.5859C18.1081 20.091 18.2994 20.6757 18.4862 21.2488L18.9616 21.0939ZM18.9624 21.0963L18.9616 21.0938L18.4862 21.2489L18.487 21.2514L18.9624 21.0963ZM19.3194 24.7925C19.5669 24.2113 19.5702 23.5827 19.4693 22.9606C19.3687 22.3404 19.1599 21.7018 18.9624 21.0963L18.487 21.2514C18.6872 21.8649 18.8825 22.4656 18.9758 23.0406C19.0687 23.6137 19.0555 24.136 18.8593 24.5966L19.3194 24.7925ZM16.4878 27.1022C17.0455 26.8163 17.6339 26.5153 18.1363 26.155C18.64 25.7937 19.0784 25.3585 19.3194 24.7924L18.8593 24.5966C18.6684 25.0451 18.3104 25.4148 17.8449 25.7487C17.3782 26.0834 16.8247 26.3677 16.2597 26.6573L16.4878 27.1022ZM16.4881 27.1021L16.4884 27.1019L16.2591 26.6576L16.2588 26.6578L16.4881 27.1021ZM14.3892 28.8397C14.3892 28.5542 14.578 28.2763 14.9764 27.9743C15.3702 27.6758 15.9068 27.3999 16.4874 27.1024L16.2594 26.6574C15.691 26.9487 15.1105 27.2453 14.6744 27.5758C14.243 27.9028 13.8892 28.3104 13.8892 28.8397H14.3892ZM14.364 29.0335C14.3779 28.9773 14.3892 28.912 14.3892 28.8397H13.8892C13.8892 28.86 13.886 28.8836 13.8786 28.9133L14.364 29.0335ZM14.3895 29.1086C14.3895 29.035 14.3776 28.9691 14.3642 28.9143L13.8784 29.0325C13.8863 29.0651 13.8895 29.0888 13.8895 29.1086H14.3895ZM16.4882 30.8459C15.9076 30.5484 15.3709 30.2725 14.977 29.974C14.5784 29.672 14.3895 29.3941 14.3895 29.1086H13.8895C13.8895 29.6379 14.2435 30.0455 14.675 30.3725C15.1112 30.703 15.6918 30.9997 16.2602 31.2909L16.4882 30.8459ZM16.4901 30.8469L16.4881 30.8458L16.2603 31.2909L16.2623 31.292L16.4901 30.8469ZM19.3197 33.1554C19.0787 32.59 18.6406 32.1552 18.1374 31.7941C17.6354 31.4339 17.0476 31.1329 16.4904 30.847L16.2621 31.2919C16.8266 31.5815 17.3796 31.8658 17.8459 32.2004C18.311 32.5341 18.6688 32.9034 18.8598 33.3514L19.3197 33.1554ZM18.9627 36.852C19.1603 36.2467 19.3691 35.6081 19.4697 34.9878C19.5706 34.3656 19.5673 33.7369 19.3198 33.1555L18.8597 33.3513C19.0559 33.8121 19.0691 34.3347 18.9761 34.9078C18.8829 35.4828 18.6876 36.0836 18.4874 36.6969L18.9627 36.852ZM18.9625 36.8526L18.9627 36.8521L18.4875 36.6967L18.4873 36.6973L18.9625 36.8526ZM18.6686 39.3499C18.5092 39.1919 18.454 38.9055 18.5258 38.4372C18.5956 37.9807 18.7716 37.4384 18.9626 36.8524L18.4872 36.6975C18.3003 37.271 18.1089 37.856 18.0315 38.3615C17.9559 38.855 17.9736 39.3651 18.3167 39.705L18.6686 39.3499ZM21.1751 39.2575C20.599 39.4007 20.0673 39.5322 19.6152 39.5672C19.1576 39.6025 18.8525 39.5324 18.6687 39.35L18.3165 39.7049C18.6604 40.0461 19.1568 40.104 19.6537 40.0657C20.1562 40.0269 20.7321 39.8829 21.2958 39.7427L21.1751 39.2575ZM21.1846 39.2551L21.175 39.2575L21.2958 39.7427L21.3054 39.7403L21.1846 39.2551ZM24.7339 39.1041C24.1715 38.8678 23.569 38.8372 22.9711 38.8975C22.3752 38.9576 21.7643 39.1104 21.1845 39.2551L21.3055 39.7402C21.8926 39.5938 22.4677 39.4508 23.0212 39.3949C23.5726 39.3393 24.0827 39.3728 24.5402 39.5651L24.7339 39.1041ZM27.0891 41.6538C26.7846 41.1568 26.4639 40.6327 26.0917 40.1812C25.7182 39.7283 25.2808 39.3331 24.7336 39.104L24.5405 39.5652C24.9854 39.7515 25.3611 40.0812 25.7059 40.4993C26.0519 40.9189 26.3545 41.4119 26.6627 41.915L27.0891 41.6538ZM27.09 41.6553L27.089 41.6537L26.6628 41.9151L26.6637 41.9167L27.09 41.6553ZM29.0004 43.594C28.6754 43.594 28.3694 43.4074 28.0453 43.0452C27.7214 42.6833 27.4181 42.1903 27.09 41.6553L26.6637 41.9167C26.9848 42.4403 27.3125 42.9762 27.6727 43.3787C28.0327 43.7809 28.4639 44.094 29.0004 44.094V43.594ZM30.9544 41.6879C30.6187 42.2132 30.3083 42.6974 29.9778 43.0528C29.6477 43.4079 29.3345 43.594 29.0004 43.594V44.094C29.5392 44.094 29.9761 43.789 30.344 43.3933C30.7116 42.9979 31.0471 42.4713 31.3758 41.9571L30.9544 41.6879ZM30.9571 41.6838L30.9571 41.6838L31.3731 41.9612L31.3731 41.9611L30.9571 41.6838ZM30.9552 41.6867L30.9544 41.6879L31.3758 41.957L31.3766 41.9558L30.9552 41.6867ZM33.311 39.2061C32.771 39.4327 32.3353 39.8175 31.9607 40.2577C31.5874 40.6964 31.2632 41.2046 30.9552 41.6867L31.3765 41.9559C31.6883 41.468 31.9942 40.9898 32.3415 40.5817C32.6876 40.1751 33.063 39.8525 33.5045 39.6672L33.311 39.2061ZM36.8137 39.3063C36.2425 39.1749 35.6404 39.0361 35.0524 38.986C34.4622 38.9358 33.8676 38.9728 33.3111 39.2061L33.5044 39.6672C33.9599 39.4763 34.4655 39.4378 35.01 39.4842C35.5565 39.5307 36.1234 39.6606 36.7017 39.7936L36.8137 39.3063ZM36.8157 39.3067L36.8135 39.3062L36.7019 39.7936L36.7042 39.7941L36.8157 39.3067ZM36.8172 39.3071L36.8157 39.3067L36.7042 39.7941L36.7057 39.7945L36.8172 39.3071ZM39.3308 39.3501C39.1408 39.5389 38.8309 39.6136 38.3744 39.5869C37.9222 39.5604 37.3918 39.4392 36.8175 39.3071L36.7055 39.7944C37.2675 39.9236 37.8424 40.0566 38.3451 40.086C38.8435 40.1152 39.3382 40.0476 39.6832 39.7048L39.3308 39.3501ZM38.9428 36.9108C39.1555 37.4877 39.3515 38.0214 39.4377 38.4697C39.5267 38.9324 39.4784 39.2041 39.3312 39.3497L39.6828 39.7052C40.0243 39.3673 40.0215 38.858 39.9287 38.3753C39.8331 37.8783 39.62 37.3022 39.412 36.7379L38.9428 36.9108ZM38.9425 36.9099L38.943 36.9112L39.4118 36.7374L39.4113 36.7361L38.9425 36.9099ZM38.9419 36.9084L38.942 36.9084L39.4119 36.7376L39.4118 36.7375L38.9419 36.9084ZM38.4767 33.1694C38.224 33.7624 38.2352 34.4006 38.3575 35.0295C38.4794 35.6561 38.7175 36.3 38.9423 36.9095L39.4114 36.7364C39.1835 36.1184 38.9611 35.5137 38.8483 34.934C38.736 34.3565 38.7384 33.8307 38.9367 33.3653L38.4767 33.1694ZM33.9159 24.6715L27.5041 31.7934L27.8757 32.1279L34.2875 25.006L33.9159 24.6715ZM35.0719 24.606C34.7339 24.3081 34.2182 24.337 33.9163 24.6711L34.2872 25.0064C34.4053 24.8757 34.6083 24.8639 34.7413 24.9811L35.0719 24.606ZM35.138 25.7586C35.4409 25.4224 35.4108 24.9062 35.0724 24.6064L34.7409 24.9807C34.8719 25.0968 34.8829 25.2947 34.7665 25.424L35.138 25.7586ZM28.3243 33.3265L35.138 25.7586L34.7664 25.4241L27.9527 32.9919L28.3243 33.3265ZM27.7366 33.5974C27.961 33.591 28.1735 33.4939 28.3243 33.3265L27.9527 32.9919C27.8945 33.0566 27.8115 33.0951 27.7222 33.0976L27.7366 33.5974ZM27.7134 33.5979C27.7173 33.5979 27.7315 33.598 27.7471 33.5969L27.7117 33.0982C27.7148 33.0979 27.7168 33.0979 27.717 33.0979C27.7171 33.0979 27.7169 33.0979 27.7163 33.0979C27.7156 33.0979 27.7149 33.0979 27.7134 33.0979V33.5979ZM27.1341 33.3598C27.2884 33.5133 27.4972 33.5979 27.7134 33.5979V33.0979C27.6273 33.0979 27.5459 33.0642 27.4868 33.0053L27.1341 33.3598ZM23.4544 29.711L27.1344 33.3601L27.4864 33.005L23.8065 29.3559L23.4544 29.711ZM23.4544 28.557C23.1332 28.8756 23.1332 29.3925 23.4544 29.711L23.8065 29.3559C23.6825 29.233 23.6825 29.035 23.8065 28.9121L23.4544 28.557ZM24.6121 28.557C24.2921 28.2397 23.7745 28.2397 23.4544 28.557L23.8065 28.9121C23.9316 28.788 24.1349 28.788 24.2601 28.9121L24.6121 28.557ZM27.8659 31.7831L24.6121 28.557L24.2601 28.9121L27.5139 32.1382L27.8659 31.7831Z" fill="white"/>
</svg>
