<svg width="124" height="34" viewBox="0 0 124 34" fill="none" xmlns="http://www.w3.org/2000/svg">
<path d="M7.512 26.52H19.464V33H0.12V0.647999H7.512V26.52ZM22.3575 16.728C22.3575 11.768 23.7815 7.768 26.6295 4.728C29.5095 1.656 33.3335 0.119997 38.1015 0.119997C42.9015 0.119997 46.7255 1.64 49.5735 4.68C52.4215 7.72 53.8455 11.736 53.8455 16.728C53.8455 21.688 52.4055 25.704 49.5255 28.776C46.6775 31.816 42.8695 33.336 38.1015 33.336C33.3015 33.336 29.4775 31.816 26.6295 28.776C23.7815 25.736 22.3575 21.72 22.3575 16.728ZM32.3895 9.528C30.9815 11.288 30.2775 13.688 30.2775 16.728C30.2775 19.768 30.9815 22.184 32.3895 23.976C33.7975 25.736 35.7015 26.616 38.1015 26.616C40.5015 26.616 42.4055 25.736 43.8135 23.976C45.2215 22.184 45.9255 19.768 45.9255 16.728C45.9255 13.688 45.2215 11.288 43.8135 9.528C42.4055 7.736 40.5015 6.84 38.1015 6.84C35.7015 6.84 33.7975 7.736 32.3895 9.528ZM86.7893 13.704V30.024C83.7173 32.264 79.8453 33.384 75.1733 33.384C69.9893 33.384 65.7813 31.896 62.5493 28.92C59.3173 25.944 57.7013 21.896 57.7013 16.776C57.7013 11.72 59.3813 7.672 62.7413 4.632C66.1333 1.592 70.4213 0.0719976 75.6053 0.0719976C79.2533 0.0719976 82.4053 0.743998 85.0613 2.088V9.48C81.9893 7.72 78.8373 6.84 75.6053 6.84C72.5653 6.84 70.1493 7.752 68.3573 9.576C66.5653 11.368 65.6693 13.768 65.6693 16.776C65.6693 19.816 66.5493 22.232 68.3093 24.024C70.0693 25.816 72.4693 26.712 75.5093 26.712C76.8853 26.712 78.2453 26.504 79.5893 26.088V19.992H74.3573V13.704H86.7893ZM91.5919 16.728C91.5919 11.768 93.0159 7.768 95.8639 4.728C98.7439 1.656 102.568 0.119997 107.336 0.119997C112.136 0.119997 115.96 1.64 118.808 4.68C121.656 7.72 123.08 11.736 123.08 16.728C123.08 21.688 121.64 25.704 118.76 28.776C115.912 31.816 112.104 33.336 107.336 33.336C102.536 33.336 98.7119 31.816 95.8639 28.776C93.0159 25.736 91.5919 21.72 91.5919 16.728ZM101.624 9.528C100.216 11.288 99.5119 13.688 99.5119 16.728C99.5119 19.768 100.216 22.184 101.624 23.976C103.032 25.736 104.936 26.616 107.336 26.616C109.736 26.616 111.64 25.736 113.048 23.976C114.456 22.184 115.16 19.768 115.16 16.728C115.16 13.688 114.456 11.288 113.048 9.528C111.64 7.736 109.736 6.84 107.336 6.84C104.936 6.84 103.032 7.736 101.624 9.528Z" fill="#676767"/>
</svg>
