<svg width="58" height="58" viewBox="0 0 58 58" fill="none" xmlns="http://www.w3.org/2000/svg">
<rect width="58" height="58" rx="29" fill="#D41850"/>
<path fill-rule="evenodd" clip-rule="evenodd" d="M36.0516 18.1835C36.0516 18.5027 35.7748 18.7606 35.4337 18.7606C35.0926 18.7606 34.8159 18.5026 34.8159 18.1835V15.1541H23.1849V18.1836C23.1849 18.5028 22.9081 18.7607 22.567 18.7607C22.226 18.7607 21.9491 18.5027 21.9491 18.1836V14.5771C21.9491 14.2579 22.226 14 22.567 14H35.4337C35.7748 14 36.0516 14.258 36.0516 14.5771V18.1835ZM43.382 20.0739H14.6179C14.2768 20.0739 14 20.3319 14 20.651V28.628C14 28.9471 14.2768 29.2051 14.6179 29.2051H43.3821C43.7232 29.2051 44 28.9472 44 28.628V20.651C43.9999 20.3319 43.7231 20.0739 43.382 20.0739ZM42.7642 28.051H15.2357V21.2281H42.7641L42.7642 28.051ZM40.9514 30.8087C40.9514 30.4896 41.2282 30.2317 41.5693 30.2317C41.9104 30.2317 42.1872 30.4901 42.1872 30.8087V41.683C42.1872 42.0022 41.9104 42.2601 41.5693 42.2601H16.4315C16.0904 42.2601 15.8136 42.0021 15.8136 41.683V30.8087C15.8136 30.4895 16.0904 30.2316 16.4315 30.2316C16.7726 30.2316 17.0494 30.4896 17.0494 30.8087V41.106H40.9514V30.8087ZM18.9282 30.2316H27.4697C27.8114 30.2316 28.0877 30.4901 28.0876 30.8087V33.6177H30.7994V30.8087C30.7994 30.4895 31.0763 30.2316 31.4173 30.2316H39.0723C39.4134 30.2316 39.6902 30.4896 39.6902 30.8087C39.6902 31.1278 39.4134 31.3857 39.0723 31.3857H32.0353V34.1948C32.0353 34.514 31.7585 34.7719 31.4174 34.7719H27.4698C27.1288 34.7719 26.8519 34.5139 26.8519 34.1948V31.3857H18.9282C18.5871 31.3857 18.3103 31.1278 18.3103 30.8087C18.3103 30.4895 18.5871 30.2316 18.9282 30.2316Z" fill="white"/>
<path d="M34.8159 15.1541H35.0659V14.9041H34.8159V15.1541ZM23.1849 15.1541V14.9041H22.9349V15.1541H23.1849ZM44 20.651L44.25 20.651L44.25 20.651L44 20.651ZM15.2357 28.051H14.9857V28.301H15.2357V28.051ZM42.7642 28.051V28.301H43.0142L43.0142 28.051L42.7642 28.051ZM15.2357 21.2281V20.9781H14.9857V21.2281H15.2357ZM42.7641 21.2281L43.0141 21.2281L43.0141 20.9781H42.7641V21.2281ZM17.0494 41.106H16.7994V41.356H17.0494V41.106ZM40.9514 41.106V41.356H41.2014V41.106H40.9514ZM28.0876 30.8087L27.8376 30.8086V30.8087H28.0876ZM28.0876 33.6177H27.8376V33.8677H28.0876V33.6177ZM30.7994 33.6177V33.8677H31.0494V33.6177H30.7994ZM32.0353 31.3857V31.1357H31.7853V31.3857H32.0353ZM26.8519 31.3857H27.1019V31.1357H26.8519V31.3857ZM35.4337 19.0106C35.8963 19.0106 36.3016 18.6568 36.3016 18.1835H35.8016C35.8016 18.3486 35.6533 18.5106 35.4337 18.5106V19.0106ZM34.5659 18.1835C34.5659 18.6566 34.9711 19.0106 35.4337 19.0106V18.5106C35.2142 18.5106 35.0659 18.3486 35.0659 18.1835H34.5659ZM34.5659 15.1541V18.1835H35.0659V15.1541H34.5659ZM23.1849 15.4041H34.8159V14.9041H23.1849V15.4041ZM23.4349 18.1836V15.1541H22.9349V18.1836H23.4349ZM22.567 19.0107C23.0296 19.0107 23.4349 18.6568 23.4349 18.1836H22.9349C22.9349 18.3487 22.7866 18.5107 22.567 18.5107V19.0107ZM21.6991 18.1836C21.6991 18.6567 22.1044 19.0107 22.567 19.0107V18.5107C22.3475 18.5107 22.1991 18.3486 22.1991 18.1836H21.6991ZM21.6991 14.5771V18.1836H22.1991V14.5771H21.6991ZM22.567 13.75C22.1044 13.75 21.6991 14.1038 21.6991 14.5771H22.1991C22.1991 14.412 22.3475 14.25 22.567 14.25V13.75ZM35.4337 13.75H22.567V14.25H35.4337V13.75ZM36.3016 14.5771C36.3016 14.1039 35.8963 13.75 35.4337 13.75V14.25C35.6533 14.25 35.8016 14.412 35.8016 14.5771H36.3016ZM36.3016 18.1835V14.5771H35.8016V18.1835H36.3016ZM14.6179 20.3239H43.382V19.8239H14.6179V20.3239ZM14.25 20.651C14.25 20.4859 14.3983 20.3239 14.6179 20.3239V19.8239C14.1553 19.8239 13.75 20.1778 13.75 20.651H14.25ZM14.25 28.628V20.651H13.75V28.628H14.25ZM14.6179 28.9551C14.3984 28.9551 14.25 28.793 14.25 28.628H13.75C13.75 29.1011 14.1553 29.4551 14.6179 29.4551V28.9551ZM43.3821 28.9551H14.6179V29.4551H43.3821V28.9551ZM43.75 28.628C43.75 28.7931 43.6016 28.9551 43.3821 28.9551V29.4551C43.8447 29.4551 44.25 29.1012 44.25 28.628H43.75ZM43.75 20.651V28.628H44.25V20.651H43.75ZM43.382 20.3239C43.6015 20.3239 43.75 20.486 43.75 20.6511L44.25 20.651C44.2499 20.1779 43.8446 19.8239 43.382 19.8239V20.3239ZM15.2357 28.301H42.7642V27.801H15.2357V28.301ZM14.9857 21.2281V28.051H15.4857V21.2281H14.9857ZM42.7641 20.9781H15.2357V21.4781H42.7641V20.9781ZM43.0142 28.051L43.0141 21.2281L42.5141 21.2281L42.5142 28.051L43.0142 28.051ZM41.5693 29.9817C41.1067 29.9817 40.7014 30.3355 40.7014 30.8087H41.2014C41.2014 30.6436 41.3498 30.4817 41.5693 30.4817V29.9817ZM42.4372 30.8087C42.4372 30.3362 42.032 29.9817 41.5693 29.9817V30.4817C41.7887 30.4817 41.9372 30.6441 41.9372 30.8087H42.4372ZM42.4372 41.683V30.8087H41.9372V41.683H42.4372ZM41.5693 42.5101C42.0319 42.5101 42.4372 42.1562 42.4372 41.683H41.9372C41.9372 41.8481 41.7889 42.0101 41.5693 42.0101V42.5101ZM16.4315 42.5101H41.5693V42.0101H16.4315V42.5101ZM15.5636 41.683C15.5636 42.1561 15.9689 42.5101 16.4315 42.5101V42.0101C16.212 42.0101 16.0636 41.848 16.0636 41.683H15.5636ZM15.5636 30.8087V41.683H16.0636V30.8087H15.5636ZM16.4315 29.9816C15.9689 29.9816 15.5636 30.3354 15.5636 30.8087H16.0636C16.0636 30.6436 16.2119 30.4816 16.4315 30.4816V29.9816ZM17.2994 30.8087C17.2994 30.3355 16.8941 29.9816 16.4315 29.9816V30.4816C16.6511 30.4816 16.7994 30.6436 16.7994 30.8087H17.2994ZM17.2994 41.106V30.8087H16.7994V41.106H17.2994ZM40.9514 40.856H17.0494V41.356H40.9514V40.856ZM40.7014 30.8087V41.106H41.2014V30.8087H40.7014ZM27.4697 29.9816H18.9282V30.4816H27.4697V29.9816ZM28.3376 30.8087C28.3377 30.3363 27.9332 29.9816 27.4697 29.9816V30.4816C27.6896 30.4816 27.8376 30.6438 27.8376 30.8086L28.3376 30.8087ZM28.3376 33.6177V30.8087H27.8376V33.6177H28.3376ZM30.7994 33.3677H28.0876V33.8677H30.7994V33.3677ZM30.5494 30.8087V33.6177H31.0494V30.8087H30.5494ZM31.4173 29.9816C30.9548 29.9816 30.5494 30.3354 30.5494 30.8087H31.0494C31.0494 30.6436 31.1978 30.4816 31.4173 30.4816V29.9816ZM39.0723 29.9816H31.4173V30.4816H39.0723V29.9816ZM39.9402 30.8087C39.9402 30.3355 39.5349 29.9816 39.0723 29.9816V30.4816C39.2919 30.4816 39.4402 30.6436 39.4402 30.8087H39.9402ZM39.0723 31.6357C39.5349 31.6357 39.9402 31.2819 39.9402 30.8087H39.4402C39.4402 30.9738 39.2919 31.1357 39.0723 31.1357V31.6357ZM32.0353 31.6357H39.0723V31.1357H32.0353V31.6357ZM32.2853 34.1948V31.3857H31.7853V34.1948H32.2853ZM31.4174 35.0219C31.88 35.0219 32.2853 34.668 32.2853 34.1948H31.7853C31.7853 34.3599 31.637 34.5219 31.4174 34.5219V35.0219ZM27.4698 35.0219H31.4174V34.5219H27.4698V35.0219ZM26.6019 34.1948C26.6019 34.6679 27.0072 35.0219 27.4698 35.0219V34.5219C27.2503 34.5219 27.1019 34.3598 27.1019 34.1948H26.6019ZM26.6019 31.3857V34.1948H27.1019V31.3857H26.6019ZM18.9282 31.6357H26.8519V31.1357H18.9282V31.6357ZM18.0603 30.8087C18.0603 31.2818 18.4656 31.6357 18.9282 31.6357V31.1357C18.7087 31.1357 18.5603 30.9737 18.5603 30.8087H18.0603ZM18.9282 29.9816C18.4656 29.9816 18.0603 30.3354 18.0603 30.8087H18.5603C18.5603 30.6436 18.7087 30.4816 18.9282 30.4816V29.9816Z" fill="white"/>
</svg>
