<svg width="1933" height="555" viewBox="0 0 1933 555" fill="none" xmlns="http://www.w3.org/2000/svg">
<path d="M390.018 506.951C387.365 503.495 346.002 462.055 336.782 405.311C332.175 376.934 335.733 345.011 356.572 312.838C377.913 279.907 417.362 246.711 484.684 216.806C499.525 210.211 517.23 200.811 526.228 188.743C550.506 156.255 495.967 128.632 561.262 88.0213C656.797 28.6142 761.06 94.3287 867.288 67.3911C886.054 62.6392 904.887 54.9869 923.746 43.2418C970.068 14.4124 1032.48 3.23209 1089.41 0.618571C1208.11 -4.76089 1341.69 25.503 1410.62 69.7311C1455.81 98.7309 1471.47 142.376 1440.26 184.905C1434.44 192.844 1419.51 206.876 1462.99 236.082C1479.43 247.128 1500.77 258.362 1521.36 269.735C1521.48 269.802 1521.61 269.878 1521.74 269.941C1559.66 290.899 1583.61 305.405 1609.47 339.699C1635.31 373.298 1646.32 411.977 1631 450.924C1622.18 472.872 1605.67 492.848 1585.58 508C1585.59 508 390.313 507.511 390.018 506.951Z" fill="#F4F6F7"/>
<path d="M1600.47 456.593C1567.08 443.35 1541.61 489.549 1489.4 479.387C1437.18 469.232 1433.99 504.971 1433.99 504.971L1650.55 507.001C1668.63 489.125 1683.94 466.499 1693.85 441.501C1669.15 435.524 1628.49 467.713 1600.47 456.593Z" fill="#A8D29F"/>
<g opacity="0.8">
<path opacity="0.8" d="M1362.61 123.326H941.847V508.339H1362.61V123.326Z" fill="#ECF6FE"/>
<path opacity="0.8" d="M1369.18 109.335H931.44V123.326H1369.18V109.335Z" fill="white"/>
<path opacity="0.8" d="M1214.08 158.13H941.847V229.69H1214.08V158.13Z" fill="#C4D6F5"/>
<path opacity="0.8" d="M941.846 168.939H687.888V321.407H941.846V168.939Z" fill="#D9E6F1"/>
<path opacity="0.8" d="M941.846 353.13H687.888V505.598H941.846V353.13Z" fill="#D9E6F1"/>
<path opacity="0.8" d="M941.842 321.407H723.084V353.13H941.842V321.407Z" fill="#D0DBE9"/>
<path opacity="0.8" d="M941.847 128.133L1362.61 141.865V123.326H941.847V128.133Z" fill="#E8F0FC"/>
<path opacity="0.8" d="M941.847 168.03H672V183.126H941.847V168.03Z" fill="white"/>
<g opacity="0.5">
<path opacity="0.5" d="M1302.98 337.19H1007.33V504.373H1302.98V337.19Z" fill="#98BAF4"/>
<path opacity="0.5" d="M1294.42 348.88H1017.26V504.934H1294.42V348.88Z" fill="white"/>
<path opacity="0.5" d="M1284.49 358.753H1027.76V394.609H1284.49V358.753Z" fill="#AFCDFB"/>
<path opacity="0.5" d="M1102.83 404.347H1027.76V504.262H1102.83V404.347Z" fill="#AFCDFB"/>
<path opacity="0.5" d="M1202.27 404.347H1109.97V504.262H1202.27V404.347Z" fill="#AFCDFB"/>
<path opacity="0.5" d="M1284.49 404.347H1208.62V504.262H1284.49V404.347Z" fill="#AFCDFB"/>
<path opacity="0.5" d="M1140.22 404.347H1202.27V441.326L1191.21 504.262H1122.66L1140.22 404.347Z" fill="#CCE1FF"/>
<g opacity="0.5">
<g opacity="0.5">
<path opacity="0.5" d="M1191.12 423.363H1122.07V504.378H1191.12V423.363Z" fill="white"/>
<path opacity="0.5" d="M1187.83 427.023H1125.37V504.373H1187.83V427.023Z" fill="#98BAF4"/>
<path opacity="0.5" d="M1157.76 427.023H1155.44V504.373H1157.76V427.023Z" fill="white"/>
</g>
<g opacity="0.5">
<path opacity="0.5" d="M1149.87 465.701C1149.87 464.819 1150.53 464.105 1151.34 464.105C1152.16 464.105 1152.82 464.819 1152.82 465.701C1152.82 466.582 1152.16 467.296 1151.34 467.296C1150.53 467.296 1149.87 466.582 1149.87 465.701Z" fill="white"/>
<path opacity="0.5" d="M1160.38 465.7C1160.38 464.819 1161.04 464.105 1161.85 464.105C1162.67 464.105 1163.33 464.819 1163.33 465.7C1163.33 466.582 1162.67 467.296 1161.85 467.296C1161.04 467.296 1160.38 466.582 1160.38 465.7Z" fill="white"/>
</g>
</g>
<path opacity="0.5" d="M1051.64 404.347H1089.65L1077.52 504.262H1039.51L1051.64 404.347Z" fill="#CCE1FF"/>
<path opacity="0.5" d="M1095.18 358.753L1090.83 394.609H1052.82L1057.17 358.753H1095.18Z" fill="#CCE1FF"/>
<path opacity="0.5" d="M1226.58 404.347H1264.59L1252.45 504.262H1214.44L1226.58 404.347Z" fill="#CCE1FF"/>
<path opacity="0.5" d="M1270.12 358.753L1265.76 394.609H1227.76L1232.11 358.753H1270.12Z" fill="#CCE1FF"/>
<path opacity="0.5" d="M1216.78 358.753L1210.48 394.609H1141.93L1148.23 358.753H1216.78Z" fill="#CCE1FF"/>
</g>
<path opacity="0.8" d="M1208.68 411.709H1208.82L1208.68 412.507V411.709Z" fill="#CCE1FF"/>
<g opacity="0.5">
<g opacity="0.5">
<path opacity="0.5" d="M745.774 223.659H717.641V271.725H745.774V223.659Z" fill="#102343" fill-opacity="0.54"/>
<g opacity="0.5">
<g opacity="0.5">
<path opacity="0.5" d="M746.935 273.275H715.939V222.114H746.935V273.275ZM718.802 270.181H744.072V225.213H718.802V270.181Z" fill="white"/>
</g>
<path opacity="0.5" d="M744.432 239.738H718.447V242.062H744.432V239.738Z" fill="white"/>
<path opacity="0.5" d="M744.432 255.734H718.447V258.058H744.432V255.734Z" fill="white"/>
<path opacity="0.5" d="M732.514 271.731V223.436H730.367V271.731H732.514Z" fill="white"/>
</g>
</g>
<g opacity="0.5">
<path opacity="0.5" d="M827.009 223.659H798.876V271.725H827.009V223.659Z" fill="#102343" fill-opacity="0.54"/>
<g opacity="0.5">
<g opacity="0.5">
<path opacity="0.5" d="M828.171 273.275H797.175V222.114H828.171V273.275ZM800.038 270.181H825.312V225.213H800.038V270.181Z" fill="white"/>
</g>
<path opacity="0.5" d="M825.663 239.738H799.678V242.062H825.663V239.738Z" fill="white"/>
<path opacity="0.5" d="M825.663 255.734H799.678V258.058H825.663V255.734Z" fill="white"/>
<path opacity="0.5" d="M813.747 271.729V223.434H811.6V271.729H813.747Z" fill="white"/>
</g>
</g>
<g opacity="0.5">
<path opacity="0.5" d="M908.24 223.659H880.107V271.725H908.24V223.659Z" fill="#102343" fill-opacity="0.54"/>
<g opacity="0.5">
<g opacity="0.5">
<path opacity="0.5" d="M909.402 273.275H878.411V222.114H909.402V273.275ZM881.269 270.181H906.539V225.213H881.269V270.181Z" fill="white"/>
</g>
<path opacity="0.5" d="M906.899 239.738H880.914V242.062H906.899V239.738Z" fill="white"/>
<path opacity="0.5" d="M906.899 255.734H880.914V258.058H906.899V255.734Z" fill="white"/>
<path opacity="0.5" d="M894.98 271.731V223.437H892.833V271.731H894.98Z" fill="white"/>
</g>
</g>
</g>
<g opacity="0.5">
<g opacity="0.5">
<path opacity="0.5" d="M745.774 388.476H717.641V436.543H745.774V388.476Z" fill="#98BAF4"/>
<g opacity="0.5">
<g opacity="0.5">
<path opacity="0.5" d="M746.935 438.092H715.939V386.926H746.935V438.092ZM718.802 434.993H744.072V390.025H718.802V434.993Z" fill="white"/>
</g>
<path opacity="0.5" d="M744.432 404.551H718.447V406.875H744.432V404.551Z" fill="white"/>
<path opacity="0.5" d="M744.432 420.547H718.447V422.871H744.432V420.547Z" fill="white"/>
<path opacity="0.5" d="M732.51 436.544V388.25H730.363V436.544H732.51Z" fill="white"/>
</g>
</g>
<g opacity="0.5">
<path opacity="0.5" d="M827.009 388.476H798.876V436.543H827.009V388.476Z" fill="#102343" fill-opacity="0.54"/>
<g opacity="0.5">
<g opacity="0.5">
<path opacity="0.5" d="M828.171 438.092H797.175V386.927H828.171V438.092ZM800.038 434.993H825.312V390.026H800.038V434.993Z" fill="white"/>
</g>
<path opacity="0.5" d="M825.663 404.551H799.678V406.875H825.663V404.551Z" fill="white"/>
<path opacity="0.5" d="M825.663 420.547H799.678V422.871H825.663V420.547Z" fill="white"/>
<path opacity="0.5" d="M813.748 436.542V388.248H811.601V436.542H813.748Z" fill="white"/>
</g>
</g>
<g opacity="0.5">
<path opacity="0.5" d="M908.24 388.476H880.107V436.543H908.24V388.476Z" fill="#102343" fill-opacity="0.54"/>
<g opacity="0.5">
<g opacity="0.5">
<path opacity="0.5" d="M909.402 438.092H878.411V386.927H909.402V438.092ZM881.269 434.993H906.539V390.026H881.269V434.993Z" fill="white"/>
</g>
<path opacity="0.5" d="M906.899 404.551H880.914V406.875H906.899V404.551Z" fill="white"/>
<path opacity="0.5" d="M906.899 420.547H880.914V422.871H906.899V420.547Z" fill="white"/>
<path opacity="0.5" d="M894.981 436.545V388.251H892.834V436.545H894.981Z" fill="white"/>
</g>
</g>
</g>
<path opacity="0.8" d="M1375 286.622H935.306V303.37H1375V286.622Z" fill="#E1E9F3"/>
<path opacity="0.8" d="M1323.26 500.907H994.769V508.339H1323.26V500.907Z" fill="#BAD0F2"/>
</g>
<path d="M508.258 503.95L477.383 503.838L424.274 503.639L327.882 503.284C322.474 495.781 304.979 470.26 290.804 434.005C288.849 429.011 286.965 423.812 285.175 418.427C282.661 410.849 280.352 402.911 278.358 394.649C276.066 385.135 274.187 375.204 272.906 364.931C287.484 367.179 303.858 371.512 320.585 379.363C373.855 404.349 356.415 440.866 381.334 440.866C406.265 440.866 407.917 425.307 432.842 435.897C457.772 446.488 454.707 468.99 470.285 467.589C481.576 466.568 496.469 474.774 503.805 488.198C506.369 492.867 508.004 498.178 508.258 503.95Z" fill="#8DCE9E"/>
<path d="M536.708 505.338L329.601 505.78C329.573 505.718 329.54 505.618 329.54 505.574C329.518 505.537 329.164 505.064 328.518 504.173C328.33 503.912 328.115 503.619 327.883 503.283C322.474 495.78 304.979 470.259 290.804 434.004C288.849 429.01 286.965 423.812 285.175 418.426C294.914 421.433 305.675 425.916 315.845 432.634C317.376 433.643 318.895 434.701 320.386 435.822C322.789 437.603 325.148 439.527 327.435 441.594C328.91 442.926 330.357 444.327 331.766 445.784C332.904 446.961 334.009 448.175 335.103 449.439C335.136 449.489 335.174 449.526 335.213 449.576C336.307 450.846 337.406 452.079 338.517 453.274C368.988 485.924 406.884 488.639 435.963 483.652C439.526 483.042 443.57 482.649 447.934 482.45C464.634 481.715 486.112 483.913 503.811 488.191C520.671 492.263 534.111 498.227 536.708 505.338Z" fill="#79B294"/>
<path d="M321.198 448.437C321.198 448.437 338.909 426.589 349.604 429.229C360.298 431.863 324.54 449.57 324.54 449.57L321.198 448.437Z" fill="#79B294"/>
<path d="M330.109 451.45C330.109 451.45 350.83 442.161 356.177 447.435C361.525 452.708 331.004 453.71 331.004 453.71L330.109 451.45Z" fill="#79B294"/>
<path d="M311.84 440.654C312.061 439.652 322.983 417.05 328.551 418.053C334.119 419.055 316.298 441.152 316.298 441.152L311.84 440.654Z" fill="#79B294"/>
<path d="M1053 76.7158C1053 76.7158 1064.4 55.117 1091.65 57.5204C1091.65 57.5204 1131.22 21.5266 1173.42 52.72C1173.42 52.72 1218.27 44.9932 1251.48 59.4131C1273.63 69.0264 1280.94 79.1129 1280.94 79.1129L1053 76.7158Z" fill="#F8FCFF"/>
<path d="M1412 276.388C1412 276.388 1418.62 263.22 1434.45 264.683C1434.45 264.683 1457.43 242.735 1481.94 261.757C1481.94 261.757 1507.99 257.043 1527.28 265.835C1540.14 271.7 1544.4 277.845 1544.4 277.845L1412 276.388Z" fill="#F8FCFF"/>
<path d="M735 140.607C735 140.607 741.618 127.439 757.45 128.902C757.45 128.902 780.431 106.954 804.942 125.975C804.942 125.975 830.994 121.262 850.284 130.054C863.145 135.919 867.398 142.064 867.398 142.064L735 140.607Z" fill="#F8FCFF"/>
<path d="M718.177 503.228C716.873 500.918 712.945 494.922 707.714 495.713C702.013 496.578 714.006 500.812 717.68 503.24C716.867 503.253 716.166 503.178 715.647 502.972C713.194 501.989 708.99 503.875 707.642 504.541H731.009C730.849 503.913 730.429 502.885 729.336 502.132C728.954 501.87 728.181 501.833 727.187 501.914C728.579 500.071 729.54 494.169 725.673 495.688C722.845 496.796 722.856 500.401 723.132 502.53C722.53 502.636 721.922 502.742 721.32 502.842C720.154 496.161 716.044 476.573 707.703 476.05C699.245 475.521 714.873 496.36 720.077 503.029C719.414 503.128 718.773 503.197 718.177 503.228Z" fill="#82B378"/>
<path d="M1256.74 503.228C1258.04 500.918 1261.97 494.922 1267.2 495.713C1272.9 496.578 1260.91 500.812 1257.24 503.24C1258.06 503.253 1258.75 503.178 1259.27 502.972C1261.72 501.989 1265.93 503.875 1267.27 504.541H1243.91C1244.07 503.913 1244.49 502.885 1245.58 502.132C1245.96 501.87 1246.74 501.833 1247.73 501.914C1246.34 500.071 1245.38 494.169 1249.24 495.688C1252.07 496.796 1252.06 500.401 1251.79 502.53C1252.39 502.636 1252.99 502.742 1253.6 502.842C1254.76 496.161 1258.88 476.573 1267.21 476.05C1275.67 475.521 1260.04 496.36 1254.84 503.029C1255.51 503.128 1256.15 503.197 1256.74 503.228Z" fill="#82B378"/>
<path d="M1114.8 505.799C1114.8 505.799 1115.86 490.607 1105.98 488.372C1096.1 486.137 1088.58 491.765 1076.12 485.34C1063.66 478.921 1052.54 476.99 1040.11 485.34C1027.67 493.689 1007.22 488.883 1006.16 505.793H1114.8V505.799Z" fill="#A8D29F"/>
<path d="M1930.48 511H2.51955C1.12863 511 0 509.867 0 508.489V506.738C0 505.351 1.13658 504.226 2.51955 504.226H1930.48C1931.86 504.226 1933 505.359 1933 506.738V508.489C1933 509.867 1931.86 511 1930.48 511Z" fill="#A3A8B1"/>
<path d="M582.277 524.674L591.013 528.728L600.014 524.674C599.882 523.742 599.432 520.911 598.599 518.306C598.314 517.4 597.977 516.513 597.594 515.753C595.867 512.307 584.909 514.496 584.909 514.496C584.909 514.496 583.891 515.369 583.097 518.702C582.746 520.164 582.436 522.115 582.277 524.674Z" fill="#182C4C"/>
<path d="M614.842 253.696C614.842 253.696 628.981 256.176 632.175 264.522C635.37 272.868 653.424 407.643 653.424 407.643C653.424 407.643 644.483 414.726 625.291 412.187C606.099 409.64 614.842 253.696 614.842 253.696Z" fill="#91CFF2"/>
<path d="M635.885 519.073C635.931 521.487 635.885 524.43 637.115 524.674H672.206C671.763 523.404 670.5 521.493 666.896 520.911C662.802 520.25 656.42 518.279 652.696 514.337C651.367 512.935 650.382 511.289 649.945 509.358C648.292 502.01 636.295 511.606 636.295 511.606C636.295 511.606 635.806 515.482 635.885 519.073Z" fill="#182C4C"/>
<path d="M650.99 515.501C647.069 516.751 639.576 520.574 634.814 518.775C631.739 517.618 614.537 467.865 613.426 446.107C613.347 444.526 613.036 442.317 612.547 439.626C611.528 434.011 609.749 426.293 607.692 417.775C602.19 394.959 594.743 366.415 594.902 357.289C595.153 343.129 637.102 354.319 637.102 354.319C637.102 354.319 639.986 365.932 640.561 382.75C641.698 416.135 644.833 472.521 653.351 511.679C653.715 513.339 652.617 514.979 650.99 515.501Z" fill="#81ACC5"/>
<path d="M621.878 357.335L599.703 518.067C599.703 518.067 589.962 520.415 582.389 518.537C582.389 518.537 575.895 433.052 576.437 412.385C576.98 391.718 571.775 357.084 577.621 353.268C583.467 349.452 621.878 357.335 621.878 357.335Z" fill="#98BED3"/>
<path d="M574.817 261.063C574.817 261.063 598.123 245.991 614.841 253.703C617.507 254.933 620.542 258.358 622.718 260.752C628.763 267.412 640.568 373.174 640.568 373.174C640.568 373.174 607.051 384.523 574.817 369.318V261.063Z" fill="white"/>
<path d="M616.165 253.319C616.165 253.319 639.755 262.988 642.956 270.415C646.15 277.842 656.539 323.468 656.539 328.818C656.539 334.168 638.458 330.015 635.542 321.384C633.121 314.222 624.974 292.206 620.668 278.285L616.165 253.319Z" fill="#91CFF2"/>
<path d="M611.264 260.686C606.112 261.698 598.546 260.62 593.004 256.97C595.504 250.998 596.529 246.282 596.893 243.227C596.912 243.062 596.932 242.909 596.946 242.757C597.111 241.177 597.084 240.105 597.012 239.609H610.324C610.324 239.609 613.962 241.276 613.962 242.427C613.962 243.042 613.968 243.63 613.975 244.192C614.002 245.727 614.061 247.063 614.14 248.207C614.392 251.943 614.822 253.703 614.822 253.703C614.822 253.703 616.468 259.661 611.264 260.686Z" fill="#FFB27D"/>
<path d="M614.16 248.2C604.075 250.151 598.215 244.636 596.906 243.22C596.721 243.015 596.622 242.896 596.622 242.896C596.727 242.843 596.84 242.797 596.959 242.744C600.715 241.223 609.233 242.433 613.995 244.179C614.015 245.72 614.081 247.056 614.16 248.2Z" fill="#E2915A"/>
<path d="M593.606 237.414C595.411 247.116 607.924 246.798 613.34 246.19C614.861 246.018 615.82 245.826 615.82 245.826C617.54 245.37 618.492 242.665 618.942 239.12C619.821 232.11 618.71 221.819 617.526 219.187C615.741 215.226 612.388 210.947 599.782 214.035C587.164 217.13 591.291 224.987 593.606 237.414Z" fill="#FFB27D"/>
<path d="M617.989 213.777C616.263 211.39 612.612 208.48 609.292 206.681C602.17 202.826 593.043 206.807 593.004 206.82C582.707 211.35 580.021 219.227 585.478 231.501C591.251 244.477 596.747 243.022 596.747 243.022C596.747 243.022 595.583 242.294 595.689 238.254C595.695 238.022 595.702 237.83 595.715 237.665C595.768 236.838 595.477 236.005 594.855 235.45C593.572 234.305 592.951 230.853 594.022 229.894C595.312 228.737 597.13 230.146 597.712 231.224C598.222 231.991 599.128 232.255 599.974 231.72C603.182 229.696 601.098 225.642 604.16 223.162C607.222 220.682 613.439 222.765 618.029 220.788C624.04 218.552 619.292 215.576 617.989 213.777Z" fill="#233862"/>
<path d="M619.424 417.55C617.394 418.073 615.39 418.502 613.393 418.833C611.627 419.137 609.868 419.356 608.109 419.508C598.136 420.374 588.116 418.972 576.404 415.612C573.765 414.858 571.041 413.999 568.217 413.046C567.919 412.947 568.99 381.983 570.221 350.04C570.346 346.74 570.478 343.433 570.604 340.147C570.657 338.751 570.717 337.369 570.769 335.987C571.894 307.741 573.005 282.226 573.236 280.851C573.772 277.742 574.275 275.09 574.817 272.796C576.411 266.103 578.395 262.432 582.713 259.278C583.137 258.96 586.589 257.214 589.638 255.7C592.164 254.443 594.406 253.352 594.406 253.352C595.411 253.848 596.615 256.143 597.878 259.377C600.199 265.329 602.699 274.449 604.445 281.261C604.452 281.281 604.452 281.287 604.452 281.294C605.576 285.692 606.376 289.117 606.608 290.096C606.998 291.756 607.514 294.97 608.115 299.322C608.936 305.248 609.914 313.289 610.953 322.416C611.058 323.355 611.164 324.301 611.27 325.26C611.396 326.358 611.521 327.462 611.64 328.58C611.68 328.937 611.72 329.301 611.759 329.658C612.156 333.269 612.56 337.005 612.963 340.795C613.294 343.929 618.049 346.198 618.38 349.386C618.571 351.257 618.961 368.531 619.471 374.04C619.828 377.989 619.57 415.698 619.424 417.55Z" fill="#91CFF2"/>
<path d="M585.028 292.239C585.015 292.305 584.221 320.802 605.662 324.268C627.103 327.733 612.857 328.646 612.857 328.646C612.857 328.646 572.522 326.933 571.854 325.868C571.186 324.803 585.028 292.239 585.028 292.239Z" fill="#90C5E2"/>
<path d="M603.142 336.503C603.142 336.503 602.739 336.787 601.965 337.283C601.952 337.29 601.938 337.296 601.925 337.309C598.652 339.399 588.95 345.087 574.817 348.903C573.335 349.306 571.801 349.683 570.22 350.04C570.346 346.74 570.478 343.433 570.604 340.147C568.739 340.001 566.947 339.763 565.293 339.413C565.346 338.976 565.406 338.546 565.465 338.11C567.264 337.369 569.05 336.661 570.776 335.987C572.178 335.438 573.54 334.915 574.823 334.433C580.63 332.23 584.935 330.736 584.935 330.736L602.124 336.179L603.142 336.503Z" fill="#90C5E2"/>
<path d="M607.692 336.026C607.692 336.026 605.483 336.575 601.972 337.283C601.958 337.283 601.945 337.283 601.932 337.29C595.451 338.592 584.552 340.418 574.817 340.319C573.382 340.305 571.973 340.246 570.604 340.14C568.739 339.994 566.947 339.756 565.294 339.406C561.736 338.652 558.753 337.382 556.809 335.398C542.332 320.65 564.712 267.716 569.414 262.565C574.909 256.553 584.935 254.443 590.471 253.716C590.702 253.689 590.921 253.656 591.139 253.63C593.083 253.398 594.333 253.352 594.406 253.345C594.406 253.345 593.969 254.741 593.242 257.108C592.957 258.021 592.633 259.086 592.276 260.27C588.877 271.407 582.31 293.297 579.42 305.638C578.362 310.155 577.793 313.395 578.051 314.361C579.182 318.58 590.881 320.743 598.288 321.702C601.376 322.099 603.724 322.29 604.253 322.33C604.293 322.33 604.326 322.33 604.359 322.337L604.789 324.096L605.814 328.315L606.826 332.455L607.692 336.026Z" fill="#91CFF2"/>
<path d="M648.074 361.402L598.348 359.306L608.44 297.331L658.166 299.428L648.074 361.402Z" fill="#233862"/>
<path d="M604.366 322.356C604.366 322.356 614.048 321.682 614.531 323.937C615.662 329.195 606.211 333.513 603.142 333.222C600.08 332.925 602.137 321.999 604.366 322.356Z" fill="#FFB27D"/>
<path d="M655.447 312.007C655.447 312.007 646.189 309.11 645.19 311.193C642.875 316.047 651.069 322.436 654.118 322.859C657.167 323.282 657.696 312.185 655.447 312.007Z" fill="#FFB27D"/>
<path d="M595.411 250.244C595.411 250.244 590.815 251.044 588.778 253.967C588.778 253.967 604.524 281.538 604.452 281.294C604.379 281.049 599.306 253.63 595.411 250.244Z" fill="#90C5E2"/>
<path d="M614.372 250.614C615.715 251.117 618.287 253.756 618.863 255.21L620.675 278.285C620.675 278.285 616.812 261.348 614.842 253.696C614.339 251.752 614.432 251.163 614.372 250.614Z" fill="#8BBCD8"/>
<path d="M624.92 298.026C624.92 298.026 625.31 296.306 627.579 296.505C629.84 296.703 642.558 297.331 642.558 297.331C642.558 297.331 645.012 297.292 644.78 298.866L624.92 298.026Z" fill="#C65447"/>
<path d="M599.988 525.752C599.988 528.126 595.99 528.728 591.059 528.728C586.129 528.728 582.131 528.126 582.131 525.752C582.131 523.378 586.129 521.454 591.059 521.454C595.99 521.454 599.988 523.378 599.988 525.752Z" fill="#182C4C"/>
<rect x="635.984" y="523.768" width="36.3738" height="1.98403" rx="0.992013" fill="#182C4C"/>
<g clip-path="url(#clip0_303_736)">
<path d="M1239.63 465.553C1239.07 472.131 1224.82 540.833 1224.82 540.833H1218.17C1218.17 540.833 1211.6 513.896 1209.87 493.588C1208.16 473.28 1215.31 460.985 1215.31 460.985C1211.4 438.679 1199.62 388.214 1199.02 385.668C1199.01 385.606 1198.99 385.568 1198.99 385.568L1191.26 392.833C1191.26 392.833 1189.54 398.911 1187.25 408.647C1184.97 418.371 1173.24 459.562 1173.24 459.562C1173.24 459.562 1181.82 468.724 1186.98 482.729C1192.12 496.746 1189.55 539.073 1189.55 539.073L1188.69 539.909L1186.13 542.368L1153.49 464.43C1153.49 464.43 1152.36 455.842 1153.49 415.525C1153.84 403.168 1155.19 391.996 1156.89 382.435C1157.82 377.193 1158.85 372.437 1159.89 368.23C1159.98 367.893 1160.06 367.556 1160.14 367.232C1162.16 359.231 1164.14 353.352 1165.31 350.156C1165.98 348.334 1166.38 347.373 1166.38 347.373C1166.38 347.373 1167.86 349.732 1170.88 352.553C1171.2 352.853 1171.53 353.152 1171.88 353.452C1172.04 353.589 1172.2 353.739 1172.38 353.876C1177.6 358.22 1186.29 362.963 1198.72 361.74C1209.24 360.716 1217.54 356.847 1223.35 353.09C1223.54 352.965 1223.74 352.828 1223.94 352.703C1224.47 352.341 1224.98 351.991 1225.47 351.642C1230.46 348.072 1233.07 344.964 1233.07 344.964C1233.28 346.499 1233.29 348.621 1233.17 351.018C1232.93 355.973 1232.15 362.102 1231.52 366.608C1231.48 366.832 1231.45 367.045 1231.43 367.257C1231.37 367.656 1231.32 368.056 1231.25 368.43C1230.85 371.126 1230.55 372.886 1230.55 372.886C1230.67 372.899 1230.78 372.911 1230.89 372.924C1232.32 373.061 1233.74 373.298 1235.1 373.585L1235.15 374.559L1236.64 404.953L1236.69 405.951L1239.63 465.553Z" fill="#B59A5F"/>
<path d="M1258.66 332.195C1258.63 332.419 1258.58 332.632 1258.56 332.856V332.869C1256.7 343.878 1253.37 356.023 1249.54 366.383C1249.35 366.895 1249.14 367.407 1248.96 367.931C1248.96 367.931 1248.96 367.931 1248.96 367.943C1248.96 367.956 1248.96 367.956 1248.96 367.956C1248.96 367.968 1248.96 367.968 1248.96 367.968C1248.96 367.981 1248.96 367.981 1248.96 367.981C1248.66 368.78 1248.35 369.554 1248.05 370.315C1247.97 370.527 1247.89 370.714 1247.8 370.914C1246.97 372.961 1246.1 374.896 1245.23 376.743C1245.23 376.743 1243.03 375.782 1239.83 374.809C1239.62 374.734 1239.42 374.671 1239.19 374.609C1237.94 374.247 1236.55 373.872 1235.1 373.573C1234.88 373.523 1234.66 373.473 1234.43 373.436C1233.17 373.186 1231.87 372.999 1230.55 372.874C1230.55 372.874 1231.14 369.379 1231.78 364.76C1231.8 364.548 1231.83 364.324 1231.87 364.099C1232.6 358.544 1233.37 351.579 1233.23 347.086C1233.23 347.073 1233.23 347.073 1233.23 347.073C1233.2 346.287 1233.15 345.576 1233.07 344.951L1233.05 344.964C1232.89 345.151 1231.59 346.649 1229.22 348.684C1228.16 349.607 1226.88 350.618 1225.4 351.679C1223.09 353.327 1220.26 355.074 1216.95 356.647C1216.74 356.747 1216.52 356.847 1216.3 356.947C1212.93 358.494 1209.1 359.868 1204.8 360.779C1204.59 360.829 1204.39 360.866 1204.16 360.904C1202.43 361.253 1200.62 361.528 1198.73 361.715C1196.68 361.915 1194.72 361.952 1192.87 361.852C1192.66 361.84 1192.45 361.827 1192.24 361.815C1186.72 361.44 1182.13 359.868 1178.41 357.895C1178.19 357.771 1177.97 357.658 1177.75 357.533C1173.33 355.062 1170.23 352.054 1168.39 349.944C1167.05 348.384 1166.38 347.335 1166.38 347.335C1166.38 347.335 1165.83 341.781 1165.25 334.828C1165.22 334.616 1165.2 334.404 1165.18 334.179C1164.93 331.271 1164.68 328.151 1164.47 325.105C1164.11 320.087 1163.84 315.294 1163.81 312.099C1163.81 312.086 1163.81 312.086 1163.81 312.086V311.737C1163.81 311.737 1163.44 312.823 1162.86 314.533C1162.84 314.595 1162.81 314.657 1162.8 314.707C1162.6 315.281 1162.37 315.931 1162.15 316.617C1160.43 321.735 1157.84 329.549 1156.8 333.48C1156.74 333.705 1156.69 333.917 1156.64 334.117C1156.59 334.329 1156.54 334.516 1156.52 334.679C1156.52 334.679 1156.74 337.687 1156.74 347.548C1156.74 352.129 1156.32 356.71 1155.85 360.292C1155.82 360.554 1155.79 360.804 1155.75 361.041C1155.44 363.362 1155.13 365.197 1154.94 366.258C1154.92 366.408 1154.89 366.558 1154.88 366.67C1154.87 366.683 1154.87 366.683 1154.88 366.683C1154.81 367.02 1154.78 367.207 1154.77 367.257L1154.76 367.269C1154.76 367.269 1154.58 367.244 1154.24 367.232C1153.54 367.194 1152.18 367.157 1150.42 367.419C1149.57 367.544 1148.62 367.731 1147.62 368.006C1147.41 368.068 1147.2 368.131 1146.97 368.193C1144.54 368.942 1141.78 370.228 1139.07 372.437C1139.07 372.437 1138.33 369.129 1137.46 363.937C1137.42 363.737 1137.38 363.525 1137.34 363.3C1136.01 355.386 1134.38 343.466 1134.33 332.17C1134.32 331.958 1134.32 331.745 1134.32 331.521C1134.32 328.85 1134.41 326.203 1134.62 323.669C1135.06 318.489 1135.97 313.197 1137.21 307.979C1137.24 307.767 1137.31 307.555 1137.36 307.33C1137.91 305.009 1138.53 302.712 1139.19 300.44C1139.26 300.228 1139.32 300.016 1139.38 299.804C1140.25 296.858 1141.2 293.962 1142.19 291.141C1142.35 290.667 1142.53 290.18 1142.69 289.706C1144.5 284.675 1146.4 279.932 1148.21 275.663V275.651C1148.36 275.276 1148.54 274.927 1148.69 274.565C1149.01 273.804 1149.33 273.055 1149.66 272.331C1149.75 272.118 1149.85 271.919 1149.92 271.707C1150.67 269.996 1151.4 268.386 1152.07 266.888C1153.78 263.081 1155.93 259.487 1158.54 256.266C1158.65 256.116 1158.76 255.979 1158.89 255.829C1158.94 255.767 1158.99 255.717 1159.04 255.655C1159.18 255.505 1159.3 255.343 1159.44 255.193C1162.46 251.723 1166.07 248.752 1170.33 246.555C1171.52 245.943 1172.74 245.394 1174.03 244.895C1174.48 245.369 1174.93 245.831 1175.39 246.281C1175.84 246.73 1176.31 247.117 1176.8 247.479C1177.01 247.641 1177.24 247.791 1177.45 247.928C1179.76 249.451 1182.24 250.088 1184.61 250.212C1186.8 250.337 1188.88 250 1190.59 249.538C1190.81 249.476 1191.04 249.414 1191.25 249.351C1192.45 248.977 1193.42 248.565 1194.06 248.215C1195.33 247.529 1197.58 243.809 1199.66 239.977L1200.28 239.852C1200.28 239.852 1200.5 239.765 1200.95 239.64L1208.81 238.954L1208.94 238.941C1209.1 238.954 1209.27 238.954 1209.43 238.978C1210.01 239.016 1210.6 239.066 1211.23 239.128C1213.62 239.39 1216.37 239.902 1219.48 240.801C1219.69 240.863 1219.89 240.926 1220.1 240.988C1220.78 241.188 1221.46 241.412 1222.17 241.65C1231.12 244.745 1236.19 249.426 1239.78 255.255C1239.91 255.455 1240.06 255.68 1240.17 255.892C1241.75 258.525 1243.03 261.384 1244.27 264.429C1244.43 264.829 1244.58 265.216 1244.76 265.615C1244.76 265.628 1244.76 265.628 1244.76 265.628C1244.84 265.852 1244.93 266.077 1245.02 266.302C1245.37 267.2 1245.74 268.124 1246.12 269.085C1246.2 269.297 1246.28 269.497 1246.37 269.709C1247.63 272.867 1249.05 276.325 1250.5 280.007V280.032C1250.68 280.481 1250.84 280.931 1251.03 281.38C1253.19 286.96 1255.37 292.951 1257.12 299.017V299.03C1257.2 299.242 1257.25 299.454 1257.31 299.679C1257.97 301.938 1258.54 304.222 1259.04 306.482C1259.09 306.706 1259.14 306.918 1259.18 307.131C1259.29 307.655 1259.39 308.167 1259.51 308.678C1260.67 314.52 1260.18 322.933 1258.66 332.195Z" fill="#58ABA6"/>
<path d="M1335.94 212.579C1331.93 216.873 1324.5 216.299 1324.5 216.299C1324.5 216.299 1322.77 218.445 1319.92 220.755C1318.61 221.828 1317.06 222.939 1315.35 223.875C1311.09 226.222 1305.87 227.869 1300.71 226.759C1300.11 226.634 1299.51 226.471 1298.92 226.259C1298.1 225.972 1297.27 225.61 1296.45 225.161C1290.02 221.591 1288.73 212.442 1290.58 198.561C1291.63 190.76 1293.43 186.441 1295.03 184.082C1296.21 184.157 1297.54 183.62 1298.59 182.51C1298.59 182.51 1300.41 187.552 1307.82 187.552C1315.22 187.552 1320.16 181.923 1320.16 181.923C1320.16 181.923 1323.87 187.065 1327.89 188.426C1328.49 188.626 1329.09 188.751 1329.69 188.763C1329.69 188.763 1330.78 193.668 1331 198.274C1331.21 202.893 1331 205.14 1331 205.14C1331 205.14 1331.23 205.04 1331.65 204.827C1331.65 204.852 1331.65 204.865 1331.65 204.865C1331.65 204.865 1331.68 204.827 1331.75 204.79C1332.63 204.316 1334.26 203.38 1336.09 201.869C1336.52 201.67 1336.89 201.495 1337.23 201.432C1339.09 200.995 1339.94 208.285 1335.94 212.579Z" fill="#FFB27D"/>
<path d="M1335.94 212.579C1331.93 216.873 1324.5 216.299 1324.5 216.299C1324.5 216.299 1322.77 218.445 1319.92 220.755C1318.61 221.828 1317.06 222.939 1315.35 223.875C1311.09 226.222 1305.87 227.869 1300.71 226.758C1300.11 226.634 1299.51 226.471 1298.92 226.259C1312.91 226.347 1320.47 216.473 1325.36 207.386C1329.04 200.596 1328.62 193.057 1327.9 188.438C1328.5 188.638 1329.1 188.763 1329.7 188.775C1329.7 188.775 1330.8 193.681 1331.01 198.287C1331.22 202.905 1331.01 205.152 1331.01 205.152C1331.01 205.152 1331.25 205.052 1331.66 204.84C1331.66 204.865 1331.66 204.877 1331.66 204.877C1331.66 204.877 1331.7 204.84 1331.76 204.802C1332.65 204.328 1334.27 203.392 1336.1 201.882C1336.53 201.682 1336.9 201.507 1337.24 201.445C1339.09 200.995 1339.94 208.285 1335.94 212.579Z" fill="#E2A981"/>
<path d="M1195.01 257.727C1195.01 261.646 1194.86 266.077 1194.63 271.107C1194.63 271.32 1194.62 271.532 1194.61 271.744C1194.5 274.203 1194.39 276.799 1194.25 279.545C1194.05 283.627 1193.84 288.083 1193.64 292.989C1193.47 296.796 1193.32 298.893 1193.2 300.528C1193.17 300.715 1193.17 300.89 1193.15 301.064C1193.15 301.102 1193.15 301.127 1193.15 301.164C1193.02 302.924 1192.91 304.385 1192.82 307.518C1192.82 307.73 1192.82 307.942 1192.81 308.167C1192.71 312.648 1192.7 320.324 1192.74 335.902V336.539C1192.76 343.366 1192.8 351.679 1192.86 361.877C1192.65 361.865 1192.44 361.852 1192.22 361.84C1192.16 351.667 1192.12 343.366 1192.1 336.539V335.889C1192.05 320.362 1192.09 312.685 1192.17 308.179C1192.19 307.955 1192.19 307.742 1192.19 307.543C1192.26 304.422 1192.37 302.937 1192.51 301.189C1192.51 301.139 1192.51 301.077 1192.52 301.027C1192.52 300.877 1192.55 300.715 1192.56 300.54C1192.67 298.905 1192.84 296.796 1193 292.964C1193.21 288.071 1193.41 283.614 1193.61 279.52C1193.74 276.799 1193.86 274.228 1193.97 271.794C1193.99 271.582 1194 271.37 1194.01 271.145C1194.24 266.102 1194.39 261.658 1194.39 257.752V257.115C1194.37 256.091 1194.36 255.093 1194.34 254.132C1194.32 253.945 1194.46 253.807 1194.65 253.795C1194.81 253.782 1194.97 253.932 1194.98 254.107C1195.01 255.068 1195.02 256.054 1195.02 257.09C1195.01 257.302 1195.01 257.514 1195.01 257.727Z" fill="#3D292A"/>
<path d="M1240.18 255.942C1235.08 255.904 1227.18 256.141 1219.03 256.478C1218.81 256.491 1218.6 256.491 1218.39 256.503C1214.77 256.653 1211.12 256.828 1207.65 257.015C1207.44 257.028 1207.22 257.04 1207 257.053C1202.64 257.277 1198.58 257.514 1195.26 257.727C1195.17 257.739 1195.1 257.739 1195.01 257.739C1194.8 257.752 1194.57 257.776 1194.36 257.776C1192.36 257.889 1190.26 257.926 1188.12 257.926C1184.62 257.926 1181 257.801 1177.46 257.639C1177.25 257.627 1177.04 257.614 1176.82 257.602C1171.79 257.34 1167 256.965 1163.09 256.666C1161.86 256.566 1160.69 256.478 1159.64 256.403C1159.41 256.391 1159.19 256.366 1158.98 256.366C1158.81 256.354 1158.68 256.341 1158.53 256.329C1158.64 256.179 1158.75 256.041 1158.88 255.892C1158.88 255.829 1158.86 255.767 1158.85 255.704C1158.9 255.717 1158.96 255.717 1159.03 255.717C1159.18 255.729 1159.35 255.742 1159.51 255.754C1160.51 255.829 1161.72 255.917 1163.14 256.029C1167.03 256.329 1171.82 256.703 1176.81 256.965C1177.02 256.978 1177.25 256.978 1177.46 256.99C1183.17 257.277 1189.14 257.415 1194.37 257.14C1194.58 257.127 1194.8 257.127 1195 257.102C1195.07 257.102 1195.15 257.102 1195.22 257.09C1198.56 256.89 1202.65 256.653 1207.06 256.416C1207.27 256.403 1207.49 256.403 1207.71 256.391C1211.18 256.204 1214.83 256.041 1218.43 255.879C1218.64 255.867 1218.86 255.867 1219.08 255.854C1227.01 255.517 1234.68 255.28 1239.8 255.305C1239.92 255.505 1240.06 255.717 1240.18 255.942Z" fill="#53CEC2"/>
<path d="M1178.39 357.908C1178.16 357.783 1177.95 357.671 1177.72 357.546C1177.54 352.615 1177.25 344.465 1177.02 335.765C1177.02 335.552 1177.01 335.328 1177.01 335.116C1176.82 327.102 1176.69 318.689 1176.78 311.949C1176.79 310.863 1176.8 309.652 1176.81 308.329V307.692C1176.82 305.745 1176.84 303.611 1176.85 301.302V300.665C1176.87 292.477 1176.87 282.404 1176.85 272.68C1176.86 272.468 1176.86 272.256 1176.85 272.031C1176.85 266.988 1176.84 262.058 1176.82 257.577C1176.82 257.365 1176.82 257.152 1176.81 256.94C1176.81 253.47 1176.8 250.275 1176.79 247.504C1177 247.666 1177.22 247.816 1177.44 247.953C1177.45 250.624 1177.46 253.657 1177.46 256.953C1177.47 257.165 1177.47 257.39 1177.46 257.602C1177.47 262.07 1177.49 266.976 1177.5 272.006C1177.5 272.218 1177.51 272.43 1177.5 272.655C1177.51 282.354 1177.52 292.464 1177.5 300.64C1177.5 300.852 1177.5 301.064 1177.5 301.277C1177.5 303.586 1177.47 305.733 1177.47 307.68V308.316C1177.47 309.64 1177.45 310.85 1177.44 311.936C1177.36 318.689 1177.49 327.127 1177.67 335.14C1177.69 335.353 1177.69 335.565 1177.69 335.79C1177.9 344.714 1178.2 353.04 1178.39 357.908Z" fill="#53CEC2"/>
<path d="M1209.45 239.016C1209.09 242.598 1208.45 248.964 1207.7 256.378C1207.69 256.591 1207.66 256.803 1207.64 257.015C1207.21 261.259 1206.77 265.84 1206.34 270.433C1206.31 270.646 1206.3 270.858 1206.28 271.07C1205.64 277.748 1205.03 284.426 1204.54 290.118C1204.28 293.126 1204.08 296.621 1203.94 300.428C1203.94 300.64 1203.93 300.852 1203.91 301.077C1203.84 303.062 1203.79 305.121 1203.73 307.243C1203.73 307.455 1203.73 307.667 1203.73 307.88C1203.54 316.842 1203.57 326.74 1203.73 335.727C1203.74 335.939 1203.75 336.152 1203.75 336.376C1203.96 346.761 1204.34 355.861 1204.79 360.816C1204.58 360.866 1204.38 360.904 1204.15 360.941C1203.7 355.986 1203.32 346.836 1203.1 336.401C1203.1 336.189 1203.1 335.977 1203.1 335.752C1202.93 326.765 1202.89 316.879 1203.08 307.905C1203.08 307.692 1203.08 307.48 1203.1 307.268C1203.14 305.146 1203.2 303.086 1203.28 301.089C1203.28 300.877 1203.29 300.665 1203.29 300.44C1203.44 296.608 1203.64 293.101 1203.9 290.068C1204.39 284.388 1205 277.748 1205.64 271.107C1205.65 270.895 1205.68 270.683 1205.7 270.471C1206.14 265.877 1206.59 261.309 1207 257.053C1207.01 256.84 1207.05 256.628 1207.06 256.403C1207.8 248.964 1208.45 242.586 1208.81 238.991L1208.94 238.978C1209.1 238.991 1209.27 238.991 1209.45 239.016Z" fill="#53CEC2"/>
<path d="M1220.1 241.038C1219.84 244.907 1219.48 250.113 1219.06 255.854C1219.06 256.066 1219.04 256.279 1219.03 256.491C1218.9 258.288 1218.76 260.148 1218.63 262.02C1218.48 264.105 1218.28 266.876 1218.07 270.109C1218.05 270.321 1218.03 270.533 1218.03 270.745C1217.49 278.672 1216.89 289.331 1216.62 300.266C1216.6 300.478 1216.59 300.69 1216.59 300.915C1216.54 302.912 1216.5 304.909 1216.49 306.918C1216.48 307.131 1216.48 307.343 1216.48 307.568C1216.43 312.847 1216.48 318.053 1216.69 322.921C1216.87 327.177 1216.98 331.346 1217.05 335.253C1217.07 335.465 1217.07 335.677 1217.07 335.889C1217.2 344.802 1217.09 352.353 1216.94 356.685C1216.73 356.784 1216.5 356.884 1216.29 356.984C1216.44 352.853 1216.59 345.276 1216.44 335.914C1216.44 335.715 1216.43 335.49 1216.43 335.278C1216.37 331.421 1216.25 327.277 1216.07 322.945C1215.85 318.077 1215.8 312.86 1215.85 307.58V306.931C1215.88 304.934 1215.92 302.924 1215.95 300.927C1215.97 300.715 1215.97 300.503 1215.97 300.278C1216.24 289.344 1216.85 278.696 1217.38 270.758C1217.39 270.546 1217.42 270.333 1217.42 270.121C1217.64 266.839 1217.84 264.067 1217.99 261.97C1218.12 260.123 1218.25 258.301 1218.38 256.528C1218.39 256.316 1218.42 256.104 1218.42 255.892C1218.84 250.05 1219.2 244.758 1219.46 240.863C1219.68 240.901 1219.89 240.963 1220.1 241.038Z" fill="#53CEC2"/>
<path d="M1154.86 366.695C1154.84 366.708 1154.84 366.708 1154.86 366.708C1154.78 367.045 1154.76 367.232 1154.74 367.282L1154.73 367.294C1154.73 367.294 1154.56 367.269 1154.22 367.257C1153.89 358.432 1153.42 345.688 1152.96 333.817C1152.96 333.593 1152.96 333.38 1152.93 333.168C1152.55 323.22 1152.17 313.946 1151.9 308.142C1151.88 308.054 1151.88 307.967 1151.88 307.88C1151.87 307.755 1151.87 307.63 1151.86 307.505C1151.75 305.358 1151.6 303.186 1151.43 301.052L1151.38 300.403C1150.53 290.455 1149.1 281.118 1148.2 275.713V275.701C1148.35 275.326 1148.52 274.977 1148.67 274.615C1149.54 279.845 1151.13 289.781 1152.02 300.415C1152.05 300.627 1152.06 300.852 1152.08 301.064C1152.26 303.186 1152.4 305.358 1152.51 307.505C1152.52 307.617 1152.52 307.73 1152.52 307.842C1152.53 307.942 1152.53 308.054 1152.53 308.154C1152.79 313.983 1153.18 323.282 1153.57 333.231C1153.58 333.455 1153.58 333.668 1153.59 333.88C1154.06 345.501 1154.52 357.92 1154.86 366.695Z" fill="#53CEC2"/>
<path d="M1147.6 368.031C1147.39 368.093 1147.17 368.156 1146.95 368.218C1147.2 361.727 1147.31 351.155 1146.52 339.659C1146.39 337.687 1146.22 335.515 1146.04 333.193C1146.03 332.981 1146 332.769 1145.99 332.544C1145.39 325.105 1144.59 316.28 1143.81 308.042C1143.79 307.83 1143.76 307.617 1143.75 307.405C1143.53 305.096 1143.31 302.849 1143.1 300.702C1143.08 300.478 1143.05 300.266 1143.04 300.053C1142.73 296.82 1142.43 293.812 1142.18 291.191C1142.34 290.717 1142.52 290.23 1142.68 289.756C1142.98 292.714 1143.31 296.234 1143.69 300.078C1143.71 300.29 1143.73 300.503 1143.76 300.727C1143.96 302.874 1144.18 305.121 1144.39 307.405C1144.41 307.617 1144.43 307.83 1144.45 308.054C1145.24 316.317 1146.04 325.167 1146.64 332.607C1146.66 332.831 1146.67 333.043 1146.7 333.256C1146.87 335.54 1147.04 337.674 1147.17 339.609C1147.95 350.993 1147.85 361.478 1147.6 368.031Z" fill="#53CEC2"/>
<path d="M1257.32 299.741C1255.27 299.641 1252.62 299.567 1249.59 299.591C1249.38 299.591 1249.16 299.591 1248.94 299.604C1246.69 299.629 1244.23 299.729 1241.65 299.904C1241.43 299.916 1241.21 299.928 1241 299.953C1240.55 299.978 1240.11 300.016 1239.65 300.053C1234.86 300.478 1226.25 300.727 1216.58 300.89C1216.37 300.89 1216.14 300.902 1215.93 300.902C1212.01 300.977 1207.94 301.027 1203.88 301.064C1203.67 301.064 1203.45 301.077 1203.24 301.077C1199.81 301.114 1196.38 301.152 1193.11 301.164C1192.9 301.164 1192.7 301.164 1192.47 301.177C1190.9 301.189 1189.34 301.189 1187.84 301.214C1183.99 301.239 1180.47 301.277 1177.46 301.302C1177.25 301.314 1177.02 301.314 1176.81 301.314C1175.73 301.326 1174.71 301.339 1173.78 301.351C1172.44 301.376 1171.04 301.389 1169.61 301.389C1167.4 301.389 1165.06 301.376 1162.7 301.326C1162.49 301.326 1162.27 301.314 1162.05 301.314C1158.68 301.252 1155.26 301.164 1152.05 301.064C1151.83 301.052 1151.61 301.039 1151.4 301.039C1148.61 300.94 1146 300.84 1143.71 300.727C1143.49 300.715 1143.28 300.715 1143.07 300.702C1141.59 300.627 1140.27 300.553 1139.14 300.478C1139.21 300.266 1139.27 300.053 1139.33 299.841C1140.39 299.916 1141.63 299.978 1143.02 300.053C1143.23 300.066 1143.44 300.066 1143.66 300.078C1145.94 300.203 1148.56 300.303 1151.36 300.403C1151.57 300.415 1151.78 300.415 1152 300.415C1155.19 300.528 1158.61 300.627 1162.06 300.677C1162.27 300.677 1162.49 300.677 1162.71 300.69C1166.51 300.752 1170.31 300.765 1173.79 300.715C1174.71 300.702 1175.73 300.69 1176.82 300.677C1177.04 300.677 1177.25 300.677 1177.47 300.677C1180.47 300.64 1184.01 300.603 1187.84 300.578C1189.35 300.565 1190.93 300.553 1192.52 300.54C1192.74 300.54 1192.95 300.528 1193.17 300.528C1196.43 300.503 1199.84 300.465 1203.27 300.428C1203.48 300.428 1203.7 300.428 1203.91 300.415C1207.97 300.378 1212.03 300.315 1215.95 300.253C1216.17 300.241 1216.39 300.241 1216.6 300.241C1226.23 300.066 1234.83 299.816 1239.59 299.404C1240.05 299.367 1240.51 299.329 1240.97 299.292C1241.18 299.279 1241.4 299.254 1241.62 299.254C1244.23 299.067 1246.7 298.967 1248.98 298.942C1249.19 298.93 1249.41 298.93 1249.63 298.93C1252.55 298.905 1255.11 298.967 1257.12 299.055V299.067C1257.21 299.304 1257.27 299.517 1257.32 299.741Z" fill="#53CEC2"/>
<path d="M1259.21 307.193C1256.78 307.056 1253.46 306.931 1249.14 306.918H1248.33C1246.44 306.918 1244.26 306.931 1241.83 306.968C1241.62 306.981 1241.41 306.981 1241.2 306.981C1234.51 307.081 1226.01 307.293 1216.5 307.543C1216.29 307.555 1216.08 307.555 1215.87 307.555C1213.37 307.617 1210.8 307.692 1208.17 307.755C1206.71 307.792 1205.24 307.83 1203.74 307.867C1203.53 307.88 1203.3 307.88 1203.09 307.88C1199.74 307.967 1196.32 308.054 1192.82 308.154C1192.69 308.154 1192.55 308.167 1192.41 308.167C1192.34 308.167 1192.25 308.167 1192.17 308.179C1187.57 308.279 1182.54 308.341 1177.47 308.341H1176.31C1171.75 308.341 1167.16 308.304 1162.79 308.279C1162.57 308.267 1162.36 308.267 1162.15 308.267C1158.78 308.229 1155.55 308.179 1152.56 308.142C1152.34 308.142 1152.13 308.142 1151.92 308.129C1151.6 308.129 1151.27 308.129 1150.95 308.117C1148.67 308.092 1146.47 308.067 1144.45 308.042C1144.24 308.042 1144.03 308.042 1143.83 308.029C1141.23 308.004 1138.96 307.992 1137.21 307.992C1137.24 307.78 1137.31 307.568 1137.36 307.343C1138.94 307.33 1141.04 307.355 1143.76 307.38C1143.98 307.38 1144.18 307.38 1144.4 307.38C1146.29 307.393 1148.47 307.43 1150.96 307.455C1151.27 307.455 1151.57 307.468 1151.88 307.468C1152.1 307.48 1152.31 307.48 1152.52 307.48C1155.52 307.518 1158.76 307.568 1162.14 307.605C1162.35 307.617 1162.56 307.617 1162.79 307.617C1167.35 307.667 1172.1 307.692 1176.84 307.692H1177.49C1182.58 307.68 1187.6 307.63 1192.2 307.53C1192.27 307.518 1192.34 307.518 1192.4 307.518C1192.55 307.518 1192.7 307.505 1192.85 307.505C1196.35 307.418 1199.78 307.318 1203.12 307.243C1203.33 307.243 1203.54 307.23 1203.74 307.23C1205.24 307.193 1206.7 307.143 1208.16 307.106C1210.78 307.043 1213.37 306.968 1215.87 306.906C1216.09 306.906 1216.3 306.893 1216.52 306.893C1226.03 306.656 1234.51 306.444 1241.21 306.344C1241.42 306.344 1241.63 306.332 1241.85 306.332C1244.27 306.294 1246.44 306.282 1248.34 306.282H1249.19C1253.39 306.307 1256.67 306.407 1259.08 306.544C1259.11 306.769 1259.16 306.981 1259.21 307.193Z" fill="#53CEC2"/>
<path d="M1244.76 265.665C1244.76 265.678 1244.76 265.678 1244.76 265.678C1244.57 266.926 1244.38 268.162 1244.21 269.372C1244.17 269.597 1244.13 269.822 1244.09 270.046C1244.07 270.221 1244.04 270.396 1244.02 270.583C1242.67 279.383 1241.4 287.733 1241.63 299.267C1241.65 299.467 1241.65 299.691 1241.65 299.904C1241.66 300.69 1241.68 301.489 1241.72 302.3C1241.77 303.636 1241.81 304.984 1241.82 306.344C1241.83 306.556 1241.83 306.769 1241.82 306.981C1241.86 315.531 1241.12 324.431 1240.45 332.407C1240.41 332.906 1240.36 333.405 1240.32 333.905C1240.31 334.129 1240.28 334.342 1240.27 334.554C1239.7 341.344 1239.24 347.697 1239.35 352.927C1239.54 360.404 1239.7 368.917 1239.81 374.821C1239.6 374.746 1239.4 374.684 1239.16 374.621C1239.05 368.73 1238.89 360.329 1238.7 352.952C1238.59 347.71 1239.05 341.369 1239.61 334.604C1239.62 334.392 1239.64 334.167 1239.66 333.955C1239.71 333.418 1239.76 332.894 1239.8 332.357C1240.47 324.381 1241.21 315.506 1241.17 306.993C1241.18 306.781 1241.18 306.569 1241.17 306.357C1241.16 305.009 1241.12 303.673 1241.07 302.338C1241.03 301.526 1241.01 300.74 1241 299.966C1240.98 299.754 1240.98 299.542 1240.98 299.329C1240.75 287.721 1242.02 279.333 1243.38 270.508C1243.41 270.383 1243.41 270.271 1243.43 270.146C1243.47 269.934 1243.51 269.709 1243.54 269.485C1243.78 267.862 1244.03 266.202 1244.27 264.492C1244.44 264.879 1244.59 265.266 1244.76 265.665Z" fill="#53CEC2"/>
<path d="M1251.04 281.43C1250.68 285.587 1250.11 292.052 1249.64 298.942C1249.63 299.155 1249.61 299.367 1249.59 299.592C1249.44 301.801 1249.29 304.06 1249.16 306.282C1249.15 306.494 1249.14 306.706 1249.13 306.918C1248.84 312.036 1248.64 316.979 1248.63 321.011C1248.62 324.418 1248.65 328.65 1248.73 333.243C1248.73 333.455 1248.73 333.668 1248.73 333.88C1248.89 345.139 1249.23 358.332 1249.51 366.358C1249.33 366.87 1249.11 367.382 1248.94 367.906C1248.63 360.005 1248.28 345.738 1248.1 333.93C1248.09 333.718 1248.09 333.505 1248.09 333.281C1248.03 328.562 1247.98 324.281 1247.99 320.998C1248 316.979 1248.2 312.024 1248.49 306.906C1248.5 306.694 1248.52 306.482 1248.53 306.269C1248.65 304.048 1248.8 301.801 1248.95 299.592C1248.95 299.379 1248.98 299.167 1248.99 298.942C1249.53 291.266 1250.14 284.101 1250.5 280.07C1250.69 280.531 1250.86 280.981 1251.04 281.43Z" fill="#53CEC2"/>
<path d="M1246.38 269.772C1245.65 269.872 1244.89 269.959 1244.09 270.059C1243.88 270.084 1243.66 270.109 1243.43 270.134C1238.82 270.658 1233.32 271.082 1228.67 270.883C1225.4 270.745 1221.87 270.695 1218.03 270.733C1217.82 270.733 1217.59 270.733 1217.38 270.745C1213.94 270.783 1210.26 270.895 1206.28 271.082C1206.06 271.095 1205.85 271.107 1205.63 271.107C1202.18 271.27 1198.52 271.482 1194.61 271.756C1194.4 271.769 1194.17 271.781 1193.96 271.794C1192.32 271.906 1190.65 272.031 1188.93 272.156C1185.44 272.418 1181.52 272.593 1177.49 272.668C1177.27 272.68 1177.06 272.68 1176.84 272.68C1174.53 272.718 1172.17 272.742 1169.86 272.742C1167.07 272.742 1164.33 272.718 1161.74 272.68C1161.52 272.68 1161.3 272.668 1161.09 272.668C1156.58 272.593 1152.57 272.468 1149.62 272.356C1149.71 272.143 1149.81 271.944 1149.88 271.731C1152.79 271.831 1156.68 271.944 1161.03 272.019C1161.24 272.019 1161.46 272.031 1161.67 272.031C1166.45 272.106 1171.72 272.131 1176.82 272.043C1177.04 272.043 1177.26 272.031 1177.47 272.031C1181.48 271.956 1185.39 271.794 1188.86 271.532C1190.61 271.394 1192.32 271.27 1193.99 271.157C1194.2 271.145 1194.42 271.132 1194.63 271.12C1198.56 270.845 1202.24 270.633 1205.69 270.471C1205.9 270.458 1206.13 270.446 1206.34 270.433C1210.32 270.259 1213.99 270.146 1217.43 270.109C1217.65 270.096 1217.87 270.096 1218.08 270.096C1221.91 270.059 1225.43 270.109 1228.71 270.246C1233.39 270.446 1238.94 269.996 1243.56 269.472C1243.78 269.447 1243.99 269.422 1244.22 269.385C1244.88 269.31 1245.53 269.235 1246.14 269.148C1246.22 269.36 1246.29 269.56 1246.38 269.772Z" fill="#53CEC2"/>
<path d="M1153.58 333.206C1154.64 333.306 1155.72 333.393 1156.79 333.493C1156.73 333.718 1156.68 333.93 1156.63 334.129C1155.6 334.042 1154.61 333.955 1153.61 333.855L1152.96 333.805C1151.16 333.643 1149.41 333.48 1147.72 333.343C1147.37 333.306 1147.02 333.281 1146.69 333.243C1146.47 333.231 1146.25 333.206 1146.04 333.181C1141.39 332.781 1137.2 332.394 1134.32 332.182C1134.31 331.97 1134.31 331.758 1134.31 331.533C1136.8 331.72 1140.55 332.045 1145.99 332.532C1146.19 332.557 1146.41 332.569 1146.64 332.594C1147.01 332.632 1147.4 332.657 1147.8 332.694C1149.45 332.844 1151.18 332.994 1152.94 333.143C1153.14 333.181 1153.37 333.193 1153.58 333.206Z" fill="#53CEC2"/>
<path d="M1258.66 332.195C1258.63 332.419 1258.58 332.632 1258.56 332.856V332.869C1255.9 333.218 1252.55 333.568 1248.75 333.905C1248.54 333.917 1248.33 333.942 1248.12 333.955C1245.66 334.154 1243.03 334.367 1240.28 334.566C1240.07 334.579 1239.85 334.591 1239.64 334.616C1232.43 335.116 1224.51 335.552 1217.08 335.877C1216.87 335.889 1216.65 335.902 1216.44 335.902C1211.93 336.114 1207.62 336.264 1203.75 336.376C1203.54 336.389 1203.33 336.389 1203.1 336.401C1199.33 336.501 1196.02 336.551 1193.42 336.551C1193.19 336.551 1192.97 336.551 1192.75 336.539C1192.52 336.551 1192.31 336.539 1192.1 336.539C1191.89 336.539 1191.69 336.526 1191.49 336.526C1188.07 336.476 1183.21 336.214 1177.7 335.827C1177.49 335.815 1177.27 335.802 1177.05 335.79C1173.3 335.527 1169.29 335.203 1165.25 334.866C1165.22 334.654 1165.2 334.442 1165.18 334.217C1169.24 334.554 1173.28 334.878 1177.04 335.141C1177.25 335.153 1177.47 335.178 1177.69 335.178C1183.21 335.577 1188.09 335.84 1191.51 335.889C1191.7 335.889 1191.9 335.902 1192.1 335.889C1192.31 335.902 1192.54 335.902 1192.75 335.902C1195.45 335.914 1199.01 335.852 1203.1 335.74C1203.32 335.74 1203.53 335.727 1203.73 335.715C1207.6 335.602 1211.92 335.453 1216.43 335.253C1216.64 335.24 1216.85 335.24 1217.07 335.228C1224.52 334.891 1232.47 334.454 1239.67 333.955C1239.9 333.942 1240.11 333.917 1240.32 333.905C1243.04 333.718 1245.66 333.518 1248.09 333.306C1248.3 333.293 1248.53 333.268 1248.73 333.256C1252.6 332.906 1256 332.544 1258.66 332.195Z" fill="#53CEC2"/>
<path d="M1364.69 527.552C1364.56 530.211 1362.94 532.407 1361.86 533.618C1361.27 534.267 1360.83 534.629 1360.83 534.629C1360.83 534.629 1336.37 497.944 1329.5 485.288C1322.63 472.631 1318.98 465.553 1315.33 447.529C1312.41 433.15 1304.03 401.67 1300.77 389.537C1300.77 389.512 1300.76 389.512 1300.76 389.487C1299.93 386.442 1299.45 384.632 1299.45 384.619C1299.45 384.619 1299.39 384.644 1299.31 384.682C1298.52 385.094 1294.73 387.241 1294.73 387.241C1294.73 387.241 1293.44 394.53 1291.29 405.802C1289.14 417.073 1280.35 451.386 1280.35 451.386C1280.35 451.386 1284.42 466.402 1283.57 486.573C1282.71 506.732 1269.62 539.123 1268.76 541.707C1268.5 542.48 1268.01 542.992 1267.45 543.304C1266.14 544.053 1264.46 543.853 1264.46 543.853C1264.46 543.853 1261.03 507.593 1260.48 492.802C1259.93 477.998 1255.66 437.881 1256.52 419.008C1256.83 412.118 1257.44 402.531 1258.09 393.132C1259.23 376.756 1260.48 360.941 1260.48 360.941L1264.09 356.098C1264.36 356.934 1264.54 357.458 1264.54 357.458C1269.42 356.884 1275.32 355.411 1280.65 353.851C1288.77 351.48 1295.59 348.871 1295.59 348.871C1318.77 350.156 1329.29 342.293 1329.29 342.293C1329.29 342.293 1333.79 370.115 1336.15 387.915C1338.52 405.714 1340.88 448.403 1340.88 448.403C1340.88 448.403 1351.39 455.905 1357.19 472.643C1362.98 489.369 1364.69 527.552 1364.69 527.552Z" fill="#423434"/>
<path d="M1350.26 271.519C1350.41 277.785 1349.28 284.351 1347.32 290.729C1345.76 295.76 1344.2 299.629 1342.8 302.537C1342.27 303.636 1341.78 304.609 1341.31 305.446C1341.3 305.458 1341.3 305.483 1341.28 305.496C1340.45 306.968 1339.73 308.067 1339.18 308.853C1338.44 309.889 1337.97 310.351 1337.89 310.438C1337.88 310.451 1337.88 310.451 1337.87 310.476C1337.65 311.337 1330.56 337.999 1329.39 341.981C1329.35 342.106 1329.31 342.193 1329.29 342.268C1329.29 342.268 1318.77 350.144 1295.59 348.846C1295.59 348.846 1295.31 348.946 1294.8 349.133C1294.08 349.395 1292.89 349.832 1291.35 350.369C1291.33 350.381 1291.3 350.394 1291.28 350.394C1290.57 350.643 1289.81 350.905 1288.96 351.192C1288.66 351.28 1288.37 351.392 1288.07 351.492L1287.45 351.704C1280.9 353.851 1271.63 356.597 1264.53 357.421C1264.53 357.421 1264.35 356.909 1264.08 356.061C1263.79 355.187 1263.42 353.964 1262.99 352.59C1262.84 352.116 1262.7 351.642 1262.55 351.155C1262.52 351.018 1262.49 350.88 1262.44 350.743C1261.84 348.671 1261.25 346.474 1260.93 344.727C1260.73 343.703 1260.62 342.842 1260.64 342.255L1261.55 341.369L1262.87 340.096V340.083L1262.92 340.034C1262.92 340.034 1263.39 330.597 1263.83 320.012C1264.18 311.512 1264.5 302.288 1264.51 296.583C1264.51 295.423 1264.5 294.411 1264.48 293.575C1264.2 284.001 1266.16 268.386 1266.34 267.163C1266.34 267.151 1266.34 267.151 1266.34 267.151C1266.34 267.113 1266.34 267.088 1266.34 267.088C1266.34 267.088 1266.16 267.438 1265.84 268.062C1265.68 268.361 1265.49 268.723 1265.28 269.16C1263.05 273.429 1257.93 283.29 1255.02 288.894C1255.01 288.932 1254.98 288.957 1254.96 289.007C1254.72 289.456 1254.51 289.868 1254.31 290.255L1254.27 290.18L1253.97 289.419V289.406L1251.77 283.752L1243.08 261.509C1243.08 261.509 1256.03 237.144 1267.19 233.461C1273.44 231.389 1280.66 230.066 1288.59 229.28C1290.46 229.093 1292.34 228.93 1294.28 228.806C1294.49 228.781 1294.71 228.768 1294.93 228.768C1296.79 228.643 1298.67 228.543 1300.61 228.469C1300.6 229.53 1300.62 230.615 1300.63 231.427C1300.63 231.427 1300.62 231.414 1300.61 231.414C1300.61 231.414 1300.38 233.711 1300.11 236.819C1299.55 243.035 1298.76 252.509 1299.01 253.333C1299.25 254.157 1305.48 244.833 1309.66 238.454C1311.8 235.196 1313.4 232.7 1313.4 232.7L1315.41 228.955C1316.43 229.555 1318.06 230.528 1320.07 231.814C1320.26 231.926 1320.43 232.038 1320.62 232.163C1322.65 233.474 1325.04 235.047 1327.54 236.832C1332.21 240.164 1337.3 244.208 1341.4 248.44C1347.48 254.706 1350.07 262.819 1350.26 271.519Z" fill="#5FB5C6"/>
<path d="M1300.7 231.464C1300.7 231.464 1300.68 231.452 1300.67 231.452C1300.67 231.452 1300.45 233.748 1300.17 236.856C1293.72 234.834 1290.31 231.464 1288.66 229.317C1290.52 229.13 1292.4 228.968 1294.34 228.843C1294.55 228.818 1294.78 228.806 1294.99 228.806C1296.85 228.681 1298.74 228.581 1300.67 228.506C1300.67 229.567 1300.68 230.653 1300.7 231.464Z" fill="#54929E"/>
<path d="M1327.6 236.857C1320.51 238.354 1314.62 238.766 1309.74 238.492C1311.87 235.234 1313.47 232.737 1313.47 232.737L1315.48 228.993C1316.51 229.592 1318.13 230.566 1320.14 231.851C1320.33 231.964 1320.51 232.076 1320.69 232.201C1322.72 233.499 1325.09 235.072 1327.6 236.857Z" fill="#54929E"/>
<path d="M1268.11 257.727L1265.33 269.21C1263.1 273.479 1257.98 283.34 1255.07 288.944C1255.06 288.982 1255.03 289.007 1255.01 289.057C1254.77 289.506 1254.56 289.918 1254.36 290.305L1254.32 290.23L1254.02 289.469V289.456L1251.82 283.802C1256.01 277.685 1264.84 264.617 1268.11 257.727Z" fill="#54929E"/>
<path d="M1350.26 271.532C1350.41 277.798 1349.28 284.351 1347.32 290.729C1345.76 295.759 1344.2 299.629 1342.8 302.537C1342.27 303.636 1341.78 304.609 1341.31 305.446C1341.3 305.458 1341.3 305.483 1341.28 305.496C1340.45 306.968 1339.73 308.067 1339.18 308.853C1338.7 308.678 1338.42 308.566 1338.42 308.566C1338.42 308.566 1331.73 320.112 1322.04 330.734C1312.34 341.344 1299.73 346.349 1290.14 350.156C1290.14 350.156 1289.71 350.543 1288.97 351.217C1288.67 351.305 1288.38 351.417 1288.08 351.517L1287.46 351.729C1280.91 353.876 1271.65 356.622 1264.54 357.446C1264.54 357.446 1264.36 356.934 1264.09 356.085C1263.8 355.212 1263.43 353.988 1263 352.615C1265.04 351.966 1280.38 346.998 1296.71 338.273C1314.26 328.899 1331.86 308.741 1339.38 295.647C1343.8 287.946 1347.78 278.085 1350.26 271.532Z" fill="#54929E"/>
<path d="M1285.76 320.973C1285.48 321.26 1280.98 326.103 1273.77 332.182C1266.34 338.461 1261.6 341.956 1261.6 341.956L1261.59 341.394L1262.9 340.121V340.108L1262.95 340.058C1262.95 340.058 1263.43 330.622 1263.86 320.037C1272.56 325.542 1284.35 322.234 1285.76 320.973Z" fill="#5FB5C6"/>
<path d="M1264.53 357.446C1264.65 357.883 1256.8 363.737 1256.8 363.737C1256.8 363.737 1251.9 369.379 1248.31 369.529C1248.31 369.529 1249.39 366.695 1250.83 362.464C1252.35 357.945 1254.3 351.829 1255.82 345.838L1260.67 342.293C1260.67 342.293 1262.03 347.822 1263.17 352.278C1263.76 354.588 1264.29 356.61 1264.53 357.446Z" fill="#F3B2A6"/>
<path d="M1264.53 357.446C1264.65 357.883 1256.8 363.737 1256.8 363.737C1256.8 363.737 1251.9 369.379 1248.31 369.529C1248.31 369.529 1249.39 366.695 1250.83 362.464C1255.91 359.643 1260.99 354.637 1263.17 352.278C1263.76 354.588 1264.29 356.61 1264.53 357.446Z" fill="#F48D87"/>
<path d="M1212.27 226.159C1210.1 231.527 1204.36 230.665 1204.36 230.665C1204.36 230.665 1203.85 233.312 1202.37 236.245C1201.72 237.543 1201 239.016 1200.24 240.426C1198.48 243.684 1196.17 246.555 1194.73 247.766C1194.48 247.991 1194.25 248.153 1194.06 248.253C1193.31 248.652 1192.09 249.176 1190.59 249.576C1186.49 250.687 1180.26 251.024 1175.39 246.318C1174.93 245.869 1174.48 245.407 1174.03 244.932C1167.99 238.554 1163.09 229.442 1162.09 213.066C1161.01 195.478 1173.39 191.646 1179.05 190.323C1183.86 189.212 1190.76 189.836 1197.41 194.505C1197.66 194.68 1197.91 194.854 1198.16 195.042C1198.36 195.191 1198.56 195.354 1198.74 195.541C1199.14 195.99 1200.62 198.799 1199.99 202.918V202.93C1199.93 203.367 1199.84 203.816 1199.73 204.278C1198.52 209.146 1198.08 210.632 1200.52 215.937C1200.82 216.598 1201.12 217.222 1201.4 217.796C1203.39 221.878 1204.81 224.012 1204.81 224.012C1204.81 224.012 1206.72 220.829 1206.91 219.519C1208.07 217.335 1209.56 215.1 1210.81 214.788C1213.37 214.152 1214.44 220.792 1212.27 226.159Z" fill="#FFB27D"/>
<path d="M1199.97 202.93C1199.29 199.984 1198.42 197.151 1197.38 194.517C1197.63 194.692 1197.88 194.867 1198.13 195.054C1198.33 195.204 1198.53 195.366 1198.72 195.553C1199.12 196.003 1200.59 198.811 1199.97 202.93Z" fill="#F48D87"/>
<path d="M1212.27 226.159C1210.1 231.527 1204.36 230.665 1204.36 230.665C1204.36 230.665 1203.85 233.312 1202.37 236.245C1201.72 237.543 1201 239.016 1200.24 240.426C1198.48 243.684 1196.17 246.555 1194.73 247.766C1196.6 242.161 1200.12 235.895 1200.93 223.164C1201.04 221.366 1201.33 219.581 1201.39 217.796C1203.38 221.878 1204.8 224.012 1204.8 224.012C1204.8 224.012 1206.71 220.83 1206.9 219.519C1208.06 217.335 1209.55 215.1 1210.8 214.788C1213.37 214.152 1214.44 220.792 1212.27 226.159Z" fill="#E2A981"/>
<path d="M1233.46 347.211C1233.3 347.211 1233.15 347.073 1233.15 346.899C1233.14 346.761 1232.45 333.056 1231.92 325.854C1231.65 322.246 1231.19 317.703 1230.6 311.949C1230.03 306.294 1229.31 299.254 1228.59 291.104C1227.26 275.975 1232.7 268.087 1235.03 264.717C1235.2 264.454 1235.36 264.217 1235.51 264.005C1235.61 263.855 1235.81 263.818 1235.95 263.918C1236.1 264.018 1236.14 264.217 1236.05 264.367C1235.9 264.579 1235.74 264.816 1235.56 265.079C1233.28 268.386 1227.92 276.138 1229.24 291.041C1229.96 299.18 1230.68 306.219 1231.25 311.874C1231.84 317.628 1232.3 322.172 1232.57 325.804C1233.09 333.019 1233.79 346.724 1233.79 346.861C1233.8 347.036 1233.66 347.186 1233.49 347.198C1233.48 347.211 1233.46 347.211 1233.46 347.211Z" fill="#3D292A"/>
<path d="M1162.94 314.57C1162.91 314.57 1162.87 314.57 1162.85 314.558C1162.67 314.508 1162.59 314.333 1162.64 314.158C1164.22 308.803 1166.53 289.968 1167.19 281.904C1167.21 281.73 1167.37 281.592 1167.54 281.617C1167.72 281.63 1167.86 281.78 1167.83 281.967C1167.16 290.055 1164.85 308.953 1163.25 314.345C1163.2 314.483 1163.07 314.57 1162.94 314.57Z" fill="#3D292A"/>
<path d="M1166.37 347.685C1166.21 347.685 1166.07 347.56 1166.06 347.398C1166.05 347.273 1164.92 334.941 1164.25 326.74C1163.59 318.527 1163.6 309.914 1163.6 309.827C1163.6 309.652 1163.75 309.502 1163.92 309.502C1164.1 309.502 1164.25 309.652 1164.25 309.827C1164.25 309.914 1164.24 318.489 1164.88 326.678C1165.55 334.878 1166.68 347.211 1166.68 347.336C1166.7 347.51 1166.57 347.673 1166.4 347.685C1166.38 347.685 1166.38 347.685 1166.37 347.685Z" fill="#600B0B"/>
<path d="M1162.12 316.642C1162.14 314.058 1162.14 311.225 1162.12 308.267C1162.12 308.054 1162.12 307.83 1162.11 307.617C1162.11 305.558 1162.1 303.436 1162.09 301.314C1162.09 301.102 1162.09 300.89 1162.09 300.677C1162.02 294.112 1161.91 287.459 1161.69 281.942C1161.57 279.321 1161.4 276.163 1161.1 272.68C1161.08 272.468 1161.05 272.256 1161.04 272.031C1160.61 267.288 1159.96 261.921 1158.96 256.341C1158.94 256.191 1158.9 256.029 1158.86 255.867C1158.86 255.804 1158.85 255.742 1158.84 255.68C1158.89 255.692 1158.95 255.692 1159.01 255.692C1159.15 255.542 1159.28 255.38 1159.41 255.23C1159.45 255.405 1159.49 255.567 1159.51 255.729C1159.55 255.954 1159.6 256.166 1159.64 256.379C1160.64 261.933 1161.27 267.288 1161.7 272.031L1161.75 272.668C1162.05 276.138 1162.22 279.283 1162.34 281.904C1162.56 287.421 1162.67 294.087 1162.74 300.665C1162.74 300.877 1162.74 301.089 1162.74 301.302C1162.76 303.436 1162.76 305.545 1162.76 307.605C1162.77 307.817 1162.77 308.042 1162.77 308.254C1162.79 310.488 1162.79 312.66 1162.79 314.707C1162.59 315.306 1162.36 315.943 1162.12 316.642Z" fill="#53CEC2"/>
<path opacity="0.6" d="M1211.23 239.166C1207.81 243.822 1201.37 250.749 1192.36 252.834C1182.27 255.18 1174.06 249.763 1170.32 246.593C1171.5 245.981 1172.73 245.432 1174.01 244.932C1174.46 245.407 1174.91 245.869 1175.38 246.318C1175.83 246.767 1176.3 247.154 1176.79 247.516C1177 247.678 1177.22 247.828 1177.44 247.966C1179.75 249.488 1182.23 250.125 1184.59 250.25C1186.79 250.375 1188.86 250.038 1190.58 249.576C1190.8 249.513 1191.03 249.451 1191.24 249.389C1192.44 249.014 1193.41 248.602 1194.05 248.253C1195.32 247.566 1197.57 243.846 1199.64 240.014L1200.27 239.89C1200.27 239.89 1200.49 239.802 1200.94 239.677L1208.8 238.991L1208.92 238.978C1209.09 238.991 1209.26 238.991 1209.42 239.016C1210.02 239.053 1210.61 239.103 1211.23 239.166Z" fill="#2A9B90"/>
<path d="M1154.95 366.283C1154.95 366.283 1154.94 366.283 1154.93 366.283C1154.83 366.87 1154.76 367.219 1154.74 367.282L1154.95 366.283Z" fill="#F3B2A6"/>
<path d="M1206.9 219.531C1205.69 221.803 1204.8 224.025 1204.8 224.025C1204.8 224.025 1206.7 220.83 1206.9 219.531Z" fill="#E2DEC1"/>
<path d="M1206.89 219.531C1205.68 221.803 1204.78 224.025 1204.78 224.025C1204.78 224.025 1203.23 221.678 1201.09 217.222C1200.89 216.81 1200.69 216.386 1200.49 215.949C1198.07 210.644 1198.49 209.159 1199.71 204.291C1200.92 199.448 1199.17 196.053 1198.71 195.566C1198.96 195.716 1203.43 198.462 1205.85 204.79C1205.85 204.815 1205.86 204.828 1205.88 204.865C1208.36 211.356 1206.89 219.531 1206.89 219.531Z" fill="#E2DEC1"/>
<path d="M1336.09 201.857C1334.38 202.706 1332.21 204.403 1331.75 204.765C1332.65 204.303 1334.26 203.355 1336.09 201.857Z" fill="#59120D"/>
<path d="M1300.71 231.464C1300.7 231.464 1300.68 231.452 1300.67 231.452C1300.67 231.452 1298.71 252.147 1299.07 253.383C1299.45 254.619 1313.47 232.737 1313.47 232.737C1313.47 232.737 1306.49 234.086 1300.71 231.464Z" fill="#C6672D"/>
<path d="M1189.55 539.06C1189.55 539.06 1172.38 549.421 1168.09 553.939H1192.14L1189.55 539.06Z" fill="#5A5A5A"/>
<path d="M1218.17 540.833V553.939H1240.85L1224.82 540.833H1218.17Z" fill="#5A5A5A"/>
<path d="M1175.68 195.828C1175.53 195.828 1175.39 195.728 1175.36 195.566C1175.23 194.917 1174.08 189.125 1175.43 187.477C1175.54 187.34 1175.74 187.315 1175.88 187.427C1176.01 187.54 1176.03 187.739 1175.93 187.877C1174.95 189.075 1175.64 193.731 1175.99 195.428C1176.03 195.603 1175.91 195.778 1175.74 195.803C1175.71 195.828 1175.7 195.828 1175.68 195.828Z" fill="#E2DEC1"/>
<path d="M1177.25 194.879C1177.21 194.879 1177.19 194.879 1177.15 194.867C1176.97 194.817 1176.89 194.63 1176.94 194.467C1177.35 193.157 1178.79 188.863 1179.83 188.401C1180 188.326 1180.18 188.401 1180.26 188.563C1180.33 188.726 1180.26 188.913 1180.08 188.988C1179.55 189.212 1178.35 192.108 1177.55 194.655C1177.51 194.792 1177.39 194.879 1177.25 194.879Z" fill="#E2DEC1"/>
<path d="M1173.81 194.879C1173.69 194.879 1173.56 194.804 1173.51 194.68C1173.2 193.906 1172.77 192.67 1172.42 191.684C1172.14 190.922 1171.87 190.136 1171.8 190.024C1171.73 189.861 1171.78 189.674 1171.94 189.587C1172.09 189.499 1172.29 189.562 1172.37 189.712C1172.44 189.837 1172.6 190.298 1173.02 191.459C1173.36 192.445 1173.8 193.669 1174.1 194.442C1174.16 194.605 1174.09 194.792 1173.91 194.854C1173.89 194.867 1173.85 194.879 1173.81 194.879Z" fill="#E2DEC1"/>
<path d="M1205.84 227.345C1205.68 227.345 1205.54 227.22 1205.51 227.058C1205.19 223.313 1208.69 219.481 1208.84 219.319C1208.96 219.194 1209.16 219.182 1209.28 219.307C1209.42 219.432 1209.42 219.631 1209.31 219.756C1209.27 219.794 1205.85 223.538 1206.15 226.996C1206.16 227.17 1206.04 227.333 1205.86 227.345C1205.86 227.345 1205.85 227.345 1205.84 227.345Z" fill="#3D292A"/>
<path d="M1207.62 225.623C1207.57 225.623 1207.52 225.623 1207.47 225.61C1206.77 225.473 1206.15 224.387 1206.04 224.175C1205.95 224.012 1206.01 223.825 1206.16 223.738C1206.33 223.65 1206.51 223.713 1206.6 223.863C1206.82 224.275 1207.3 224.924 1207.6 224.974C1207.64 224.986 1207.65 224.974 1207.7 224.949C1207.96 224.724 1207.91 222.927 1207.59 221.092C1207.56 220.917 1207.67 220.755 1207.85 220.717C1208.02 220.692 1208.19 220.805 1208.22 220.979C1208.44 222.128 1208.82 224.849 1208.11 225.435C1207.96 225.56 1207.81 225.623 1207.62 225.623Z" fill="#3D292A"/>
<path d="M1154.96 338.623C1154.94 338.623 1154.92 338.623 1154.91 338.623C1154.72 338.598 1154.59 338.423 1154.62 338.236C1155.09 335.215 1156.92 331.683 1156.99 331.533C1157.08 331.358 1157.29 331.296 1157.45 331.383C1157.63 331.471 1157.69 331.683 1157.6 331.845C1157.58 331.883 1155.75 335.428 1155.29 338.336C1155.27 338.498 1155.12 338.623 1154.96 338.623Z" fill="#3D292A"/>
<path d="M1172.37 353.864C1169.86 357.596 1164.76 364.498 1159.88 368.218C1159.96 367.881 1160.05 367.544 1160.13 367.219C1164.78 363.437 1169.53 356.959 1171.87 353.452C1172.04 353.577 1172.2 353.726 1172.37 353.864Z" fill="#3D292A"/>
<path d="M1231.77 367.07C1231.72 367.195 1231.59 367.269 1231.47 367.269C1231.44 367.269 1231.43 367.269 1231.42 367.257C1231.39 367.269 1231.37 367.257 1231.34 367.244C1226.06 365.11 1224.15 357.608 1223.34 353.077C1223.52 352.952 1223.72 352.815 1223.92 352.69C1224.68 357.034 1226.5 364.498 1231.52 366.608C1231.54 366.62 1231.57 366.633 1231.59 366.645C1231.75 366.72 1231.83 366.907 1231.77 367.07Z" fill="#3D292A"/>
<path d="M1201.72 243.747C1201.45 245.032 1200.28 247.966 1198.88 250.787C1197.34 253.907 1195.55 256.865 1194.42 257.327C1193.06 257.864 1191.84 254.619 1191.15 252.16C1190.76 250.737 1190.54 249.576 1190.59 249.563C1192.1 249.164 1193.32 248.652 1194.06 248.24C1195.8 247.304 1199.36 240.726 1201.8 235.883C1201.94 237.843 1202.14 241.762 1201.72 243.747Z" fill="#FFB27D"/>
<path d="M1201.72 243.747C1201.45 245.032 1200.28 247.966 1198.88 250.787C1196.15 251.81 1193.4 252.122 1191.15 252.16C1190.76 250.737 1190.54 249.576 1190.59 249.563C1192.1 249.164 1193.32 248.652 1194.06 248.24C1195.8 247.304 1199.36 240.726 1201.8 235.883C1201.94 237.843 1202.14 241.762 1201.72 243.747Z" fill="#FFB27D"/>
<path d="M1245.22 377.068C1245.17 377.068 1245.12 377.055 1245.07 377.03C1240.16 374.359 1230.56 373.211 1230.47 373.211C1230.31 373.198 1230.17 373.049 1230.17 372.874C1230.17 372.699 1230.32 372.562 1230.48 372.562C1230.56 372.562 1240.31 373.71 1245.37 376.456C1245.53 376.544 1245.59 376.743 1245.51 376.893C1245.44 377.005 1245.33 377.068 1245.22 377.068Z" fill="#600B0B"/>
<path d="M1320.68 232.188C1314.34 241.038 1300.25 260.198 1296.87 260.198C1296.75 260.198 1296.65 260.173 1296.54 260.111C1293.85 258.55 1294.16 236.108 1294.34 228.855C1294.55 228.831 1294.78 228.818 1294.99 228.818C1294.66 241.225 1294.93 258.438 1296.86 259.574C1296.91 259.599 1296.97 259.611 1297.05 259.611C1299.14 259.611 1309.83 246.231 1320.12 231.851C1320.32 231.964 1320.49 232.076 1320.68 232.188Z" fill="#5D8784"/>
<path d="M1254.04 290.405C1253.99 290.405 1253.92 290.392 1253.87 290.355C1253.72 290.267 1253.67 290.068 1253.76 289.918C1253.8 289.856 1257.38 283.764 1260.67 277.448C1263.94 271.145 1267.46 263.319 1267.49 263.231C1267.56 263.069 1267.75 262.994 1267.91 263.069C1268.07 263.144 1268.15 263.331 1268.07 263.493C1268.04 263.568 1264.51 271.407 1261.23 277.735C1257.94 284.051 1254.35 290.168 1254.31 290.23C1254.26 290.355 1254.16 290.405 1254.04 290.405Z" fill="#43AEA7"/>
<path d="M1264.56 296.633C1264.39 296.633 1264.24 296.496 1264.24 296.321C1263.91 279.383 1266.11 266.264 1266.28 265.94C1266.34 265.778 1266.54 265.715 1266.7 265.778C1266.85 265.852 1266.93 266.027 1266.86 266.189C1266.65 266.876 1264.56 279.708 1264.89 296.309C1264.89 296.471 1264.75 296.621 1264.56 296.633Z" fill="#43AEA7"/>
<path d="M1264.53 357.758C1264.39 357.758 1264.25 357.658 1264.21 357.521C1264.2 357.458 1262.49 350.943 1261.78 348.109C1261.07 345.251 1260.34 342.355 1260.34 342.355C1260.32 342.23 1260.36 342.105 1260.47 342.018C1260.67 341.856 1281 326.066 1288.76 318.028C1297.07 309.415 1309.05 294.561 1315.46 281.043C1321.98 267.263 1322.52 263.381 1322.52 263.343C1322.53 263.169 1322.69 263.044 1322.87 263.056C1323.04 263.081 1323.17 263.231 1323.15 263.406C1323.14 263.556 1322.64 267.375 1316.05 281.305C1309.6 294.898 1297.57 309.827 1289.23 318.464C1281.81 326.153 1263 340.857 1261.03 342.393C1261.2 343.104 1261.82 345.538 1262.42 347.947C1263.04 350.431 1264.43 355.761 1264.76 357.059C1287.97 352.603 1307.09 344.465 1317.25 334.741C1328.69 323.807 1342.25 302.862 1342.39 302.65C1342.49 302.5 1342.69 302.462 1342.84 302.55C1342.99 302.65 1343.02 302.849 1342.94 302.999C1342.8 303.211 1329.19 324.219 1317.71 335.203C1307.4 345.064 1288.04 353.277 1264.6 357.746C1264.58 357.758 1264.55 357.758 1264.53 357.758Z" fill="#5D8784"/>
<path d="M1301.63 349.557C1297.3 349.557 1294.56 349.12 1294.51 349.108C1294.34 349.083 1294.21 348.908 1294.25 348.733C1294.28 348.559 1294.44 348.446 1294.63 348.471C1294.71 348.484 1302.87 349.794 1313.41 347.835C1323.94 345.863 1329.04 342.068 1329.09 342.031C1329.22 341.918 1329.42 341.956 1329.54 342.093C1329.65 342.23 1329.62 342.43 1329.49 342.542C1329.27 342.705 1324.23 346.474 1313.54 348.471C1308.98 349.308 1304.87 349.557 1301.63 349.557Z" fill="#43AEA7"/>
<path d="M1155.83 360.329C1155.79 360.591 1155.77 360.841 1155.73 361.078C1150.11 363.412 1140.87 363.874 1137.42 363.962C1137.38 363.762 1137.34 363.55 1137.31 363.325C1140.69 363.213 1150.37 362.738 1155.83 360.329Z" fill="#3D292A"/>
<path d="M1248.03 370.315C1247.94 370.527 1247.87 370.714 1247.78 370.914C1242.13 369.666 1236.5 367.007 1232.9 365.297C1232.5 365.11 1232.12 364.935 1231.77 364.76C1231.79 364.548 1231.82 364.324 1231.85 364.099C1232.23 364.274 1232.67 364.473 1233.18 364.723C1236.77 366.421 1242.42 369.092 1248.03 370.315Z" fill="#3D292A"/>
<path d="M1188.15 250.599C1187.99 250.599 1187.84 250.474 1187.83 250.3C1187.8 250.125 1187.94 249.963 1188.12 249.95C1188.15 249.95 1191.96 249.588 1196.31 245.082C1201.73 239.478 1203.86 230.965 1203.89 230.89C1203.94 230.715 1204.11 230.615 1204.28 230.653C1204.45 230.69 1204.55 230.865 1204.51 231.04C1204.49 231.127 1202.33 239.79 1196.78 245.532C1192.25 250.212 1188.34 250.574 1188.18 250.587C1188.18 250.599 1188.17 250.599 1188.15 250.599Z" fill="#3D292A"/>
<path d="M1223.57 233.986C1218.94 232.425 1214.88 232.687 1212.27 236.857C1209.12 241.899 1208.44 247.491 1210.3 248.49C1212.16 249.488 1214.44 240.913 1214.44 241.338C1214.44 241.762 1211.28 251.486 1212.87 252.347C1214.44 253.208 1219.03 242.336 1218.88 242.91C1218.74 243.484 1215.01 253.208 1217.08 254.069C1219.16 254.931 1222.74 243.921 1222.74 243.921C1222.74 243.921 1219.44 251.785 1221.59 252.209C1223.74 252.634 1226.72 243.559 1226.72 243.559C1226.72 243.559 1230.78 248.078 1232.78 246.642C1234.8 245.22 1230.55 236.345 1223.57 233.986Z" fill="#FFB27D"/>
<path opacity="0.44" d="M1176.75 197.151C1175.1 198.15 1173.53 199.685 1174.66 200.808C1175.81 201.932 1181.28 199.248 1180.53 197.912C1179.78 196.552 1178.2 196.265 1176.75 197.151Z" fill="#FCC9C1"/>
<path d="M1154.96 389.5C1154.93 388.963 1154.86 388.464 1154.77 388.015C1154.91 388.526 1154.98 389.038 1154.96 389.5Z" fill="#F48D87"/>
<path d="M1272.41 555H1243.14C1247.79 552.004 1264.29 542.318 1264.29 541.931L1267.45 540.995L1269.21 540.471L1272.41 555Z" fill="#C49110"/>
<path d="M1272.41 555H1265.83C1266.51 551.006 1267.26 545.788 1267.45 540.995L1269.21 540.471L1272.41 555Z" fill="#9F7313"/>
<path d="M1372 543.878C1368.84 546.812 1364.72 549.083 1360.72 550.769C1353.59 553.802 1346.88 555.012 1346.88 555.012C1352.03 549.221 1359.26 532.258 1359.09 532.008C1359.09 532.008 1359.55 531.646 1360.21 531.097C1361.85 529.749 1364.69 527.315 1364.69 526.703C1364.69 525.829 1372 543.878 1372 543.878Z" fill="#C49110"/>
<path d="M1360.71 550.769C1353.58 553.802 1346.87 555.012 1346.87 555.012C1352.02 549.221 1359.25 532.258 1359.07 532.008C1359.07 532.008 1359.54 531.646 1360.2 531.097C1361.1 535.515 1362.16 543.741 1360.71 550.769Z" fill="#9F7313"/>
<path d="M1338.79 199.348C1337.88 200.321 1336.97 201.145 1336.09 201.857C1334.38 202.706 1332.21 204.403 1331.75 204.778C1331.71 204.79 1331.68 204.803 1331.65 204.815C1331.23 205.027 1331 205.127 1331 205.127C1331 205.127 1331.21 202.88 1331 198.262C1330.77 193.644 1329.69 188.751 1329.69 188.751C1325.05 188.688 1320.16 181.91 1320.16 181.91C1320.16 181.91 1315.22 187.54 1307.82 187.54C1300.4 187.54 1298.59 182.497 1298.59 182.497C1297.52 183.608 1296.2 184.145 1295.03 184.07C1293.7 183.995 1292.54 183.134 1292.15 181.436C1292.1 181.199 1292.07 180.962 1292.05 180.737C1291.83 177.954 1294.33 176.381 1294.63 176.281C1294.63 176.281 1292.58 169.191 1300.1 166.844C1303.31 165.833 1305.24 167.381 1305.36 167.706C1305.47 168.03 1308.89 163 1316.75 163C1324.6 163 1327.36 169.428 1327.36 169.428C1327.36 169.428 1331.43 170.177 1336.17 174.359C1336.48 174.646 1336.77 174.945 1337.03 175.257C1340.73 179.576 1339.6 186.491 1339.6 186.491C1341.85 188.626 1342.59 195.266 1338.79 199.348Z" fill="#3D292A"/>
<path d="M1338.79 199.348C1337.88 200.321 1336.97 201.145 1336.09 201.857C1334.38 202.706 1332.21 204.403 1331.75 204.778C1331.71 204.79 1331.68 204.803 1331.65 204.815C1331.23 205.027 1331 205.127 1331 205.127C1331 205.127 1331.21 202.88 1331 198.262C1330.77 193.644 1329.68 188.751 1329.68 188.751C1325.05 188.688 1320.16 181.91 1320.16 181.91C1320.16 181.91 1315.22 187.54 1307.82 187.54C1300.4 187.54 1298.59 182.497 1298.59 182.497C1297.52 183.608 1296.2 184.145 1295.03 184.07C1293.7 183.995 1292.54 183.134 1292.15 181.436C1292.1 181.199 1292.07 180.962 1292.05 180.737C1293.68 181.523 1296.06 181.935 1298.97 180.25C1298.97 180.25 1299.8 184.881 1307.47 184.07C1315.12 183.258 1321.57 176.393 1321.57 176.393C1321.57 176.393 1323.5 184.756 1329.93 183.046C1333.63 182.06 1335.74 178.166 1337.02 175.245C1340.71 179.564 1339.59 186.479 1339.59 186.479C1341.85 188.626 1342.59 195.266 1338.79 199.348Z" fill="#2B1B1D"/>
<path d="M1121.43 553.365C1121.4 553.365 1121.37 553.352 1121.33 553.352C1120.87 553.29 1120.53 552.866 1120.58 552.391C1121.35 546.175 1139.36 400.222 1141.35 394.068C1141.38 393.969 1141.43 393.881 1141.49 393.806C1141.6 393.669 1144.2 390.361 1148.2 390.361C1151.62 390.361 1155.37 397.489 1155.59 417.485C1155.78 433.612 1155.59 551.305 1155.59 552.491C1155.59 552.965 1155.2 553.352 1154.73 553.352C1154.24 553.34 1153.87 552.965 1153.87 552.491C1153.87 551.305 1154.06 433.612 1153.87 417.497C1153.68 400.984 1150.8 392.071 1148.2 392.071C1145.43 392.071 1143.4 394.218 1142.94 394.73C1140.78 402.706 1122.47 551.081 1122.28 552.591C1122.23 553.04 1121.87 553.365 1121.43 553.365Z" fill="#4F4746"/>
<path d="M1272.41 554.8C1272 554.8 1271.63 554.501 1271.56 554.076C1271.33 552.666 1248.5 413.54 1246.19 403.193C1244.68 396.452 1240.65 391.784 1237.94 391.784C1237.92 391.784 1237.91 391.784 1237.9 391.784C1235.93 391.809 1235.1 394.555 1234.79 396.178C1232.88 406.201 1250.2 552.354 1250.36 553.827C1250.43 554.301 1250.09 554.725 1249.61 554.788C1249.13 554.838 1248.71 554.501 1248.65 554.039C1247.94 548.01 1231.13 406.139 1233.09 395.866C1234.04 390.873 1236.47 390.099 1237.85 390.074C1237.87 390.074 1237.89 390.074 1237.91 390.074C1241.82 390.074 1246.25 395.766 1247.83 402.818C1250.15 413.216 1272.99 552.391 1273.22 553.802C1273.29 554.264 1272.98 554.713 1272.51 554.788C1272.49 554.788 1272.46 554.8 1272.41 554.8Z" fill="#4F4746"/>
<path d="M1237.85 448.815H1135.36C1134.88 448.815 1134.5 448.44 1134.5 447.954C1134.5 447.479 1134.88 447.092 1135.36 447.092H1237.67L1253.44 440.764C1253.87 440.589 1254.37 440.801 1254.55 441.238C1254.72 441.675 1254.51 442.174 1254.07 442.362L1238.16 448.752C1238.06 448.79 1237.95 448.815 1237.85 448.815Z" fill="#4F4746"/>
<path d="M1235.88 418.646H1138.62C1138.14 418.646 1137.76 418.259 1137.76 417.797C1137.76 417.323 1138.14 416.936 1138.62 416.936H1235.71L1248.48 411.805C1248.91 411.631 1249.41 411.843 1249.59 412.28C1249.76 412.717 1249.55 413.216 1249.11 413.391L1236.19 418.583C1236.1 418.633 1235.98 418.646 1235.88 418.646Z" fill="#4F4746"/>
<path d="M1241.42 483.565C1241.08 483.565 1240.76 483.365 1240.62 483.028C1240.45 482.591 1240.67 482.092 1241.11 481.917L1259.07 474.778C1259.52 474.603 1260.01 474.815 1260.18 475.252C1260.36 475.689 1260.14 476.188 1259.71 476.363L1241.73 483.503C1241.63 483.553 1241.52 483.565 1241.42 483.565Z" fill="#470A08"/>
<path d="M1129.84 486.161C1129.43 486.161 1129.06 485.874 1128.99 485.45C1128.9 484.975 1129.23 484.539 1129.69 484.451L1154.67 480.045C1155.13 479.958 1155.58 480.27 1155.67 480.744C1155.75 481.218 1155.44 481.655 1154.98 481.743L1130 486.161C1129.94 486.161 1129.89 486.161 1129.84 486.161Z" fill="#470A08"/>
<path d="M1126.88 547.748H1116V553.939H1126.88V547.748Z" fill="#470A08"/>
<path d="M1159.36 547.748H1148.49V553.939H1159.36V547.748Z" fill="#470A08"/>
<path d="M1255.45 548.597H1244.57V554.788H1255.45V548.597Z" fill="#470A08"/>
<path d="M1278.28 548.597H1267.4V554.788H1278.28V548.597Z" fill="#470A08"/>
<path d="M1154.96 389.5C1154.96 389.513 1154.96 389.525 1154.96 389.538C1154.96 389.613 1154.93 389.688 1154.93 389.775C1154.52 392.596 1151.15 397.514 1149.68 397.089C1149.66 397.077 1149.65 397.077 1149.63 397.077C1148.2 396.503 1149.78 391.36 1149.63 389.925C1149.48 388.502 1147.35 388.202 1144.76 389.638C1142.19 391.073 1139.91 392.783 1142.34 396.078C1143.66 397.876 1143.75 398.825 1143.56 399.299C1143.49 399.486 1143.36 399.611 1143.27 399.686C1143.14 399.761 1143.05 399.786 1143.05 399.786C1143.05 399.786 1143.29 400.01 1143.55 400.347C1144 400.959 1144.5 401.958 1143.78 402.781C1142.63 404.067 1133.61 398.787 1133.4 396.777C1133.19 394.78 1135.47 395.205 1135.47 395.205C1135.47 395.205 1132.19 392.346 1133.9 389.201C1135.61 386.055 1141.63 384.333 1141.63 384.333C1140.63 381.911 1139.06 372.475 1139.06 372.475C1143.05 369.229 1147.14 367.969 1150.15 367.494C1152.91 367.07 1154.76 367.307 1154.76 367.307L1151.51 382.485C1151.51 382.485 1152.32 383.422 1153.16 384.707C1153.17 384.72 1153.18 384.72 1153.18 384.732C1153.82 385.706 1154.47 386.892 1154.78 388.027C1154.91 388.527 1154.98 389.039 1154.96 389.5Z" fill="#F3B2A6"/>
<path d="M1143.54 400.334C1140.44 400.085 1136.85 396.74 1136.67 396.577C1136.55 396.453 1136.53 396.253 1136.65 396.128C1136.77 396.003 1136.97 395.991 1137.1 396.115C1137.13 396.165 1140.44 399.249 1143.24 399.673C1143.12 399.748 1143.03 399.773 1143.03 399.773C1143.03 399.773 1143.28 399.997 1143.54 400.334Z" fill="#3D292A"/>
<path d="M1154.73 367.294L1151.48 382.473C1151.48 382.473 1152.29 383.409 1153.13 384.694C1151.67 383.197 1149.86 383.184 1149.83 383.184C1150.88 380.051 1150.46 372.063 1150.12 367.482C1152.89 367.057 1154.73 367.294 1154.73 367.294Z" fill="#F48D87"/>
<path d="M1149.68 397.077C1149.66 397.064 1149.65 397.064 1149.63 397.064C1148.2 396.49 1149.78 391.347 1149.63 389.912C1149.48 388.489 1147.35 388.189 1144.76 389.625C1142.19 391.06 1139.91 392.77 1142.34 396.066C1143.66 397.863 1143.75 398.812 1143.56 399.286C1138.01 394.655 1140.18 390.811 1144.18 388.189C1148.3 385.481 1150.06 386.766 1151.53 389.35C1152.71 391.422 1150.78 395.104 1149.68 397.077Z" fill="#F48D87"/>
<path d="M1243.14 404.491C1241.95 404.691 1241.5 404.553 1241.36 404.354C1241.25 404.166 1241.4 403.904 1241.47 403.817C1241.27 404.029 1239.67 405.652 1238.46 405.814C1238.31 405.827 1238.17 405.827 1238.05 405.802C1237.51 405.689 1237.27 405.515 1237.19 405.327C1237.04 405.053 1237.2 404.803 1237.2 404.803C1237.2 404.803 1236.7 405.265 1236.19 405.564C1236.01 405.664 1235.85 405.739 1235.69 405.789C1235.26 405.901 1234.94 405.727 1235.05 404.803C1235.34 402.519 1239.06 396.502 1237.77 394.643C1236.49 392.783 1233.05 391.934 1231.04 392.071C1230.8 392.084 1230.62 392.196 1230.48 392.358C1229.48 393.607 1230.88 398.412 1229.62 399.798C1228.88 400.609 1227.84 399.948 1226.91 398.5C1226.02 397.139 1225.23 395.08 1224.88 392.933C1224.16 388.501 1229.03 382.785 1229.03 382.785C1229.03 382.785 1230.53 373.348 1230.53 372.911C1231.67 373.011 1232.82 373.173 1233.93 373.373C1234.31 373.448 1234.69 373.523 1235.08 373.61C1240.6 374.771 1245.19 376.781 1245.19 376.781L1241.47 385.506C1241.47 385.506 1244.91 393.944 1246.48 397.376C1248.08 400.771 1245.78 404.067 1243.14 404.491Z" fill="#F3B2A6"/>
<path d="M1241.21 398.325C1241.11 398.562 1239.21 402.519 1237.19 405.302C1237.04 405.028 1237.2 404.778 1237.2 404.778C1237.2 404.778 1236.7 405.24 1236.19 405.539C1237.95 403.318 1239.85 399.698 1240.63 398.05C1240.71 397.888 1240.9 397.826 1241.06 397.9C1241.22 397.975 1241.28 398.163 1241.21 398.325Z" fill="#3D292A"/>
<path d="M1238.77 406.139C1238.65 406.139 1238.52 406.051 1238.47 405.926C1238.41 405.752 1238.5 405.577 1238.67 405.514C1242.02 404.341 1244.03 398.15 1244.06 398.088C1244.11 397.913 1244.29 397.826 1244.47 397.875C1244.63 397.938 1244.73 398.113 1244.68 398.287C1244.59 398.562 1242.56 404.84 1238.9 406.126C1238.85 406.139 1238.81 406.139 1238.77 406.139Z" fill="#3D292A"/>
<path d="M1233.95 373.348C1232.64 377.005 1230.48 383.471 1230.48 383.471C1230.48 383.471 1227.53 385.78 1226.76 391.235C1226.41 393.706 1226.62 396.34 1226.92 398.475C1226.03 397.114 1225.25 395.055 1224.9 392.908C1224.17 388.476 1229.04 382.76 1229.04 382.76C1229.04 382.76 1230.54 373.323 1230.54 372.886C1231.69 372.986 1232.83 373.148 1233.95 373.348Z" fill="#F48D87"/>
<path d="M1239.05 397.863C1238.56 400.31 1236.75 403.642 1235.7 405.764C1235.28 405.877 1234.95 405.702 1235.06 404.778C1235.35 402.494 1239.07 396.477 1237.79 394.618C1236.5 392.758 1233.07 391.909 1231.05 392.046C1230.82 392.059 1230.63 392.171 1230.49 392.333C1231.02 390.661 1233.16 390.761 1236.2 391.235C1240.18 391.834 1239.78 394.193 1239.05 397.863Z" fill="#F48D87"/>
<path d="M1224.91 391.235C1224.73 391.235 1224.6 391.098 1224.58 390.923C1224.47 388.277 1228.22 383.296 1228.73 382.622L1230.88 368.692C1230.9 368.518 1231.07 368.393 1231.24 368.43C1231.42 368.455 1231.54 368.617 1231.52 368.792L1229.36 382.81C1229.34 382.86 1229.32 382.922 1229.29 382.959C1229.26 383.009 1225.11 388.364 1225.22 390.91C1225.22 391.085 1225.08 391.235 1224.91 391.247C1224.92 391.235 1224.91 391.235 1224.91 391.235Z" fill="#3D292A"/>
<path d="M1319.91 220.742L1315.47 228.993L1313.46 232.737C1313.46 232.737 1313.14 232.8 1312.57 232.862C1310.51 233.137 1305.24 233.511 1300.7 231.452C1300.68 230.64 1300.67 229.554 1300.67 228.494C1300.67 227.869 1300.68 227.27 1300.7 226.734C1303.91 227.42 1307.14 227.058 1310.15 226.097C1311.97 225.523 1313.72 224.736 1315.33 223.85C1317.05 222.926 1318.59 221.816 1319.91 220.742Z" fill="#FFB27D"/>
<path d="M1319.91 220.742L1315.47 228.993L1313.46 232.737C1313.46 232.737 1313.14 232.8 1312.57 232.862C1311.9 230.678 1310.95 228.181 1310.15 226.109C1311.97 225.535 1313.72 224.749 1315.33 223.863C1317.05 222.926 1318.59 221.816 1319.91 220.742Z" fill="#FFB27D"/>
<path d="M1206.89 219.531C1205.68 221.803 1204.78 224.025 1204.78 224.025C1204.78 224.025 1203.23 221.678 1201.09 217.222C1202.79 213.79 1204.65 208.535 1205.89 204.852C1208.36 211.356 1206.89 219.531 1206.89 219.531Z" fill="#D3CC9B"/>
</g>
<defs>
<clipPath id="clip0_303_736">
<rect width="256" height="392" fill="white" transform="translate(1116 163)"/>
</clipPath>
</defs>
</svg>
