<svg width="1933" height="547" viewBox="0 0 1933 547" fill="none" xmlns="http://www.w3.org/2000/svg">
<path d="M390.018 506.951C387.365 503.495 346.002 462.055 336.782 405.311C332.175 376.934 335.733 345.011 356.572 312.838C377.913 279.907 417.362 246.711 484.684 216.806C499.525 210.211 517.23 200.811 526.228 188.743C550.506 156.255 495.967 128.632 561.262 88.0213C656.797 28.6142 761.06 94.3287 867.288 67.3911C886.054 62.6392 904.887 54.9869 923.746 43.2418C970.068 14.4124 1032.48 3.23209 1089.41 0.618571C1208.11 -4.76089 1341.69 25.503 1410.62 69.7311C1455.81 98.7309 1471.47 142.376 1440.26 184.905C1434.44 192.844 1419.51 206.876 1462.99 236.082C1479.43 247.128 1500.77 258.362 1521.36 269.735C1521.48 269.802 1521.61 269.878 1521.74 269.941C1559.66 290.899 1583.61 305.405 1609.47 339.699C1635.31 373.298 1646.32 411.977 1631 450.924C1622.18 472.872 1605.67 492.848 1585.58 508C1585.59 508 390.313 507.511 390.018 506.951Z" fill="#F4F6F7"/>
<path d="M1600.47 456.593C1567.08 443.35 1541.61 489.549 1489.4 479.387C1437.18 469.232 1433.99 504.971 1433.99 504.971L1650.55 507.001C1668.63 489.125 1683.94 466.499 1693.85 441.501C1669.15 435.524 1628.49 467.713 1600.47 456.593Z" fill="#A8D29F"/>
<g opacity="0.8">
<path opacity="0.8" d="M1362.61 123.326H941.847V508.339H1362.61V123.326Z" fill="#ECF6FE"/>
<path opacity="0.8" d="M1369.18 109.335H931.44V123.326H1369.18V109.335Z" fill="white"/>
<path opacity="0.8" d="M1214.08 158.13H941.847V229.69H1214.08V158.13Z" fill="#C4D6F5"/>
<path opacity="0.8" d="M941.846 168.939H687.888V321.407H941.846V168.939Z" fill="#D9E6F1"/>
<path opacity="0.8" d="M941.846 353.13H687.888V505.598H941.846V353.13Z" fill="#D9E6F1"/>
<path opacity="0.8" d="M941.842 321.407H723.084V353.13H941.842V321.407Z" fill="#D0DBE9"/>
<path opacity="0.8" d="M941.847 128.133L1362.61 141.865V123.326H941.847V128.133Z" fill="#E8F0FC"/>
<path opacity="0.8" d="M941.847 168.03H672V183.126H941.847V168.03Z" fill="white"/>
<g opacity="0.5">
<path opacity="0.5" d="M1302.98 337.19H1007.33V504.373H1302.98V337.19Z" fill="#98BAF4"/>
<path opacity="0.5" d="M1294.42 348.88H1017.26V504.934H1294.42V348.88Z" fill="white"/>
<path opacity="0.5" d="M1284.49 358.753H1027.76V394.609H1284.49V358.753Z" fill="#AFCDFB"/>
<path opacity="0.5" d="M1102.83 404.347H1027.76V504.262H1102.83V404.347Z" fill="#AFCDFB"/>
<path opacity="0.5" d="M1202.27 404.347H1109.97V504.262H1202.27V404.347Z" fill="#AFCDFB"/>
<path opacity="0.5" d="M1284.49 404.347H1208.62V504.262H1284.49V404.347Z" fill="#AFCDFB"/>
<path opacity="0.5" d="M1140.22 404.347H1202.27V441.326L1191.21 504.262H1122.66L1140.22 404.347Z" fill="#CCE1FF"/>
<g opacity="0.5">
<g opacity="0.5">
<path opacity="0.5" d="M1191.12 423.363H1122.07V504.378H1191.12V423.363Z" fill="white"/>
<path opacity="0.5" d="M1187.83 427.023H1125.37V504.373H1187.83V427.023Z" fill="#98BAF4"/>
<path opacity="0.5" d="M1157.76 427.023H1155.44V504.373H1157.76V427.023Z" fill="white"/>
</g>
<g opacity="0.5">
<path opacity="0.5" d="M1149.87 465.701C1149.87 464.819 1150.53 464.105 1151.34 464.105C1152.16 464.105 1152.82 464.819 1152.82 465.701C1152.82 466.582 1152.16 467.296 1151.34 467.296C1150.53 467.296 1149.87 466.582 1149.87 465.701Z" fill="white"/>
<path opacity="0.5" d="M1160.38 465.7C1160.38 464.819 1161.04 464.105 1161.85 464.105C1162.67 464.105 1163.33 464.819 1163.33 465.7C1163.33 466.582 1162.67 467.296 1161.85 467.296C1161.04 467.296 1160.38 466.582 1160.38 465.7Z" fill="white"/>
</g>
</g>
<path opacity="0.5" d="M1051.64 404.347H1089.65L1077.52 504.262H1039.51L1051.64 404.347Z" fill="#CCE1FF"/>
<path opacity="0.5" d="M1095.18 358.753L1090.83 394.609H1052.82L1057.17 358.753H1095.18Z" fill="#CCE1FF"/>
<path opacity="0.5" d="M1226.58 404.347H1264.59L1252.45 504.262H1214.44L1226.58 404.347Z" fill="#CCE1FF"/>
<path opacity="0.5" d="M1270.12 358.753L1265.76 394.609H1227.76L1232.11 358.753H1270.12Z" fill="#CCE1FF"/>
<path opacity="0.5" d="M1216.78 358.753L1210.48 394.609H1141.93L1148.23 358.753H1216.78Z" fill="#CCE1FF"/>
</g>
<path opacity="0.8" d="M1208.68 411.709H1208.82L1208.68 412.507V411.709Z" fill="#CCE1FF"/>
<g opacity="0.5">
<g opacity="0.5">
<path opacity="0.5" d="M745.774 223.659H717.641V271.725H745.774V223.659Z" fill="#102343" fill-opacity="0.54"/>
<g opacity="0.5">
<g opacity="0.5">
<path opacity="0.5" d="M746.935 273.275H715.939V222.114H746.935V273.275ZM718.802 270.181H744.072V225.213H718.802V270.181Z" fill="white"/>
</g>
<path opacity="0.5" d="M744.432 239.738H718.447V242.062H744.432V239.738Z" fill="white"/>
<path opacity="0.5" d="M744.432 255.734H718.447V258.058H744.432V255.734Z" fill="white"/>
<path opacity="0.5" d="M732.514 271.731V223.436H730.367V271.731H732.514Z" fill="white"/>
</g>
</g>
<g opacity="0.5">
<path opacity="0.5" d="M827.009 223.659H798.876V271.725H827.009V223.659Z" fill="#102343" fill-opacity="0.54"/>
<g opacity="0.5">
<g opacity="0.5">
<path opacity="0.5" d="M828.171 273.275H797.175V222.114H828.171V273.275ZM800.038 270.181H825.312V225.213H800.038V270.181Z" fill="white"/>
</g>
<path opacity="0.5" d="M825.663 239.738H799.678V242.062H825.663V239.738Z" fill="white"/>
<path opacity="0.5" d="M825.663 255.734H799.678V258.058H825.663V255.734Z" fill="white"/>
<path opacity="0.5" d="M813.747 271.729V223.434H811.6V271.729H813.747Z" fill="white"/>
</g>
</g>
<g opacity="0.5">
<path opacity="0.5" d="M908.24 223.659H880.107V271.725H908.24V223.659Z" fill="#102343" fill-opacity="0.54"/>
<g opacity="0.5">
<g opacity="0.5">
<path opacity="0.5" d="M909.402 273.275H878.411V222.114H909.402V273.275ZM881.269 270.181H906.539V225.213H881.269V270.181Z" fill="white"/>
</g>
<path opacity="0.5" d="M906.899 239.738H880.914V242.062H906.899V239.738Z" fill="white"/>
<path opacity="0.5" d="M906.899 255.734H880.914V258.058H906.899V255.734Z" fill="white"/>
<path opacity="0.5" d="M894.98 271.731V223.437H892.833V271.731H894.98Z" fill="white"/>
</g>
</g>
</g>
<g opacity="0.5">
<g opacity="0.5">
<path opacity="0.5" d="M745.774 388.476H717.641V436.543H745.774V388.476Z" fill="#98BAF4"/>
<g opacity="0.5">
<g opacity="0.5">
<path opacity="0.5" d="M746.935 438.092H715.939V386.926H746.935V438.092ZM718.802 434.993H744.072V390.025H718.802V434.993Z" fill="white"/>
</g>
<path opacity="0.5" d="M744.432 404.551H718.447V406.875H744.432V404.551Z" fill="white"/>
<path opacity="0.5" d="M744.432 420.547H718.447V422.871H744.432V420.547Z" fill="white"/>
<path opacity="0.5" d="M732.51 436.544V388.25H730.363V436.544H732.51Z" fill="white"/>
</g>
</g>
<g opacity="0.5">
<path opacity="0.5" d="M827.009 388.476H798.876V436.543H827.009V388.476Z" fill="#102343" fill-opacity="0.54"/>
<g opacity="0.5">
<g opacity="0.5">
<path opacity="0.5" d="M828.171 438.092H797.175V386.927H828.171V438.092ZM800.038 434.993H825.312V390.026H800.038V434.993Z" fill="white"/>
</g>
<path opacity="0.5" d="M825.663 404.551H799.678V406.875H825.663V404.551Z" fill="white"/>
<path opacity="0.5" d="M825.663 420.547H799.678V422.871H825.663V420.547Z" fill="white"/>
<path opacity="0.5" d="M813.748 436.542V388.248H811.601V436.542H813.748Z" fill="white"/>
</g>
</g>
<g opacity="0.5">
<path opacity="0.5" d="M908.24 388.476H880.107V436.543H908.24V388.476Z" fill="#102343" fill-opacity="0.54"/>
<g opacity="0.5">
<g opacity="0.5">
<path opacity="0.5" d="M909.402 438.092H878.411V386.927H909.402V438.092ZM881.269 434.993H906.539V390.026H881.269V434.993Z" fill="white"/>
</g>
<path opacity="0.5" d="M906.899 404.551H880.914V406.875H906.899V404.551Z" fill="white"/>
<path opacity="0.5" d="M906.899 420.547H880.914V422.871H906.899V420.547Z" fill="white"/>
<path opacity="0.5" d="M894.981 436.545V388.251H892.834V436.545H894.981Z" fill="white"/>
</g>
</g>
</g>
<path opacity="0.8" d="M1375 286.622H935.306V303.37H1375V286.622Z" fill="#E1E9F3"/>
<path opacity="0.8" d="M1323.26 500.907H994.769V508.339H1323.26V500.907Z" fill="#BAD0F2"/>
</g>
<path d="M508.258 503.95L477.383 503.838L424.274 503.639L327.882 503.284C322.474 495.781 304.979 470.26 290.804 434.005C288.849 429.011 286.965 423.812 285.175 418.427C282.661 410.849 280.352 402.911 278.358 394.649C276.066 385.135 274.187 375.204 272.906 364.931C287.484 367.179 303.858 371.512 320.585 379.363C373.855 404.349 356.415 440.866 381.334 440.866C406.265 440.866 407.917 425.307 432.842 435.897C457.772 446.488 454.707 468.99 470.285 467.589C481.576 466.568 496.469 474.774 503.805 488.198C506.369 492.867 508.004 498.178 508.258 503.95Z" fill="#8DCE9E"/>
<path d="M536.707 505.338L329.6 505.78C329.573 505.718 329.54 505.618 329.54 505.574C329.517 505.537 329.164 505.064 328.518 504.173C328.33 503.912 328.114 503.619 327.882 503.283C322.474 495.78 304.979 470.259 290.804 434.004C288.848 429.01 286.965 423.812 285.175 418.426C294.914 421.433 305.675 425.916 315.845 432.634C317.375 433.643 318.894 434.701 320.386 435.822C322.789 437.603 325.148 439.527 327.435 441.594C328.91 442.926 330.357 444.327 331.766 445.784C332.904 446.961 334.009 448.175 335.102 449.439C335.136 449.489 335.174 449.526 335.213 449.576C336.307 450.846 337.406 452.079 338.516 453.274C368.988 485.924 406.884 488.639 435.963 483.652C439.526 483.042 443.57 482.649 447.934 482.45C464.633 481.715 486.111 483.913 503.811 488.191C520.671 492.263 534.111 498.227 536.707 505.338Z" fill="#79B294"/>
<path d="M321.198 448.437C321.198 448.437 338.908 426.589 349.603 429.229C360.298 431.863 324.54 449.57 324.54 449.57L321.198 448.437Z" fill="#79B294"/>
<path d="M330.108 451.45C330.108 451.45 350.83 442.161 356.177 447.435C361.524 452.708 331.003 453.71 331.003 453.71L330.108 451.45Z" fill="#79B294"/>
<path d="M311.84 440.654C312.061 439.652 322.982 417.05 328.55 418.053C334.119 419.055 316.298 441.152 316.298 441.152L311.84 440.654Z" fill="#79B294"/>
<path d="M1053 76.7158C1053 76.7158 1064.4 55.117 1091.65 57.5204C1091.65 57.5204 1131.22 21.5266 1173.42 52.72C1173.42 52.72 1218.27 44.9932 1251.48 59.4131C1273.63 69.0264 1280.94 79.1129 1280.94 79.1129L1053 76.7158Z" fill="#F8FCFF"/>
<path d="M1412 276.388C1412 276.388 1418.62 263.22 1434.45 264.683C1434.45 264.683 1457.43 242.735 1481.94 261.757C1481.94 261.757 1507.99 257.043 1527.28 265.835C1540.14 271.7 1544.4 277.845 1544.4 277.845L1412 276.388Z" fill="#F8FCFF"/>
<path d="M735 140.607C735 140.607 741.618 127.439 757.45 128.902C757.45 128.902 780.431 106.954 804.942 125.975C804.942 125.975 830.994 121.262 850.284 130.054C863.145 135.919 867.398 142.064 867.398 142.064L735 140.607Z" fill="#F8FCFF"/>
<path d="M718.177 503.228C716.873 500.918 712.945 494.922 707.714 495.713C702.013 496.578 714.006 500.812 717.68 503.24C716.867 503.253 716.166 503.178 715.647 502.972C713.194 501.989 708.99 503.875 707.642 504.541H731.009C730.849 503.913 730.429 502.885 729.336 502.132C728.954 501.87 728.181 501.833 727.187 501.914C728.579 500.071 729.54 494.169 725.673 495.688C722.845 496.796 722.856 500.401 723.132 502.53C722.53 502.636 721.922 502.742 721.32 502.842C720.154 496.161 716.044 476.573 707.703 476.05C699.245 475.521 714.873 496.36 720.077 503.029C719.414 503.128 718.773 503.197 718.177 503.228Z" fill="#82B378"/>
<path d="M1256.74 503.228C1258.04 500.918 1261.97 494.922 1267.2 495.713C1272.9 496.578 1260.91 500.812 1257.24 503.24C1258.06 503.253 1258.75 503.178 1259.27 502.972C1261.72 501.989 1265.93 503.875 1267.27 504.541H1243.91C1244.07 503.913 1244.49 502.885 1245.58 502.132C1245.96 501.87 1246.74 501.833 1247.73 501.914C1246.34 500.071 1245.38 494.169 1249.24 495.688C1252.07 496.796 1252.06 500.401 1251.79 502.53C1252.39 502.636 1252.99 502.742 1253.6 502.842C1254.76 496.161 1258.88 476.573 1267.21 476.05C1275.67 475.521 1260.04 496.36 1254.84 503.029C1255.51 503.128 1256.15 503.197 1256.74 503.228Z" fill="#82B378"/>
<path d="M1114.8 505.799C1114.8 505.799 1115.86 490.607 1105.98 488.372C1096.1 486.137 1088.58 491.765 1076.12 485.34C1063.66 478.921 1052.54 476.99 1040.11 485.34C1027.67 493.689 1007.22 488.883 1006.16 505.793H1114.8V505.799Z" fill="#A8D29F"/>
<path d="M1930.48 511H2.51955C1.12863 511 0 509.867 0 508.489V506.738C0 505.351 1.13658 504.226 2.51955 504.226H1930.48C1931.86 504.226 1933 505.359 1933 506.738V508.489C1933 509.867 1931.86 511 1930.48 511Z" fill="#A3A8B1"/>
<path d="M812.013 351.846H816.999L830.863 433.162H825.877L812.013 351.846Z" fill="#263238"/>
<path d="M830.507 351.846H835.479L849.357 433.162H844.372L830.507 351.846Z" fill="#263238"/>
<path d="M849.002 351.846H853.974L867.839 433.162H862.867L849.002 351.846Z" fill="#263238"/>
<path opacity="0.4" d="M812.013 351.846H816.999L830.863 433.162H825.877L812.013 351.846Z" fill="white"/>
<path opacity="0.4" d="M830.507 351.846H835.479L849.357 433.162H844.372L830.507 351.846Z" fill="white"/>
<path opacity="0.4" d="M849.002 351.846H853.974L867.839 433.162H862.867L849.002 351.846Z" fill="white"/>
<path d="M854.589 435.264L854.999 453.236L856.897 545.469H863.14L865.025 453.236L865.448 435.264H854.589Z" fill="#263238"/>
<path opacity="0.4" d="M854.589 435.264L854.999 453.236L856.897 545.469H863.14L865.025 453.236L865.448 435.264H854.589Z" fill="white"/>
<path opacity="0.2" d="M854.589 435.264L854.999 453.727H865.025L865.448 435.264H854.589Z" fill="black"/>
<path d="M820.632 545.182L826.41 436.533H835.849L827.763 545.182H820.632Z" fill="#263238"/>
<path opacity="0.4" d="M827.776 545.182H820.646L825.877 445.307L826.396 436.41H835.848L835.111 445.307L827.776 545.182Z" fill="white"/>
<path opacity="0.2" d="M835.849 436.41L835.111 445.648H825.877L826.396 436.41H835.849Z" fill="black"/>
<path d="M892.275 545.182L884.189 436.533H893.628L899.406 545.182H892.275Z" fill="#263238"/>
<path opacity="0.4" d="M892.262 545.182L884.913 445.307L884.189 436.41H893.628L894.147 445.307L899.392 545.182H892.262Z" fill="white"/>
<path opacity="0.2" d="M884.189 436.41L884.913 445.648H894.147L893.628 436.41H884.189Z" fill="black"/>
<path d="M827.12 426.408H892.904C896.1 426.408 898.682 428.987 898.682 432.18V439.903H821.342V432.18C821.342 429 823.938 426.408 827.12 426.408Z" fill="#263238"/>
<path d="M819.962 433.162H900.061C901.345 433.162 902.383 434.199 902.383 435.482V437.584C902.383 438.866 901.345 439.903 900.061 439.903H819.962C818.678 439.903 817.64 438.866 817.64 437.584V435.482C817.64 434.199 818.678 433.162 819.962 433.162Z" fill="#263238"/>
<path opacity="0.6" d="M819.962 433.162H900.061C901.345 433.162 902.383 434.199 902.383 435.482V437.584C902.383 438.866 901.345 439.903 900.061 439.903H819.962C818.678 439.903 817.64 438.866 817.64 437.584V435.482C817.64 434.199 818.678 433.162 819.962 433.162Z" fill="white"/>
<path d="M820.618 361.234C828.636 356.39 839.769 356.39 850.409 361.234C855.791 363.595 862.143 364.264 864.97 360.866C869.765 355.871 861.35 341.079 845.191 336.398C833.636 333.082 822.189 333.082 812.409 336.398C798.791 341.079 798.367 355.871 805.866 360.866C810.524 364.264 816.52 363.595 820.618 361.234Z" fill="#263238"/>
<path opacity="0.6" d="M910.538 309.188C914.854 302.229 914.24 288.119 914.226 287.955C914.212 287.805 914.335 287.669 914.499 287.669C914.649 287.655 914.786 287.778 914.786 287.941C914.813 288.651 915.483 303.989 910.237 310.594L910.538 309.188Z" fill="white"/>
<path d="M887.044 293.304C887.044 293.304 882.536 283.752 882.017 273.831C881.498 263.911 889.94 253.84 898.409 255.819C898.409 255.819 908.503 251.288 914.814 256.528C921.124 261.755 927.339 277.884 916.671 298.162C916.671 298.162 897.097 292.103 887.044 293.304Z" fill="#263238"/>
<path d="M948.907 359.788C948.907 359.788 933.964 399.115 946.667 411.834" stroke="#263238" stroke-width="0.4261" stroke-miterlimit="10" stroke-linecap="round" stroke-linejoin="round"/>
<path d="M945.314 340.751L949.836 336.603L956.379 332.127L967.047 339.551L962.184 341.966C962.184 341.966 958.673 345.337 953.469 343.986L949.822 345.473L945.314 340.751Z" fill="#FFB27D"/>
<path d="M924.484 315.452C929.238 320.255 932.434 350.235 932.434 350.235L946.175 338.063L953.483 346.319C953.483 346.319 936.081 371.537 928.691 369.558C921.302 367.58 915.715 347.916 915.715 347.916L924.484 315.452Z" fill="#407BFF"/>
<path opacity="0.6" d="M953.483 346.319C953.483 346.319 936.081 371.537 928.691 369.558C927.271 369.176 925.905 368.125 924.634 366.693C919.362 360.702 915.729 347.916 915.729 347.916L917.75 340.438L924.484 315.452C929.238 320.242 932.434 350.235 932.434 350.235L946.162 338.063L953.483 346.319Z" fill="white"/>
<path opacity="0.1" d="M924.634 366.693C919.362 360.702 915.729 347.916 915.729 347.916L917.75 340.438L923.665 330.831C923.665 330.831 928.322 352.351 924.634 366.693Z" fill="black"/>
<path d="M886.675 300.359L905.129 303.948C905.129 303.948 913.926 308.492 915.729 325.427C917.532 342.375 913.27 378.674 908.284 389.768C903.299 400.862 858.223 392.306 858.223 392.306L872.319 342.635L870.339 309.802L886.675 300.359Z" fill="#407BFF"/>
<path opacity="0.6" d="M886.675 300.359L905.129 303.948C905.129 303.948 913.926 308.492 915.729 325.427C917.532 342.375 913.27 378.674 908.284 389.768C903.299 400.862 858.223 392.306 858.223 392.306L872.319 342.635L870.339 309.802L886.675 300.359Z" fill="white"/>
<path opacity="0.2" d="M886.675 300.359L905.129 303.948C905.129 303.948 913.926 308.492 915.729 325.427C917.532 342.375 913.27 378.674 908.284 389.768C903.299 400.862 858.223 392.306 858.223 392.306L872.319 342.635L870.339 309.802L886.675 300.359Z" fill="black"/>
<path d="M921.574 330.162C920.727 334.27 920.495 337.504 917.586 347.11C915.291 355.284 912.778 363.254 908.352 376.49L866.186 368.494C869.819 357.004 872.264 341.42 871.103 313.323C870.83 306.814 876.089 301.874 882.399 302.72C884.079 302.952 885.869 303.225 887.672 303.566C894.72 304.89 900.484 306.036 906.535 308.069C908.543 308.752 910.606 309.516 912.573 310.28C919.676 313.05 923.104 322.793 921.574 330.162Z" fill="#407BFF"/>
<path d="M894.092 282.647C894.283 289.101 893.641 300.7 888.724 303.798C888.724 303.798 894.679 304.317 905.088 314.769C909.841 310.553 907.601 308.301 907.601 308.301C901.099 305.04 902.096 299.977 904.049 295.46L894.092 282.647Z" fill="#FFB27D"/>
<path opacity="0.2" d="M898.149 287.887L904.036 295.474C903.572 296.538 903.162 297.644 902.902 298.735C900.375 297.739 897.288 294 897.466 291.176C897.548 289.77 897.821 288.474 898.149 287.887Z" fill="black"/>
<path d="M912.505 308.37C912.505 308.37 921.233 338.554 906.918 393.466C906.918 393.466 925.645 344.9 924.484 315.452L912.505 308.37Z" fill="#407BFF"/>
<path opacity="0.6" d="M912.505 308.37C912.505 308.37 921.233 338.554 906.918 393.466C906.918 393.466 925.645 344.9 924.484 315.452L912.505 308.37Z" fill="white"/>
<path d="M905.115 303.948L919.881 311.344L915.674 313.187L920.564 317.785L914.486 350.222C914.486 350.235 915.223 314.66 905.115 303.948Z" fill="#407BFF"/>
<path opacity="0.7" d="M905.115 303.948L919.881 311.344L915.674 313.187L920.564 317.785L914.486 350.222C914.486 350.235 915.223 314.66 905.115 303.948Z" fill="white"/>
<path d="M891.715 273.081C892.344 283.302 892.398 287.641 897.507 293.141C905.197 301.424 917.463 299.077 919.867 289.033C922.026 279.986 920.632 264.784 910.729 260.199C900.99 255.682 891.087 262.846 891.715 273.081Z" fill="#FFB27D"/>
<path d="M919.212 271.102C919.335 271.13 919.458 271.13 919.567 271.061C919.8 270.925 919.868 270.625 919.718 270.379C918.256 267.923 915.989 267.704 915.893 267.704C915.62 267.677 915.401 267.895 915.401 268.168C915.401 268.441 915.62 268.687 915.879 268.714C915.975 268.728 917.723 268.919 918.885 270.87C918.966 270.979 919.089 271.061 919.212 271.102Z" fill="#263238"/>
<path d="M901.004 263.624C901.004 263.624 912.683 271.498 919.13 267.95C919.13 267.95 920.66 257.388 904.842 256.556C889.025 255.723 873.603 277.42 894.967 289.838L894.912 277.871C894.912 277.884 900.662 271.594 901.004 263.624Z" fill="#263238"/>
<path d="M888.383 281.296C889.53 283.425 891.442 284.789 893.232 285.294C895.909 286.045 897.138 283.425 896.292 280.682C895.54 278.225 893.218 274.869 890.582 275.319C887.973 275.769 887.071 278.867 888.383 281.296Z" fill="#FFB27D"/>
<path d="M924.689 545.906C915.66 545.906 914.472 545.769 909.404 545.592C905.061 545.442 904.022 545.974 900.539 545.906C897.63 545.837 897.739 543.054 898.627 539.847C899.078 538.237 899.774 534.825 900.389 532.232L913.611 531.277C915.469 534.825 919.676 539.888 924.757 540.57C929.606 541.211 928.282 545.906 924.689 545.906Z" fill="#263238"/>
<path d="M870.147 368.494C870.147 368.494 848.128 399.225 858.686 418.097C869.245 436.97 927.926 438.43 927.926 438.43C927.926 438.43 912.695 461.628 901.44 531.659L914.335 533.406C914.335 533.406 967.101 438.512 962.825 421.468C958.55 404.424 907.969 393.357 907.969 393.357L908.338 376.477L870.147 368.494Z" fill="#5779AC"/>
<path d="M901.441 545.906C892.412 545.906 891.223 545.769 886.156 545.592C881.812 545.442 880.774 545.974 877.291 545.906C874.381 545.837 874.491 543.054 875.378 539.847C875.829 538.237 876.526 534.825 877.141 532.232L890.363 531.277C892.22 534.825 896.428 539.888 901.509 540.57C906.358 541.211 905.047 545.906 901.441 545.906Z" fill="#263238"/>
<path d="M866.8 366.556C866.8 366.556 838.566 399.225 849.125 418.097C859.684 436.97 918.365 438.43 918.365 438.43C918.365 438.43 889.734 468.751 878.206 531.659L891.1 533.406C891.1 533.406 957.54 438.512 953.264 421.468C948.989 404.424 898.408 393.357 898.408 393.357V374.116L866.8 366.556Z" fill="#638BC8"/>
<path d="M853.237 409.131C859.383 395.881 865.721 383.081 871.39 373.297C890.909 339.509 886.675 300.359 886.675 300.359C886.675 300.359 871.226 302.979 869.491 303.525C867.77 304.07 863.618 361.179 863.618 361.179C855.422 372.478 846.598 390.723 838.744 409.131H853.237Z" fill="#407BFF"/>
<path opacity="0.6" d="M853.236 409.132C859.383 395.895 865.721 383.095 871.376 373.297C874.244 368.33 876.607 363.24 878.533 358.191C879.271 356.267 879.94 354.357 880.555 352.46C889.352 325.236 886.661 300.346 886.661 300.346C886.661 300.346 871.212 302.966 869.491 303.512C868.917 303.703 868.057 310.28 867.196 318.932C867.073 320.105 866.964 321.32 866.841 322.561C866.486 326.205 866.131 330.08 865.803 333.915C865.639 335.757 865.489 337.599 865.338 339.401C864.355 351.122 863.631 361.18 863.631 361.18C855.435 372.478 846.598 390.723 838.757 409.132H853.236Z" fill="white"/>
<path d="M886.675 300.359L875.037 306.65L883.205 312.654L878.793 318.044L881.17 350.508C881.17 350.508 894.201 319.163 886.675 300.359Z" fill="#407BFF"/>
<path opacity="0.7" d="M886.675 300.359L875.037 306.65L883.205 312.654L878.793 318.044L881.17 350.508C881.17 350.508 894.201 319.163 886.675 300.359Z" fill="white"/>
<path opacity="0.1" d="M878.534 358.205C873.876 356.008 868.822 346.879 865.339 339.414C865.489 337.613 865.639 335.771 865.803 333.928C866.131 330.094 866.486 326.219 866.841 322.575C866.964 321.333 867.074 320.119 867.197 318.945L869.751 314.783C869.751 314.783 878.998 340.52 880.555 352.473C881.102 356.704 880.678 359.215 878.534 358.205Z" fill="black"/>
<path d="M932.762 355.421C932.762 355.421 936.191 347.083 940.507 342.607C944.824 338.131 962.308 340.711 962.84 341.393C963.387 342.075 964.466 349.212 963.387 352.392C962.308 355.571 950.055 362.053 950.055 362.053H934.019C934.019 362.067 931.547 358.082 932.762 355.421Z" fill="#263238"/>
<path opacity="0.3" d="M963.797 350.139C963.728 350.999 963.592 351.777 963.387 352.405C962.308 355.584 950.055 362.066 950.055 362.066H934.019C934.019 362.066 931.547 358.095 932.762 355.42C932.762 355.42 936.177 347.096 940.507 342.607C944.824 338.131 962.308 340.71 962.84 341.406C963.277 341.952 964.056 346.66 963.797 350.139Z" fill="white"/>
<path opacity="0.1" d="M963.796 350.14C963.728 351 963.591 351.777 963.386 352.405C962.307 355.585 950.055 362.067 950.055 362.067H934.019C934.019 362.067 944.495 349.799 945.451 349.403C946.312 349.035 959.985 349.048 963.796 350.14Z" fill="black"/>
<path d="M913.106 348.939L931.669 347.506L942.747 346.319L951.748 350.208L946.476 358.205L941.572 356.786C941.572 356.786 936.791 357.591 932.639 355.066L916.302 356.431L913.106 348.939Z" fill="#FFB27D"/>
<path d="M894.625 307.264C888.943 297.835 890.827 281.214 890.937 280.313C890.95 280.163 891.101 280.054 891.251 280.068C891.401 280.081 891.51 280.231 891.497 280.382C891.469 280.6 889.625 296.866 894.816 306.364L894.625 307.264Z" fill="#263238"/>
<path opacity="0.6" d="M894.625 307.264C888.943 297.835 890.827 281.214 890.937 280.313C890.95 280.163 891.101 280.054 891.251 280.068C891.401 280.081 891.51 280.231 891.497 280.382C891.469 280.6 889.625 296.866 894.816 306.364L894.625 307.264Z" fill="white"/>
<path d="M891.415 281.269C891.743 280.996 892.166 281.187 892.207 280.272C892.248 279.358 890.691 278.976 890.841 281.337L891.415 281.269Z" fill="#263238"/>
<path opacity="0.6" d="M891.415 281.269C891.743 280.996 892.166 281.187 892.207 280.272C892.248 279.358 890.691 278.976 890.841 281.337L891.415 281.269Z" fill="white"/>
<path d="M891.893 298.858C893.191 305.176 896.018 311.112 901.864 312.845C908.394 314.797 911.59 309.543 913.133 303.361" stroke="#263238" stroke-width="0.8205" stroke-miterlimit="10" stroke-linecap="round" stroke-linejoin="round"/>
<path d="M903.476 313.2C903.476 313.2 900.526 344.914 905.116 361.029C906.823 367.006 915.729 372.069 913.762 378.81" stroke="#263238" stroke-width="0.8205" stroke-miterlimit="10" stroke-linecap="round" stroke-linejoin="round"/>
<path d="M911.74 375.849L916.152 376.49C916.152 376.49 913.489 390.409 908.94 388.185L911.74 375.849Z" fill="#407BFF"/>
<path opacity="0.6" d="M911.74 375.849L916.152 376.49C916.152 376.49 913.489 390.409 908.94 388.185L911.74 375.849Z" fill="white"/>
<path d="M869.492 303.525C856.816 308.642 872.415 360.456 882.018 361.807C891.634 363.158 928.692 358.56 928.692 358.56V346.319C928.692 346.319 890.5 347.383 889.148 345.487C887.796 343.603 881.663 322.343 878.753 314.769C876.281 308.369 869.492 303.525 869.492 303.525Z" fill="#407BFF"/>
<path opacity="0.6" d="M869.492 303.525C856.816 308.642 872.415 360.456 882.018 361.807C891.634 363.158 928.692 358.56 928.692 358.56V346.319C928.692 346.319 890.5 347.383 889.148 345.487C887.796 343.603 881.663 322.343 878.753 314.769C876.281 308.369 869.492 303.525 869.492 303.525Z" fill="white"/>
<path d="M1021.66 465.681H1151.82C1154.99 465.681 1157.57 463.115 1157.57 459.936V370.718C1157.57 356.786 1146.26 345.5 1132.33 345.5H1041.16C1027.22 345.5 1015.92 356.799 1015.92 370.718V459.949C1015.91 463.115 1018.49 465.681 1021.66 465.681Z" fill="#263238"/>
<path opacity="0.4" d="M1021.66 465.681H1151.82C1154.99 465.681 1157.57 463.115 1157.57 459.936V370.718C1157.57 356.786 1146.26 345.5 1132.33 345.5H1041.16C1027.22 345.5 1015.92 356.799 1015.92 370.718V459.949C1015.91 463.115 1018.49 465.681 1021.66 465.681Z" fill="white"/>
<path d="M941.586 544.869H1015.91V410.96C1015.91 396.768 1004.39 385.251 990.172 385.251H967.307C953.101 385.251 941.572 396.755 941.572 410.96V544.869H941.586Z" fill="#263238"/>
<path opacity="0.4" d="M941.586 544.869H1015.91V410.96C1015.91 396.768 1004.39 385.251 990.172 385.251H967.307C953.101 385.251 941.572 396.755 941.572 410.96V544.869H941.586Z" fill="white"/>
<path opacity="0.5" d="M941.585 544.868H984.339V406.621C984.339 394.831 974.764 385.265 962.962 385.265C951.161 385.265 941.585 394.831 941.585 406.621V544.868Z" fill="white"/>
<path d="M993.336 544.874H1131.31V491.463H993.336V544.874Z" fill="#263238"/>
<path opacity="0.4" d="M993.336 544.874H1131.31V491.463H993.336V544.874Z" fill="white"/>
<path d="M997.767 509.798H1117.4C1131.85 509.798 1143.55 498.104 1143.55 483.666V479.9C1143.55 465.462 1131.85 453.768 1117.4 453.768H997.781C983.329 453.768 971.623 465.462 971.623 479.9V483.666C971.596 498.104 983.316 509.798 997.767 509.798Z" fill="#263238"/>
<path opacity="0.6" d="M997.767 509.798H1117.4C1131.85 509.798 1143.55 498.104 1143.55 483.666V479.9C1143.55 465.462 1131.85 453.768 1117.4 453.768H997.781C983.329 453.768 971.623 465.462 971.623 479.9V483.666C971.596 498.104 983.316 509.798 997.767 509.798Z" fill="white"/>
<path opacity="0.2" d="M1096.95 509.798H1116.99C1131.44 509.798 1143.14 498.104 1143.14 483.666V479.9C1143.14 465.462 1131.42 453.768 1116.99 453.768H1096.95C1082.5 453.768 1070.79 465.462 1070.79 479.9V483.666C1070.79 498.104 1082.51 509.798 1096.95 509.798Z" fill="black"/>
<path d="M1031.19 370.8C1031.19 370.8 1017.27 433.749 993.342 385.811" stroke="#263238" stroke-width="0.4261" stroke-miterlimit="10" stroke-linecap="round" stroke-linejoin="round"/>
<path d="M1057.57 320.706C1046.49 325.113 1023.8 363.472 1022.98 365.069C1022.16 366.665 991.907 378.305 991.907 378.305L994.503 387.626C994.503 387.626 1023.62 381.307 1028.84 378.305C1034.06 375.303 1055.08 354.166 1055.08 354.166L1057.57 320.706Z" fill="#FFB27D"/>
<path d="M1057.57 320.706L1057.03 356.417C1057.03 356.417 1054.34 359.174 1051.19 361.753C1048.37 364.032 1045.21 366.174 1043.21 366.106L1031.19 354.166C1031.21 343.29 1047.58 324.567 1057.57 320.706Z" fill="#A5BDF4"/>
<path opacity="0.2" d="M1051.19 361.753C1048.38 364.032 1045.21 366.174 1043.21 366.106C1039.81 360.088 1049.92 343.999 1049.92 343.999C1049.92 343.999 1051.98 354.575 1051.19 361.753Z" fill="black"/>
<path d="M927.176 543.408L917.246 539.56L928.569 509.266L942.597 513.81L927.176 543.408Z" fill="#FFB27D"/>
<path opacity="0.2" d="M928.569 509.28L921.849 527.252L933.418 531.455L942.611 513.824L928.569 509.28Z" fill="black"/>
<path d="M1063.8 453.713C1056.63 458.298 1043.89 459.717 1030.9 459.717C1017.68 459.717 1004.2 458.257 996.073 457.179C996.073 457.179 972.033 491.663 949.987 515.475C946.121 519.664 942.31 523.513 938.704 526.788L923.242 521.725C923.242 521.725 948.443 451.762 965.75 430.147C966.856 428.154 968.782 426.08 971.965 424.197C972.47 423.883 972.948 423.624 973.44 423.392C978.699 420.69 986.867 418.506 999.475 417.66C1008.07 417.087 1018.71 417.142 1031.89 418.097L1047 402.827L1079.64 404.151C1079.64 404.151 1082.48 441.732 1063.8 453.713Z" fill="#263238"/>
<path opacity="0.2" d="M1063.8 453.713C1056.63 458.298 1043.89 459.717 1030.9 459.717C1017.68 459.717 1004.2 458.257 996.073 457.179C996.073 457.179 972.033 491.663 949.987 515.475C947.555 463.156 975.926 433.312 999.474 417.66C1008.07 417.087 1018.71 417.142 1031.89 418.097L1047 402.827L1079.64 404.151C1079.64 404.151 1082.48 441.732 1063.8 453.713Z" fill="black"/>
<path d="M919.444 532.041L931.888 532.232C932.352 532.246 932.735 532.574 932.803 533.024L934.401 543.19C934.565 544.241 933.705 545.223 932.626 545.196C928.145 545.046 921.671 544.691 916.029 544.596C909.432 544.487 910.088 544.759 902.356 544.637C897.685 544.568 896.688 539.82 898.668 539.424C907.711 537.609 908.626 537.513 916.63 532.887C917.505 532.382 918.461 532.028 919.444 532.041Z" fill="#263238"/>
<path d="M922.476 514.888L921.151 522.776L939.947 530.172L943.293 523.499L922.476 514.888Z" fill="#263238"/>
<path d="M954.508 544.773L944.577 540.925L955.914 510.631L969.943 515.175L954.508 544.773Z" fill="#FFB27D"/>
<path opacity="0.2" d="M955.915 510.644L949.181 528.63L960.75 532.819L969.943 515.189L955.915 510.644Z" fill="black"/>
<path d="M946.776 533.406L959.22 533.597C959.684 533.611 960.067 533.938 960.135 534.388L961.733 544.541C961.897 545.592 961.037 546.574 959.958 546.547C955.477 546.397 949.003 546.042 943.361 545.947C936.764 545.837 937.42 546.11 929.688 545.988C925.017 545.919 924.02 541.17 926 540.775C935.043 538.96 935.958 538.864 943.962 534.238C944.837 533.747 945.793 533.392 946.776 533.406Z" fill="#263238"/>
<path d="M949.809 514.888L948.484 522.776L967.28 530.172L970.64 523.499L949.809 514.888Z" fill="#263238"/>
<path d="M1106.97 404.151L1074.33 402.827L1059.22 418.097C1026.71 415.736 1009.61 418.861 1000.76 423.378C1000.28 423.61 999.789 423.883 999.284 424.183C996.101 426.066 994.175 428.141 993.069 430.133C975.762 451.748 950.574 521.711 950.574 521.711L966.037 526.76C990.186 504.79 1023.39 457.152 1023.39 457.152C1039.5 459.294 1076.66 462.952 1091.12 453.686C1109.83 441.732 1106.97 404.151 1106.97 404.151Z" fill="#263238"/>
<path d="M1114.96 350.972C1115.02 356.799 1114.83 363.418 1114.23 370.8C1113.26 382.849 1111.17 396.959 1107.12 413.103L1037.62 411.479C1034.84 403.428 1034.8 384.937 1046.2 367.443C1047.31 356.949 1045.97 345.337 1046.84 334.106C1047.38 327.092 1054.14 320.637 1062.58 319.164C1075.12 316.994 1088.01 316.598 1101.18 317.485C1108.2 317.949 1113.3 322.207 1113.76 328.088C1114.17 333.437 1114.9 341.079 1114.96 350.972Z" fill="#849CD2"/>
<path opacity="0.2" d="M922.476 514.888L921.151 522.776L939.947 530.172L943.293 523.499L922.476 514.888Z" fill="white"/>
<path opacity="0.2" d="M949.809 514.888L948.484 522.776L967.28 530.172L970.64 523.499L949.809 514.888Z" fill="white"/>
<path d="M1087.7 297.466C1087.81 306.036 1088.37 316.025 1094.24 321.661C1091.03 327.133 1084.23 331.513 1075.2 330.735C1065.27 329.876 1067.76 322.903 1069.9 319.327C1074.67 315.602 1073.29 310.567 1072.69 307.032L1087.7 297.466Z" fill="#FFB27D"/>
<path opacity="0.2" d="M1084.42 301.192C1084.44 300.646 1084.41 300.1 1084.4 299.568L1072.72 307.032C1073.07 309.147 1073.71 311.808 1073.14 314.387C1078.77 311.917 1084.37 306.377 1084.42 301.192Z" fill="black"/>
<path d="M1057.03 363.704C1057.03 363.704 1054.74 369.299 1055.15 370.718C1055.56 372.137 1057.03 365.069 1057.03 365.069C1057.03 365.069 1056.23 370.991 1056.69 371.469C1057.17 371.946 1057.84 365.669 1057.84 365.669C1057.84 365.669 1057.64 371.114 1057.84 371.496C1058.05 371.878 1059.06 366.119 1059.06 366.119C1059.06 366.119 1058.05 371.742 1058.39 372.206C1058.73 372.683 1059.94 366.119 1059.94 366.119C1059.94 366.119 1059.53 372.478 1059.94 372.751C1060.35 373.024 1060.68 366.542 1060.68 366.542C1060.68 366.542 1060.82 372.629 1061.09 372.765C1061.36 372.901 1061.64 366.488 1061.64 366.488C1061.64 366.488 1061.5 372.97 1062.18 373.229C1062.85 373.502 1062.59 366.884 1062.59 366.884C1062.59 366.884 1062.94 372.574 1063.47 373.229C1064 373.884 1063.89 367.211 1063.89 367.211C1063.89 367.211 1064.27 373.052 1064.82 373.27C1065.37 373.488 1064.82 366.938 1064.82 366.938C1064.82 366.938 1065.9 372.478 1066.58 372.41C1067.25 372.342 1065.91 364.182 1065.91 364.182L1057.03 363.704Z" fill="#263238"/>
<path d="M1065.31 319.163C1065.31 319.163 1058.65 324.567 1057.57 340.67C1056.49 356.772 1057.57 362.353 1056.39 363.527C1055.22 364.7 1063.15 366.501 1064.77 366.051C1066.38 365.601 1066.3 363.076 1066.3 362.271C1066.3 361.466 1065.22 337.081 1070.08 330.148C1074.96 323.216 1065.31 319.163 1065.31 319.163Z" fill="#D9E1F4"/>
<path opacity="0.1" d="M1070.09 330.148C1069 331.704 1068.21 334.147 1067.63 337.012C1063.51 332.932 1062.54 326.191 1063.32 321.497C1063.32 321.497 1063.3 321.497 1063.32 321.483C1064.48 319.859 1065.33 319.163 1065.33 319.163C1065.33 319.163 1074.96 323.216 1070.09 330.148Z" fill="black"/>
<path d="M1072.4 315.929C1072.4 315.929 1072.16 324.663 1081.55 321.101C1089.13 318.236 1090.27 311.426 1090.27 311.426C1090.27 311.426 1094.05 310.375 1095.13 314.224C1095.13 314.224 1099.67 314.715 1101.18 317.471C1102.7 320.242 1087.22 337.695 1074.42 336.439C1061.62 335.184 1062.84 321.019 1064.57 318.836C1066.31 316.653 1067.74 318.208 1067.74 318.208C1067.74 318.208 1071.49 313.309 1072.4 315.929Z" fill="#D9E1F4"/>
<path d="M1061.42 292.335C1064.93 294.369 1073.07 294.15 1068.86 277.966C1065.33 264.307 1054.97 288.61 1061.42 292.335Z" fill="#E0E0E0"/>
<path d="M1092.66 284.584C1091.22 295.788 1090.96 302.42 1084.9 307.769C1075.76 315.82 1062.2 309.639 1060.23 298.203C1058.47 287.914 1061.11 271.321 1072.43 267.663C1083.59 264.061 1094.08 273.381 1092.66 284.584Z" fill="#FFB27D"/>
<path d="M1094.8 278.485C1095.46 275.414 1088.78 270.966 1084.96 273.286C1081.19 275.564 1086.51 280.327 1087.47 284.639C1088.41 288.951 1083.03 292.977 1083.03 292.977C1083.03 292.977 1085.21 295.638 1089.54 295.46C1099.24 291.79 1096.33 279.727 1094.8 278.485Z" fill="#E0E0E0"/>
<path d="M1095.73 296.265C1094.13 298.845 1091.47 300.428 1089.03 300.946C1085.34 301.724 1083.71 298.367 1084.91 295.01C1085.99 291.994 1089.22 287.955 1092.84 288.692C1096.39 289.415 1097.58 293.318 1095.73 296.265Z" fill="#FFB27D"/>
<path d="M1059.3 296.443C1059.3 296.443 1061.17 293.686 1065.68 296.443C1065.68 296.443 1067.42 294.601 1071.81 294.833C1076.21 295.065 1078.47 296.443 1078.47 296.443L1083.71 292.39L1085.09 294.532C1085.09 294.532 1091.06 308.915 1082.96 313.773C1074.86 318.631 1064.78 316.557 1061.9 313.323C1059.02 310.089 1060.45 301.628 1060.45 301.628C1060.45 301.628 1058.77 297.971 1059.3 296.443Z" fill="#E0E0E0"/>
<path d="M1075.78 300.646C1070.91 302.447 1066.32 299.022 1066.32 299.022C1066.32 299.022 1064.36 301.424 1062.55 301.164" stroke="#263238" stroke-width="0.5" stroke-miterlimit="10" stroke-linecap="round" stroke-linejoin="round"/>
<path d="M992.385 378.36L979.573 378.005L984.873 390.778C984.873 390.778 995.691 390.969 996.06 384.337L992.385 378.36Z" fill="#FFB27D"/>
<path d="M973.454 384.227L974.847 389.795C975.339 391.787 977.387 392.961 979.354 392.388L984.886 390.791L979.587 378.018L975.352 380.12C973.822 380.87 973.044 382.576 973.454 384.227Z" fill="#FFB27D"/>
<path d="M1031.18 351.054L1044.51 366.106L1034.43 375.849L1022 363.704L1031.18 351.054Z" fill="#263238"/>
<path d="M1023.17 362.176L1035.37 374.416C1035.77 374.812 1036.41 374.826 1036.82 374.43L1043.65 367.907C1044.06 367.511 1044.07 366.87 1043.69 366.461L1030.77 352.555C1030.33 352.078 1029.57 352.119 1029.18 352.637L1023.08 360.825C1022.76 361.234 1022.8 361.807 1023.17 362.176Z" fill="#263238"/>
<path opacity="0.2" d="M1023.17 362.176L1035.37 374.416C1035.77 374.812 1036.41 374.826 1036.82 374.43L1043.65 367.907C1044.06 367.511 1044.07 366.87 1043.69 366.461L1030.77 352.555C1030.33 352.078 1029.57 352.119 1029.18 352.637L1023.08 360.825C1022.76 361.234 1022.8 361.807 1023.17 362.176Z" fill="white"/>
<path opacity="0.2" d="M1114.96 350.972C1115.02 356.799 1114.83 363.417 1114.23 370.8C1106.69 364.086 1105.8 346.319 1105.8 346.319C1109.08 347.397 1112.18 349.021 1114.96 350.972Z" fill="black"/>
<path d="M1107.51 319.164C1118.91 324.021 1147.56 359.911 1142.95 373.27C1138.36 386.643 1121.32 388.062 1119.09 387.53C1116.86 386.984 1112.25 377.323 1125.3 368.48L1108.64 353.388C1108.64 353.388 1103.81 343.986 1103.93 335.348C1104.05 326.723 1107.51 319.164 1107.51 319.164Z" fill="#A5BDF4"/>
<path d="M1119.24 378.305L1106.56 380.175L1113.99 391.842C1113.99 391.842 1124.69 390.177 1123.9 383.573L1119.24 378.305Z" fill="#FFB27D"/>
<path d="M1101.59 387.353L1103.93 392.593C1104.76 394.462 1106.99 395.267 1108.82 394.367L1113.99 391.842L1106.56 380.175L1102.75 382.972C1101.39 383.982 1100.91 385.797 1101.59 387.353Z" fill="#FFB27D"/>
<path d="M1103.93 544.869H1178.25V410.96C1178.25 396.768 1166.73 385.251 1152.51 385.251H1129.65C1115.44 385.251 1103.91 396.755 1103.91 410.96V544.869H1103.93Z" fill="#263238"/>
<path opacity="0.6" d="M1103.93 544.869H1178.25V410.96C1178.25 396.768 1166.73 385.251 1152.51 385.251H1129.65C1115.44 385.251 1103.91 396.755 1103.91 410.96V544.869H1103.93Z" fill="white"/>
<path opacity="0.4" d="M1103.93 544.868H1146.68V406.62C1146.68 394.83 1137.11 385.264 1125.31 385.264C1113.5 385.264 1103.93 394.83 1103.93 406.62V544.868Z" fill="white"/>
</svg>
