<svg width="1933" height="543" viewBox="0 0 1933 543" fill="none" xmlns="http://www.w3.org/2000/svg">
<path d="M390.018 506.951C387.365 503.495 346.002 462.055 336.782 405.311C332.175 376.934 335.733 345.011 356.572 312.838C377.913 279.907 417.362 246.711 484.684 216.806C499.525 210.211 517.23 200.811 526.228 188.743C550.506 156.255 495.967 128.632 561.262 88.0213C656.797 28.6142 761.06 94.3287 867.288 67.3911C886.054 62.6392 904.887 54.9869 923.746 43.2418C970.068 14.4124 1032.48 3.23209 1089.41 0.618571C1208.11 -4.76089 1341.69 25.503 1410.62 69.7311C1455.81 98.7309 1471.47 142.376 1440.26 184.905C1434.44 192.844 1419.51 206.876 1462.99 236.082C1479.43 247.128 1500.77 258.362 1521.36 269.735C1521.48 269.802 1521.61 269.878 1521.74 269.941C1559.66 290.899 1583.61 305.405 1609.47 339.699C1635.31 373.298 1646.32 411.977 1631 450.924C1622.18 472.872 1605.67 492.848 1585.58 508C1585.59 508 390.313 507.511 390.018 506.951Z" fill="#F4F6F7"/>
<path d="M1600.47 456.593C1567.08 443.35 1541.61 489.549 1489.4 479.387C1437.18 469.232 1433.99 504.971 1433.99 504.971L1650.55 507.001C1668.63 489.125 1683.94 466.499 1693.85 441.501C1669.15 435.524 1628.49 467.713 1600.47 456.593Z" fill="#A8D29F"/>
<g opacity="0.8">
<path opacity="0.8" d="M1362.61 123.326H941.847V508.339H1362.61V123.326Z" fill="#ECF6FE"/>
<path opacity="0.8" d="M1369.18 109.335H931.44V123.326H1369.18V109.335Z" fill="white"/>
<path opacity="0.8" d="M1214.08 158.13H941.847V229.69H1214.08V158.13Z" fill="#C4D6F5"/>
<path opacity="0.8" d="M941.847 168.939H687.888V321.407H941.847V168.939Z" fill="#D9E6F1"/>
<path opacity="0.8" d="M941.847 353.13H687.888V505.598H941.847V353.13Z" fill="#D9E6F1"/>
<path opacity="0.8" d="M941.843 321.407H723.084V353.13H941.843V321.407Z" fill="#D0DBE9"/>
<path opacity="0.8" d="M941.847 128.133L1362.61 141.865V123.326H941.847V128.133Z" fill="#E8F0FC"/>
<path opacity="0.8" d="M941.847 168.03H672V183.126H941.847V168.03Z" fill="white"/>
<g opacity="0.5">
<path opacity="0.5" d="M1302.98 337.19H1007.33V504.373H1302.98V337.19Z" fill="#98BAF4"/>
<path opacity="0.5" d="M1294.42 348.88H1017.26V504.934H1294.42V348.88Z" fill="white"/>
<path opacity="0.5" d="M1284.49 358.753H1027.76V394.609H1284.49V358.753Z" fill="#AFCDFB"/>
<path opacity="0.5" d="M1102.83 404.347H1027.76V504.262H1102.83V404.347Z" fill="#AFCDFB"/>
<path opacity="0.5" d="M1202.27 404.347H1109.97V504.262H1202.27V404.347Z" fill="#AFCDFB"/>
<path opacity="0.5" d="M1284.49 404.347H1208.62V504.262H1284.49V404.347Z" fill="#AFCDFB"/>
<path opacity="0.5" d="M1140.22 404.347H1202.27V441.326L1191.21 504.262H1122.66L1140.22 404.347Z" fill="#CCE1FF"/>
<g opacity="0.5">
<g opacity="0.5">
<path opacity="0.5" d="M1191.12 423.363H1122.07V504.378H1191.12V423.363Z" fill="white"/>
<path opacity="0.5" d="M1187.83 427.023H1125.37V504.373H1187.83V427.023Z" fill="#98BAF4"/>
<path opacity="0.5" d="M1157.76 427.023H1155.44V504.373H1157.76V427.023Z" fill="white"/>
</g>
<g opacity="0.5">
<path opacity="0.5" d="M1149.87 465.701C1149.87 464.819 1150.53 464.105 1151.34 464.105C1152.16 464.105 1152.82 464.819 1152.82 465.701C1152.82 466.582 1152.16 467.296 1151.34 467.296C1150.53 467.296 1149.87 466.582 1149.87 465.701Z" fill="white"/>
<path opacity="0.5" d="M1160.38 465.7C1160.38 464.819 1161.04 464.105 1161.85 464.105C1162.67 464.105 1163.33 464.819 1163.33 465.7C1163.33 466.582 1162.67 467.296 1161.85 467.296C1161.04 467.296 1160.38 466.582 1160.38 465.7Z" fill="white"/>
</g>
</g>
<path opacity="0.5" d="M1051.64 404.347H1089.65L1077.52 504.262H1039.51L1051.64 404.347Z" fill="#CCE1FF"/>
<path opacity="0.5" d="M1095.18 358.753L1090.83 394.609H1052.82L1057.17 358.753H1095.18Z" fill="#CCE1FF"/>
<path opacity="0.5" d="M1226.58 404.347H1264.59L1252.45 504.262H1214.44L1226.58 404.347Z" fill="#CCE1FF"/>
<path opacity="0.5" d="M1270.12 358.753L1265.76 394.609H1227.76L1232.11 358.753H1270.12Z" fill="#CCE1FF"/>
<path opacity="0.5" d="M1216.78 358.753L1210.48 394.609H1141.93L1148.23 358.753H1216.78Z" fill="#CCE1FF"/>
</g>
<path opacity="0.8" d="M1208.68 411.709H1208.82L1208.68 412.507V411.709Z" fill="#CCE1FF"/>
<g opacity="0.5">
<g opacity="0.5">
<path opacity="0.5" d="M745.774 223.659H717.641V271.725H745.774V223.659Z" fill="#102343" fill-opacity="0.54"/>
<g opacity="0.5">
<g opacity="0.5">
<path opacity="0.5" d="M746.935 273.275H715.939V222.114H746.935V273.275ZM718.802 270.181H744.072V225.213H718.802V270.181Z" fill="white"/>
</g>
<path opacity="0.5" d="M744.432 239.738H718.447V242.062H744.432V239.738Z" fill="white"/>
<path opacity="0.5" d="M744.432 255.734H718.447V258.058H744.432V255.734Z" fill="white"/>
<path opacity="0.5" d="M732.514 271.731V223.436H730.367V271.731H732.514Z" fill="white"/>
</g>
</g>
<g opacity="0.5">
<path opacity="0.5" d="M827.009 223.659H798.876V271.725H827.009V223.659Z" fill="#102343" fill-opacity="0.54"/>
<g opacity="0.5">
<g opacity="0.5">
<path opacity="0.5" d="M828.17 273.275H797.175V222.114H828.17V273.275ZM800.038 270.181H825.312V225.213H800.038V270.181Z" fill="white"/>
</g>
<path opacity="0.5" d="M825.663 239.738H799.678V242.062H825.663V239.738Z" fill="white"/>
<path opacity="0.5" d="M825.663 255.734H799.678V258.058H825.663V255.734Z" fill="white"/>
<path opacity="0.5" d="M813.747 271.729V223.434H811.6V271.729H813.747Z" fill="white"/>
</g>
</g>
<g opacity="0.5">
<path opacity="0.5" d="M908.241 223.659H880.108V271.725H908.241V223.659Z" fill="#102343" fill-opacity="0.54"/>
<g opacity="0.5">
<g opacity="0.5">
<path opacity="0.5" d="M909.402 273.275H878.411V222.114H909.402V273.275ZM881.27 270.181H906.539V225.213H881.27V270.181Z" fill="white"/>
</g>
<path opacity="0.5" d="M906.899 239.738H880.914V242.062H906.899V239.738Z" fill="white"/>
<path opacity="0.5" d="M906.899 255.734H880.914V258.058H906.899V255.734Z" fill="white"/>
<path opacity="0.5" d="M894.981 271.731V223.437H892.833V271.731H894.981Z" fill="white"/>
</g>
</g>
</g>
<g opacity="0.5">
<g opacity="0.5">
<path opacity="0.5" d="M745.774 388.476H717.641V436.543H745.774V388.476Z" fill="#98BAF4"/>
<g opacity="0.5">
<g opacity="0.5">
<path opacity="0.5" d="M746.935 438.092H715.939V386.926H746.935V438.092ZM718.802 434.993H744.072V390.025H718.802V434.993Z" fill="white"/>
</g>
<path opacity="0.5" d="M744.432 404.551H718.447V406.875H744.432V404.551Z" fill="white"/>
<path opacity="0.5" d="M744.432 420.547H718.447V422.871H744.432V420.547Z" fill="white"/>
<path opacity="0.5" d="M732.51 436.544V388.25H730.363V436.544H732.51Z" fill="white"/>
</g>
</g>
<g opacity="0.5">
<path opacity="0.5" d="M827.009 388.476H798.876V436.543H827.009V388.476Z" fill="#102343" fill-opacity="0.54"/>
<g opacity="0.5">
<g opacity="0.5">
<path opacity="0.5" d="M828.17 438.092H797.175V386.927H828.17V438.092ZM800.038 434.993H825.312V390.026H800.038V434.993Z" fill="white"/>
</g>
<path opacity="0.5" d="M825.663 404.551H799.678V406.875H825.663V404.551Z" fill="white"/>
<path opacity="0.5" d="M825.663 420.547H799.678V422.871H825.663V420.547Z" fill="white"/>
<path opacity="0.5" d="M813.748 436.542V388.248H811.6V436.542H813.748Z" fill="white"/>
</g>
</g>
<g opacity="0.5">
<path opacity="0.5" d="M908.241 388.476H880.108V436.543H908.241V388.476Z" fill="#102343" fill-opacity="0.54"/>
<g opacity="0.5">
<g opacity="0.5">
<path opacity="0.5" d="M909.402 438.092H878.411V386.927H909.402V438.092ZM881.27 434.993H906.539V390.026H881.27V434.993Z" fill="white"/>
</g>
<path opacity="0.5" d="M906.899 404.551H880.914V406.875H906.899V404.551Z" fill="white"/>
<path opacity="0.5" d="M906.899 420.547H880.914V422.871H906.899V420.547Z" fill="white"/>
<path opacity="0.5" d="M894.981 436.545V388.251H892.834V436.545H894.981Z" fill="white"/>
</g>
</g>
</g>
<path opacity="0.8" d="M1375 286.622H935.306V303.37H1375V286.622Z" fill="#E1E9F3"/>
<path opacity="0.8" d="M1323.26 500.907H994.769V508.339H1323.26V500.907Z" fill="#BAD0F2"/>
</g>
<path d="M508.258 503.95L477.383 503.838L424.274 503.639L327.882 503.284C322.474 495.781 304.979 470.26 290.804 434.005C288.849 429.011 286.965 423.812 285.175 418.427C282.661 410.849 280.352 402.911 278.358 394.649C276.066 385.135 274.187 375.204 272.906 364.931C287.484 367.179 303.858 371.512 320.585 379.363C373.855 404.349 356.415 440.866 381.334 440.866C406.265 440.866 407.917 425.307 432.842 435.897C457.772 446.488 454.707 468.99 470.285 467.589C481.576 466.568 496.469 474.774 503.805 488.198C506.369 492.867 508.004 498.178 508.258 503.95Z" fill="#8DCE9E"/>
<path d="M536.708 505.338L329.601 505.78C329.573 505.718 329.54 505.618 329.54 505.574C329.518 505.537 329.164 505.064 328.518 504.173C328.33 503.912 328.115 503.619 327.883 503.283C322.474 495.78 304.979 470.259 290.804 434.004C288.849 429.01 286.965 423.812 285.175 418.426C294.914 421.433 305.675 425.916 315.845 432.634C317.376 433.643 318.895 434.701 320.386 435.822C322.789 437.603 325.148 439.527 327.435 441.594C328.91 442.926 330.357 444.327 331.766 445.784C332.904 446.961 334.009 448.175 335.103 449.439C335.136 449.489 335.174 449.526 335.213 449.576C336.307 450.846 337.406 452.079 338.517 453.274C368.988 485.924 406.884 488.639 435.963 483.652C439.526 483.042 443.57 482.649 447.934 482.45C464.634 481.715 486.112 483.913 503.811 488.191C520.671 492.263 534.111 498.227 536.708 505.338Z" fill="#79B294"/>
<path d="M321.198 448.437C321.198 448.437 338.909 426.589 349.604 429.229C360.298 431.863 324.54 449.57 324.54 449.57L321.198 448.437Z" fill="#79B294"/>
<path d="M330.109 451.45C330.109 451.45 350.83 442.161 356.177 447.435C361.525 452.708 331.004 453.71 331.004 453.71L330.109 451.45Z" fill="#79B294"/>
<path d="M311.84 440.654C312.061 439.652 322.983 417.05 328.551 418.053C334.119 419.055 316.298 441.152 316.298 441.152L311.84 440.654Z" fill="#79B294"/>
<path d="M1053 76.7158C1053 76.7158 1064.4 55.117 1091.65 57.5204C1091.65 57.5204 1131.22 21.5266 1173.42 52.72C1173.42 52.72 1218.27 44.9932 1251.48 59.4131C1273.63 69.0264 1280.94 79.1129 1280.94 79.1129L1053 76.7158Z" fill="#F8FCFF"/>
<path d="M1412 276.388C1412 276.388 1418.62 263.22 1434.45 264.683C1434.45 264.683 1457.43 242.735 1481.94 261.757C1481.94 261.757 1507.99 257.043 1527.28 265.835C1540.14 271.7 1544.4 277.845 1544.4 277.845L1412 276.388Z" fill="#F8FCFF"/>
<path d="M735 140.607C735 140.607 741.618 127.439 757.45 128.902C757.45 128.902 780.431 106.954 804.942 125.975C804.942 125.975 830.994 121.262 850.284 130.054C863.145 135.919 867.398 142.064 867.398 142.064L735 140.607Z" fill="#F8FCFF"/>
<path d="M718.177 503.228C716.873 500.918 712.945 494.922 707.714 495.713C702.013 496.578 714.006 500.812 717.68 503.24C716.867 503.253 716.166 503.178 715.647 502.972C713.194 501.989 708.99 503.875 707.642 504.541H731.009C730.849 503.913 730.429 502.885 729.336 502.132C728.954 501.87 728.181 501.833 727.187 501.914C728.579 500.071 729.54 494.169 725.673 495.688C722.845 496.796 722.856 500.401 723.132 502.53C722.53 502.636 721.922 502.742 721.32 502.842C720.154 496.161 716.044 476.573 707.703 476.05C699.245 475.521 714.873 496.36 720.077 503.029C719.414 503.128 718.773 503.197 718.177 503.228Z" fill="#82B378"/>
<path d="M1256.74 503.228C1258.04 500.918 1261.97 494.922 1267.2 495.713C1272.9 496.578 1260.91 500.812 1257.24 503.24C1258.06 503.253 1258.75 503.178 1259.27 502.972C1261.72 501.989 1265.93 503.875 1267.27 504.541H1243.91C1244.07 503.913 1244.49 502.885 1245.58 502.132C1245.96 501.87 1246.74 501.833 1247.73 501.914C1246.34 500.071 1245.38 494.169 1249.24 495.688C1252.07 496.796 1252.06 500.401 1251.79 502.53C1252.39 502.636 1252.99 502.742 1253.6 502.842C1254.76 496.161 1258.88 476.573 1267.21 476.05C1275.67 475.521 1260.04 496.36 1254.84 503.029C1255.51 503.128 1256.15 503.197 1256.74 503.228Z" fill="#82B378"/>
<path d="M1114.8 505.799C1114.8 505.799 1115.86 490.607 1105.98 488.372C1096.1 486.137 1088.58 491.765 1076.12 485.34C1063.66 478.921 1052.54 476.99 1040.11 485.34C1027.67 493.689 1007.22 488.883 1006.16 505.793H1114.8V505.799Z" fill="#A8D29F"/>
<path d="M1930.48 511H2.51955C1.12863 511 0 509.867 0 508.489V506.738C0 505.351 1.13658 504.226 2.51955 504.226H1930.48C1931.86 504.226 1933 505.359 1933 506.738V508.489C1933 509.867 1931.86 511 1930.48 511Z" fill="#A3A8B1"/>
<g clip-path="url(#clip0_303_2)">
<path d="M841.791 432.404H477.822L461 346.769H824.31L841.791 432.404Z" fill="#779AE8"/>
<path d="M848.006 432.404H484.038L467.216 346.769H830.525L848.006 432.404Z" fill="#658BCE"/>
<path d="M597.208 442.89H486.218C481.584 442.89 477.822 439.124 477.822 434.485V432.414H597.208V442.89Z" fill="#779AE8"/>
<path d="M909.768 442.89H589.684C586.794 442.89 584.452 440.545 584.452 437.652C584.452 434.759 586.794 432.414 589.684 432.414H909.768C912.658 432.414 915 434.759 915 437.652C915 440.545 912.658 442.89 909.768 442.89Z" fill="#6891D8"/>
<path d="M499.542 442.89L493.306 467.415C493.306 467.435 493.306 467.435 493.306 467.445L474.861 540.107C474.618 541.061 473.766 541.721 472.803 541.721C470.927 541.721 469.507 540.005 469.872 538.178L486.329 453.416L488.378 442.89H499.542Z" fill="#99B9FF"/>
<path d="M493.316 467.425C493.914 454.878 486.339 453.427 486.339 453.427L488.388 442.9H499.552L493.316 467.425Z" fill="#779AE8"/>
<path d="M578.5 442.89L572.264 467.415C572.264 467.435 572.264 467.435 572.264 467.445L553.82 540.107C553.566 541.061 552.725 541.721 551.761 541.721C549.885 541.721 548.466 540.005 548.831 538.178L565.288 453.416L567.336 442.89H578.5Z" fill="#99B9FF"/>
<path d="M572.264 467.425C572.863 454.878 565.288 453.427 565.288 453.427L567.336 442.9H578.5L572.264 467.425Z" fill="#779AE8"/>
<path d="M884.834 442.89L891.07 467.415C891.07 467.435 891.07 467.435 891.07 467.445L909.514 540.107C909.768 541.061 910.609 541.721 911.573 541.721C913.448 541.721 914.868 540.005 914.493 538.178L898.036 453.416L895.998 442.89H884.834Z" fill="#99B9FF"/>
<path d="M891.07 467.425C890.472 454.878 898.046 453.427 898.046 453.427L895.998 442.89H884.834L891.07 467.425Z" fill="#779AE8"/>
<path d="M805.885 442.89L812.121 467.415C812.121 467.435 812.121 467.435 812.121 467.445L830.566 540.107C830.819 541.061 831.661 541.721 832.624 541.721C834.5 541.721 835.92 540.005 835.544 538.178L819.088 453.416L817.039 442.89H805.885Z" fill="#99B9FF"/>
<path d="M812.111 467.425C811.513 454.878 819.088 453.427 819.088 453.427L817.039 442.9H805.875L812.111 467.425Z" fill="#779AE8"/>
<path d="M688.02 230.488C688.02 230.488 691.366 241.248 703.037 244.202C714.718 247.166 712.447 256.099 711.606 264.657C710.764 273.214 728.864 286.451 709.567 298.379C690.271 310.306 665.703 273.214 665.703 273.214L666.737 242.832L688.02 230.488Z" fill="#FBFBFC"/>
<path d="M711.768 360.696C710.551 359.783 708.787 357.062 706.891 353.519C703.25 346.759 699.063 337.024 696.964 331.167C695.929 328.284 695.402 326.345 695.686 326.152C695.96 325.969 696.994 324.223 698.414 321.635C699.914 318.884 701.841 315.189 703.717 311.443C707.408 304.084 710.947 296.47 710.845 295.252C711.778 298.196 727.464 347.957 727.85 354.809C728.235 361.874 716.473 364.229 711.768 360.696Z" fill="#F9DDBF"/>
<path d="M710.845 295.242C710.825 295.181 710.804 295.14 710.804 295.12C710.825 295.151 710.835 295.191 710.845 295.242Z" fill="#F9DDBF"/>
<path d="M601.943 264.667C601.943 264.667 609.771 269.194 620.499 279.244C630.233 288.37 644.906 308.692 651.385 312.814C657.854 316.935 692.563 319.879 692.563 319.879V327.533C692.563 327.533 661.383 337.836 640.799 333.715C620.215 329.593 602.562 313.991 602.562 313.991L601.943 264.667Z" fill="#6C7BA4"/>
<path d="M761.98 503.228C762.315 502.162 762.71 500.802 763.136 499.299C763.907 490.661 765.833 457.944 768.693 445.174C778.68 451.64 790.929 445.631 794.113 445.631C790.027 458.045 778.964 491.534 776.257 498.518C775.162 503.187 773.681 510.791 774.523 514.76C775.851 521.074 777.879 526.971 781.418 532.027C781.813 532.595 766.725 530.27 760.601 526.119C754.466 521.967 749.721 517.937 752.459 514.232C753.422 512.922 754.568 511.664 755.815 510.679C758.127 508.872 760.986 506.395 761.98 503.228Z" fill="#F2A470"/>
<path d="M760.5 527.53C767.202 530.676 764.566 531.235 773.245 536.777C781.925 542.32 786.741 541.295 787.938 540.3C789.003 539.427 785.362 535.874 781.53 531.986L781.428 532.037C781.428 532.037 773.915 531.58 767.151 526.383C761.635 522.16 757.153 515.988 753.371 513.034C752.286 514.201 751.191 515.409 750.441 516.841C748.312 520.931 753.797 524.383 760.5 527.53Z" fill="#1C468A"/>
<path d="M737.584 508.567C737.716 507.461 737.858 506.04 737.989 504.497C737.127 495.868 732.93 463.354 733.355 450.29C744.367 454.777 755.288 446.585 758.411 445.986C756.707 458.939 752.084 493.909 750.725 501.279C750.522 506.07 750.482 513.816 752.043 517.561C754.527 523.51 757.62 528.931 762.041 533.235C762.538 533.712 747.277 534.25 740.484 531.316C733.69 528.382 728.275 525.317 730.273 521.165C730.973 519.703 731.865 518.252 732.909 517.044C734.846 514.831 737.188 511.867 737.584 508.567Z" fill="#FFB27D"/>
<path d="M740.656 532.717C747.825 534.554 745.341 535.59 754.903 539.417C764.465 543.244 768.997 541.325 769.991 540.137C770.873 539.072 766.634 536.27 762.142 533.164L762.051 533.235C762.051 533.235 754.588 534.189 746.973 530.352C740.768 527.225 735.211 522.008 730.942 519.815C730.101 521.165 729.239 522.556 728.772 524.109C727.454 528.514 733.487 530.88 740.656 532.717Z" fill="#1C468A"/>
<path d="M694.51 380.816C694.51 380.816 703.92 368.553 710.389 370.319C716.858 372.086 760.429 380.44 782.736 404.082C802.732 425.278 802.144 464.735 802.144 464.735C802.144 464.735 772.14 472.978 752.733 469.445C733.325 465.912 730.577 470.227 721.553 471.607C715.134 472.582 710.085 438.241 705.674 435.297C698.748 430.678 645.088 431.764 643.912 408.214C642.746 384.643 694.51 380.816 694.51 380.816Z" fill="#DD6D4A"/>
<path d="M673.348 249.389C673.348 249.389 700.35 230.123 683.447 211.008C681.815 209.15 679.716 207.76 677.384 206.968C670.955 204.775 656.546 201.08 648.201 208.419C639.217 216.327 635.303 222.682 641.032 231.483C646.761 240.284 673.348 249.389 673.348 249.389Z" fill="#FBFBFC"/>
<path d="M651.304 246.638C651.304 246.638 651.223 250.313 651.274 255.297C651.304 257.734 651.355 260.485 651.476 263.266C651.557 265.266 651.233 267.123 651.385 269.062L656.952 298.389L680.162 268.9C680.162 268.9 675.994 264.565 672.111 243.187C672.08 242.964 672.05 242.842 672.05 242.842L651.304 246.638Z" fill="#FFB27D"/>
<path d="M711.423 377.578C712.944 380.389 705.096 387.587 701.131 389.647C696.061 392.276 695.798 393.231 665.338 395.18C662.042 395.393 658.939 395.575 656.029 395.738C636.378 396.824 625.802 396.814 625.802 396.814C625.802 396.814 640.769 374.634 634.705 320.072C633.924 313.006 636.632 301.505 640.678 295.648C644.906 289.537 645.129 281.985 646.173 274.716C646.467 272.635 644.896 272.361 645.433 270.362C645.433 270.362 650.736 268.189 651.294 268.118C654.721 270.504 659.426 275.366 669.738 275.265C676.704 275.193 678.884 270.585 679.604 268.138C682.342 268.788 685.313 270.534 687.666 271.356C707.134 278.117 710.794 295.12 710.794 295.12C710.794 295.12 703.727 345.196 703.139 352.261C702.743 356.971 707.742 370.807 711.423 377.578Z" fill="#F9DDBF"/>
<path d="M651.274 255.297C651.304 257.734 651.355 260.485 651.476 263.266C673.825 257.378 672.435 245.4 672.111 243.177C672.081 242.954 672.05 242.832 672.05 242.832C672.05 242.832 660.187 249.379 651.274 255.297Z" fill="#E8945B"/>
<path d="M646.508 257.581C646.508 257.581 670.377 261.094 672.324 246.182C674.281 231.27 678.671 221.677 663.522 218.804C648.363 215.931 644.652 221.23 642.797 226.052C640.941 230.874 640.353 256.282 646.508 257.581Z" fill="#FFB27D"/>
<path d="M648.384 214.906C648.384 214.906 646.64 243.542 676.147 244.212C676.147 244.212 679.868 206.075 648.384 214.906Z" fill="#FBFBFC"/>
<path d="M654.569 218.022C654.569 218.022 645.311 222.316 641.651 230.488C641.651 230.488 633.539 215.921 654.569 218.022Z" fill="#D5E5FB"/>
<path d="M663.34 382.095C671.178 407.219 624.636 397.108 624.636 397.108C624.636 397.108 626.685 388.135 625.255 370.665C624.677 363.559 616.788 353.804 618.441 344.627C620.175 335.024 641.306 328.294 647.066 316.935C641.965 345.774 671.371 364.229 663.34 382.095Z" fill="#F2CCAA"/>
<path d="M662.894 382.44C662.894 382.44 673.338 381.709 677.302 382.876C681.277 384.054 684.806 387.292 685.242 389.058C685.688 390.825 677.15 391.86 675.092 390.967C673.034 390.084 669.353 391.85 666.858 391.119C664.364 390.388 661.565 388.328 661.565 388.328L662.894 382.44Z" fill="#EDA16E"/>
<path d="M651.304 268.118C651.304 268.118 628.672 275.528 619.719 288.674C612.854 298.754 609.325 344.576 610.167 351.987C610.978 359.062 620.155 372.675 659.416 389.901C659.984 390.145 666.575 388.277 664.81 382.247L634.908 347.754L653.018 302.297C653.018 302.287 666.139 282.543 651.304 268.118Z" fill="#F9DDBF"/>
<path d="M644.683 247.166C644.683 247.166 645.108 249.694 646.234 250.049C647.349 250.404 649.144 251.003 650.807 250.577C652.48 250.151 653.089 248.902 653.089 248.902C653.089 248.902 649.621 247.116 644.683 247.166Z" fill="white"/>
<path d="M671.462 518.343C671.462 518.343 669.688 542.188 674.19 542.553C674.788 542.604 697.014 542.777 697.014 542.777L725.68 543C725.68 543 725.254 535.986 716.969 534.473C708.685 532.961 694.855 527.022 689.916 516.008C684.715 504.426 671.462 518.343 671.462 518.343Z" fill="#163560"/>
<path d="M564.913 385.82C564.913 385.82 555.016 416.984 568.046 427.927C583.246 440.687 666.869 432.637 665.682 439.997C663.664 452.604 670.793 523.672 670.793 523.672C670.793 523.672 687.452 526.86 698.038 523.916C698.038 523.916 710.389 421.745 696.274 408.599C675.67 389.404 606.283 376.41 606.283 376.41L564.913 385.82Z" fill="#213F7C"/>
<path d="M641.357 518.343C641.357 518.343 639.582 542.188 644.084 542.553C644.683 542.604 666.909 542.777 666.909 542.777L695.574 543C695.574 543 695.149 535.986 686.864 534.473C678.58 532.961 664.749 527.022 659.811 516.008C654.61 504.426 641.357 518.343 641.357 518.343Z" fill="#1D416D"/>
<path d="M535.497 385.82C535.497 385.82 525.601 416.984 538.63 427.927C553.83 440.687 637.352 432.627 636.267 439.997C633.133 461.395 640.089 525.378 640.089 525.378C640.089 525.378 658.027 526.85 668.613 523.906C668.613 523.906 684.583 426.953 666.848 408.589C655.38 396.712 584.696 381.11 584.696 381.11L535.497 385.82Z" fill="#2B478B"/>
<path d="M588.316 234.305C588.316 234.305 581.654 247.643 584.645 258.992L576.067 289.435L550.423 258.81C550.423 258.81 560.401 244.953 562.662 227.412L588.316 234.305Z" fill="#FFB27D"/>
<path d="M551.934 403.331C543.234 403.859 535.73 403.483 531.157 402.072C527.73 401.016 525.155 372.796 523.877 342.749C522.457 309.484 522.61 273.985 524.921 270.625C529.383 264.169 550.2 258.363 550.798 258.292C554.428 260.789 563.24 265.895 574.16 265.733C581.542 265.621 583.905 261.195 584.665 258.617C587.727 258.931 596.59 262.515 599.094 263.337C611.597 267.458 611.302 286.745 611.302 286.745C611.302 286.745 612.509 358.504 616.514 375.385C620.144 390.774 579.818 401.646 551.934 403.331Z" fill="#8391B6"/>
<path d="M593.101 241.837C593.101 241.837 564.497 250.313 559.64 233.066C554.783 215.82 544.085 206.207 565.328 199.273C582.799 193.568 590.566 199.517 593.588 204.887C596.61 210.247 603.586 238.223 593.101 241.837Z" fill="#FFB27D"/>
<path d="M598.293 222.925C598.293 222.925 609.498 243.877 600.727 249.41C591.956 254.942 565.967 258.759 559.143 231.351C559.143 231.351 574.434 235.97 580.741 234.183C587.048 232.396 590.242 227.696 596.833 229.097C596.823 229.097 598.942 228.417 598.293 222.925Z" fill="#FBFBFC"/>
<path d="M554.743 207.668C554.783 205.77 556.74 204.298 556.74 204.298C571.26 193.122 585.091 197.923 585.091 197.923C571.767 186.991 548.375 195.832 546.316 209.201C542.96 231.026 559.143 231.361 559.143 231.361C559.143 231.361 572.69 221.21 561.932 215.424C558.373 213.505 556.375 211.505 555.402 209.577C555.077 208.917 554.864 208.288 554.743 207.668Z" fill="#FBFBFC"/>
<path d="M595.768 233.178C595.768 233.178 594.592 236.66 591.226 237.37C587.859 238.071 585.608 235.655 585.608 235.655C585.608 235.655 590.982 233.198 595.768 233.178Z" fill="white"/>
<path d="M584.615 382.582L590.394 395.342C590.394 395.342 561.181 392.693 555.888 396.621C553.425 398.448 551.427 401.392 551.924 403.331C543.224 403.859 535.72 403.483 531.147 402.072C527.72 401.016 525.145 372.796 523.867 342.749L528.045 336.953L538.154 328.081C542.352 324.396 548.983 326.934 549.612 332.496C549.825 334.374 549.957 336.344 549.957 338.283C549.957 352.636 573.532 372.867 584.615 382.582Z" fill="#8391B6"/>
<path d="M583.651 382.125C583.651 382.125 587.17 383.689 591.611 383.82C599.459 384.054 602.014 384.074 605.371 385.759C607.246 386.693 610.511 389.576 612.164 391.332C613.219 392.449 614.446 397.078 613.341 397.717C611.313 398.895 600.28 394.997 597.299 395.697C595.058 396.225 591.094 395.819 588.518 394.642C585.943 393.474 581.136 392.033 581.136 392.033L583.651 382.125Z" fill="#FFB27D"/>
<path d="M592.26 384.064C592.26 384.064 598.121 382.836 600.635 381.78C600.635 381.78 601.994 382.694 601.163 383.475C600.331 384.267 597.938 385.12 597.938 385.12L592.26 384.064Z" fill="#FFB27D"/>
<path d="M527.608 267.905C527.608 267.905 511.729 277.031 512.024 317.371C512.318 357.712 509.671 365.071 517.022 370.37C524.374 375.669 566.19 392.205 581.481 393.19C581.481 393.19 586.967 387.597 584.614 381.516C584.614 381.516 537.414 350.555 536.826 348.789C536.237 347.023 551.143 314.732 552.613 304.134C554.073 293.516 527.608 267.905 527.608 267.905Z" fill="#98A7CF"/>
<path d="M697.45 385.526C697.45 385.526 686.469 385.231 684.309 387.394C682.149 389.556 679.016 394.662 680.588 396.032C682.16 397.403 688.426 394.073 692.35 394.855C696.274 395.636 698.819 395.048 702.541 392.307C706.272 389.546 697.45 385.526 697.45 385.526Z" fill="#FFB27D"/>
<path d="M704.406 341.653L697.156 385.526C697.156 385.526 697.592 390.094 704.072 393.038C704.072 393.038 729.806 367.274 728.042 356.676C726.278 346.069 704.406 341.653 704.406 341.653Z" fill="#F9DDBF"/>
<path d="M703.463 353.53C699.823 346.769 705.927 310.895 706.16 311.088C709.892 314.021 706.16 333.278 708.979 338.739C711.088 342.81 703.463 353.53 703.463 353.53Z" fill="#F2CCAA"/>
</g>
<defs>
<clipPath id="clip0_303_2">
<rect width="454" height="350" fill="white" transform="translate(461 193)"/>
</clipPath>
</defs>
</svg>
