<svg width="1933" height="561" viewBox="0 0 1933 561" fill="none" xmlns="http://www.w3.org/2000/svg">
<path d="M390.018 506.951C387.365 503.495 346.002 462.055 336.782 405.311C332.175 376.934 335.733 345.011 356.572 312.838C377.913 279.907 417.362 246.711 484.684 216.806C499.525 210.211 517.23 200.811 526.228 188.743C550.506 156.255 495.967 128.632 561.262 88.0213C656.797 28.6142 761.06 94.3287 867.288 67.3911C886.054 62.6392 904.887 54.9869 923.746 43.2418C970.068 14.4124 1032.48 3.23209 1089.41 0.618571C1208.11 -4.76089 1341.69 25.503 1410.62 69.7311C1455.81 98.7309 1471.47 142.376 1440.26 184.905C1434.44 192.844 1419.51 206.876 1462.99 236.082C1479.43 247.128 1500.77 258.362 1521.36 269.735C1521.48 269.802 1521.61 269.878 1521.74 269.941C1559.66 290.899 1583.61 305.405 1609.47 339.699C1635.31 373.298 1646.32 411.977 1631 450.924C1622.18 472.872 1605.67 492.848 1585.58 508C1585.59 508 390.313 507.511 390.018 506.951Z" fill="#F4F6F7"/>
<path d="M1600.47 456.593C1567.08 443.35 1541.61 489.549 1489.4 479.387C1437.18 469.232 1433.99 504.971 1433.99 504.971L1650.55 507.001C1668.63 489.125 1683.94 466.499 1693.85 441.501C1669.15 435.524 1628.49 467.713 1600.47 456.593Z" fill="#A8D29F"/>
<g opacity="0.8">
<path opacity="0.8" d="M1362.61 123.326H941.847V508.339H1362.61V123.326Z" fill="#ECF6FE"/>
<path opacity="0.8" d="M1369.18 109.335H931.44V123.326H1369.18V109.335Z" fill="white"/>
<path opacity="0.8" d="M1214.08 158.13H941.847V229.69H1214.08V158.13Z" fill="#C4D6F5"/>
<path opacity="0.8" d="M941.846 168.939H687.888V321.407H941.846V168.939Z" fill="#D9E6F1"/>
<path opacity="0.8" d="M941.846 353.13H687.888V505.598H941.846V353.13Z" fill="#D9E6F1"/>
<path opacity="0.8" d="M941.842 321.407H723.084V353.13H941.842V321.407Z" fill="#D0DBE9"/>
<path opacity="0.8" d="M941.847 128.133L1362.61 141.865V123.326H941.847V128.133Z" fill="#E8F0FC"/>
<path opacity="0.8" d="M941.847 168.03H672V183.126H941.847V168.03Z" fill="white"/>
<g opacity="0.5">
<path opacity="0.5" d="M1302.98 337.19H1007.33V504.373H1302.98V337.19Z" fill="#98BAF4"/>
<path opacity="0.5" d="M1294.42 348.88H1017.26V504.934H1294.42V348.88Z" fill="white"/>
<path opacity="0.5" d="M1284.49 358.753H1027.76V394.609H1284.49V358.753Z" fill="#AFCDFB"/>
<path opacity="0.5" d="M1102.83 404.347H1027.76V504.262H1102.83V404.347Z" fill="#AFCDFB"/>
<path opacity="0.5" d="M1202.27 404.347H1109.97V504.262H1202.27V404.347Z" fill="#AFCDFB"/>
<path opacity="0.5" d="M1284.49 404.347H1208.62V504.262H1284.49V404.347Z" fill="#AFCDFB"/>
<path opacity="0.5" d="M1140.22 404.347H1202.27V441.326L1191.21 504.262H1122.66L1140.22 404.347Z" fill="#CCE1FF"/>
<g opacity="0.5">
<g opacity="0.5">
<path opacity="0.5" d="M1191.12 423.363H1122.07V504.378H1191.12V423.363Z" fill="white"/>
<path opacity="0.5" d="M1187.83 427.023H1125.37V504.373H1187.83V427.023Z" fill="#98BAF4"/>
<path opacity="0.5" d="M1157.76 427.023H1155.44V504.373H1157.76V427.023Z" fill="white"/>
</g>
<g opacity="0.5">
<path opacity="0.5" d="M1149.87 465.701C1149.87 464.819 1150.53 464.105 1151.34 464.105C1152.16 464.105 1152.82 464.819 1152.82 465.701C1152.82 466.582 1152.16 467.296 1151.34 467.296C1150.53 467.296 1149.87 466.582 1149.87 465.701Z" fill="white"/>
<path opacity="0.5" d="M1160.38 465.7C1160.38 464.819 1161.04 464.105 1161.85 464.105C1162.67 464.105 1163.33 464.819 1163.33 465.7C1163.33 466.582 1162.67 467.296 1161.85 467.296C1161.04 467.296 1160.38 466.582 1160.38 465.7Z" fill="white"/>
</g>
</g>
<path opacity="0.5" d="M1051.64 404.347H1089.65L1077.52 504.262H1039.51L1051.64 404.347Z" fill="#CCE1FF"/>
<path opacity="0.5" d="M1095.18 358.753L1090.83 394.609H1052.82L1057.17 358.753H1095.18Z" fill="#CCE1FF"/>
<path opacity="0.5" d="M1226.58 404.347H1264.59L1252.45 504.262H1214.44L1226.58 404.347Z" fill="#CCE1FF"/>
<path opacity="0.5" d="M1270.12 358.753L1265.76 394.609H1227.76L1232.11 358.753H1270.12Z" fill="#CCE1FF"/>
<path opacity="0.5" d="M1216.78 358.753L1210.48 394.609H1141.93L1148.23 358.753H1216.78Z" fill="#CCE1FF"/>
</g>
<path opacity="0.8" d="M1208.68 411.709H1208.82L1208.68 412.507V411.709Z" fill="#CCE1FF"/>
<g opacity="0.5">
<g opacity="0.5">
<path opacity="0.5" d="M745.774 223.659H717.641V271.725H745.774V223.659Z" fill="#102343" fill-opacity="0.54"/>
<g opacity="0.5">
<g opacity="0.5">
<path opacity="0.5" d="M746.935 273.275H715.939V222.114H746.935V273.275ZM718.802 270.181H744.072V225.213H718.802V270.181Z" fill="white"/>
</g>
<path opacity="0.5" d="M744.432 239.738H718.447V242.062H744.432V239.738Z" fill="white"/>
<path opacity="0.5" d="M744.432 255.734H718.447V258.058H744.432V255.734Z" fill="white"/>
<path opacity="0.5" d="M732.514 271.731V223.436H730.367V271.731H732.514Z" fill="white"/>
</g>
</g>
<g opacity="0.5">
<path opacity="0.5" d="M827.009 223.659H798.876V271.725H827.009V223.659Z" fill="#102343" fill-opacity="0.54"/>
<g opacity="0.5">
<g opacity="0.5">
<path opacity="0.5" d="M828.17 273.275H797.175V222.114H828.17V273.275ZM800.038 270.181H825.312V225.213H800.038V270.181Z" fill="white"/>
</g>
<path opacity="0.5" d="M825.663 239.738H799.678V242.062H825.663V239.738Z" fill="white"/>
<path opacity="0.5" d="M825.663 255.734H799.678V258.058H825.663V255.734Z" fill="white"/>
<path opacity="0.5" d="M813.747 271.729V223.434H811.6V271.729H813.747Z" fill="white"/>
</g>
</g>
<g opacity="0.5">
<path opacity="0.5" d="M908.241 223.659H880.108V271.725H908.241V223.659Z" fill="#102343" fill-opacity="0.54"/>
<g opacity="0.5">
<g opacity="0.5">
<path opacity="0.5" d="M909.402 273.275H878.411V222.114H909.402V273.275ZM881.269 270.181H906.539V225.213H881.269V270.181Z" fill="white"/>
</g>
<path opacity="0.5" d="M906.899 239.738H880.914V242.062H906.899V239.738Z" fill="white"/>
<path opacity="0.5" d="M906.899 255.734H880.914V258.058H906.899V255.734Z" fill="white"/>
<path opacity="0.5" d="M894.981 271.731V223.437H892.833V271.731H894.981Z" fill="white"/>
</g>
</g>
</g>
<g opacity="0.5">
<g opacity="0.5">
<path opacity="0.5" d="M745.774 388.476H717.641V436.543H745.774V388.476Z" fill="#98BAF4"/>
<g opacity="0.5">
<g opacity="0.5">
<path opacity="0.5" d="M746.935 438.092H715.939V386.926H746.935V438.092ZM718.802 434.993H744.072V390.025H718.802V434.993Z" fill="white"/>
</g>
<path opacity="0.5" d="M744.432 404.551H718.447V406.875H744.432V404.551Z" fill="white"/>
<path opacity="0.5" d="M744.432 420.547H718.447V422.871H744.432V420.547Z" fill="white"/>
<path opacity="0.5" d="M732.51 436.544V388.25H730.363V436.544H732.51Z" fill="white"/>
</g>
</g>
<g opacity="0.5">
<path opacity="0.5" d="M827.009 388.476H798.876V436.543H827.009V388.476Z" fill="#102343" fill-opacity="0.54"/>
<g opacity="0.5">
<g opacity="0.5">
<path opacity="0.5" d="M828.17 438.092H797.175V386.927H828.17V438.092ZM800.038 434.993H825.312V390.026H800.038V434.993Z" fill="white"/>
</g>
<path opacity="0.5" d="M825.663 404.551H799.678V406.875H825.663V404.551Z" fill="white"/>
<path opacity="0.5" d="M825.663 420.547H799.678V422.871H825.663V420.547Z" fill="white"/>
<path opacity="0.5" d="M813.748 436.542V388.248H811.6V436.542H813.748Z" fill="white"/>
</g>
</g>
<g opacity="0.5">
<path opacity="0.5" d="M908.241 388.476H880.108V436.543H908.241V388.476Z" fill="#102343" fill-opacity="0.54"/>
<g opacity="0.5">
<g opacity="0.5">
<path opacity="0.5" d="M909.402 438.092H878.411V386.927H909.402V438.092ZM881.269 434.993H906.539V390.026H881.269V434.993Z" fill="white"/>
</g>
<path opacity="0.5" d="M906.899 404.551H880.914V406.875H906.899V404.551Z" fill="white"/>
<path opacity="0.5" d="M906.899 420.547H880.914V422.871H906.899V420.547Z" fill="white"/>
<path opacity="0.5" d="M894.981 436.545V388.251H892.834V436.545H894.981Z" fill="white"/>
</g>
</g>
</g>
<path opacity="0.8" d="M1375 286.622H935.306V303.37H1375V286.622Z" fill="#E1E9F3"/>
<path opacity="0.8" d="M1323.26 500.907H994.769V508.339H1323.26V500.907Z" fill="#BAD0F2"/>
</g>
<path d="M508.258 503.95L477.383 503.838L424.274 503.639L327.882 503.284C322.474 495.781 304.979 470.26 290.804 434.005C288.849 429.011 286.965 423.812 285.175 418.427C282.661 410.849 280.352 402.911 278.358 394.649C276.066 385.135 274.187 375.204 272.906 364.931C287.484 367.179 303.858 371.512 320.585 379.363C373.855 404.349 356.415 440.866 381.334 440.866C406.265 440.866 407.917 425.307 432.842 435.897C457.772 446.488 454.707 468.99 470.285 467.589C481.576 466.568 496.469 474.774 503.805 488.198C506.369 492.867 508.004 498.178 508.258 503.95Z" fill="#8DCE9E"/>
<path d="M536.708 505.338L329.601 505.78C329.573 505.718 329.54 505.618 329.54 505.574C329.518 505.537 329.164 505.064 328.518 504.173C328.33 503.912 328.115 503.619 327.883 503.283C322.474 495.78 304.979 470.259 290.804 434.004C288.849 429.01 286.965 423.812 285.175 418.426C294.914 421.433 305.675 425.916 315.845 432.634C317.376 433.643 318.895 434.701 320.386 435.822C322.789 437.603 325.148 439.527 327.435 441.594C328.91 442.926 330.357 444.327 331.766 445.784C332.904 446.961 334.009 448.175 335.103 449.439C335.136 449.489 335.174 449.526 335.213 449.576C336.307 450.846 337.406 452.079 338.517 453.274C368.988 485.924 406.884 488.639 435.963 483.652C439.526 483.042 443.57 482.649 447.934 482.45C464.634 481.715 486.112 483.913 503.811 488.191C520.671 492.263 534.111 498.227 536.708 505.338Z" fill="#79B294"/>
<path d="M321.198 448.437C321.198 448.437 338.909 426.589 349.604 429.229C360.298 431.863 324.54 449.57 324.54 449.57L321.198 448.437Z" fill="#79B294"/>
<path d="M330.109 451.45C330.109 451.45 350.83 442.161 356.177 447.435C361.525 452.708 331.004 453.71 331.004 453.71L330.109 451.45Z" fill="#79B294"/>
<path d="M311.84 440.654C312.061 439.652 322.983 417.05 328.551 418.053C334.119 419.055 316.298 441.152 316.298 441.152L311.84 440.654Z" fill="#79B294"/>
<path d="M1053 76.7158C1053 76.7158 1064.4 55.117 1091.65 57.5204C1091.65 57.5204 1131.22 21.5266 1173.42 52.72C1173.42 52.72 1218.27 44.9932 1251.48 59.4131C1273.63 69.0264 1280.94 79.1129 1280.94 79.1129L1053 76.7158Z" fill="#F8FCFF"/>
<path d="M1412 276.388C1412 276.388 1418.62 263.22 1434.45 264.683C1434.45 264.683 1457.43 242.735 1481.94 261.757C1481.94 261.757 1507.99 257.043 1527.28 265.835C1540.14 271.7 1544.4 277.845 1544.4 277.845L1412 276.388Z" fill="#F8FCFF"/>
<path d="M735 140.607C735 140.607 741.618 127.439 757.45 128.902C757.45 128.902 780.431 106.954 804.942 125.975C804.942 125.975 830.994 121.262 850.284 130.054C863.145 135.919 867.398 142.064 867.398 142.064L735 140.607Z" fill="#F8FCFF"/>
<path d="M718.177 503.228C716.873 500.918 712.945 494.922 707.714 495.713C702.013 496.578 714.006 500.812 717.68 503.24C716.867 503.253 716.166 503.178 715.647 502.972C713.194 501.989 708.99 503.875 707.642 504.541H731.009C730.849 503.913 730.429 502.885 729.336 502.132C728.954 501.87 728.181 501.833 727.187 501.914C728.579 500.071 729.54 494.169 725.673 495.688C722.845 496.796 722.856 500.401 723.132 502.53C722.53 502.636 721.922 502.742 721.32 502.842C720.154 496.161 716.044 476.573 707.703 476.05C699.245 475.521 714.873 496.36 720.077 503.029C719.414 503.128 718.773 503.197 718.177 503.228Z" fill="#82B378"/>
<path d="M1256.74 503.228C1258.04 500.918 1261.97 494.922 1267.2 495.713C1272.9 496.578 1260.91 500.812 1257.24 503.24C1258.05 503.253 1258.75 503.178 1259.27 502.972C1261.72 501.989 1265.93 503.875 1267.27 504.541H1243.91C1244.07 503.913 1244.49 502.885 1245.58 502.132C1245.96 501.87 1246.74 501.833 1247.73 501.914C1246.34 500.071 1245.38 494.169 1249.24 495.688C1252.07 496.796 1252.06 500.401 1251.79 502.53C1252.39 502.636 1252.99 502.742 1253.6 502.842C1254.76 496.161 1258.88 476.573 1267.21 476.05C1275.67 475.521 1260.04 496.36 1254.84 503.029C1255.51 503.128 1256.15 503.197 1256.74 503.228Z" fill="#82B378"/>
<path d="M1114.8 505.799C1114.8 505.799 1115.86 490.607 1105.98 488.372C1096.1 486.137 1088.58 491.765 1076.12 485.34C1063.66 478.921 1052.54 476.99 1040.11 485.34C1027.67 493.689 1007.22 488.883 1006.16 505.793H1114.8V505.799Z" fill="#A8D29F"/>
<path d="M1930.48 511H2.51955C1.12863 511 0 509.867 0 508.489V506.738C0 505.351 1.13658 504.226 2.51955 504.226H1930.48C1931.86 504.226 1933 505.359 1933 506.738V508.489C1933 509.867 1931.86 511 1930.48 511Z" fill="#A3A8B1"/>
<g clip-path="url(#clip0_303_183)">
<path d="M618.465 323.661C619.331 324.406 620.214 325.224 621.106 326.107C626.208 331.204 631.555 338.656 636.722 349.496C636.722 349.496 640.541 337.241 647.654 328.905C652.854 330.41 659.109 331.891 663.966 334.615C664.301 342.158 659.183 367.845 650.458 378.93C638.611 393.983 620.917 388.69 614.098 381.262" fill="#CB6951"/>
<path d="M664.375 331.49L663.557 340.194L643.435 334.484C643.435 334.484 646.158 327.138 648.055 325.51L664.375 331.49Z" fill="#E24E30"/>
<path d="M605.938 385.81L602.349 370.602C602.979 373.891 603.862 378.415 605.938 385.81Z" fill="#FCBE8E"/>
<path d="M496.417 306.163C498.24 305.173 502.067 313.231 502.067 313.231C502.067 313.231 498.167 303.168 499.99 302.326C501.813 301.491 505.427 312.135 505.427 312.135C505.427 312.135 502.582 301.311 504.25 300.42C507.136 299.029 509.131 312.004 509.131 312.004C509.131 312.004 508.763 301.401 511.069 301.017C513.375 300.624 513.555 314.376 513.555 314.376C513.555 314.376 515.345 308.445 517.267 310.539C519.196 312.634 513.833 326.066 513.833 326.066L527.544 348.122C527.544 348.122 534.854 339.082 542.695 326.811C556.357 309.549 571.23 315.276 571.23 315.276C571.263 315.211 575.22 319.342 576.005 319.563C570.167 329.969 564.002 337.879 559.235 348.997L554.853 345.651C551.018 353.824 535.631 384.01 520.643 376.623C503.367 368.107 501.552 325.15 501.552 325.15C499.23 321.06 494.594 307.152 496.417 306.163Z" fill="#FCBE8E"/>
<path d="M512.279 313.574C512.279 313.574 504.356 311.881 501.617 317.231" stroke="#6C4820" stroke-width="0.5979" stroke-miterlimit="10" stroke-linecap="round"/>
<path d="M564.607 311.914C564.607 311.914 578.082 310.196 595.195 311.914V322.639H564.967C564.967 322.639 564.607 312.347 564.607 311.914Z" fill="#E24E30"/>
<path d="M598.261 316.397C598.261 316.397 589.978 315.26 580.772 314.793C572.129 314.36 559.963 315.849 559.473 315.881C559.473 315.881 568.295 335.114 582.35 330.983C596.413 326.852 598.261 316.397 598.261 316.397Z" fill="#B89383"/>
<path d="M570.143 301.974L570.666 308.257C577.321 309.975 584.181 310.188 590.526 308.805L590.641 299.823L570.143 301.974Z" fill="#EAA078"/>
<path d="M593.012 314.253L593.085 310.089C584.729 311.472 575.694 311.267 566.938 309.541L567.404 313.795C575.653 315.898 584.32 315.669 593.012 314.253Z" fill="#EAA078"/>
<path d="M567.395 313.795L567.976 319.088C567.976 319.088 569.652 337.438 579.913 337.438C591.417 337.438 592.922 319.088 592.922 319.088L593.004 314.262C584.32 315.669 575.653 315.898 567.395 313.795Z" fill="#F6BA8B"/>
<path d="M610.468 248.865C612.864 255.671 613.894 259.688 612.758 275.313C611.703 289.768 601.188 304.003 583.495 305.148C566.864 306.228 548.426 299.757 544.412 276.197C541.027 256.342 546.579 236.61 567.739 231.423C588.899 226.237 605.93 235.939 610.468 248.865Z" fill="#F6BA8B"/>
<path d="M545.761 278.127C549.244 275.878 550.847 271.108 549.432 267.214C550.004 268.589 551.82 269.153 553.226 268.646C554.624 268.139 555.605 266.805 556.055 265.382C556.505 263.958 556.521 262.445 556.529 260.948C556.537 259.549 556.537 258.125 556.112 256.792C555.687 255.458 554.755 254.215 553.422 253.781C551.084 253.012 546.129 252.579 544.551 254.469C541.567 258.027 541.697 264.605 541.362 269.235C541.027 273.865 543.357 278.913 547.674 280.606" fill="#F9F9F9"/>
<path d="M612.962 278.127C609.479 275.878 607.876 271.108 609.291 267.214C608.718 268.588 606.903 269.153 605.497 268.646C604.099 268.139 603.118 266.805 602.668 265.382C602.218 263.958 602.202 262.445 602.194 260.948C602.186 259.549 602.186 258.125 602.611 256.792C603.036 255.458 603.968 254.215 605.301 253.781C607.639 253.012 609.953 254.943 611.539 256.833C614.524 260.391 615.341 265.365 615.676 269.996C616.012 274.626 615.366 278.921 611.041 280.614" fill="#F9F9F9"/>
<path d="M600.24 285.645C599.888 282.128 604.123 272.033 604.123 272.033C604.123 272.033 616.592 267.492 617.238 280.295C617.892 293.098 601.155 294.734 600.24 285.645Z" fill="#F6BA8B"/>
<path d="M604.606 286.39C604.638 286.39 604.679 286.382 604.712 286.365C604.843 286.308 604.9 286.153 604.843 286.022C604.818 285.956 602.079 279.804 606.372 276.941C607.876 275.935 609.364 275.583 610.795 275.894C613.256 276.426 614.744 278.782 614.761 278.806C614.834 278.929 614.99 278.962 615.112 278.888C615.235 278.814 615.268 278.659 615.194 278.536C615.129 278.43 613.583 275.976 610.91 275.395C609.34 275.051 607.721 275.428 606.086 276.516C601.433 279.624 604.344 286.169 604.377 286.234C604.418 286.333 604.516 286.39 604.606 286.39Z" fill="#763633"/>
<path d="M610.926 281.375C611.008 281.375 611.081 281.342 611.13 281.269C611.212 281.154 611.188 280.991 611.081 280.909C611.041 280.876 606.74 277.735 603.543 280.933C603.445 281.031 603.445 281.195 603.543 281.293C603.641 281.391 603.804 281.391 603.903 281.293C606.781 278.405 610.73 281.285 610.771 281.318C610.82 281.359 610.869 281.375 610.926 281.375Z" fill="#763633"/>
<path d="M547.314 272.221C547.314 272.221 543.709 314.27 580.837 314.27C619.446 314.27 608.506 269.987 608.506 269.987C608.506 269.987 607.835 272.515 598.817 282.504C593.968 287.879 588.409 282.504 582.113 282.848C575.817 283.191 573.07 284.41 566.087 284.582C559.113 284.762 557.224 272.049 547.314 272.221Z" fill="#F9F9F9"/>
<path d="M584.811 291.495C580.895 291.495 580.437 288.239 580.437 288.198C580.42 288.059 580.518 287.928 580.657 287.911C580.788 287.887 580.927 287.993 580.944 288.132C580.96 288.263 581.41 291.339 585.522 290.938C585.661 290.938 585.792 291.028 585.8 291.167C585.817 291.306 585.71 291.437 585.571 291.445C585.31 291.478 585.048 291.495 584.811 291.495Z" fill="#763633"/>
<path d="M561.345 267.983C561.345 267.983 558.794 265.717 564.19 262.878C569.587 260.04 571.475 260.67 572.35 262.085C573.152 263.377 571.917 265.316 568.851 266.846C565.18 268.687 562.727 269.284 561.345 267.983Z" fill="#F9F9F9"/>
<path d="M573.479 276.164C573.479 277.906 572.318 279.322 570.887 279.322C569.456 279.322 568.295 277.906 568.295 276.164C568.295 274.421 569.456 273.006 570.887 273.006C572.318 272.998 573.479 274.413 573.479 276.164Z" fill="#000100"/>
<path d="M605.391 267.983C605.391 267.983 607.942 265.717 602.545 262.878C597.149 260.04 595.26 260.67 594.385 262.085C593.584 263.377 594.819 265.316 597.885 266.846C601.564 268.687 604.009 269.284 605.391 267.983Z" fill="#F9F9F9"/>
<path d="M593.829 277.072C593.829 278.814 594.99 280.23 596.421 280.23C597.852 280.23 599.013 278.814 599.013 277.072C599.013 275.329 597.852 273.914 596.421 273.914C594.99 273.906 593.829 275.321 593.829 277.072Z" fill="#000100"/>
<path d="M556.652 288.378C557.003 284.86 552.768 274.765 552.768 274.765C552.768 274.765 540.299 270.225 539.653 283.028C538.999 295.839 555.736 297.467 556.652 288.378Z" fill="#F6BA8B"/>
<path d="M552.277 289.122C552.245 289.122 552.204 289.114 552.171 289.098C552.04 289.04 551.983 288.885 552.04 288.754C552.065 288.689 554.804 282.537 550.511 279.673C549.007 278.667 547.519 278.315 546.088 278.626C543.627 279.158 542.139 281.514 542.122 281.539C542.049 281.661 541.894 281.694 541.771 281.62C541.648 281.547 541.616 281.391 541.689 281.269C541.755 281.162 543.3 278.708 545.974 278.127C547.543 277.784 549.162 278.16 550.798 279.248C555.45 282.357 552.539 288.901 552.506 288.967C552.466 289.065 552.376 289.122 552.277 289.122Z" fill="#763633"/>
<path d="M545.957 284.107C545.875 284.107 545.802 284.075 545.753 284.001C545.671 283.886 545.696 283.723 545.802 283.641C545.843 283.608 550.143 280.467 553.34 283.666C553.438 283.764 553.438 283.927 553.34 284.026C553.242 284.124 553.079 284.124 552.981 284.026C550.103 281.138 546.153 284.017 546.113 284.05C546.063 284.091 546.014 284.107 545.957 284.107Z" fill="#763633"/>
<path d="M585.686 282.97C585.588 282.97 585.498 282.913 585.449 282.823C585.391 282.692 585.449 282.545 585.58 282.479C585.604 282.471 587.648 281.522 588.564 279.682C589.275 278.242 589.054 276.074 588.098 275.133C587.526 274.569 586.741 274.52 585.841 274.994C585.817 275.01 585.768 275.035 585.71 275.068C582.554 276.9 581.132 276.074 580.494 275.059C579.325 273.194 580.339 258.493 580.453 256.825C580.461 256.686 580.592 256.579 580.731 256.587C580.87 256.596 580.976 256.718 580.968 256.866C580.649 261.357 580.011 273.333 580.927 274.789C581.679 275.984 583.2 275.935 585.457 274.626C585.522 274.585 585.58 274.552 585.612 274.536C586.716 273.963 587.73 274.037 588.466 274.765C589.578 275.861 589.848 278.258 589.03 279.902C588.041 281.907 585.89 282.897 585.8 282.938C585.751 282.962 585.719 282.97 585.686 282.97Z" fill="#763633"/>
<path d="M568.417 287.404C561.819 287.232 556.586 281.719 556.758 275.117C556.93 268.515 562.441 263.279 569.039 263.451C575.637 263.623 580.87 269.137 580.698 275.738C580.527 282.34 575.016 287.576 568.417 287.404ZM569.023 264.089C562.776 263.925 557.559 268.883 557.396 275.133C557.232 281.383 562.187 286.602 568.434 286.766C574.681 286.93 579.897 281.972 580.061 275.722C580.224 269.472 575.269 264.253 569.023 264.089Z" fill="#45324B"/>
<path d="M601.139 288.255C594.541 288.083 589.308 282.569 589.48 275.968C589.651 269.366 595.162 264.13 601.76 264.302C608.359 264.474 613.592 269.987 613.42 276.589C613.248 283.191 607.737 288.427 601.139 288.255ZM601.744 264.94C595.497 264.776 590.281 269.734 590.117 275.984C589.954 282.234 594.909 287.453 601.155 287.617C607.402 287.78 612.619 282.823 612.782 276.573C612.946 270.323 607.991 265.103 601.744 264.94Z" fill="#45324B"/>
<path d="M589.831 274.626C589.774 274.626 589.725 274.61 589.676 274.577C585.187 271.787 580.502 274.307 580.461 274.34C580.306 274.421 580.11 274.364 580.028 274.217C579.946 274.061 579.995 273.873 580.15 273.783C580.2 273.759 585.212 271.059 590.011 274.037C590.158 274.127 590.207 274.323 590.117 274.479C590.052 274.577 589.946 274.634 589.831 274.626Z" fill="#45324B"/>
<path d="M539.285 278.831C539.277 278.831 539.277 278.831 539.277 278.831C539.105 278.823 538.966 278.667 538.983 278.495C539.155 275.657 542.196 274.544 542.327 274.495C542.36 274.479 542.401 274.479 542.441 274.479L557.101 274.806C557.273 274.814 557.412 274.953 557.412 275.133C557.404 275.305 557.265 275.444 557.085 275.444L542.49 275.117C542.106 275.272 539.76 276.303 539.621 278.536C539.596 278.708 539.449 278.839 539.285 278.831Z" fill="#45324B"/>
<path d="M600.256 250.705C600.24 250.705 600.231 250.705 600.215 250.697C589.21 247.957 577.55 247.834 566.488 250.345C566.398 250.37 566.316 250.313 566.292 250.223C566.275 250.133 566.324 250.051 566.414 250.026C577.526 247.507 589.234 247.621 600.289 250.378C600.379 250.403 600.428 250.485 600.403 250.575C600.395 250.656 600.33 250.705 600.256 250.705Z" fill="#EAA078"/>
<path d="M597.214 243.539C597.19 243.539 597.174 243.539 597.149 243.523C588.458 239.915 578.646 239.228 569.538 241.584C569.448 241.608 569.366 241.551 569.341 241.469C569.317 241.379 569.374 241.298 569.456 241.273C578.638 238.901 588.515 239.588 597.272 243.22C597.353 243.253 597.394 243.351 597.362 243.433C597.337 243.498 597.28 243.539 597.214 243.539Z" fill="#EAA078"/>
<path d="M592.031 515.491C590.371 511.556 588.776 483.104 588.776 483.104C602.496 487.178 616.085 482.498 616.085 482.498L616.388 505.658C616.388 505.658 625.954 508.497 628.636 510.01C636.215 514.281 636.354 518.477 636.354 518.477C636.354 518.477 632.356 520.866 621.285 520.318C600.264 519.279 592.031 515.491 592.031 515.491Z" fill="#B1A6A4"/>
<path d="M569.276 515.491C570.936 511.556 572.849 483.055 572.849 483.055C559.129 487.129 543.57 482.089 543.57 482.089L543.439 505.47C543.439 505.47 535.361 508.489 532.671 510.002C525.091 514.272 524.952 518.469 524.952 518.469C524.952 518.469 528.951 520.858 540.021 520.31C561.042 519.279 569.276 515.491 569.276 515.491Z" fill="#B1A6A4"/>
<path d="M570.601 506.263L581.867 421.405L590.592 506.574L616.478 505.863L617.222 388.927L543.766 388.264C542.891 423.36 542.965 478.277 543.284 505.453L570.601 506.263Z" fill="#423E44"/>
<path d="M546.407 504.57L547.83 399.235C547.821 399.088 547.715 398.973 547.584 398.973H547.576C547.445 398.981 547.339 399.104 547.339 399.251L545.916 504.57H546.407Z" fill="#121521"/>
<path d="M594.459 505.388L587.37 421.765C587.362 421.617 587.256 421.503 587.117 421.503C586.986 421.511 586.88 421.634 586.88 421.781L593.96 505.388H594.459Z" fill="#121521"/>
<path d="M567.911 424.415C567.78 424.415 567.673 424.301 567.665 424.162C567.657 424.014 567.763 423.883 567.894 423.875C579.161 423.204 595.121 419.171 595.277 419.13C595.407 419.106 595.538 419.188 595.571 419.335C595.604 419.482 595.522 419.621 595.391 419.654C595.228 419.695 579.235 423.736 567.927 424.407C567.919 424.415 567.911 424.415 567.911 424.415Z" fill="#121521"/>
<path d="M584.059 416.611C583.928 416.611 583.813 416.488 583.813 416.341V396.453C583.813 396.306 583.92 396.183 584.059 396.183C584.19 396.183 584.304 396.306 584.304 396.453V416.341C584.296 416.496 584.19 416.611 584.059 416.611Z" fill="#121521"/>
<path d="M557.576 396.674C557.543 396.625 557.478 396.56 557.437 396.502C556.374 404.053 553.234 411.252 548.435 416.733C548.345 416.84 548.345 417.012 548.443 417.11C548.492 417.159 548.549 417.183 548.615 417.183C548.68 417.183 548.745 417.159 548.786 417.102C553.569 411.637 556.725 404.495 557.862 396.985C557.756 396.895 557.657 396.789 557.576 396.674Z" fill="#121521"/>
<path d="M615.873 412.864C613.183 411.097 610.967 407.972 609.863 404.176C608.416 399.235 608.841 393.86 609.283 390.252C609.299 390.105 609.209 389.966 609.078 389.95C608.939 389.933 608.825 390.032 608.808 390.179C608.359 393.836 607.934 399.292 609.405 404.34C610.558 408.283 612.872 411.53 615.693 413.363C615.726 413.191 615.791 413.028 615.873 412.864Z" fill="#121521"/>
<path d="M584.059 415.596C583.92 415.596 580.739 415.514 579.962 408.405C579.202 401.517 579.047 392.191 579.047 392.093C579.047 391.946 579.153 391.823 579.284 391.823C579.284 391.823 579.284 391.823 579.292 391.823C579.423 391.823 579.529 391.938 579.537 392.085C579.537 392.175 579.701 401.476 580.453 408.34C581.181 414.934 584.042 415.056 584.075 415.056C584.206 415.056 584.312 415.179 584.312 415.326C584.296 415.474 584.19 415.596 584.059 415.596Z" fill="#121521"/>
<path d="M591.867 513.798C591.851 514.87 591.655 515.982 591.769 517.177C591.769 517.177 598.032 519.852 614.924 521.316C633.803 522.952 636.64 520.801 636.64 520.801C636.64 520.801 636.632 519.852 636.354 518.477C615.995 520.58 600.182 516.661 591.867 513.798Z" fill="#9E908F"/>
<path d="M569.431 513.798C569.448 514.87 569.644 515.982 569.529 517.177C569.529 517.177 563.266 519.852 546.374 521.316C527.495 522.952 524.658 520.801 524.658 520.801C524.658 520.801 524.666 519.852 524.944 518.477C545.311 520.58 561.124 516.661 569.431 513.798Z" fill="#9E908F"/>
<path d="M620.075 325.772C615.562 320.103 609.708 318.008 598.261 316.02C598.261 316.02 586.798 318.622 583.985 318.777H575.842C573.986 318.998 571.991 318.606 570.094 317.935C570.813 316.249 571.222 315.276 571.222 315.276C571.222 315.276 558.246 309.656 543.145 324.733C538.043 329.829 532.695 337.282 527.528 348.122C527.528 348.122 523.709 335.867 516.596 327.531C511.396 329.036 505.141 330.517 500.284 333.241C499.949 340.783 505.068 366.471 513.792 377.556C525.639 392.608 533.235 386.661 540.054 379.233C539.735 382.972 539.392 386.947 539.032 391.185C538.419 398.327 540.054 403.636 544.338 405.06C546.734 405.861 579.701 407.546 579.913 407.334C580.216 407.031 614.246 408.782 616.739 402.409C616.772 402.327 621.024 396.699 618.129 384.698C617.827 383.446 617.868 382.153 617.737 380.935" fill="#DE755B"/>
<path d="M572.08 326.107C572.08 326.107 577.787 329.576 588.597 324.07" stroke="#534947" stroke-width="0.7899" stroke-miterlimit="10" stroke-linecap="round"/>
<path d="M579.922 407.35L579.562 318.965" stroke="#534947" stroke-width="0.7899" stroke-miterlimit="10" stroke-linecap="round"/>
<path d="M580.101 318.835C580.101 318.835 570.641 316.372 564.697 311.922C564.697 311.922 562.359 315.35 560.928 318.565C559.489 321.78 570.02 327.596 574.869 329.314C577.379 329.952 580.101 318.835 580.101 318.835Z" fill="#FE9B87"/>
<path d="M579.562 318.965C579.562 318.965 589.66 316.634 595.08 311.914C595.08 311.914 597.272 315.546 598.719 318.761C600.166 321.976 590.87 327.318 585.988 329.028C583.454 329.674 579.562 318.965 579.562 318.965Z" fill="#FE9B87"/>
<path d="M499.884 330.124L500.701 338.828L520.823 333.118C520.823 333.118 518.101 325.772 516.204 324.144L499.884 330.124Z" fill="#FE9B87"/>
<path d="M617.737 380.951C617.737 380.951 609.74 357.055 608.653 346.445" stroke="#534947" stroke-width="0.7899" stroke-miterlimit="10" stroke-linecap="round"/>
<path d="M547.47 332.57C547.47 332.57 545.025 337.47 542.302 349.439C539.58 361.407 540.814 378.423 540.814 378.423" stroke="#534947" stroke-width="0.7899" stroke-miterlimit="10" stroke-linecap="round"/>
<path d="M565.916 392.42C572.097 385.998 580.535 382.358 588.564 378.48C596.593 374.603 604.777 370.03 609.61 362.536" stroke="#534947" stroke-width="0.7899" stroke-miterlimit="10" stroke-linecap="round"/>
<path d="M567.314 399.202C580.428 394.416 592.955 388.027 604.524 380.223C605.546 379.536 606.642 378.709 606.862 377.49" stroke="#534947" stroke-width="0.7899" stroke-miterlimit="10" stroke-linecap="round"/>
<path d="M583.642 321.411L584.451 406.573" stroke="#534947" stroke-width="0.7899" stroke-miterlimit="10" stroke-linecap="round"/>
<path d="M688.519 376.771L685.518 364.066C686.042 366.806 686.786 370.586 688.519 376.771Z" fill="#FCBE8E"/>
<path d="M664.473 310.629L646.076 311.578L645.716 318.221C651.938 317.812 658.43 317.648 664.374 316.397L664.473 310.629Z" fill="#F29F83"/>
<path d="M702.909 361.743C696.933 339.352 690.751 332.218 687.513 328.954C682.657 324.054 672.297 321.902 672.297 321.902L664.301 321.215L664.383 316.397C658.43 317.648 651.938 317.812 645.724 318.221L645.561 321.215C645.561 321.215 640.851 322.123 638.66 322.671C638.725 332.644 634.613 370.34 635.749 380.386L665.282 383.184L688.527 376.779C686.794 370.602 686.05 366.815 685.527 364.074L684.235 358.609C684.807 360.221 685.093 361.792 685.527 364.074L688.527 376.779C693.965 375.854 694.897 392.314 700.211 391.193C704.07 386.604 704.864 367.068 702.909 361.743Z" fill="#FCBE8E"/>
<path d="M582.415 346.51C583.323 345.038 589.439 349.3 589.439 349.3C589.439 349.3 582.448 343.614 583.421 342.248C584.402 340.882 591.426 347.115 591.426 347.115C591.426 347.115 584.885 340.44 585.727 339.106C587.247 336.898 594.058 345.496 594.058 345.496C594.058 345.496 589.406 337.953 590.919 336.718C592.431 335.482 598.245 345.381 598.245 345.381C598.245 345.381 597.092 340.334 599.357 341.062C601.621 341.79 603.289 353.75 603.289 353.75L622.365 364.082C622.365 364.082 623.935 354.494 624.548 342.338C627.328 324.152 640.492 322.148 640.492 322.148C640.492 322.091 645.07 323.44 645.733 323.277C645.798 333.249 644.596 341.536 645.733 351.582L641.17 350.969C641.767 358.487 643.083 386.767 629.151 387.61C613.085 388.584 594.001 358.159 594.001 358.159C590.616 356.155 581.5 347.983 582.415 346.51Z" fill="#FCBE8E"/>
<path d="M604.32 354.306C604.32 354.306 598.351 357.799 596.65 362.103C596.65 362.103 597.214 363.616 598.392 365.898C600.796 361.906 603.641 358.356 606.789 355.108C605.979 354.813 605.162 354.544 604.32 354.306Z" fill="#664854"/>
<path d="M624.016 340.636C624.327 340.399 624.638 340.17 624.948 339.933C624.638 340.17 624.327 340.407 624.016 340.636C622.422 346.445 621.629 354.069 622.357 364.074C622.357 364.074 615.398 358.209 606.789 355.108C603.641 358.356 600.787 361.898 598.392 365.898C601.27 371.51 607.811 381.843 618.734 386.277C634.106 392.519 635.43 390.612 637.303 382.064C639.175 373.515 640.483 322.148 640.483 322.148C640.483 322.148 628.742 323.44 624.016 340.636Z" fill="#CBA561"/>
<path d="M639.87 511.09C639.87 511.09 616.862 519.704 617.001 524.048C617.14 528.392 643.672 524.809 643.672 524.809C643.672 524.809 659.959 528.679 654.8 514.551L655.454 497.559C649.747 497.788 644.048 498.042 638.341 498.582C638.807 503.294 639.306 507.54 639.87 511.09Z" fill="#FCBE8E"/>
<path d="M634.858 404.192C634.858 404.192 635.087 464.084 638.358 498.582C644.065 498.042 649.763 497.788 655.47 497.559L658.79 411.146L634.858 404.192Z" fill="#F29F83"/>
<path d="M694.455 493.591C695.256 473.14 696.278 441.546 696.581 407.416C696.663 398.679 664.432 406.884 664.432 406.884C664.432 406.884 671.005 461.425 675.911 496.381C676.68 496.307 677.448 496.234 678.217 496.144C683.818 495.776 689.222 494.9 694.455 493.591Z" fill="#F29F83"/>
<path d="M678.217 496.152C677.448 496.234 676.68 496.307 675.911 496.389C676.843 503.057 677.718 509.012 678.479 513.741C678.479 513.741 656.231 522.159 656.37 526.503C656.509 530.846 682.289 527.46 682.289 527.46C682.289 527.46 698.576 531.329 693.417 517.201C693.417 517.201 693.875 508.268 694.455 493.591C689.222 494.9 683.818 495.776 678.217 496.152Z" fill="#FCBE8E"/>
<path d="M688.519 376.263C689.656 378.12 712.263 387.635 703.931 481.255C674.652 496.872 624.008 485.182 624.008 485.182C618.563 404.192 634.776 382.8 635.741 379.871C652.846 380.828 671.422 381.057 688.519 376.263Z" fill="#DD6D4A"/>
<path d="M596.994 345.316C596.994 345.316 590.543 347.369 590.771 352.384" stroke="#6C4820" stroke-width="0.4995" stroke-miterlimit="10" stroke-linecap="round"/>
<path d="M621.433 379.478C621.318 379.478 621.228 379.388 621.228 379.274C621.228 373.253 622.152 364.148 622.16 364.058C622.168 363.943 622.258 363.853 622.381 363.878C622.495 363.886 622.577 363.992 622.561 364.099C622.553 364.189 621.629 373.277 621.629 379.274C621.637 379.388 621.539 379.478 621.433 379.478Z" fill="#664854"/>
<path d="M693.989 524.326C693.924 525.275 693.809 526.282 693.629 527.329C693.629 527.329 688.421 529.235 674.251 529.235C658.414 529.235 656.386 527.075 656.386 527.075C656.386 527.075 656.28 526.257 656.615 525.055C673.417 528.507 686.868 526.233 693.989 524.326Z" fill="#E874A2"/>
<path d="M681.209 527.582C681.209 527.582 678.691 518.453 675.184 515.025C675.184 515.025 656.623 519.786 656.615 525.063C656.607 527.983 662.167 528.63 676.001 527.762L681.209 527.582Z" fill="#E874A2"/>
<path d="M655.683 521.455C655.618 522.404 655.503 523.41 655.323 524.457C655.323 524.457 649.06 526.781 634.891 526.781C619.053 526.781 617.026 524.621 617.026 524.621C617.026 524.621 616.919 523.803 617.254 522.6C634.049 526.053 648.553 523.361 655.683 521.455Z" fill="#E874A2"/>
<path d="M641.849 525.128C641.849 525.128 639.331 515.998 635.823 512.571C635.823 512.571 617.263 517.332 617.254 522.608C617.246 525.529 622.814 526.175 636.64 525.308L641.849 525.128Z" fill="#E874A2"/>
<path d="M674.251 532C672.812 532 671.602 530.887 671.504 529.431L664.579 428.882C664.571 428.767 664.571 428.653 664.579 428.538C664.579 428.465 664.947 420.505 660.777 416.324C658.905 414.443 656.386 413.608 653.059 413.764C650.164 413.903 648.055 414.86 646.599 416.684C643.018 421.176 644.424 429.373 644.441 429.454C644.711 430.952 643.713 432.383 642.217 432.653C640.72 432.931 639.29 431.933 639.02 430.436C638.938 430.003 637.147 419.728 642.274 413.273C644.735 410.172 648.275 408.487 652.789 408.266C657.694 408.029 661.701 409.444 664.702 412.463C670.229 418.034 670.139 427.188 670.082 428.669L676.999 529.071C677.105 530.593 675.96 531.91 674.44 532.008C674.382 531.992 674.317 532 674.251 532Z" fill="#B1A6A4"/>
<path d="M662.461 404.029C662.461 404.029 653.598 404.839 652.666 407.031C651.742 409.224 656.869 408.528 656.869 408.528C656.869 408.528 650.409 411.792 651.497 413.412C652.592 415.032 654.825 414.067 654.825 414.067C654.825 414.067 652.192 415.326 654.252 417.044C655.503 418.01 656.362 416.766 656.362 416.766C656.362 416.766 655.094 418.157 656.362 419.253C657.629 420.349 658.782 418.762 658.782 418.762C658.782 418.762 658.087 419.629 659.469 420.668C660.851 421.707 665.519 417.887 668.888 414.124C668.888 414.124 686.786 401.051 700.195 391.193C703.286 378.718 695.951 373.637 688.511 376.272C676.533 386.784 662.461 404.029 662.461 404.029Z" fill="#FCBE8E"/>
<path d="M671.856 303.872C671.856 303.872 667.146 311.766 674.587 315.17C682.027 318.565 692.951 314.687 694.537 308.151C696.123 301.614 694.242 293.802 690.195 294.374C686.132 294.947 671.504 300.902 671.856 303.872Z" fill="#F9F9F9"/>
<path d="M624.842 257.904C624.842 257.904 621.073 268.948 618.931 276.647C616.788 284.345 628.26 300.902 632.266 303.987C638.129 308.502 689.737 330.746 697.619 284.68C698.993 276.663 700.129 272.286 697.701 263.336C695.109 253.806 640.769 248.987 624.842 257.904Z" fill="#F9F9F9"/>
<path d="M677.62 299.757L681.815 288.051C681.815 288.051 693.008 284.795 692.836 296.051C692.656 307.316 680.842 307.103 677.62 299.757Z" fill="#FCBE8E"/>
<path d="M627.516 257.864C627.516 257.864 626.028 271.067 624.981 286.766C624.131 299.471 629.952 312.331 648.897 314.605C668.315 316.937 678.928 311.644 684.823 291.495C690.719 271.345 688.609 254.395 670.368 248.628C652.118 242.852 633.558 242.418 627.516 257.864Z" fill="#FCBE8E"/>
<path d="M648.512 295.83C648.512 295.83 652.821 297.859 655.201 293.548" stroke="black" stroke-width="0.5939" stroke-miterlimit="10" stroke-linecap="round" stroke-linejoin="round"/>
<path d="M649.297 254.943C649.387 254.837 649.445 254.779 649.445 254.779C649.445 254.779 649.396 254.845 649.297 254.943Z" fill="#56372F"/>
<path d="M674.865 280.238C674.865 280.238 677.538 277.563 672.518 273.669C667.498 269.775 665.601 270.429 664.636 272.147C663.753 273.718 664.791 276.221 667.645 278.34C671.079 280.876 673.409 281.784 674.865 280.238Z" fill="#F9F9F9"/>
<path d="M631.898 273.996C631.898 273.996 630.23 270.601 636.232 268.523C642.233 266.445 643.819 267.68 644.187 269.619C644.522 271.386 642.724 273.423 639.347 274.511C635.283 275.82 632.781 275.927 631.898 273.996Z" fill="#EED9CE"/>
<path d="M681.438 300.338C681.471 300.338 681.504 300.338 681.537 300.322C681.651 300.281 681.708 300.15 681.667 300.035C681.643 299.978 679.607 294.431 683.532 292.165C684.913 291.372 686.238 291.151 687.464 291.503C689.59 292.116 690.759 294.268 690.768 294.284C690.825 294.391 690.964 294.44 691.07 294.374C691.176 294.317 691.225 294.178 691.16 294.071C691.111 293.973 689.901 291.732 687.587 291.069C686.23 290.676 684.791 290.914 683.294 291.773C679.035 294.227 681.209 300.133 681.234 300.191C681.275 300.281 681.348 300.33 681.438 300.338Z" fill="#6C4820"/>
<path d="M687.26 296.305C687.325 296.313 687.399 296.28 687.448 296.223C687.53 296.125 687.513 295.986 687.423 295.904C687.391 295.871 683.801 292.869 680.817 295.487C680.727 295.569 680.711 295.708 680.792 295.806C680.874 295.896 681.013 295.912 681.111 295.83C683.801 293.466 687.096 296.223 687.129 296.248C687.17 296.288 687.211 296.305 687.26 296.305Z" fill="#6C4820"/>
<path d="M649.575 290.881C649.657 290.889 649.747 290.84 649.788 290.766C649.845 290.66 649.804 290.521 649.698 290.464C649.682 290.456 647.94 289.498 647.245 287.838C646.706 286.529 647.024 284.647 647.916 283.878C648.455 283.42 649.134 283.42 649.902 283.886C649.927 283.903 649.968 283.927 650.017 283.96C652.674 285.752 653.974 285.114 654.588 284.255C655.724 282.692 655.683 269.75 655.675 268.278C655.675 268.155 655.569 268.057 655.446 268.057C655.323 268.057 655.225 268.155 655.225 268.286C655.25 272.237 655.111 282.774 654.22 283.993C653.492 284.999 652.159 284.86 650.262 283.584C650.205 283.543 650.156 283.518 650.131 283.502C649.199 282.938 648.308 282.946 647.621 283.535C646.583 284.426 646.207 286.521 646.828 288.01C647.58 289.826 649.404 290.816 649.485 290.856C649.51 290.873 649.543 290.881 649.575 290.881Z" fill="#6C4820"/>
<path d="M661.349 297.835C661.635 300.003 665.143 301.328 669.19 300.796C673.238 300.264 676.296 298.088 676.018 295.92C675.731 293.752 672.224 292.427 668.176 292.959C664.121 293.482 661.063 295.667 661.349 297.835Z" fill="#F29F83"/>
<path d="M643.018 296.207C642.364 298.285 638.668 298.972 634.776 297.745C630.884 296.509 628.26 293.826 628.914 291.748C629.568 289.67 633.264 288.983 637.156 290.21C641.048 291.445 643.672 294.129 643.018 296.207Z" fill="#F29F83"/>
<path d="M674.227 245.494C674.497 245.625 674.783 245.732 675.069 245.797C678.021 246.501 695.812 251.221 697.407 262.78C698.535 270.961 695.191 280.009 692.705 285.359C691.454 288.059 687.939 288.803 685.747 286.791C682.027 283.379 676.786 276.851 673.107 265.202C672.289 262.625 669.411 261.332 666.975 262.51C654.514 268.507 624.891 285.645 622.152 283.936C618.767 281.825 621.563 258.444 628.791 251C635.986 243.613 655.65 236.504 674.227 245.494Z" fill="#F9F9F9"/>
<path d="M678.601 250.354C678.601 250.354 685.576 244.104 682.877 242.926C680.187 241.739 677.408 247.981 677.408 247.981C677.408 247.981 680.016 236.536 676.099 237.87C672.191 239.203 672.453 247.801 675.274 249.74" fill="#F9F9F9"/>
<path d="M641.26 286.12C641.211 287.478 640.271 288.541 639.159 288.5C638.047 288.46 637.188 287.331 637.237 285.973C637.286 284.615 638.227 283.551 639.339 283.592C640.451 283.633 641.309 284.762 641.26 286.12Z" fill="black"/>
<path d="M665.985 288.41C665.936 289.768 664.996 290.832 663.884 290.791C662.772 290.75 661.913 289.621 661.962 288.263C662.012 286.905 662.952 285.842 664.064 285.883C665.176 285.924 666.034 287.052 665.985 288.41Z" fill="black"/>
<path d="M654.154 286.586C654.702 280.001 660.491 275.092 667.073 275.632C673.655 276.18 678.56 281.972 678.021 288.558C677.473 295.143 671.684 300.052 665.102 299.512C658.52 298.972 653.614 293.172 654.154 286.586ZM654.792 286.635C654.277 292.869 658.921 298.358 665.151 298.874C671.382 299.389 676.868 294.742 677.383 288.509C677.898 282.275 673.246 276.786 667.024 276.27C660.793 275.755 655.307 280.402 654.792 286.635Z" fill="#45324B"/>
<path d="M621.539 283.887C622.087 277.301 627.875 272.393 634.457 272.933C641.039 273.481 645.945 279.281 645.405 285.858C644.858 292.444 639.069 297.352 632.487 296.812C625.897 296.264 620.991 290.464 621.539 283.887ZM622.168 283.936C621.653 290.169 626.297 295.659 632.528 296.174C638.758 296.689 644.244 292.043 644.76 285.809C645.275 279.575 640.622 274.086 634.4 273.571C628.17 273.055 622.684 277.702 622.168 283.936Z" fill="#45324B"/>
<path d="M645.193 284.492C645.25 284.5 645.307 284.484 645.356 284.459C650.115 282.177 654.506 285.187 654.547 285.22C654.694 285.318 654.89 285.285 654.988 285.146C655.086 284.999 655.054 284.803 654.915 284.705C654.865 284.672 650.172 281.449 645.087 283.886C644.931 283.96 644.858 284.156 644.939 284.312C644.98 284.418 645.087 284.484 645.193 284.492Z" fill="#45324B"/>
<path d="M694.995 294.153C695.003 294.153 695.003 294.153 695.003 294.153C695.175 294.162 695.33 294.022 695.338 293.851C695.477 291.012 692.575 289.572 692.452 289.515C692.419 289.499 692.378 289.49 692.337 289.482L677.735 288.222C677.563 288.206 677.408 288.337 677.391 288.517C677.375 288.689 677.506 288.844 677.685 288.86L692.231 290.12C692.591 290.317 694.823 291.601 694.717 293.826C694.692 293.99 694.823 294.137 694.995 294.153Z" fill="#45324B"/>
<path d="M685.224 304.257C685.224 305.999 684.202 307.414 682.943 307.414C681.684 307.414 680.662 305.999 680.662 304.257C680.662 302.514 681.684 301.099 682.943 301.099C684.202 301.099 685.224 302.514 685.224 304.257Z" fill="#F3BD53"/>
<path d="M650.671 330.746C660.442 332.374 667.007 327.899 672.068 321.501C668.945 321.109 666.885 321.436 666.885 321.436C666.885 321.436 660.352 327.506 652.666 327.367C644.98 327.22 644.375 321.436 644.375 321.436C642.748 321.387 641.407 321.559 640.32 321.821C642.249 326.402 645.863 330.149 650.671 330.746Z" fill="#664854"/>
<path d="M664.693 400.519C663.238 402.671 662.461 404.021 662.461 404.021L671.03 412.553C671.03 412.553 672.755 412.16 675.004 411.195C671.962 407.326 668.332 403.816 664.693 400.519Z" fill="#664854"/>
<path d="M694.079 337.994C687.342 325.461 677.865 322.23 672.06 321.502C666.999 327.899 660.434 332.374 650.663 330.746C645.863 330.149 642.249 326.394 640.312 321.821C637.932 322.401 636.812 323.408 636.812 323.408C633.583 330.329 628.072 347.075 628.219 361.972C628.366 376.869 635.749 380.37 635.749 380.37C635.749 380.37 635.201 381.605 653.386 382.064C671.57 382.522 686.524 378.047 686.524 378.047C675.919 385.156 668.25 395.251 664.693 400.511C668.324 403.808 671.962 407.317 675.012 411.187C676.181 410.688 677.481 410.033 678.765 409.191C682.534 406.728 704.577 394.097 705.738 384.959C706.899 375.83 704.43 357.26 694.079 337.994Z" fill="#E1B870"/>
<path d="M635.749 380.583C635.725 380.583 635.7 380.575 635.676 380.566C635.406 380.468 629.028 377.916 628.015 363.297C627.009 348.76 631.007 339.777 631.048 339.687C631.097 339.581 631.22 339.54 631.318 339.589C631.424 339.638 631.465 339.761 631.416 339.859C631.375 339.949 627.418 348.85 628.415 363.272C629.404 377.597 635.749 380.166 635.815 380.19C635.921 380.231 635.97 380.346 635.937 380.452C635.913 380.526 635.831 380.583 635.749 380.583Z" fill="#664854"/>
<path d="M686.524 378.259C686.467 378.259 686.41 378.235 686.369 378.186C686.32 378.129 681.651 372.222 677.914 358.838C674.17 345.447 675.249 339.957 675.298 339.728C675.323 339.622 675.421 339.548 675.543 339.573C675.65 339.597 675.723 339.704 675.699 339.818C675.69 339.875 674.595 345.471 678.307 358.732C682.019 372.018 686.647 377.875 686.688 377.932C686.761 378.022 686.745 378.153 686.655 378.219C686.622 378.243 686.573 378.259 686.524 378.259Z" fill="#664854"/>
<path d="M669.46 318.434C669.46 318.434 666.075 322.786 668.52 324.569C670.965 326.353 672.412 320.454 672.412 320.454C672.412 320.454 670.523 325.306 673.156 326.091C675.789 326.884 676.704 321.158 676.704 321.158C676.704 321.158 675.462 325.813 676.443 326.884C677.424 327.948 680.179 328.414 682.191 323.162C682.191 323.162 679.959 327.498 681.537 328.921C683.115 330.353 684.93 329.15 686.246 326.025C686.246 326.025 687.775 323.825 684.758 322.516C683.074 321.771 682.321 322.696 682.321 322.696C682.321 322.696 681.537 320.896 679.46 320.348C677.391 319.792 676.811 320.692 676.811 320.692C676.811 320.692 676.557 319.71 674.709 319.17C672.862 318.638 672.428 319.808 672.428 319.808C672.428 319.808 672.068 318.442 671.194 318.18C670.302 317.918 669.46 318.434 669.46 318.434Z" fill="#F8BC8D"/>
</g>
<g clip-path="url(#clip1_303_183)">
<path d="M1390 394.967C1391.16 390.544 1390.94 389.313 1388.33 381.906C1385.71 374.498 1379.46 360.553 1377.28 358.893C1375.11 357.232 1366.39 364.541 1367.99 371.161C1369.59 377.781 1374.23 391.09 1375.11 393.964C1375.98 396.839 1388.46 400.796 1390 394.967Z" fill="#FFC4B3"/>
<path d="M1337.04 429.534C1337.48 428.041 1337.6 420.56 1347.16 420.266C1353.62 420.065 1356.2 422.528 1356.62 428.32C1356.62 428.32 1355.82 435.604 1361.39 459.529C1363.54 472.407 1357.12 506.659 1355.76 526.772L1343.55 527.218C1343.02 518.189 1343.35 490.954 1342.3 479.769C1339.84 453.377 1337.04 429.534 1337.04 429.534Z" fill="#FFC4B3"/>
<path d="M1338.44 549.839L1341.6 540.957L1342.94 514.509H1357.54C1357.54 514.509 1357.75 536.062 1358.05 537.365C1358.36 538.667 1357.42 545.576 1356.57 546.687C1355.73 547.798 1337.98 553.892 1338.44 549.839Z" fill="#C2B0BC"/>
<path d="M1357.9 534.794C1357.9 534.794 1359.07 534.649 1360.18 538.809C1360.86 541.332 1362.32 551.349 1361.78 553.375C1361.37 554.889 1359 556.325 1357.51 556.516C1357.51 556.516 1345.49 556.516 1337.03 556.516C1335.44 553.109 1336.21 549.281 1338.8 546.787C1338.69 546.178 1339.37 541.592 1340.27 541.262C1340.91 541.03 1355.53 541.849 1356.76 540.753C1357.24 540.329 1357.9 534.794 1357.9 534.794Z" fill="#202020"/>
<path d="M1330.92 429.534C1330.49 428.041 1330.36 420.56 1320.8 420.266C1314.34 420.065 1311.76 422.528 1311.34 428.32C1311.34 428.32 1312.15 435.604 1306.57 459.529C1304.42 472.407 1310.84 506.659 1312.21 526.772L1324.41 527.218C1324.95 518.189 1324.61 490.954 1325.66 479.769C1328.13 453.377 1330.92 429.534 1330.92 429.534Z" fill="#FFC4B3"/>
<path d="M1329.53 549.839L1326.37 540.957L1325.03 514.509H1310.42C1310.42 514.509 1310.21 536.062 1309.91 537.365C1309.6 538.667 1310.55 545.576 1311.39 546.687C1312.23 547.798 1329.98 553.892 1329.53 549.839Z" fill="#C2B0BC"/>
<path d="M1310.07 534.794C1310.07 534.794 1308.9 534.649 1307.78 538.809C1307.11 541.332 1305.65 551.349 1306.19 553.375C1306.59 554.889 1308.97 556.325 1310.45 556.516C1310.45 556.516 1322.47 556.516 1330.94 556.516C1332.52 553.109 1331.75 549.281 1329.16 546.787C1329.27 546.178 1328.59 541.592 1327.69 541.262C1327.05 541.03 1312.44 541.849 1311.2 540.753C1310.73 540.329 1310.07 534.794 1310.07 534.794Z" fill="#202020"/>
<path d="M1357.46 410.449C1357.46 410.449 1369.67 421.231 1369.39 434.646C1369.11 448.061 1364.48 501.414 1364.48 501.414C1364.48 501.414 1325.5 505.473 1303.04 501.864C1303.04 501.864 1295.61 439.355 1299.8 427.835C1303.99 416.314 1310.14 410.449 1310.14 410.449H1357.46Z" fill="#C2B0BC"/>
<path d="M1278.09 425.249C1278.72 419.775 1278.56 414.155 1279.97 408.828C1281.35 403.632 1292.19 406.133 1293.03 409.474C1293.67 412.027 1296.03 416.764 1297.49 418.876C1297.62 419.059 1297.75 419.243 1297.89 419.421C1298.33 420.024 1298.83 420.712 1298.67 421.441C1298.47 422.385 1297.19 422.741 1296.31 422.357C1295.42 421.973 1294.84 421.119 1294.31 420.309C1293.78 419.5 1293.19 418.649 1292.3 418.282C1290.72 417.633 1288.9 418.825 1288.13 420.341C1287.35 421.857 1287.27 423.618 1286.92 425.284C1286.41 427.718 1285.27 430.02 1283.65 431.905C1283.14 432.495 1282.4 433.095 1281.66 432.849C1280.74 432.545 1280.68 431.294 1280.79 430.334C1280.84 429.93 1280.88 429.525 1280.93 429.118C1280.1 429.793 1278.79 429.191 1278.33 428.251C1277.87 427.342 1277.98 426.262 1278.09 425.249Z" fill="#FFC4B3"/>
<path d="M1280.93 429.122C1280.93 429.122 1283.46 422.977 1283.57 419.638C1283.76 416.721 1283.27 418.971 1283.18 419.569C1283.09 420.167 1280.93 429.122 1280.93 429.122Z" fill="#C26E61"/>
<path d="M1279.59 410.49C1279.71 402.445 1283.61 376.101 1287.63 363.534C1291.01 352.975 1305.53 361.685 1304.87 368.004C1304.22 374.322 1291.7 404.863 1291.65 410.516C1291.3 413.38 1279.51 415.409 1279.59 410.49Z" fill="#FFC4B3"/>
<path d="M1302.04 335.287C1295.05 337.366 1291.94 342.249 1284.49 362.661C1279.94 375.134 1278.46 376.545 1281.4 377.898C1284.34 379.25 1303.82 387.494 1305.7 378.763C1306.26 376.189 1309.8 366.812 1310.16 361.128C1310.52 355.443 1311.09 332.6 1302.04 335.287Z" fill="#A3335E"/>
<path d="M1365.49 334.474C1372.49 336.552 1375.59 341.436 1383.05 361.848C1387.6 374.32 1389.08 375.731 1386.14 377.084C1383.2 378.437 1363.72 386.68 1361.84 377.95C1361.28 375.375 1357.74 365.998 1357.38 360.315C1357.02 354.631 1356.45 331.787 1365.49 334.474Z" fill="#A3335E"/>
<path d="M1349.94 307.102H1317.92V344.217H1349.94V307.102Z" fill="#FFC4B3"/>
<path d="M1317.92 307.102V325.68C1328.11 329.722 1339.67 330.057 1349.94 325.982V307.102H1317.92Z" fill="#C26E61"/>
<path d="M1353.15 334.935C1353.15 341.334 1344.44 373.457 1333.83 373.457C1323.22 373.457 1314.72 341.334 1314.72 334.935C1314.72 328.536 1353.15 328.536 1353.15 334.935Z" fill="#FFC4B3"/>
<path d="M1364.78 424.525C1364.82 406.907 1367.06 385.953 1368.3 368.152C1369.24 354.472 1370.06 342.659 1369.62 340.137C1368.72 334.991 1356 330.994 1350.41 329.694C1349.42 330.756 1346.06 351.332 1333.97 351.332C1321.89 351.332 1318.53 330.755 1317.54 329.692C1311.95 330.992 1299.23 334.986 1298.32 340.135C1297.92 342.457 1298.72 352.345 1299.74 364.863C1301.14 382.031 1303.04 405.299 1302.97 424.006C1323.75 426.266 1344.77 426.693 1364.78 424.525Z" fill="#C2B0BC"/>
<path d="M1318.32 411.712C1317.57 396.346 1318.7 381.167 1317.76 365.802C1317.2 356.807 1317.95 348 1317.2 339.005C1316.88 335.518 1317.1 332.164 1316.83 328.718C1312.72 329.735 1298.31 333.723 1297.22 339.946C1295.95 347.211 1302.68 397.564 1297.38 424.887C1296.81 427.825 1306.61 429.695 1319.22 430.49C1319.02 429.077 1318.68 427.529 1318.51 426.141C1318.32 421.269 1318.7 416.584 1318.32 411.712Z" fill="#A3335E"/>
<path d="M1370.73 339.946C1369.48 332.831 1350.82 328.637 1350.05 328.466C1350.12 340.174 1350.35 351.8 1350.97 363.553C1351.53 378.169 1351.35 392.973 1350.97 407.589C1350.76 415.253 1350.14 422.859 1349.4 430.437C1361.59 429.618 1370.99 427.769 1370.57 424.885C1366.73 398.45 1372 347.211 1370.73 339.946Z" fill="#A3335E"/>
<path d="M1370.57 424.887C1369.3 416.168 1369.03 404.752 1369.18 393.106C1356.99 397.146 1343.75 398.092 1330.91 397.603C1332.21 401.641 1333.16 412.332 1333.16 412.332C1340.73 413.05 1349.27 412.416 1356.43 412.032C1366.96 411.468 1367.68 412.594 1368.06 413.906C1369.18 417.901 1369.73 421.814 1370.35 425.811C1370.54 425.515 1370.61 425.207 1370.57 424.887Z" fill="#CCCCCC"/>
<path d="M1344.37 408.794C1351.55 408.363 1375 403.461 1386.14 398.969C1395.51 395.195 1387.47 381.051 1381.84 381.945C1376.21 382.841 1349.18 396.49 1344.13 396.756C1341.58 397.219 1339.99 409.058 1344.37 408.794Z" fill="#FFC4B3"/>
<path d="M1307.17 237.463C1293.62 232.213 1285.85 216.071 1288.81 201.862C1291.77 187.652 1304.25 176.336 1318.44 173.214C1332.64 170.092 1347.94 174.597 1359.29 183.664C1363.97 187.401 1368.34 193.757 1365.34 198.936L1307.17 237.463Z" fill="#F0F7FB"/>
<path d="M1390.85 203.355C1384.09 196.148 1375.43 191.15 1366.28 188.441C1349.57 183.494 1330.52 185.746 1314.47 196.268C1298.42 206.79 1285.85 225.888 1283.06 246.454C1280.26 267.02 1288.04 288.262 1303.07 297.429C1303.07 297.429 1304.88 298.535 1306.44 299.491C1318.62 306.338 1340.42 310.475 1352.42 312.642C1366.11 315.115 1377.48 315.428 1388.34 303.741C1398.79 292.503 1406.1 273.116 1407.67 257.325C1409.12 242.748 1405.59 230.262 1400.25 217.741C1397.9 212.243 1394.68 207.444 1390.85 203.355Z" fill="#E3EEF5"/>
<path d="M1375.95 305.437C1375.95 305.437 1384.22 319.884 1394.55 310.88C1404.88 301.874 1397.52 290.605 1387.69 291.469C1377.86 292.331 1373.85 302.506 1375.95 305.437Z" fill="#FFC4B3"/>
<path d="M1390.82 295.303C1392.63 296.974 1393.62 299.39 1393.42 301.856C1393.21 304.412 1391.63 306.75 1389.41 308.011C1388.61 308.467 1389.3 309.72 1390.1 309.263C1392.72 307.766 1394.52 305.062 1394.83 302.052C1395.12 299.2 1393.95 296.256 1391.85 294.321C1391.18 293.7 1390.14 294.679 1390.82 295.303Z" fill="#F7AB94"/>
<path d="M1295.59 281.962C1295.59 281.962 1280.83 289.668 1277 276.519C1273.17 263.37 1285.46 257.851 1293.27 263.878C1301.07 269.902 1298.96 280.632 1295.59 281.962Z" fill="#FFC4B3"/>
<path d="M1288.56 265.42C1286.14 265.849 1284 267.352 1282.83 269.535C1281.63 271.797 1281.69 274.621 1282.87 276.875C1283.3 277.69 1282.05 278.376 1281.62 277.559C1280.22 274.883 1280.17 271.639 1281.54 268.941C1282.83 266.381 1285.41 264.533 1288.22 264.035C1289.12 263.874 1289.47 265.259 1288.56 265.42Z" fill="#F7AB94"/>
<path d="M1324.64 323.95C1335.78 327.134 1343.75 326.446 1351.6 325.496C1359.71 324.514 1367.96 321.582 1374.51 315.672C1383.34 307.706 1401.92 266.1 1401.13 256.493C1400.27 245.894 1397.21 237.143 1388.93 230.423C1379.88 223.079 1373.95 219.566 1357.8 214.675C1341.64 209.784 1334.76 209.423 1323.15 210.515C1312.53 211.516 1305.12 217.032 1298.53 225.369C1292.55 232.927 1284.85 277.898 1287.76 289.417C1289.93 297.963 1295.16 304.979 1301.35 310.286C1307.36 315.432 1313.6 320.422 1324.64 323.95Z" fill="#FFC4B3"/>
<path d="M1300.41 302.896C1281.5 273.427 1302.83 232.565 1326.13 210.262C1325.17 210.333 1324.18 210.42 1323.15 210.515C1312.53 211.516 1305.12 217.032 1298.52 225.371C1292.55 232.929 1284.84 277.9 1287.76 289.419C1289.92 297.965 1295.16 304.981 1301.35 310.288C1307.35 315.432 1313.6 320.422 1324.64 323.95C1335.78 327.134 1343.75 326.446 1351.61 325.496C1359.71 324.514 1367.96 321.582 1374.51 315.672C1374.65 315.544 1374.79 315.409 1374.94 315.265C1373.21 316.058 1371.43 316.794 1369.6 317.459C1346.07 325.644 1313.5 324.387 1300.41 302.896Z" fill="#F7AB94"/>
<path d="M1340.12 283.297C1340.1 283.019 1340.02 282.335 1339.66 282.165C1339.29 281.994 1338.63 283.285 1338.14 283.872C1337.65 284.458 1336.89 284.977 1336.04 284.816C1334.98 284.616 1334.37 283.506 1333.39 283.059C1333.32 283.029 1333.25 283.002 1333.18 282.978C1332.16 283.081 1332.07 283.945 1332.44 284.563C1332.68 284.972 1333.08 285.29 1333.5 285.572C1334.41 286.184 1335.44 286.685 1336.53 286.827C1337.61 286.969 1338.76 286.711 1339.42 286.001C1340.09 285.289 1340.18 284.292 1340.12 283.297Z" fill="#C26E61"/>
<path d="M1312.82 276.922C1317.91 278.312 1323.04 275.127 1324.5 269.668C1325.95 264.209 1323.1 258.844 1318.01 257.452C1312.92 256.062 1307.79 259.247 1306.33 264.706C1304.88 270.164 1307.73 275.531 1312.82 276.922Z" fill="white"/>
<path d="M1323.11 268.995C1324.23 264.276 1321.69 259.639 1317.44 258.639C1313.2 257.638 1308.85 260.653 1307.74 265.372C1306.62 270.091 1309.16 274.728 1313.41 275.728C1317.65 276.729 1322 273.714 1323.11 268.995Z" fill="#271713"/>
<path d="M1309.95 268.366C1310.78 265.259 1314.23 263.499 1317.66 264.434C1320.69 265.262 1322.69 267.925 1322.54 270.68C1321.26 273.635 1318.67 275.623 1315.79 275.897C1315.41 275.857 1315.04 275.788 1314.66 275.687C1311.23 274.752 1309.12 271.474 1309.95 268.366Z" fill="#523127"/>
<path d="M1321.13 266.405C1321.48 265.204 1320.63 263.896 1319.22 263.484C1317.81 263.071 1316.38 263.71 1316.03 264.911C1315.67 266.112 1316.53 267.419 1317.94 267.832C1319.35 268.244 1320.78 267.605 1321.13 266.405Z" fill="#FFFEFD"/>
<path d="M1360.52 290.884C1365.61 292.274 1370.74 289.089 1372.2 283.63C1373.65 278.172 1370.8 272.807 1365.71 271.414C1360.62 270.024 1355.49 273.21 1354.03 278.668C1352.58 284.127 1355.43 289.494 1360.52 290.884Z" fill="white"/>
<path d="M1370.81 282.956C1371.93 278.237 1369.39 273.6 1365.14 272.599C1360.9 271.599 1356.55 274.613 1355.44 279.332C1354.32 284.052 1356.86 288.688 1361.11 289.689C1365.35 290.689 1369.7 287.675 1370.81 282.956Z" fill="#271713"/>
<path d="M1357.65 282.33C1358.48 279.223 1361.93 277.463 1365.36 278.398C1368.39 279.227 1370.39 281.889 1370.24 284.644C1368.96 287.599 1366.37 289.587 1363.49 289.861C1363.11 289.822 1362.74 289.752 1362.36 289.651C1358.93 288.714 1356.82 285.437 1357.65 282.33Z" fill="#523127"/>
<path d="M1363.67 279.129C1363.48 280.372 1364.5 281.593 1365.94 281.859C1367.39 282.125 1368.7 281.337 1368.88 280.094C1369.07 278.852 1368.05 277.63 1366.61 277.364C1365.16 277.098 1363.85 277.889 1363.67 279.129Z" fill="#FFFEFD"/>
<path d="M1310.03 257.049C1309.7 256.954 1309.42 256.725 1309.26 256.393C1308.96 255.775 1309.23 255.037 1309.84 254.741C1314.88 252.342 1321.12 252.818 1325.73 255.953C1326.29 256.337 1326.44 257.109 1326.06 257.675C1325.67 258.241 1324.9 258.387 1324.33 258.003C1320.43 255.355 1315.17 254.952 1310.91 256.98C1310.63 257.115 1310.31 257.132 1310.03 257.049Z" fill="#E3EEF5"/>
<path d="M1373.59 275.653C1373.91 275.749 1374.28 275.711 1374.59 275.516C1375.17 275.155 1375.35 274.392 1374.99 273.809C1372.05 269.076 1366.54 266.113 1360.96 266.267C1360.28 266.286 1359.74 266.855 1359.76 267.539C1359.78 268.223 1360.35 268.763 1361.03 268.744C1365.74 268.617 1370.4 271.118 1372.88 275.117C1373.05 275.387 1373.31 275.571 1373.59 275.653Z" fill="#E3EEF5"/>
<path d="M1332.5 297.754C1328.08 296.461 1323.95 294.199 1320.53 291.077C1320.19 290.77 1320.17 290.247 1320.48 289.91C1320.79 289.572 1321.31 289.548 1321.65 289.857C1328.55 296.153 1338.5 298.754 1347.61 296.641C1348.05 296.537 1348.5 296.815 1348.6 297.259C1348.7 297.703 1348.43 298.147 1347.98 298.25C1342.87 299.436 1337.5 299.217 1332.5 297.754Z" fill="#D15C58"/>
<path d="M1329.3 254.075C1337.79 255.357 1346.16 257.446 1354.26 260.289C1356.58 261.104 1358.88 261.981 1361.16 262.918C1361.97 263.252 1362.35 261.94 1361.54 261.608C1353.47 258.29 1345.1 255.73 1336.55 253.985C1334.15 253.496 1331.74 253.077 1329.32 252.711C1328.95 252.655 1328.63 253.05 1328.63 253.384C1328.62 253.79 1328.94 254.021 1329.3 254.075Z" fill="#F7AB94"/>
<path d="M1336.07 250.06C1339.43 250.442 1342.79 250.824 1346.1 251.523C1349.44 252.23 1352.68 253.288 1355.83 254.568C1356.65 254.898 1357.03 253.584 1356.22 253.256C1353 251.956 1349.71 250.882 1346.31 250.176C1342.94 249.475 1339.51 249.081 1336.09 248.692C1335.22 248.594 1335.2 249.96 1336.07 250.06Z" fill="#F7AB94"/>
<path d="M1374.32 282.733C1376.5 282.386 1378.69 282.039 1380.87 281.693C1381.3 281.623 1381.14 280.962 1380.7 281.029C1378.52 281.376 1376.34 281.723 1374.16 282.069C1373.72 282.139 1373.89 282.802 1374.32 282.733Z" fill="#F7AB94"/>
<path d="M1375.24 285.347C1376.86 286.064 1378.5 286.78 1380.12 287.498C1380.29 287.573 1380.5 287.427 1380.55 287.266C1380.61 287.071 1380.48 286.915 1380.32 286.842C1378.69 286.124 1377.06 285.409 1375.43 284.691C1375.26 284.616 1375.05 284.762 1375 284.923C1374.95 285.118 1375.07 285.272 1375.24 285.347Z" fill="#F7AB94"/>
<path d="M1373.87 288.167C1374.52 288.849 1375.18 289.531 1375.84 290.213C1375.97 290.346 1376.19 290.354 1376.32 290.226C1376.46 290.101 1376.47 289.876 1376.34 289.743C1375.68 289.061 1375.02 288.379 1374.36 287.696C1374.24 287.563 1374.01 287.556 1373.88 287.683C1373.75 287.811 1373.74 288.034 1373.87 288.167Z" fill="#F7AB94"/>
<path d="M1303.98 261.241C1302.02 260.413 1300.05 259.585 1298.09 258.756C1297.69 258.586 1297.5 259.242 1297.9 259.412C1299.86 260.24 1301.82 261.069 1303.79 261.897C1304.19 262.066 1304.38 261.41 1303.98 261.241Z" fill="#F7AB94"/>
<path d="M1300.46 263.52C1298.81 263.282 1297.17 263.046 1295.52 262.808C1295.34 262.781 1295.18 262.976 1295.17 263.143C1295.17 263.347 1295.33 263.463 1295.51 263.49C1297.16 263.728 1298.8 263.964 1300.45 264.202C1300.63 264.228 1300.79 264.033 1300.8 263.866C1300.8 263.662 1300.64 263.546 1300.46 263.52Z" fill="#F7AB94"/>
<path d="M1300.49 267.466C1299.31 267.727 1298.13 267.989 1296.94 268.249C1296.51 268.345 1296.68 269.006 1297.11 268.913C1298.29 268.652 1299.47 268.39 1300.66 268.129C1301.09 268.034 1300.92 267.371 1300.49 267.466Z" fill="#F7AB94"/>
<path d="M1326.65 306.227C1328.24 307.991 1330.91 308.697 1333.16 307.897C1333.5 307.773 1333.75 307.453 1333.66 307.069C1333.57 306.737 1333.18 306.446 1332.83 306.57C1331.02 307.215 1328.94 306.722 1327.65 305.288C1327.06 304.634 1326.07 305.573 1326.65 306.227Z" fill="#F7AB94"/>
<path d="M1319.39 281.265C1312.81 282.897 1308.1 289.025 1308.34 295.816C1308.41 297.759 1308.86 299.65 1309.66 301.419C1310.03 302.221 1311.23 301.561 1310.87 300.763C1308.3 295.1 1310.15 288.227 1315.23 284.642C1316.59 283.684 1318.11 282.989 1319.72 282.59C1320.58 282.378 1320.25 281.052 1319.39 281.265Z" fill="#F7AB94"/>
<path d="M1349.44 290.073C1354.01 294.767 1355.01 302.043 1351.76 307.751C1350.81 309.43 1349.55 310.893 1348.04 312.102C1347.35 312.653 1348.3 313.642 1348.98 313.095C1351.83 310.816 1353.87 307.55 1354.67 303.995C1355.44 300.615 1355.05 297.086 1353.66 293.92C1352.89 292.147 1351.78 290.522 1350.43 289.136C1349.82 288.504 1348.83 289.441 1349.44 290.073Z" fill="#F7AB94"/>
<path d="M1315.82 257.758C1303.58 254.175 1293.28 252.537 1290.21 263.016C1286.49 275.664 1294.56 284.893 1306.8 288.478C1319.04 292.061 1330.29 290.449 1334.53 275.992C1337.61 265.512 1328.06 261.34 1315.82 257.758ZM1307.32 286.726C1301.4 284.993 1296.79 282.007 1294.01 278.089C1291.04 273.91 1290.35 269.012 1291.96 263.527C1294.42 255.125 1302.07 255.633 1315.3 259.508C1328.54 263.383 1335.25 267.076 1332.78 275.477C1329.38 287.067 1321.05 290.745 1307.32 286.726Z" fill="#333333"/>
<path d="M1345.37 279.161C1341.12 293.616 1349.32 300.92 1361.06 304.357C1372.8 307.794 1384.17 304.256 1387.88 291.607C1390.96 281.129 1381.81 277.075 1370.07 273.639C1358.33 270.202 1348.44 268.682 1345.37 279.161ZM1347.05 279.654C1349.51 271.251 1356.86 271.673 1369.56 275.389C1382.26 279.105 1388.67 282.712 1386.2 291.114C1384.59 296.597 1381.44 300.373 1376.84 302.335C1372.53 304.174 1367.25 304.269 1361.57 302.607C1348.4 298.751 1343.65 291.244 1347.05 279.654Z" fill="#333333"/>
<path d="M1334.23 276.453C1338.07 275.904 1342.15 277.1 1345.09 279.633C1345.54 280.025 1346.19 280.119 1346.66 279.678C1347.07 279.298 1347.17 278.501 1346.71 278.106C1343.11 275.005 1338.4 273.624 1333.69 274.295C1333.1 274.379 1332.75 275.102 1332.88 275.642C1333.04 276.273 1333.63 276.538 1334.23 276.453Z" fill="#333333"/>
<path d="M1387.3 292.233C1388.24 292.259 1389.18 292.286 1390.12 292.312C1390.39 292.319 1390.7 292.198 1390.9 292.008C1391.1 291.819 1391.26 291.499 1391.25 291.218C1391.23 290.61 1390.78 290.106 1390.15 290.088C1389.21 290.061 1388.27 290.035 1387.33 290.009C1387.05 290.001 1386.75 290.123 1386.55 290.312C1386.35 290.502 1386.19 290.822 1386.2 291.103C1386.22 291.71 1386.67 292.214 1387.3 292.233Z" fill="#333333"/>
<path d="M1290.39 263.866C1289.58 263.381 1288.78 262.898 1287.97 262.412C1287.73 262.27 1287.54 262.004 1287.48 261.736C1287.41 261.468 1287.45 261.114 1287.61 260.883C1287.95 260.381 1288.61 260.201 1289.14 260.523C1289.95 261.009 1290.76 261.492 1291.56 261.978C1291.8 262.12 1291.99 262.386 1292.06 262.654C1292.12 262.922 1292.08 263.276 1291.92 263.507C1291.58 264.009 1290.92 264.187 1290.39 263.866Z" fill="#333333"/>
<path d="M1407.67 257.323C1409.12 242.746 1405.59 230.26 1400.25 217.739C1397.9 212.243 1394.68 207.444 1390.85 203.355C1384.09 196.148 1375.43 191.15 1366.28 188.441C1349.57 183.494 1330.52 185.746 1314.47 196.268C1298.42 206.79 1285.85 225.888 1283.06 246.454C1283.05 246.494 1283.05 246.533 1283.05 246.572C1298.17 251.126 1314.57 249.014 1330.1 246.214C1344.47 243.625 1359.65 239.178 1370.25 228.945C1371.27 250.603 1381.78 273.528 1399.56 286.321C1403.88 276.987 1406.76 266.544 1407.67 257.323Z" fill="#FBFDFF"/>
<path d="M1385.91 198.74C1380.08 193.973 1373.33 190.526 1366.28 188.441C1349.57 183.494 1330.52 185.746 1314.47 196.268C1301.39 204.841 1290.62 219.113 1285.57 235.23C1293.69 222.491 1302.08 210.242 1315.01 201.269C1336.04 186.228 1364.35 186.518 1385.91 198.74Z" fill="#CBD5DB"/>
<path d="M1355.01 236.249C1345.97 241.187 1336.16 244.712 1326.05 246.917C1327.41 246.69 1328.76 246.454 1330.1 246.213C1344.47 243.623 1359.65 239.176 1370.25 228.943C1370.75 239.609 1373.56 250.584 1378.4 260.503C1374.01 245.92 1373.83 229.683 1375.86 215.159C1370.12 223.153 1363.98 231.555 1355.01 236.249Z" fill="#CBD5DB"/>
<path d="M1309.62 231.491C1309.35 231.413 1309.16 231.162 1309.17 230.871C1309.18 230.524 1309.47 230.253 1309.81 230.264C1332.77 230.959 1355.97 222.83 1373.47 207.967C1373.73 207.742 1374.13 207.774 1374.35 208.038C1374.58 208.302 1374.55 208.697 1374.28 208.922C1356.55 223.986 1333.04 232.222 1309.78 231.519C1309.72 231.514 1309.67 231.506 1309.62 231.491Z" fill="#CBD5DB"/>
<path d="M1322.34 210.809C1322.01 210.712 1321.81 210.367 1321.91 210.035C1322 209.702 1322.35 209.509 1322.68 209.603C1334.78 213.03 1348.25 211.934 1359.64 206.599C1359.95 206.453 1360.33 206.588 1360.47 206.9C1360.62 207.213 1360.49 207.588 1360.17 207.734C1348.52 213.197 1334.73 214.319 1322.34 210.811C1322.34 210.811 1322.34 210.809 1322.34 210.809Z" fill="#CBD5DB"/>
<path d="M1394.83 245.401C1394.69 245.358 1394.55 245.263 1394.47 245.122C1389.35 236.618 1386.9 226.482 1387.6 216.583C1387.62 216.238 1387.92 215.976 1388.26 216C1388.61 216.024 1388.87 216.324 1388.85 216.669C1388.17 226.316 1390.55 236.189 1395.55 244.475C1395.73 244.772 1395.63 245.158 1395.33 245.336C1395.18 245.431 1394.99 245.45 1394.83 245.401Z" fill="#CBD5DB"/>
<path d="M1355.15 394.183L1330.77 393.886L1330.68 400.967L1355.06 401.264L1355.15 394.183Z" fill="#363B48"/>
<path d="M1336.82 402.58C1335.71 402.567 1334.99 401.653 1335.21 400.549L1336.52 394.168C1336.75 393.065 1337.84 392.173 1338.95 392.186C1340.05 392.199 1340.77 393.113 1340.55 394.217L1339.24 400.598C1339.01 401.703 1337.92 402.593 1336.82 402.58Z" fill="#F5DF4D"/>
<path d="M1341.03 402.633C1339.92 402.62 1339.2 401.705 1339.43 400.602L1340.74 394.221C1340.96 393.117 1342.05 392.225 1343.16 392.238C1344.27 392.251 1344.99 393.166 1344.76 394.27L1343.46 400.65C1343.23 401.754 1342.14 402.646 1341.03 402.633Z" fill="#F5DF4D"/>
<path d="M1345.25 402.683C1344.14 402.67 1343.42 401.756 1343.64 400.652L1344.95 394.272C1345.18 393.168 1346.27 392.276 1347.37 392.289C1348.48 392.302 1349.2 393.217 1348.98 394.32L1347.67 400.701C1347.44 401.805 1346.35 402.696 1345.25 402.683Z" fill="#F5DF4D"/>
<path d="M1349.46 402.734C1348.35 402.721 1347.63 401.806 1347.86 400.703L1349.17 394.322C1349.39 393.218 1350.48 392.327 1351.59 392.34C1352.7 392.353 1353.42 393.267 1353.19 394.371L1351.89 400.751C1351.66 401.857 1350.57 402.747 1349.46 402.734Z" fill="#F5DF4D"/>
<path d="M1334.17 393.991L1329.59 393.935L1328.49 483.4L1333.08 483.456L1334.17 393.991Z" fill="#363B48"/>
<path d="M1332.12 472.166L1329.48 472.134L1328.41 559.302L1331.06 559.334L1332.12 472.166Z" fill="#363B48"/>
<path d="M1332.22 558.932L1327.26 558.871L1327.25 559.705L1332.21 559.766L1332.22 558.932Z" fill="#999999"/>
<path d="M1333.68 479.926L1327.98 479.857L1327.94 483.426L1333.64 483.496L1333.68 479.926Z" fill="#333333"/>
<path d="M1334.43 480.338L1327.22 480.25L1327.19 483.014L1334.39 483.102L1334.43 480.338Z" fill="#999999"/>
<path d="M1353.3 394.101C1353.3 394.101 1348.63 388.08 1347.99 387.75C1347.35 387.421 1341.03 389.684 1339.06 389.71C1337.5 389.733 1339.75 393.351 1342.37 392.548L1345.17 392.527L1346.13 393.376C1346.13 393.376 1348.3 397.146 1350.71 396.805C1353.11 396.462 1353.92 395.626 1353.3 394.101Z" fill="#FFC4B3"/>
<path d="M1343.28 393.571C1345.58 392.278 1349.4 391.193 1352.75 392.049C1354.74 392.559 1357.61 393.11 1358.68 395.021C1360.61 398.443 1359.96 401.471 1358.69 403.772C1357.16 406.574 1352.64 409.328 1350.75 410.385C1347.32 412.313 1345.6 407.763 1343.24 403.573C1340.89 399.385 1339.85 395.497 1343.28 393.571Z" fill="#FFC4B3"/>
<path d="M1342.05 394.545C1342.05 394.545 1335.94 399.983 1335.42 401.55C1335.05 402.65 1336.3 404.04 1337.37 404.068C1338.13 404.087 1343.39 400.783 1343.59 400.178C1343.79 399.569 1343.55 393.792 1342.05 394.545Z" fill="#FFC4B3"/>
<path d="M1344.5 399.417C1344.5 399.417 1338.47 402.92 1337.65 404.355C1337.08 405.363 1338.04 406.969 1339.08 407.203C1339.82 407.368 1345.62 405.142 1345.93 404.587C1346.25 404.029 1346.12 398.967 1344.5 399.417Z" fill="#FFC4B3"/>
<path d="M1346.72 402.798C1346.72 402.798 1340.42 405.762 1339.6 407.198C1339.03 408.206 1340.48 409.564 1341.52 409.799C1342.26 409.963 1347.94 408.108 1348.25 407.552C1348.57 406.995 1348.34 402.348 1346.72 402.798Z" fill="#FFC4B3"/>
<path d="M1349.35 405.993C1349.35 405.993 1344.2 408.016 1343.39 409.452C1342.82 410.46 1342.81 411.208 1343.86 411.442C1344.6 411.607 1350.44 410.942 1350.76 410.387C1351.07 409.832 1350.98 405.543 1349.35 405.993Z" fill="#FFC4B3"/>
<path d="M1338 403.74C1339.36 402.756 1340.72 401.773 1342.07 400.789C1342.2 400.697 1342.36 400.879 1342.24 400.971C1340.88 401.954 1339.52 402.938 1338.17 403.922C1338.04 404.012 1337.87 403.832 1338 403.74Z" fill="#C26E61"/>
<path d="M1339.64 406.995C1341.16 405.918 1342.67 404.838 1344.19 403.761C1344.32 403.671 1344.49 403.851 1344.36 403.943C1342.84 405.02 1341.32 406.099 1339.8 407.177C1339.67 407.267 1339.51 407.085 1339.64 406.995Z" fill="#C26E61"/>
<path d="M1343.43 409.283C1345.01 408.768 1346.56 408.163 1348.08 407.477C1348.22 407.411 1348.33 407.63 1348.19 407.696C1346.65 408.393 1345.08 409.002 1343.48 409.525C1343.33 409.572 1343.28 409.332 1343.43 409.283Z" fill="#C26E61"/>
<path d="M1230.85 331.525C1240.09 331.944 1248.59 350.771 1259.12 370.676C1267.51 386.542 1254.45 398.418 1244.45 386.471C1242.7 384.377 1225.7 362.472 1225.53 359.858C1225.13 353.968 1221.08 331.079 1230.85 331.525Z" fill="#FCC062"/>
<path d="M1261.36 384.083C1262.29 393.241 1224.42 421.175 1222.44 418.544C1220.47 415.911 1204.31 401.285 1211.65 397.38C1213.81 396.228 1235.71 377.913 1239.97 374.809C1250.12 367.419 1260.38 374.395 1261.36 384.083Z" fill="#FCC062"/>
<path d="M1194.04 535.491L1195.18 518.626L1176.07 517.567L1177.43 535.616C1177.43 535.618 1193.68 541.002 1194.04 535.491Z" fill="#94969F"/>
<path d="M1195.14 530.684C1194.92 528.342 1192.18 532.114 1191.12 533.347C1189.61 530.431 1186.46 528.344 1183.15 528.342C1179.13 528.34 1175.33 531.428 1174.45 535.337C1171.78 537.279 1169.47 539.715 1167.68 542.49C1166.69 544.028 1165.82 545.717 1164.34 546.802C1163.27 547.589 1161.84 548.126 1161.41 549.38C1160.88 550.907 1162.19 552.448 1163.55 553.325C1165.66 554.683 1173.89 555.408 1175.65 555.403C1175.65 555.403 1187.73 553.298 1194.55 550.649C1194.54 550.647 1195.36 533.027 1195.14 530.684Z" fill="#1A1A1A"/>
<path d="M1170.91 397.845C1170.91 397.845 1167.74 414.414 1166.64 422.88C1165.78 429.551 1171.62 516.936 1171.26 522.439C1170.9 527.943 1181.09 527.118 1184.5 527.448C1189.8 527.96 1197.93 526.026 1197.74 522.861C1197.47 518.508 1197.74 439.061 1197.74 439.061L1205.53 433.475V399.102L1170.91 397.845Z" fill="#998675"/>
<path d="M1203.36 535.491L1202.23 518.626L1221.34 517.567L1219.98 535.616C1219.98 535.618 1203.74 541.002 1203.36 535.491Z" fill="#94969F"/>
<path d="M1202.27 530.684C1202.49 528.342 1205.23 532.114 1206.29 533.347C1207.79 530.431 1210.95 528.344 1214.25 528.342C1218.28 528.34 1222.08 531.428 1222.96 535.337C1225.63 537.279 1227.94 539.715 1229.73 542.49C1230.72 544.028 1231.59 545.717 1233.07 546.802C1234.14 547.589 1235.57 548.126 1236 549.38C1236.53 550.907 1235.22 552.448 1233.86 553.325C1231.75 554.683 1223.51 555.408 1221.76 555.403C1221.76 555.403 1209.68 553.298 1202.86 550.649C1202.87 550.647 1202.05 533.027 1202.27 530.684Z" fill="#1A1A1A"/>
<path d="M1226.5 397.845C1226.5 397.845 1229.67 414.414 1230.77 422.88C1231.63 429.551 1225.79 516.936 1226.15 522.439C1226.51 527.943 1216.32 527.118 1212.91 527.448C1207.61 527.96 1199.48 526.026 1199.67 522.861C1199.94 518.508 1199.67 439.061 1199.67 439.061L1191.88 433.475V399.102L1226.5 397.845Z" fill="#998675"/>
<path d="M1165.77 333.033C1156.54 333.453 1148.03 352.28 1137.51 372.184C1129.12 388.05 1142.18 399.927 1152.18 387.979C1153.93 385.886 1170.92 363.98 1171.1 361.366C1171.5 355.478 1175.54 332.589 1165.77 333.033Z" fill="#FCC062"/>
<path d="M1215.05 303.28H1181.87V341.732H1215.05V303.28Z" fill="#FFC4B3"/>
<path d="M1181.87 303.28V322.528C1192.43 326.716 1204.41 327.065 1215.05 322.841V303.28H1181.87Z" fill="#C26E61"/>
<path d="M1218.37 332.115C1218.37 338.745 1209.35 372.025 1198.35 372.025C1187.36 372.025 1178.55 338.745 1178.55 332.115C1178.55 325.485 1218.37 325.485 1218.37 332.115Z" fill="#FFC4B3"/>
<path d="M1166.39 423.555H1231.15C1231.33 405.788 1232.85 384.005 1234.06 366.525C1235.04 352.353 1235.89 340.113 1235.44 337.501C1234.51 332.169 1221.32 328.03 1215.53 326.681C1214.51 327.781 1211.38 337.195 1198.5 337.195C1185.62 337.195 1182.5 327.781 1181.48 326.681C1175.68 328.028 1162.5 332.166 1161.57 337.501C1161.15 339.907 1161.98 350.151 1163.04 363.12C1164.46 380.652 1166.39 404.323 1166.39 423.555Z" fill="#FCC062"/>
<path d="M1232.4 434.616C1231.97 420.686 1232.9 401.988 1234 384.664C1233.19 382.32 1232.56 379.88 1232.06 377.375C1228.85 361.683 1229.35 346.583 1231.6 331.557C1225.24 327.599 1215.13 325.403 1215.13 325.403C1215.13 325.403 1204.69 368.65 1198.21 368.65C1191.72 368.65 1181.87 325.401 1181.87 325.401C1181.87 325.401 1169.58 328.069 1163.58 332.825C1167.84 341.795 1170.77 351.401 1170.45 361.413C1170.07 369.681 1167.75 377.373 1164.87 385.063C1164.53 385.929 1164.16 386.772 1163.75 387.601C1164.79 402.715 1165.54 418.628 1165.1 431.418C1174.71 435.887 1185.98 436.559 1196.44 437.363C1208.57 438.255 1220.63 437.15 1232.4 434.616Z" fill="#754C24"/>
<path d="M1199.33 376.414C1203.76 375.259 1207.08 372.117 1208.96 368.146C1215.05 355.235 1224.38 328.155 1224.38 328.155C1219.55 326.362 1215.13 325.403 1215.13 325.403C1215.13 325.403 1204.69 368.65 1198.21 368.65C1191.72 368.65 1181.87 325.401 1181.87 325.401C1181.87 325.401 1178.95 326.034 1175.27 327.234C1175.27 327.234 1185.47 365.644 1187.78 369.681C1190.09 373.721 1194.32 377.375 1199.33 376.414Z" fill="#AD7135"/>
<path d="M1171.16 426.774C1169.05 421.006 1168.72 412.561 1169.87 406.6C1169.87 405.832 1189.51 405.446 1198.56 404.293C1202.03 403.716 1206.07 402.948 1206.84 399.101C1208.19 393.524 1208.19 388.14 1208.57 382.564C1200.1 380.064 1173.35 374.35 1168.7 373.054C1167.7 377.111 1166.36 381.087 1164.87 385.063C1164.53 385.929 1164.16 386.772 1163.75 387.601C1164.79 402.715 1165.55 418.628 1165.11 431.417C1174.71 435.887 1185.98 436.559 1196.44 437.363C1203.28 437.864 1210.09 437.732 1216.85 437.067C1207.02 435.208 1173.67 434.273 1171.16 426.774Z" fill="#5E3D1D"/>
<path d="M1234 384.664C1233.19 382.32 1232.56 379.88 1232.06 377.375C1231.38 374.036 1230.86 370.724 1230.5 367.434C1230.18 373.709 1230.93 380.184 1231.1 386.22C1231.28 402.627 1228.94 419.035 1228.27 435.443C1229.65 435.186 1231.03 434.912 1232.4 434.616C1231.97 420.686 1232.9 401.988 1234 384.664Z" fill="#5E3D1D"/>
<path d="M1246.63 278.831C1246.63 278.831 1261.55 288.641 1267.06 275.023C1272.56 261.406 1260.04 254.197 1251.07 259.787C1242.09 265.377 1243.19 277.051 1246.63 278.831Z" fill="#FFC4B3"/>
<path d="M1255.91 261.938C1258.46 262.658 1260.58 264.49 1261.58 266.945C1262.63 269.488 1262.25 272.494 1260.75 274.771C1260.21 275.593 1261.47 276.461 1262.01 275.636C1263.8 272.932 1264.2 269.477 1263.03 266.45C1261.93 263.582 1259.38 261.331 1256.43 260.497C1255.49 260.229 1254.96 261.67 1255.91 261.938Z" fill="#F7AB94"/>
<path d="M1149.97 297.225C1149.97 297.225 1139.6 311.752 1129.54 301.033C1119.49 290.314 1128.56 279.082 1138.96 281.061C1149.35 283.038 1152.54 294.324 1149.97 297.225Z" fill="#FFC4B3"/>
<path d="M1135.21 284.814C1133.1 286.402 1131.78 288.875 1131.73 291.527C1131.68 294.276 1133.12 296.942 1135.34 298.526C1136.14 299.097 1135.28 300.362 1134.47 299.789C1131.83 297.909 1130.21 294.832 1130.2 291.589C1130.2 288.515 1131.76 285.498 1134.21 283.658C1134.99 283.068 1136 284.222 1135.21 284.814Z" fill="#F7AB94"/>
<path d="M1203.7 321.932C1215.9 319.577 1223.19 315.057 1230.23 310.34C1237.5 305.476 1243.97 298.67 1247.36 289.844C1251.93 277.949 1249.48 229.16 1244.07 220.351C1238.09 210.633 1230.91 203.754 1219.72 201.339C1207.5 198.7 1200.13 198.213 1182.3 201.369C1164.48 204.524 1157.72 207.513 1147.15 214.184C1137.48 220.289 1133.08 229.155 1130.83 240.325C1128.78 250.449 1143.27 297.182 1151.66 306.784C1157.88 313.908 1166.29 318.08 1174.79 320.152C1183.03 322.165 1191.43 323.909 1203.7 321.932Z" fill="#FFC4B3"/>
<path d="M1170.3 313.545C1137.89 294.532 1138.44 245.12 1149.88 212.5C1148.99 213.036 1148.09 213.596 1147.15 214.188C1137.48 220.293 1133.08 229.158 1130.83 240.329C1128.78 250.453 1143.27 297.186 1151.66 306.788C1157.88 313.912 1166.29 318.083 1174.79 320.156C1183.03 322.165 1191.43 323.909 1203.7 321.932C1215.9 319.577 1223.19 315.057 1230.23 310.34C1237.5 305.476 1243.97 298.67 1247.36 289.844C1247.43 289.655 1247.51 289.456 1247.57 289.248C1246.3 290.845 1244.96 292.411 1243.54 293.933C1225.01 313.168 1193.26 327.749 1170.3 313.545Z" fill="#F7AB94"/>
<path d="M1198.74 275.559C1198.59 275.303 1198.19 274.686 1197.75 274.699C1197.32 274.712 1197.31 276.271 1197.13 277.068C1196.95 277.866 1196.47 278.73 1195.58 278.989C1194.47 279.311 1193.35 278.543 1192.19 278.593C1192.11 278.597 1192.04 278.604 1191.96 278.616C1191.03 279.21 1191.37 280.079 1192.02 280.491C1192.45 280.765 1192.99 280.872 1193.52 280.939C1194.69 281.085 1195.92 281.065 1197.03 280.673C1198.13 280.283 1199.1 279.48 1199.4 278.479C1199.69 277.476 1199.28 276.481 1198.74 275.559Z" fill="#C26E61"/>
<path d="M1198.48 293.075C1193.63 293.98 1188.58 293.817 1183.79 292.492C1183.32 292.361 1183.05 291.873 1183.18 291.401C1183.31 290.929 1183.8 290.652 1184.27 290.785C1193.93 293.459 1204.71 291.124 1212.39 284.689C1212.77 284.374 1213.33 284.423 1213.64 284.799C1213.96 285.174 1213.91 285.733 1213.53 286.047C1209.22 289.658 1203.98 292.049 1198.48 293.075Z" fill="#D15C58"/>
<path d="M1136.35 287.453C1137 289.926 1140.45 290.029 1141.29 287.612C1143.72 280.624 1142.04 271.954 1139.69 264.533C1136.64 254.898 1132.9 244.211 1137.16 235.091C1141.88 224.982 1154.37 221.472 1165.44 221.048C1172.21 220.788 1198.68 215.858 1205.05 213.673C1215.52 210.082 1228.44 208.853 1236.5 216.581C1243.76 223.554 1244.14 234.866 1244.77 244.955C1245.25 252.604 1246.78 261.149 1251.4 266.795C1253.04 268.806 1256.3 267.363 1255.94 264.792C1254.16 252.329 1250.07 224.762 1246.64 210.431C1242.11 191.544 1211.44 190.504 1181.27 196.128C1151.1 201.751 1121.98 215.56 1124.2 233.257C1125.91 246.889 1133.13 275.179 1136.35 287.453Z" fill="#FBFDFF"/>
<path d="M1128.36 242.028C1120.48 235.2 1120.28 222.27 1125.81 213.435C1131.34 204.597 1141.19 199.321 1151.17 196.289C1161.15 193.257 1171.61 192.082 1181.65 189.247C1191.69 186.41 1201.68 181.564 1207.72 173.066C1208.25 176.161 1208.79 179.259 1209.33 182.354C1216.06 180.01 1222.08 175.657 1226.41 170C1229.09 186.181 1218.72 203.542 1203.19 208.864C1203.19 208.864 1140.99 222.025 1136.22 225.377C1131.45 228.727 1128.36 242.028 1128.36 242.028Z" fill="#F0F7FB"/>
<path d="M1142.47 202.997C1163.73 193.274 1192.66 199.401 1205.89 177.559C1206.42 183.22 1204.83 188.754 1203.24 194.285C1212.6 188.46 1220.83 180.876 1226.65 171.784C1226.58 171.188 1226.51 170.592 1226.41 170C1222.08 175.657 1216.06 180.01 1209.33 182.354C1208.79 179.259 1208.25 176.161 1207.72 173.066C1201.68 181.564 1191.69 186.41 1181.65 189.247C1171.61 192.084 1161.15 193.257 1151.17 196.289C1141.18 199.321 1131.34 204.597 1125.81 213.435C1124.09 216.182 1122.93 219.324 1122.37 222.555C1126.37 214.091 1133.01 207.097 1142.47 202.997Z" fill="#CBD5DB"/>
<path d="M1171.34 254.304C1171.7 252.325 1167.88 249.889 1164.67 250.564C1156.84 251.838 1148.35 260.863 1149.8 263.166C1150.53 264.492 1152.61 262.032 1160.49 258.243C1168.51 254.902 1171.1 256.42 1171.34 254.304Z" fill="#E3EEF5"/>
<path d="M1206.06 247.832C1205 246.117 1207.68 242.469 1210.93 241.938C1218.68 240.31 1229.86 245.665 1229.35 248.334C1229.14 249.837 1226.14 247.384 1217.43 246.687C1208.74 246.464 1207.04 249.719 1206.06 247.832Z" fill="#E3EEF5"/>
<path d="M1168.22 280.941C1173.64 279.826 1176.93 274.411 1175.69 268.611C1174.46 262.811 1169.24 259.142 1163.81 260.257C1158.38 261.372 1155.09 266.788 1156.33 272.587C1157.57 278.385 1162.79 282.056 1168.22 280.941Z" fill="white"/>
<path d="M1168.19 279.551C1172.64 278.474 1175.27 273.59 1174.07 268.644C1172.87 263.698 1168.29 260.562 1163.84 261.64C1159.39 262.717 1156.76 267.601 1157.96 272.547C1159.16 277.493 1163.74 280.629 1168.19 279.551Z" fill="#1A1A1A"/>
<path d="M1161.46 274.295C1160.76 270.993 1163.15 267.708 1166.81 266.958C1170.04 266.295 1173.18 267.837 1174.35 270.491C1174.55 273.864 1173.08 276.952 1170.51 278.578C1170.14 278.719 1169.75 278.833 1169.35 278.916C1165.7 279.665 1162.16 277.596 1161.46 274.295Z" fill="#333333"/>
<path d="M1168.68 269.996C1170.19 269.714 1171.22 268.438 1170.98 267.147C1170.74 265.856 1169.32 265.039 1167.8 265.321C1166.29 265.603 1165.26 266.879 1165.5 268.17C1165.74 269.461 1167.16 270.278 1168.68 269.996Z" fill="#FFFEFD"/>
<path d="M1223.08 270.714C1228.5 269.599 1231.79 264.183 1230.56 258.383C1229.32 252.584 1224.1 248.915 1218.67 250.03C1213.24 251.145 1209.96 256.56 1211.19 262.36C1212.43 268.159 1217.65 271.828 1223.08 270.714Z" fill="white"/>
<path d="M1223.05 269.322C1227.5 268.244 1230.13 263.361 1228.93 258.414C1227.73 253.468 1223.15 250.332 1218.7 251.41C1214.25 252.488 1211.62 257.371 1212.82 262.317C1214.02 267.263 1218.6 270.399 1223.05 269.322Z" fill="#1A1A1A"/>
<path d="M1216.32 264.067C1215.62 260.765 1218.01 257.48 1221.67 256.731C1224.9 256.067 1228.04 257.61 1229.21 260.263C1229.41 263.636 1227.94 266.724 1225.37 268.351C1225 268.491 1224.62 268.605 1224.21 268.688C1220.56 269.437 1217.02 267.369 1216.32 264.067Z" fill="#333333"/>
<path d="M1220.43 258.219C1220.85 259.467 1222.39 260.128 1223.86 259.693C1225.34 259.259 1226.19 257.896 1225.77 256.646C1225.35 255.398 1223.82 254.737 1222.34 255.172C1220.87 255.606 1220.01 256.971 1220.43 258.219Z" fill="#FFFEFD"/>
<path d="M1165.57 246.241C1178.04 242.12 1190.91 239.182 1203.93 237.456C1207.66 236.961 1211.41 236.57 1215.16 236.273C1216.5 236.167 1216.11 234.115 1214.78 234.22C1201.47 235.271 1188.27 237.57 1175.4 241.102C1171.79 242.094 1168.21 243.188 1164.65 244.361C1164.11 244.539 1163.95 245.298 1164.17 245.759C1164.44 246.325 1165.03 246.419 1165.57 246.241Z" fill="#F7AB94"/>
<path d="M1172.02 236.08C1176.86 234.282 1181.72 232.477 1186.71 231.145C1191.76 229.801 1196.91 229.007 1202.11 228.566C1203.45 228.452 1203.05 226.4 1201.72 226.512C1196.43 226.96 1191.19 227.777 1186.07 229.162C1180.98 230.536 1176.04 232.37 1171.1 234.203C1169.84 234.669 1170.77 236.547 1172.02 236.08Z" fill="#F7AB94"/>
<path d="M1231.59 257.662C1233.63 256.185 1235.67 254.709 1237.71 253.23C1238.12 252.936 1237.6 252.35 1237.2 252.642C1235.16 254.118 1233.12 255.595 1231.08 257.074C1230.68 257.368 1231.19 257.956 1231.59 257.662Z" fill="#F7AB94"/>
<path d="M1233.87 259.849C1235.9 259.738 1237.92 259.628 1239.95 259.517C1240.16 259.506 1240.3 259.251 1240.26 259.064C1240.22 258.835 1240.02 258.741 1239.81 258.753C1237.78 258.863 1235.76 258.974 1233.73 259.084C1233.52 259.096 1233.39 259.35 1233.42 259.538C1233.46 259.766 1233.66 259.86 1233.87 259.849Z" fill="#F7AB94"/>
<path d="M1233.94 263.42C1234.96 263.775 1235.98 264.129 1237 264.485C1237.2 264.554 1237.43 264.449 1237.5 264.251C1237.57 264.054 1237.46 263.821 1237.26 263.752C1236.24 263.398 1235.22 263.044 1234.2 262.688C1234 262.618 1233.78 262.723 1233.7 262.922C1233.63 263.119 1233.74 263.351 1233.94 263.42Z" fill="#F7AB94"/>
<path d="M1153.91 269.773C1151.49 269.942 1149.07 270.11 1146.65 270.281C1146.15 270.316 1146.29 271.081 1146.79 271.045C1149.21 270.877 1151.63 270.708 1154.06 270.537C1154.56 270.502 1154.41 269.737 1153.91 269.773Z" fill="#F7AB94"/>
<path d="M1151.51 273.901C1149.72 274.508 1147.92 275.115 1146.13 275.722C1145.92 275.79 1145.86 276.071 1145.95 276.243C1146.04 276.453 1146.27 276.491 1146.47 276.423C1148.26 275.816 1150.06 275.209 1151.86 274.602C1152.06 274.534 1152.12 274.253 1152.04 274.081C1151.94 273.871 1151.71 273.834 1151.51 273.901Z" fill="#F7AB94"/>
<path d="M1153.58 277.896C1152.52 278.771 1151.45 279.646 1150.38 280.52C1149.99 280.838 1150.5 281.426 1150.89 281.108C1151.96 280.233 1153.03 279.358 1154.09 278.485C1154.48 278.166 1153.97 277.578 1153.58 277.896Z" fill="#F7AB94"/>
<path d="M1196.86 303.426C1199.39 304.4 1202.46 303.743 1204.33 301.773C1204.62 301.468 1204.7 301.014 1204.41 300.675C1204.15 300.381 1203.6 300.289 1203.31 300.596C1201.8 302.185 1199.44 302.751 1197.39 301.96C1196.45 301.599 1195.92 303.066 1196.86 303.426Z" fill="#F7AB94"/>
<path d="M1176.59 281.799C1170.74 286.851 1169.12 295.501 1172.87 302.277C1173.95 304.215 1175.38 305.905 1177.11 307.292C1177.9 307.919 1178.77 306.632 1177.99 306.008C1172.46 301.574 1170.79 293.639 1174.11 287.376C1174.99 285.703 1176.18 284.215 1177.61 282.978C1178.37 282.322 1177.35 281.142 1176.59 281.799Z" fill="#F7AB94"/>
<path d="M1211.67 275.273C1218.74 277.688 1223.51 284.569 1223.16 292.042C1223.06 294.24 1222.54 296.376 1221.63 298.379C1221.21 299.294 1222.68 299.813 1223.09 298.906C1224.81 295.123 1225.2 290.753 1224.18 286.726C1223.21 282.897 1221 279.511 1217.95 277.006C1216.25 275.604 1214.29 274.521 1212.2 273.809C1211.25 273.481 1210.72 274.947 1211.67 275.273Z" fill="#F7AB94"/>
<path d="M1215.43 274.165C1219.19 274.952 1223.12 274.081 1226.26 271.911C1226.61 271.669 1226.59 271.109 1226.34 270.813C1226.05 270.464 1225.59 270.496 1225.24 270.734C1222.43 272.674 1218.89 273.311 1215.56 272.614C1215.14 272.527 1214.75 272.942 1214.72 273.324C1214.67 273.785 1215.02 274.079 1215.43 274.165Z" fill="#F7AB94"/>
<path d="M1164.88 284.078C1169.13 284.936 1173.6 283.019 1175.96 279.406C1176.19 279.052 1175.98 278.541 1175.63 278.355C1175.23 278.14 1174.81 278.333 1174.58 278.683C1172.61 281.698 1168.74 283.27 1165.23 282.56C1164.25 282.362 1163.9 283.879 1164.88 284.078Z" fill="#F7AB94"/>
<path d="M1160.82 260.73C1146.95 263.315 1135.98 266.846 1138.2 278.717C1140.87 293.046 1153.46 298.117 1167.32 295.531C1181.19 292.945 1191.48 285.733 1188.42 269.355C1186.2 257.484 1174.69 258.145 1160.82 260.73ZM1166.95 293.549C1160.25 294.799 1154.21 294.154 1149.5 291.682C1144.48 289.046 1141.34 284.56 1140.18 278.348C1138.4 268.828 1146.19 265.51 1161.19 262.712C1176.19 259.916 1184.65 260.207 1186.43 269.724C1188.88 282.856 1182.51 290.648 1166.95 293.549Z" fill="#333333"/>
<path d="M1200.69 267.067C1203.75 283.445 1215.49 286.552 1228.79 284.072C1242.09 281.593 1251.53 272.417 1248.86 258.087C1246.64 246.216 1235.59 246.792 1222.28 249.271C1208.98 251.752 1198.47 255.196 1200.69 267.067ZM1202.59 266.713C1200.81 257.193 1208.27 253.937 1222.66 251.255C1237.04 248.574 1245.17 248.926 1246.95 258.443C1248.11 264.655 1246.9 269.953 1243.34 274.188C1240.01 278.158 1234.85 280.891 1228.42 282.09C1213.5 284.873 1205.05 279.843 1202.59 266.713Z" fill="#333333"/>
<path d="M1188.35 269.962C1191.86 267.502 1196.49 266.64 1200.65 267.67C1201.3 267.83 1201.99 267.597 1202.23 266.928C1202.43 266.353 1202.13 265.515 1201.48 265.356C1196.38 264.095 1191.04 265.09 1186.74 268.103C1186.19 268.484 1186.21 269.372 1186.61 269.838C1187.08 270.382 1187.8 270.344 1188.35 269.962Z" fill="#333333"/>
<path d="M1248.59 258.998C1249.53 258.554 1254.24 257.036 1255.18 256.592C1255.46 256.461 1255.7 256.189 1255.8 255.902C1255.91 255.616 1255.9 255.222 1255.75 254.949C1255.43 254.358 1254.73 254.087 1254.11 254.383C1253.17 254.827 1248.45 256.345 1247.51 256.789C1247.23 256.92 1247 257.192 1246.89 257.478C1246.79 257.765 1246.8 258.159 1246.95 258.432C1247.27 259.022 1247.97 259.292 1248.59 258.998Z" fill="#333333"/>
<path d="M1138.9 279.984C1137.86 279.909 1135.09 280.156 1134.06 280.081C1133.75 280.059 1133.43 279.892 1133.23 279.661C1133.03 279.431 1132.89 279.062 1132.93 278.753C1133.02 278.085 1133.57 277.581 1134.26 277.63C1135.3 277.705 1138.07 277.458 1139.11 277.533C1139.41 277.555 1139.73 277.722 1139.93 277.952C1140.13 278.183 1140.27 278.552 1140.23 278.861C1140.14 279.53 1139.59 280.034 1138.9 279.984Z" fill="#333333"/>
<path d="M1189.21 392.096L1213.6 391.799L1213.51 384.719L1189.13 385.016L1189.21 392.096Z" fill="#363B48"/>
<path d="M1207.48 393.404C1208.59 393.391 1209.31 392.476 1209.09 391.373L1207.78 384.992C1207.55 383.888 1206.46 382.996 1205.35 383.01C1204.25 383.023 1203.53 383.937 1203.75 385.041L1205.06 391.421C1205.28 392.527 1206.37 393.419 1207.48 393.404Z" fill="#F5DF4D"/>
<path d="M1203.27 393.456C1204.37 393.443 1205.09 392.529 1204.87 391.425L1203.56 385.045C1203.33 383.941 1202.24 383.049 1201.14 383.062C1200.03 383.075 1199.31 383.99 1199.53 385.093L1200.84 391.474C1201.07 392.578 1202.16 393.47 1203.27 393.456Z" fill="#F5DF4D"/>
<path d="M1199.05 393.507C1200.16 393.494 1200.88 392.579 1200.65 391.476L1199.35 385.095C1199.12 383.991 1198.03 383.1 1196.92 383.113C1195.82 383.126 1195.1 384.04 1195.32 385.144L1196.63 391.524C1196.85 392.628 1197.95 393.52 1199.05 393.507Z" fill="#F5DF4D"/>
<path d="M1194.84 393.558C1195.94 393.545 1196.66 392.63 1196.44 391.526L1195.13 385.146C1194.9 384.042 1193.81 383.15 1192.71 383.163C1191.6 383.176 1190.88 384.091 1191.1 385.195L1192.41 391.575C1192.64 392.681 1193.73 393.573 1194.84 393.558Z" fill="#F5DF4D"/>
<path d="M1211.19 474.29L1215.78 474.234L1214.69 384.769L1210.1 384.825L1211.19 474.29Z" fill="#363B48"/>
<path d="M1213.21 560.581L1215.85 560.549L1214.79 473.381L1212.15 473.413L1213.21 560.581Z" fill="#363B48"/>
<path d="M1212.05 561.014L1217.02 560.953L1217.01 560.12L1212.04 560.18L1212.05 561.014Z" fill="#999999"/>
<path d="M1210.63 474.332L1216.33 474.262L1216.29 470.693L1210.59 470.762L1210.63 474.332Z" fill="#333333"/>
<path d="M1209.88 473.938L1217.08 473.851L1217.05 471.087L1209.84 471.175L1209.88 473.938Z" fill="#999999"/>
<path d="M1191 384.925C1191 384.925 1195.67 378.904 1196.31 378.574C1196.95 378.244 1203.26 380.508 1205.24 380.534C1206.8 380.557 1204.55 384.175 1201.93 383.371L1199.13 383.351L1198.17 384.199C1198.17 384.199 1195.99 387.97 1193.59 387.629C1191.19 387.286 1190.37 386.45 1191 384.925Z" fill="#FFC4B3"/>
<path d="M1201.02 384.394C1198.71 383.101 1194.9 382.016 1191.55 382.873C1189.55 383.382 1186.69 383.933 1185.62 385.845C1183.69 389.266 1184.34 392.295 1185.6 394.596C1187.14 397.397 1191.66 400.152 1193.54 401.209C1196.98 403.137 1198.7 398.587 1201.05 394.397C1203.41 390.207 1204.45 386.323 1201.02 384.394Z" fill="#FFC4B3"/>
<path d="M1202.25 385.369C1202.25 385.369 1208.36 390.807 1208.88 392.373C1209.25 393.473 1208 394.864 1206.93 394.892C1206.17 394.911 1200.91 391.607 1200.71 391.002C1200.51 390.393 1200.75 384.615 1202.25 385.369Z" fill="#FFC4B3"/>
<path d="M1199.8 390.241C1199.8 390.241 1205.83 393.743 1206.64 395.179C1207.22 396.187 1206.26 397.793 1205.22 398.027C1204.47 398.192 1198.68 395.966 1198.36 395.411C1198.05 394.852 1198.17 389.791 1199.8 390.241Z" fill="#FFC4B3"/>
<path d="M1197.58 393.621C1197.58 393.621 1203.88 396.586 1204.7 398.021C1205.27 399.029 1203.82 400.388 1202.78 400.622C1202.03 400.787 1196.36 398.932 1196.04 398.375C1195.73 397.819 1195.96 393.173 1197.58 393.621Z" fill="#FFC4B3"/>
<path d="M1194.94 396.816C1194.94 396.816 1200.1 398.84 1200.91 400.276C1201.48 401.284 1201.48 402.031 1200.44 402.266C1199.7 402.43 1193.86 401.765 1193.54 401.211C1193.23 400.654 1193.32 396.367 1194.94 396.816Z" fill="#FFC4B3"/>
<path d="M1206.29 394.564C1204.94 393.58 1203.58 392.596 1202.22 391.613C1202.1 391.521 1201.93 391.702 1202.06 391.794C1203.42 392.778 1204.78 393.762 1206.13 394.746C1206.26 394.837 1206.42 394.656 1206.29 394.564Z" fill="#C26E61"/>
<path d="M1204.66 397.819C1203.14 396.741 1201.62 395.662 1200.1 394.584C1199.98 394.495 1199.81 394.674 1199.94 394.766C1201.46 395.844 1202.98 396.923 1204.5 398.001C1204.62 398.091 1204.79 397.909 1204.66 397.819Z" fill="#C26E61"/>
<path d="M1200.87 400.107C1199.29 399.591 1197.73 398.986 1196.22 398.3C1196.07 398.235 1195.96 398.454 1196.11 398.52C1197.65 399.217 1199.22 399.826 1200.82 400.349C1200.97 400.395 1201.02 400.156 1200.87 400.107Z" fill="#C26E61"/>
<path d="M1137.5 389.862C1140.94 398.402 1187.48 405.539 1188 402.292C1188.53 399.044 1196.02 378.593 1187.71 378.542C1185.26 378.527 1157.34 372.484 1152.12 371.716C1139.7 369.887 1133.86 380.828 1137.5 389.862Z" fill="#FCC062"/>
</g>
<defs>
<clipPath id="clip0_303_183">
<rect width="210" height="302" fill="white" transform="translate(496 230)"/>
</clipPath>
<clipPath id="clip1_303_183">
<rect width="286" height="391" fill="white" transform="translate(1122 170)"/>
</clipPath>
</defs>
</svg>
