<svg width="88" height="88" viewBox="0 0 88 88" fill="none" xmlns="http://www.w3.org/2000/svg">
<rect width="88" height="88" rx="44" fill="#242017"/>
<path fill-rule="evenodd" clip-rule="evenodd" d="M43.9989 27.7906C44.8498 27.755 45.5203 28.0516 46.1987 28.4865C47.0574 29.0361 48.0259 30.1235 49.2219 30.8115C50.904 31.7803 54.0174 30.4438 55.6094 32.832C56.5387 34.2239 56.5819 35.3152 56.6524 36.3947C56.7269 37.5572 56.9308 38.6287 58.1111 40.2024C60.0677 42.8121 60.4755 44.548 59.4678 46.355C58.7816 47.5886 57.3347 48.2727 57.0014 49.0556C56.2878 50.7163 57.0759 51.9698 56.1035 53.9073C55.4251 55.2516 54.3821 56.1374 52.9901 56.5881C51.8177 56.9677 50.6413 56.4181 49.7003 56.8175C48.0495 57.5173 46.8339 59.1425 45.5203 59.5537C45.0145 59.7118 44.5087 59.7909 44.0028 59.787C43.497 59.7909 42.9912 59.7118 42.4854 59.5537C41.1718 59.1425 39.9562 57.5173 38.3054 56.8175C37.3644 56.4181 36.188 56.9717 35.0156 56.5881C33.6236 56.1374 32.5806 55.2516 31.9022 53.9073C30.9259 51.9698 31.714 50.7163 31.0043 49.0556C30.671 48.2727 29.2241 47.5886 28.5379 46.355C27.5223 44.548 27.9301 42.8121 29.8868 40.2064C31.067 38.6327 31.2709 37.5611 31.3454 36.3986C31.416 35.3192 31.4591 34.2278 32.3884 32.836C33.9843 30.4477 37.0977 31.7842 38.776 30.8155C39.9719 30.1275 40.9404 29.0401 41.7992 28.4905C42.4736 28.0516 43.148 27.7511 43.9989 27.7906ZM41.2345 41.9383L43.2814 43.9035L46.8025 40.2934C47.1515 39.9375 47.3711 39.6528 47.7985 40.0957L49.1944 41.535C49.6532 41.9936 49.6297 42.2586 49.1984 42.6856L44.0774 47.7626C43.1676 48.6642 43.3245 48.7195 42.3991 47.7943L38.8818 44.2672C38.6897 44.0577 38.7093 43.8441 38.9211 43.6346L40.5405 41.9422C40.7875 41.6813 40.9836 41.6971 41.2345 41.9383ZM43.9989 34.2081C49.2454 34.2081 53.4998 38.4982 53.4998 43.7888C53.4998 49.0793 49.2454 53.3695 43.9989 53.3695C38.7524 53.3695 34.498 49.0793 34.498 43.7888C34.498 38.4943 38.7524 34.2081 43.9989 34.2081Z" fill="white"/>
</svg>
