<svg width="88" height="88" viewBox="0 0 88 88" fill="none" xmlns="http://www.w3.org/2000/svg">
<rect width="88" height="88" rx="44" fill="#242017"/>
<g clip-path="url(#clip0_15_168)">
<path d="M61.3201 44.3431L58.6728 39.5773C58.205 38.7358 57.5207 38.0345 56.6908 37.5462C55.8609 37.0579 54.9156 36.8003 53.9527 36.8H49.4V35.9C49.3985 34.4683 48.8291 33.0956 47.8167 32.0833C46.8044 31.0709 45.4317 30.5015 44 30.5H31.4C29.9683 30.5015 28.5956 31.0709 27.5833 32.0833C26.5709 33.0956 26.0015 34.4683 26 35.9V48.5C26.0022 49.7888 26.465 51.0344 27.3049 52.012C28.1448 52.9895 29.3064 53.6347 30.5802 53.8311C30.7739 54.8551 31.3171 55.78 32.117 56.4481C32.9168 57.1161 33.9237 57.4859 34.9658 57.4942C36.0079 57.5025 37.0206 57.1488 37.831 56.4936C38.6414 55.8383 39.1992 54.9222 39.4093 53.9014H50.3907C50.6154 54.9743 51.2239 55.9284 52.1022 56.5844C52.9804 57.2404 54.0679 57.5533 55.1605 57.4643C56.2531 57.3753 57.2756 56.8906 58.0361 56.1011C58.7966 55.3116 59.2428 54.2716 59.2909 53.1765C60.1136 52.7038 60.7971 52.0227 61.2728 51.2017C61.7484 50.3807 61.9992 49.4488 62 48.5V46.9658C61.9991 46.0481 61.7652 45.1456 61.3201 44.3431ZM35 55.7C34.466 55.7 33.944 55.5416 33.5 55.245C33.0559 54.9483 32.7099 54.5266 32.5055 54.0332C32.3012 53.5399 32.2477 52.997 32.3519 52.4733C32.4561 51.9495 32.7132 51.4684 33.0908 51.0908C33.4684 50.7132 33.9495 50.4561 34.4733 50.3519C34.997 50.2477 35.5399 50.3012 36.0332 50.5055C36.5266 50.7099 36.9483 51.0559 37.245 51.5C37.5416 51.944 37.7 52.466 37.7 53C37.6993 53.7159 37.4146 54.4022 36.9084 54.9084C36.4022 55.4146 35.7159 55.6993 35 55.7ZM54.8 55.7C54.266 55.7 53.744 55.5416 53.3 55.245C52.8559 54.9483 52.5099 54.5266 52.3055 54.0332C52.1012 53.5399 52.0477 52.997 52.1519 52.4733C52.2561 51.9495 52.5132 51.4684 52.8908 51.0908C53.2684 50.7132 53.7495 50.4561 54.2733 50.3519C54.797 50.2477 55.3399 50.3012 55.8332 50.5055C56.3266 50.7099 56.7483 51.0559 57.045 51.5C57.3416 51.944 57.5 52.466 57.5 53C57.4993 53.7159 57.2146 54.4022 56.7084 54.9084C56.2022 55.4146 55.5159 55.6993 54.8 55.7ZM57.9493 44.9H52.3531C52.2338 44.9 52.1193 44.8526 52.0349 44.7682C51.9505 44.6838 51.9031 44.5693 51.9031 44.45V39.95C51.9031 39.8307 51.9505 39.7162 52.0349 39.6318C52.1193 39.5474 52.2338 39.5 52.3531 39.5H54.125C54.6065 39.5 55.0793 39.6287 55.4943 39.8729C55.9093 40.117 56.2515 40.4678 56.4854 40.8887L58.3438 44.2313C58.3819 44.2999 58.4014 44.3773 58.4004 44.4557C58.3994 44.5342 58.3779 44.6111 58.338 44.6786C58.2982 44.7462 58.2413 44.8022 58.1731 44.841C58.1049 44.8799 58.0278 44.9002 57.9493 44.9Z" fill="white"/>
</g>
<defs>
<clipPath id="clip0_15_168">
<rect width="36" height="36" fill="white" transform="translate(26 26)"/>
</clipPath>
</defs>
</svg>
