<svg width="88" height="88" viewBox="0 0 88 88" fill="none" xmlns="http://www.w3.org/2000/svg">
<rect width="88" height="88" rx="44" fill="#242017"/>
<g clip-path="url(#clip0_15_166)">
<path fill-rule="evenodd" clip-rule="evenodd" d="M51.6946 59.6315C50.6463 59.6189 49.6061 59.4539 48.6083 59.141C41.8206 57.2179 36.7363 53.0978 32.6204 47.6288C31.0626 45.5499 29.6527 43.44 29.155 40.8842C28.6067 37.8139 29.5071 35.2204 31.855 33.1036C32.5911 32.4286 34.8544 32.1421 35.7642 32.573C36.0882 32.7174 36.3078 32.989 36.4686 33.3477C37.3197 35.3144 38.1579 37.2959 38.9961 39.2626C39.1722 39.6362 39.083 40.0224 38.9069 40.4086C38.4807 41.3129 37.7904 42.0315 37.0697 42.8062C36.5555 43.3231 36.5261 43.8113 36.9241 44.4428C39.333 48.3394 42.6388 51.1747 46.9589 52.8698C47.6363 53.1414 48.1211 53.0417 48.5461 52.526C49.2798 51.6515 50.0452 50.7748 50.7202 49.8717C51.1898 49.2539 51.7204 49.168 52.3813 49.4545C53.8358 50.0722 55.2457 50.7461 56.6862 51.4212C57.0102 51.5656 57.3177 51.6951 57.6418 51.8383C59.0963 52.5707 59.0669 52.5707 58.9495 54.1488C58.7147 57.1767 56.3669 58.733 53.5717 59.4447C52.9577 59.6315 52.3414 59.6315 51.6946 59.6315Z" fill="white"/>
<path fill-rule="evenodd" clip-rule="evenodd" d="M54.3946 35.9906C55.5263 36.9384 56.334 38.2014 57.0102 39.5365C57.4962 40.6173 57.8507 41.7496 58.0667 42.9105C58.082 43.1397 58.1841 43.385 57.9646 43.6291C57.3025 43.6864 56.6568 43.6864 56.01 43.7288C55.7752 43.7712 55.686 43.7288 55.6578 43.4847C55.396 41.3381 54.4263 39.3325 52.8955 37.7716C50.665 35.4038 47.8546 34.2555 44.5488 34.3403H44.1661C44.1074 33.6801 44.1074 32.965 44.0769 32.2304C44.2248 32.0012 44.4737 32.0012 44.6956 32.0012C46.0444 31.984 47.3886 32.1582 48.6869 32.518C49.7564 32.8458 50.7813 33.2985 51.7392 33.8669C52.0245 34.0343 52.2898 34.2314 52.5316 34.4549C52.7664 34.6417 53.1784 34.9718 53.4003 35.1735C53.7501 35.4244 54.0824 35.6984 54.3946 35.9906Z" fill="white"/>
<path fill-rule="evenodd" clip-rule="evenodd" d="M51.1945 37.7692C53.0012 39.3049 54.1047 41.2292 54.4721 43.5259C54.5156 43.8135 54.4416 43.9144 54.1634 43.9144C53.5811 43.9167 53.0012 43.9694 52.4283 44.0714C52.2522 44.0714 52.1782 44.0141 52.1653 43.8147C51.8707 41.7907 50.8282 40.2103 49.1377 39.0619C47.9051 38.2047 46.4177 37.7657 44.9045 37.8139C44.6416 37.8139 44.5805 37.7703 44.5523 37.5262C44.5406 36.9509 44.4901 36.3767 44.4044 35.8071C44.4044 35.6077 44.4631 35.563 44.6392 35.563C47.1092 35.4587 49.2833 36.2335 51.1945 37.7692Z" fill="white"/>
<path fill-rule="evenodd" clip-rule="evenodd" d="M48.7597 44.3442C48.4944 42.4646 47.0552 41.1719 45.1452 41.1283C44.9538 41.1283 44.8799 41.1283 44.8799 40.9289C44.8353 40.3685 44.7907 39.7828 44.7038 39.1915C44.7038 39.0195 44.732 38.9622 44.908 38.9622C47.7595 38.7605 50.6827 41.173 50.9914 43.9717C50.9914 44.1585 50.9327 44.1585 50.7871 44.1585C50.1215 44.2009 49.4747 44.3018 48.7597 44.3442Z" fill="white"/>
</g>
<defs>
<clipPath id="clip0_15_166">
<rect width="30" height="27.6316" fill="white" transform="translate(29 32)"/>
</clipPath>
</defs>
</svg>
