<svg width="58" height="58" viewBox="0 0 58 58" fill="none" xmlns="http://www.w3.org/2000/svg">
<rect width="58" height="58" rx="29" fill="#D41850"/>
<path fill-rule="evenodd" clip-rule="evenodd" d="M40.4286 24.7087C40.4286 18.0068 35.3143 12.603 29 12.603C22.6857 12.603 17.5714 18.0068 17.5714 24.6785V24.7087C15.0286 24.8596 13 27.0936 13 29.8106V30.4144C13 33.2521 15.1714 35.5464 17.8571 35.5464H18.1143L20.1429 38.9578C21.5714 41.3729 24 42.7917 26.6857 42.7917H27.0857C27.3429 43.8182 28.2286 44.6031 29.2857 44.6031C30.5429 44.6031 31.5714 43.5163 31.5714 42.188C31.5714 40.8597 30.5429 39.7729 29.2857 39.7729C28.2286 39.7729 27.3429 40.5578 27.0857 41.5842H26.6857C24.4 41.5842 22.3143 40.3465 21.1143 38.2936L19.4571 35.5464H19.8571C20.4857 35.5464 21 35.003 21 34.3389V25.8861C21 25.2219 20.4857 24.6785 19.8571 24.6785H18.7143C18.7143 18.671 23.3143 13.8106 29 13.8106C34.6857 13.8106 39.2857 18.671 39.2857 24.6785H38.1429C37.5143 24.6785 37 25.2219 37 25.8861V34.3389C37 35.003 37.5143 35.5464 38.1429 35.5464H40.1429C42.8286 35.5464 45 33.2521 45 30.4144V29.8106C45 27.0936 42.9714 24.8596 40.4286 24.7087ZM29.2857 40.9804C29.9143 40.9804 30.4286 41.5238 30.4286 42.188C30.4286 42.8521 29.9143 43.3955 29.2857 43.3955C28.6571 43.3955 28.1429 42.8521 28.1429 42.188C28.1429 41.5238 28.6571 40.9804 29.2857 40.9804ZM19.8571 25.8861V34.3389H17.8571C15.8 34.3389 14.1429 32.588 14.1429 30.4144V29.8106C14.1429 27.637 15.8 25.8861 17.8571 25.8861H19.8571ZM43.8571 30.4144C43.8571 32.588 42.2 34.3389 40.1429 34.3389H38.1429V25.8861H40.1429C42.2 25.8861 43.8571 27.637 43.8571 29.8106V30.4144ZM33.7428 17.1615C33.6856 17.1313 33.5999 17.0709 33.5142 17.0105C33.4285 16.9502 33.3428 16.8898 33.2856 16.8596C33.0285 16.6785 32.6571 16.769 32.5142 17.0709C32.3714 17.3728 32.4285 17.7049 32.7142 17.886C32.7714 17.9162 32.8571 17.9766 32.9428 18.037L32.9428 18.037C33.0285 18.0973 33.1142 18.1577 33.1999 18.1879C33.2856 18.2483 33.3999 18.2785 33.4856 18.2785C33.6856 18.2785 33.8571 18.1879 33.9714 17.9766C34.1142 17.7049 34.0285 17.3426 33.7428 17.1615ZM22.7143 18.671C24.2857 16.7389 26.5715 15.6219 29 15.6219C29.6 15.6219 30.2 15.6823 30.8 15.8332C31.0857 15.9238 31.3143 16.2559 31.2286 16.5578C31.1429 16.8596 30.8572 17.071 30.5429 17.0106C30.0286 16.8898 29.5143 16.8295 29 16.8295C26.9143 16.8295 24.9429 17.7955 23.5715 19.4559C23.4572 19.6068 23.3143 19.6672 23.1429 19.6672C23 19.6672 22.8857 19.6068 22.7715 19.5163C22.5429 19.3049 22.5143 18.9125 22.7143 18.671Z" fill="white"/>
<path d="M40.4286 24.7087H40.0286V25.0857L40.4049 25.108L40.4286 24.7087ZM17.5714 24.7087L17.5951 25.108L17.9714 25.0857V24.7087H17.5714ZM18.1143 35.5464L18.4581 35.342L18.3418 35.1464H18.1143V35.5464ZM20.1429 38.9578L20.4871 38.7541L20.4867 38.7533L20.1429 38.9578ZM27.0857 42.7917L27.4737 42.6945L27.3979 42.3917H27.0857V42.7917ZM27.0857 41.5842V41.9842H27.3979L27.4737 41.6814L27.0857 41.5842ZM21.1143 38.2936L21.4596 38.0917L21.4568 38.087L21.1143 38.2936ZM19.4571 35.5464V35.1464H18.7487L19.1146 35.7531L19.4571 35.5464ZM18.7143 24.6785H18.3143V25.0785H18.7143V24.6785ZM39.2857 24.6785V25.0785H39.6857V24.6785H39.2857ZM19.8571 34.3389V34.7389H20.2571V34.3389H19.8571ZM19.8571 25.8861H20.2571V25.4861H19.8571V25.8861ZM38.1429 34.3389H37.7429V34.7389H38.1429V34.3389ZM38.1429 25.8861V25.4861H37.7429V25.8861H38.1429ZM33.5142 17.0105L33.2839 17.3376L33.2839 17.3376L33.5142 17.0105ZM33.7428 17.1615L33.957 16.8236L33.9436 16.8152L33.9296 16.8078L33.7428 17.1615ZM33.2856 16.8596L33.0553 17.1866L33.0762 17.2013L33.0988 17.2133L33.2856 16.8596ZM32.5142 17.0709L32.1527 16.8998L32.5142 17.0709ZM32.7142 17.886L32.5 18.2238L32.5134 18.2323L32.5274 18.2397L32.7142 17.886ZM32.9428 18.037L32.7124 18.364L32.7162 18.3666L32.9428 18.037ZM32.9428 18.037L33.1732 17.7099L33.1694 17.7074L32.9428 18.037ZM33.1999 18.1879L33.4303 17.8609L33.385 17.829L33.3328 17.8106L33.1999 18.1879ZM33.9714 17.9766L34.3232 18.1669L34.3254 18.1627L33.9714 17.9766ZM22.7143 18.671L23.0224 18.9261L23.0246 18.9234L22.7143 18.671ZM30.8 15.8332L30.9209 15.4519L30.9093 15.4483L30.8976 15.4453L30.8 15.8332ZM31.2286 16.5578L30.8438 16.4485L31.2286 16.5578ZM30.5429 17.0106L30.4514 17.4L30.4594 17.4019L30.4674 17.4034L30.5429 17.0106ZM23.5715 19.4559L23.2631 19.2011L23.2577 19.2077L23.2526 19.2144L23.5715 19.4559ZM22.7715 19.5163L22.4999 19.81L22.5111 19.8203L22.523 19.8297L22.7715 19.5163ZM29 13.003C35.0723 13.003 40.0286 18.206 40.0286 24.7087H40.8286C40.8286 17.8076 35.5563 12.203 29 12.203V13.003ZM17.9714 24.6785C17.9714 18.2067 22.9271 13.003 29 13.003V12.203C22.4443 12.203 17.1714 17.8069 17.1714 24.6785H17.9714ZM17.9714 24.7087V24.6785H17.1714V24.7087H17.9714ZM13.4 29.8106C13.4 27.2882 15.2803 25.2454 17.5951 25.108L17.5477 24.3094C14.7768 24.4739 12.6 26.899 12.6 29.8106H13.4ZM13.4 30.4144V29.8106H12.6V30.4144H13.4ZM17.8571 35.1464C15.4128 35.1464 13.4 33.0522 13.4 30.4144H12.6C12.6 33.452 14.93 35.9464 17.8571 35.9464V35.1464ZM18.1143 35.1464H17.8571V35.9464H18.1143V35.1464ZM20.4867 38.7533L18.4581 35.342L17.7705 35.7509L19.7991 39.1622L20.4867 38.7533ZM26.6857 42.3917C24.1483 42.3917 21.8473 41.0536 20.4871 38.7541L19.7986 39.1614C21.2955 41.6921 23.8517 43.1917 26.6857 43.1917V42.3917ZM27.0857 42.3917H26.6857V43.1917H27.0857V42.3917ZM29.2857 44.2031C28.4363 44.2031 27.6925 43.5677 27.4737 42.6945L26.6977 42.8889C26.9932 44.0686 28.0208 45.0031 29.2857 45.0031V44.2031ZM31.1714 42.188C31.1714 43.3164 30.3015 44.2031 29.2857 44.2031V45.0031C30.7842 45.0031 31.9714 43.7161 31.9714 42.188H31.1714ZM29.2857 40.1729C30.3015 40.1729 31.1714 41.0595 31.1714 42.188H31.9714C31.9714 40.6598 30.7842 39.3729 29.2857 39.3729V40.1729ZM27.4737 41.6814C27.6925 40.8082 28.4363 40.1729 29.2857 40.1729V39.3729C28.0208 39.3729 26.9932 40.3073 26.6977 41.487L27.4737 41.6814ZM26.6857 41.9842H27.0857V41.1842H26.6857V41.9842ZM20.769 38.4955C22.0366 40.664 24.2499 41.9842 26.6857 41.9842V41.1842C24.5501 41.1842 22.592 40.0289 21.4596 38.0918L20.769 38.4955ZM19.1146 35.7531L20.7718 38.5002L21.4568 38.087L19.7997 35.3398L19.1146 35.7531ZM19.8571 35.1464H19.4571V35.9464H19.8571V35.1464ZM20.6 34.3389C20.6 34.8032 20.2443 35.1464 19.8571 35.1464V35.9464C20.7271 35.9464 21.4 35.2029 21.4 34.3389H20.6ZM20.6 25.8861V34.3389H21.4V25.8861H20.6ZM19.8571 25.0785C20.2443 25.0785 20.6 25.4218 20.6 25.8861H21.4C21.4 25.022 20.7271 24.2785 19.8571 24.2785V25.0785ZM18.7143 25.0785H19.8571V24.2785H18.7143V25.0785ZM29 13.4106C23.0729 13.4106 18.3143 18.4711 18.3143 24.6785H19.1143C19.1143 18.8708 23.5557 14.2106 29 14.2106V13.4106ZM39.6857 24.6785C39.6857 18.4711 34.9271 13.4106 29 13.4106V14.2106C34.4443 14.2106 38.8857 18.8708 38.8857 24.6785H39.6857ZM38.1429 25.0785H39.2857V24.2785H38.1429V25.0785ZM37.4 25.8861C37.4 25.4218 37.7557 25.0785 38.1429 25.0785V24.2785C37.2729 24.2785 36.6 25.022 36.6 25.8861H37.4ZM37.4 34.3389V25.8861H36.6V34.3389H37.4ZM38.1429 35.1464C37.7557 35.1464 37.4 34.8032 37.4 34.3389H36.6C36.6 35.2029 37.2729 35.9464 38.1429 35.9464V35.1464ZM40.1429 35.1464H38.1429V35.9464H40.1429V35.1464ZM44.6 30.4144C44.6 33.0522 42.5872 35.1464 40.1429 35.1464V35.9464C43.07 35.9464 45.4 33.452 45.4 30.4144H44.6ZM44.6 29.8106V30.4144H45.4V29.8106H44.6ZM40.4049 25.108C42.7197 25.2454 44.6 27.2882 44.6 29.8106H45.4C45.4 26.899 43.2232 24.4739 40.4523 24.3094L40.4049 25.108ZM30.8286 42.188C30.8286 41.3239 30.1557 40.5804 29.2857 40.5804V41.3804C29.6729 41.3804 30.0286 41.7237 30.0286 42.188H30.8286ZM29.2857 43.7955C30.1557 43.7955 30.8286 43.052 30.8286 42.188H30.0286C30.0286 42.6522 29.6729 42.9955 29.2857 42.9955V43.7955ZM27.7429 42.188C27.7429 43.052 28.4158 43.7955 29.2857 43.7955V42.9955C28.8985 42.9955 28.5429 42.6522 28.5429 42.188H27.7429ZM29.2857 40.5804C28.4158 40.5804 27.7429 41.3239 27.7429 42.188H28.5429C28.5429 41.7237 28.8985 41.3804 29.2857 41.3804V40.5804ZM20.2571 34.3389V25.8861H19.4571V34.3389H20.2571ZM17.8571 34.7389H19.8571V33.9389H17.8571V34.7389ZM13.7429 30.4144C13.7429 32.7878 15.5586 34.7389 17.8571 34.7389V33.9389C16.0414 33.9389 14.5429 32.3881 14.5429 30.4144H13.7429ZM13.7429 29.8106V30.4144H14.5429V29.8106H13.7429ZM17.8571 25.4861C15.5586 25.4861 13.7429 27.4371 13.7429 29.8106H14.5429C14.5429 27.8369 16.0414 26.2861 17.8571 26.2861V25.4861ZM19.8571 25.4861H17.8571V26.2861H19.8571V25.4861ZM40.1429 34.7389C42.4414 34.7389 44.2571 32.7878 44.2571 30.4144H43.4571C43.4571 32.3881 41.9586 33.9389 40.1429 33.9389V34.7389ZM38.1429 34.7389H40.1429V33.9389H38.1429V34.7389ZM37.7429 25.8861V34.3389H38.5429V25.8861H37.7429ZM40.1429 25.4861H38.1429V26.2861H40.1429V25.4861ZM44.2571 29.8106C44.2571 27.4371 42.4414 25.4861 40.1429 25.4861V26.2861C41.9586 26.2861 43.4571 27.8369 43.4571 29.8106H44.2571ZM44.2571 30.4144V29.8106H43.4571V30.4144H44.2571ZM33.2839 17.3376C33.3591 17.3905 33.4704 17.47 33.5559 17.5152L33.9296 16.8078C33.9009 16.7926 33.8408 16.7513 33.7446 16.6835L33.2839 17.3376ZM33.0988 17.2133C33.1276 17.2285 33.1876 17.2698 33.2839 17.3376L33.7446 16.6835C33.6694 16.6306 33.558 16.5511 33.4725 16.5059L33.0988 17.2133ZM32.8758 17.242C32.9127 17.164 33.0016 17.1488 33.0553 17.1866L33.516 16.5326C33.0554 16.2082 32.4014 16.3741 32.1527 16.8998L32.8758 17.242ZM32.9284 17.5482C32.8743 17.5139 32.8525 17.4752 32.8438 17.4363C32.8339 17.392 32.8368 17.3244 32.8758 17.242L32.1527 16.8998C31.9427 17.3434 32.0082 17.912 32.5 18.2238L32.9284 17.5482ZM33.1731 17.7099C33.0979 17.657 32.9866 17.5775 32.9011 17.5323L32.5274 18.2397C32.5561 18.2549 32.6162 18.2962 32.7124 18.364L33.1731 17.7099ZM33.1694 17.7074L33.1694 17.7073L32.7162 18.3666L32.7162 18.3666L33.1694 17.7074ZM33.3328 17.8106C33.3098 17.8025 33.2716 17.7793 33.1732 17.7099L32.7125 18.364C32.7855 18.4154 32.9187 18.5129 33.067 18.5652L33.3328 17.8106ZM33.4856 17.8785C33.4871 17.8785 33.4847 17.8785 33.4788 17.8776C33.473 17.8767 33.466 17.8752 33.4584 17.8729C33.4416 17.8678 33.432 17.8621 33.4303 17.8609L32.9696 18.5149C33.1288 18.6271 33.3253 18.6785 33.4856 18.6785V17.8785ZM33.6195 17.7863C33.5915 17.838 33.5673 17.8563 33.5556 17.8633C33.5437 17.8704 33.5238 17.8785 33.4856 17.8785V18.6785C33.8331 18.6785 34.1393 18.5069 34.3232 18.1669L33.6195 17.7863ZM33.5286 17.4993C33.6384 17.5689 33.6632 17.7032 33.6173 17.7904L34.3254 18.1627C34.5652 17.7066 34.4187 17.1163 33.957 16.8236L33.5286 17.4993ZM29 15.2219C26.4461 15.2219 24.0482 16.397 22.404 18.4186L23.0246 18.9234C24.5233 17.0808 26.6968 16.0219 29 16.0219V15.2219ZM30.8976 15.4453C30.2605 15.285 29.627 15.2219 29 15.2219V16.0219C29.573 16.0219 30.1396 16.0795 30.7024 16.2211L30.8976 15.4453ZM31.6134 16.667C31.6935 16.3849 31.6212 16.1107 31.4933 15.905C31.3662 15.7008 31.164 15.529 30.9209 15.4519L30.6792 16.2145C30.7217 16.228 30.7767 16.2676 30.8139 16.3275C30.8503 16.386 30.8494 16.4287 30.8438 16.4485L31.6134 16.667ZM30.4674 17.4034C31.0183 17.5092 31.4806 17.1346 31.6134 16.667L30.8438 16.4485C30.8051 16.5847 30.696 16.6327 30.6183 16.6178L30.4674 17.4034ZM29 17.2295C29.4827 17.2295 29.9663 17.2861 30.4514 17.4L30.6343 16.6212C30.0909 16.4936 29.5459 16.4295 29 16.4295V17.2295ZM23.8799 19.7106C25.1798 18.1368 27.0405 17.2295 29 17.2295V16.4295C26.7881 16.4295 24.706 17.4542 23.2631 19.2011L23.8799 19.7106ZM23.1429 20.0672C23.4289 20.0672 23.6943 19.9563 23.8904 19.6973L23.2526 19.2144C23.2296 19.2447 23.2139 19.2535 23.2068 19.2569C23.1988 19.2607 23.1809 19.2672 23.1429 19.2672V20.0672ZM22.523 19.8297C22.6711 19.9471 22.8719 20.0672 23.1429 20.0672V19.2672C23.131 19.2672 23.1208 19.2653 23.106 19.2589C23.0882 19.2511 23.0613 19.2356 23.0199 19.2028L22.523 19.8297ZM22.4062 18.4158C22.0695 18.8225 22.1168 19.4558 22.4999 19.81L23.043 19.2225C22.969 19.1541 22.9591 19.0025 23.0224 18.9261L22.4062 18.4158Z" fill="white"/>
</svg>
